<svg width="77" height="112" viewBox="0 0 77 112" fill="none" xmlns="http://www.w3.org/2000/svg">
<path d="M50.0075 46.1482L41.5769 45.0445C40.6361 44.9213 39.686 44.9186 38.7486 45.0308L38.1103 12.7327C38.0547 9.91393 35.7244 7.67407 32.9056 7.72975C30.0868 7.78543 27.847 10.1157 27.9027 12.9345L28.5557 45.9835C28.5771 47.0612 27.8719 48.0186 26.8364 48.3181C25.573 48.6835 24.2525 47.9556 23.8871 46.6921L15.1539 16.499C14.3579 13.7469 11.4343 12.0769 8.69871 12.9279C6.05191 13.7511 4.53923 16.5453 5.31289 19.2201L30.7971 107.326C31.0872 108.329 32.1356 108.907 33.1386 108.617L57.0248 101.708C58.0278 101.418 58.6058 100.37 58.3157 99.3669L52.5039 79.274L55.5185 78.402C61.0848 76.792 64.292 70.9745 62.682 65.4081L59.4598 54.2679C58.2032 49.923 54.4922 46.7352 50.0075 46.1482Z" fill="#FFCDBE"/>
<path d="M10.9435 17.7174L19.6767 47.9107C20.0422 49.1742 21.3626 49.9022 22.6261 49.5367C23.5537 49.2684 24.2144 48.4715 24.3271 47.5337C24.1311 47.2931 23.9793 47.0099 23.8876 46.6928L15.1544 16.4994C14.3584 13.7473 11.4347 12.0773 8.69919 12.9283C7.97797 13.1526 7.34172 13.5242 6.81222 13.9989C8.71296 14.332 10.3736 15.747 10.9435 17.7174Z" fill="#EBAE9D"/>
<path d="M50.0065 46.1482L41.5759 45.0445C40.635 44.9213 39.685 44.9186 38.7476 45.0308L38.1093 12.7327C38.0537 9.91393 35.7234 7.67407 32.9046 7.72975C31.6417 7.75471 30.496 8.23723 29.6201 9.01452C32.0059 9.4027 33.8493 11.4478 33.8986 13.9506L34.4751 43.1203C34.5071 44.7361 35.734 46.0529 37.337 46.2588C37.3465 46.26 45.7958 47.3661 45.7958 47.3661C50.2805 47.9531 53.9916 51.1411 55.2483 55.4859L58.4705 66.626C60.0805 72.1923 56.8733 78.0099 51.307 79.6199L48.2924 80.4919L54.1041 100.585C54.3942 101.588 53.8163 102.636 52.813 102.926L57.0238 101.708C58.0268 101.418 58.6048 100.37 58.3146 99.3669L52.5029 79.274L55.5175 78.402C61.0838 76.792 64.291 70.9745 62.681 65.4082L59.4587 54.2679C58.2022 49.923 54.4912 46.7352 50.0065 46.1482Z" fill="#EBAE9D"/>
<path d="M38.3903 44.9492L37.7255 54.7816C37.5281 57.7024 39.7376 60.2304 42.6607 60.4281C45.5837 60.6257 48.1136 58.4181 48.3111 55.4973L48.9758 45.6649C49.1733 42.7441 46.9637 40.2161 44.0407 40.0184C41.1174 39.8209 38.5877 42.0284 38.3903 44.9492Z" fill="#FAA68E"/>
<path d="M48.9762 45.665L48.3115 55.4975C48.114 58.4182 50.3236 60.9462 53.2466 61.1439C56.1697 61.3415 58.6995 59.1339 58.897 56.2132L59.5618 46.3807C59.7592 43.4599 57.5497 40.9319 54.6266 40.7343C51.7034 40.5367 49.1737 42.7442 48.9762 45.665Z" fill="#E09380"/>
<path d="M42.437 55.6393L42.256 55.1021C41.192 51.944 37.5977 50.4371 34.6004 51.8942C30.2403 54.014 24.2487 56.945 19.9218 59.0643C16.8642 60.5619 15.6008 64.2552 17.1004 67.3117L25.8562 85.1593C26.5525 86.5787 28.2676 87.1648 29.687 86.4685L37.1779 82.7935C40.5191 81.1543 41.8985 77.1166 40.2586 73.7758L40.243 73.7443C38.3553 69.8964 34.8739 67.355 30.9857 66.5177L39.6807 62.2521C42.0333 61.0979 43.2735 58.1222 42.437 55.6393Z" fill="#E09380"/>
<path d="M59.3838 41.556C58.19 40.1902 56.5352 39.3706 54.7247 39.2481C52.9143 39.1257 51.1644 39.7151 49.7976 40.9077C49.6066 41.0744 49.4264 41.25 49.2571 41.4338C48.1185 39.8005 46.2762 38.6774 44.1389 38.5323C42.677 38.4339 41.2905 38.807 40.1286 39.5215L39.6003 12.703C39.5273 9.06677 36.5103 6.16769 32.876 6.24029C31.1145 6.27424 29.472 6.99268 28.2517 8.26284C27.0313 9.53281 26.3786 11.202 26.4138 12.9627L27.066 46.0141C27.0744 46.4155 26.8095 46.7741 26.4222 46.8861C25.9497 47.0228 25.4546 46.7504 25.3182 46.2792L16.5848 16.085C16.0841 14.3539 14.882 12.8687 13.2866 12.01C11.7154 11.1643 9.93317 10.9864 8.25816 11.5052C4.85459 12.5614 2.89133 16.2075 3.88216 19.6331L6.41916 28.4042C6.64774 29.1945 7.47357 29.6499 8.26404 29.4213C9.05452 29.1927 9.50971 28.3667 9.28112 27.5764L6.74412 18.8053C6.20103 16.9276 7.27645 14.9292 9.14227 14.3502C10.0514 14.0664 11.0143 14.1702 11.8746 14.6332C12.7694 15.115 13.4431 15.9457 13.7228 16.9128L22.4563 47.107C23.049 49.1563 25.1995 50.3412 27.25 49.7481C28.9313 49.2618 30.0805 47.7014 30.0447 45.9543L29.3924 12.9036C29.3731 11.9383 29.731 11.0232 30.3999 10.3271C31.0687 9.63123 31.9685 9.23759 32.9348 9.21905C34.9277 9.17913 36.582 10.7687 36.6218 12.7621L37.2214 43.1973C37.0499 43.7211 36.9402 44.2741 36.9015 44.8485L36.563 49.8628C35.6654 49.9212 34.7775 50.152 33.9504 50.5542C29.596 52.6709 23.5624 55.6227 19.2675 57.7261C18.8868 57.9125 18.5262 58.1275 18.1874 58.3681L11.2127 34.2543C10.9841 33.4641 10.1583 33.0086 9.36778 33.2373C8.57731 33.4659 8.12212 34.2919 8.3507 35.0821L15.8584 61.0385C15.6779 61.3838 15.5222 61.7454 15.3937 62.1211C14.7319 64.0557 14.8634 66.132 15.7641 67.9678L20.8772 78.3906L29.3665 107.741C29.8844 109.531 31.7627 110.567 33.5533 110.049L57.4393 103.14C59.2299 102.622 60.2653 100.744 59.7474 98.9532L54.3495 80.291L55.9333 79.8329C62.2796 77.9973 65.9491 71.341 64.1135 64.9949C64.1135 64.9949 60.7102 53.2687 60.606 52.9864L61.0459 46.4812C61.1682 44.6715 60.5779 42.9224 59.3838 41.556ZM51.7563 43.1525C52.5237 42.4827 53.5067 42.1518 54.5236 42.2206C55.5407 42.2893 56.47 42.7495 57.1404 43.5166C57.8106 44.2834 58.1418 45.2648 58.0733 46.2802L57.4083 56.1127C57.2667 58.2093 55.4434 59.7996 53.3449 59.6577C52.328 59.5889 51.3987 59.1287 50.7282 58.3616C50.0581 57.5948 49.7269 56.6134 49.7954 55.598L50.4601 45.7652C50.5287 44.75 50.9891 43.8221 51.7563 43.1525ZM39.8739 45.0495C40.0156 42.9537 41.8383 41.3637 43.9379 41.5049C46.0368 41.6475 47.629 43.4688 47.4876 45.5647L46.823 55.3976C46.7544 56.4129 46.294 57.3409 45.5264 58.0105C45.0795 58.4005 44.5601 58.6755 44.0027 58.8236C44.2789 57.6202 44.249 56.3496 43.8496 55.164L43.6686 54.6263C43.0246 52.7148 41.5883 51.1718 39.7283 50.3927C39.6587 50.3636 39.5888 50.3357 39.5184 50.3089L39.8739 45.0495ZM55.1055 76.971L46.8113 79.37C46.0209 79.5986 45.5657 80.4246 45.7943 81.2149C46.0229 82.0052 46.8487 82.4606 47.6392 82.232L51.4875 81.1188L56.8854 99.781C56.9469 99.9935 56.8241 100.216 56.6115 100.278L32.7255 107.187C32.513 107.248 32.2899 107.125 32.2285 106.913L26.7304 87.9044C27.8677 88.3853 29.1802 88.3766 30.3442 87.8059L33.0685 86.4694C33.8071 86.1071 34.1122 85.2145 33.7497 84.476C33.3873 83.7372 32.4946 83.4331 31.7563 83.7947L29.0319 85.1312C28.3512 85.4654 27.5278 85.1829 27.1944 84.5034L18.4386 66.6556C17.301 64.3361 18.2573 61.5384 20.578 60.4018C24.8709 58.2993 30.9018 55.3489 35.2528 53.2336C36.2955 52.7267 37.5075 52.6924 38.5775 53.1405C39.6482 53.589 40.4747 54.4772 40.8453 55.5769L41.0262 56.1144C41.3951 57.2096 41.1884 58.4651 40.5812 59.4604C40.5592 59.4923 40.5384 59.5254 40.519 59.5592C40.1459 60.1344 39.6365 60.6146 39.0259 60.914L30.3309 65.1799C29.7613 65.4594 29.4312 66.0688 29.5085 66.6984C29.5856 67.3282 30.0531 67.84 30.6735 67.9733C34.2839 68.751 37.2848 71.0934 38.9091 74.4038L38.9228 74.4319C39.9802 76.5858 39.4466 79.1771 37.6247 80.733C36.9992 81.2673 36.9252 82.2076 37.4595 82.8331C37.9938 83.4585 38.9339 83.5327 39.5598 82.9983C42.4168 80.558 43.2548 76.4953 41.5955 73.1154L41.5819 73.0877C40.1133 70.0943 37.7406 67.7334 34.8301 66.291L40.3385 63.5886C41.1656 63.1828 41.8845 62.6022 42.4695 61.9079C42.4989 61.9101 42.5283 61.9123 42.5576 61.9142C43.3635 61.9691 44.1574 61.8826 44.9111 61.6646C45.8504 61.3929 46.7268 60.9167 47.4856 60.2548C47.6754 60.089 47.8548 59.9143 48.0233 59.7318C48.1655 59.9353 48.3196 60.1324 48.4853 60.3221C49.6791 61.6879 51.3337 62.5076 53.1442 62.63C53.9565 62.685 54.7451 62.5941 55.4852 62.3801C57.1184 61.9077 58.5135 60.8349 59.3949 59.4024L61.2517 65.822C62.6306 70.5905 59.8736 75.5918 55.1055 76.971Z" fill="black"/>
</svg>
