<svg width="43" height="36" viewBox="0 0 43 36" fill="none" xmlns="http://www.w3.org/2000/svg">
<path d="M37.3323 16.746C36.6592 16.6238 36.0069 16.4573 35.3939 16.251C30.8999 14.7398 28.3594 11.068 27.5236 6.34127C27.4443 5.8934 26.7983 5.8934 26.7189 6.34127C25.7475 11.8339 22.5144 15.718 16.938 16.7529C16.4945 16.8352 16.4947 17.4742 16.9383 17.5564C22.4631 18.5783 25.7527 22.4552 26.7208 27.9039C26.7818 28.2472 27.1442 28.2489 27.1236 28.2409C27.3218 28.2407 27.4913 28.0982 27.5256 27.903C28.0185 25.0931 29.4023 21.2757 33.1962 19.0469C34.4082 18.3357 35.8002 17.832 37.3332 17.5498C37.5273 17.5141 37.6681 17.3449 37.6679 17.1475C37.6676 16.9502 37.5265 16.7812 37.3323 16.746Z" fill="#F4A32C"/>
<path d="M37.3323 16.746C36.6592 16.6238 36.0069 16.4573 35.3939 16.251C30.8999 14.7398 28.3594 11.068 27.5236 6.34127C27.4443 5.8934 26.7983 5.8934 26.7189 6.34127C25.7475 11.8339 22.5144 15.718 16.938 16.7529C16.4945 16.8352 16.4947 17.4742 16.9383 17.5564C22.4631 18.5783 25.7527 22.4552 26.7208 27.9039C26.7818 28.2472 27.1442 28.2489 27.1236 28.2409C27.3218 28.2407 27.4913 28.0982 27.5256 27.903C28.0185 25.0931 29.4023 21.2757 33.1962 19.0469C34.4082 18.3357 35.8002 17.832 37.3332 17.5498C37.5273 17.5141 37.6681 17.3449 37.6679 17.1475C37.6676 16.9502 37.5265 16.7812 37.3323 16.746Z" fill="#F4A32C"/>
<path d="M21.2077 15.1614C19.8985 15.9618 18.447 16.473 16.938 16.753C16.4945 16.8353 16.4947 17.4743 16.9383 17.5565C22.4631 18.5784 25.7527 22.4553 26.7208 27.904C26.7818 28.2473 27.1442 28.2491 27.1236 28.241C27.3218 28.2408 27.4913 28.0983 27.5256 27.9031C27.7984 26.3476 28.3453 24.4836 29.422 22.7511C27.9611 18.6864 25.1708 16.1562 21.2077 15.1614Z" fill="#E89528"/>
<path d="M18.3535 28.6324C16.7638 28.1052 15.7122 26.9205 15.2005 25.2832C15.1086 24.9892 14.7987 24.9924 14.8106 24.9965C14.632 24.9965 14.4741 25.1125 14.4207 25.283C13.925 26.8655 12.8876 28.0762 11.2676 28.6309C10.9006 28.7565 10.9002 29.2781 11.2676 29.4039C12.877 29.9548 13.9212 31.156 14.4211 32.7534C14.5134 33.048 14.8227 33.0437 14.8118 33.04C14.9906 33.0397 15.1486 32.923 15.2014 32.7521C15.5711 31.5563 16.2233 30.6318 17.14 30.0042L17.1401 30.0042C18.1423 29.3176 18.6342 29.5168 18.6335 29.0196C18.6332 28.8438 18.5204 28.6877 18.3535 28.6324Z" fill="#F7E7A1"/>
<path d="M12.8965 27.7458C12.885 27.7419 12.8744 27.7363 12.8635 27.7314C12.3934 28.1354 11.8539 28.4302 11.2676 28.631C10.9006 28.7567 10.9002 29.2782 11.2676 29.4041C12.877 29.9549 13.9212 31.1562 14.4211 32.7535C14.5134 33.0481 14.8227 33.0439 14.8118 33.0401C15.3872 33.0391 15.0812 32.3519 16.0398 31.0647C15.5299 29.4637 14.4798 28.2878 12.8965 27.7458Z" fill="#EAD786"/>
<path d="M11.2715 6.59645C9.6755 6.06712 8.62845 4.87792 8.11849 3.2473C8.02658 2.95327 7.71678 2.95662 7.72855 2.96062C7.54995 2.96062 7.39203 3.07663 7.33868 3.24706C6.844 4.82612 5.80872 6.03894 4.18561 6.59489C3.81854 6.72055 3.81813 7.24211 4.18561 7.36792C5.79891 7.9202 6.84048 9.12427 7.33909 10.7173C7.43133 11.0119 7.74072 11.0077 7.72969 11.0039C7.90853 11.0036 8.06653 10.8869 8.11939 10.7161C8.73148 8.73645 9.96422 8.06105 10.0582 7.96816C11.0574 7.28345 11.5522 7.47813 11.5515 6.98361C11.5511 6.80772 11.4384 6.65184 11.2715 6.59645Z" fill="#F4D44E"/>
<path d="M5.65752 5.79761C4.53115 6.69817 3.91016 6.44629 3.91016 6.98125C3.91016 7.15593 4.0211 7.31123 4.18638 7.36777C5.79968 7.92005 6.84125 9.12412 7.33986 10.7172C7.43209 11.0118 7.74149 11.0075 7.73046 11.0038C8.27702 11.0028 8.01444 10.3645 8.88167 9.13278C7.98879 6.37644 5.85924 5.92947 5.65752 5.79761Z" fill="#E8C842"/>
<path d="M21.2758 28.357C20.9419 28.2877 19.3762 28.5574 17.8841 27.7532C17.5859 27.5925 17.2144 27.7041 17.0538 28.0019C16.8931 28.2998 17.0046 28.6715 17.3024 28.8322C17.4296 28.9007 17.5571 28.9629 17.6847 29.0196C16.4344 29.5687 15.4243 30.5601 14.8342 32.0253C14.2743 30.6546 13.3147 29.6124 11.9824 29.0179C13.3412 28.4116 14.2865 27.3511 14.8342 26.0108C14.9515 26.3003 15.0585 26.5014 15.0626 26.5098C15.2164 26.8112 15.5856 26.9308 15.8871 26.777C16.1886 26.6232 16.3082 26.2541 16.1543 25.9525C16.1525 25.9443 15.4106 24.5903 15.4983 22.7881C15.5484 22.4503 15.3116 22.1145 14.9506 22.0481C14.622 21.9834 14.258 22.1918 14.1732 22.5609C14.1294 22.7521 14.4464 26.0615 12.0448 27.5969C10.4814 28.5943 8.70638 28.2844 8.37567 28.3594C7.67657 28.5185 7.67715 29.5175 8.37567 29.6766C8.7023 29.7502 10.5121 29.441 12.076 30.4591C14.3986 31.9723 14.1423 35.1938 14.1578 35.338C14.1578 36.0937 15.2376 36.2638 15.4759 35.5265C15.5565 35.2754 15.2173 32.0805 17.5106 30.5102C19.0215 29.4749 20.8938 29.7246 21.2196 29.6879C21.9653 29.6042 22.032 28.5169 21.2758 28.357Z" fill="black"/>
<path d="M41.9455 16.4011C40.8252 16.2766 32.8391 17.3984 29.3489 10.0704C27.514 6.21589 27.9847 2.72156 27.8847 2.28317C27.7946 1.88906 27.422 1.65295 27.0657 1.69845C26.6595 1.74445 26.3899 2.08088 26.3899 2.4196V4.00978C26.1131 9.47639 23.6253 14.1299 18.4014 15.7679C15.3847 16.7142 12.7657 16.3055 12.2768 16.4124C11.4926 16.5904 11.4867 17.7166 12.2851 17.8939C12.9688 18.0382 18.1123 17.2049 22.1066 20.5221C22.3671 20.7383 22.7534 20.7024 22.9697 20.4422C23.1859 20.1817 23.1502 19.7955 22.8898 19.5791C21.5192 18.4409 19.8765 17.6275 17.9968 17.155C22.9455 15.9085 25.983 12.376 27.1456 7.42788C28.2986 12.3458 31.3109 15.9095 36.3129 17.1497C31.3609 18.3889 28.2814 21.9184 27.1385 26.853C26.713 25.0443 26.0032 23.3132 24.9363 21.8015C24.7411 21.5249 24.3587 21.459 24.0822 21.6541C23.8056 21.8493 23.7397 22.2316 23.9348 22.5082C24.3109 23.041 24.6494 23.6216 24.9412 24.234C26.6724 27.8709 26.3665 31.571 26.3916 31.9279C26.4562 32.8397 27.9437 32.8856 27.8972 31.7582C27.8131 29.7262 27.9707 22.8426 33.5308 19.5761C37.2826 17.3742 41.4563 18.0174 42.0134 17.8921C42.8531 17.7015 42.7622 16.4927 41.9455 16.4011Z" fill="black"/>
<path d="M8.4172 13.4094C8.45462 13.1999 8.29106 11.6065 9.06719 10.0643C9.21931 9.76193 9.09758 9.39355 8.7953 9.24134C8.49293 9.08906 8.12455 9.21095 7.97235 9.51324C7.8949 9.66724 7.82292 9.82696 7.7565 9.99166C7.19695 8.62003 6.23732 7.57707 4.90376 6.98181C6.26249 6.3752 7.20774 5.315 7.75544 3.97457C8.30274 5.3248 9.24039 6.38043 10.6049 6.98394C10.4712 7.043 10.3374 7.10812 10.2047 7.17985C9.90689 7.34088 9.79619 7.71269 9.9573 8.01048C10.1183 8.30819 10.4901 8.41889 10.7879 8.25786C12.2343 7.47535 13.8145 7.68818 14.141 7.65182C14.8906 7.56596 14.9475 6.47937 14.1971 6.32054C13.7822 6.23452 10.5108 6.81368 9.04938 3.86534C8.36238 2.48219 8.41009 0.944298 8.41949 0.75149C8.46867 0.417752 8.23697 0.0784585 7.87121 0.0117108C7.54466 -0.0529126 7.1789 0.154275 7.09434 0.525594C7.05071 0.715951 7.36746 4.02531 4.96609 5.56075C3.45745 6.52316 1.69669 6.27455 1.36483 6.31156C0.619167 6.39636 0.558874 7.47225 1.29686 7.6403C1.65322 7.72053 3.42469 7.39913 4.99722 8.42281C6.67318 9.51463 7.02146 11.5198 7.07906 12.6286C7.08699 13.2622 7.05896 13.3359 7.10872 13.4903C7.2003 13.7737 7.4592 13.964 7.75283 13.964C8.09 13.9641 8.36311 13.7148 8.4172 13.4094Z" fill="black"/>
</svg>
