<svg width="101" height="116" viewBox="0 0 101 116" fill="none" xmlns="http://www.w3.org/2000/svg">
<path d="M66.8877 82.8354L39.2593 75.3975L35.4485 89.6873L63.077 97.1252L66.8877 82.8354Z" fill="#D6895E"/>
<path d="M63.0437 97.1662L35.4189 89.7305L32.1442 102.008L59.7689 109.444L63.0437 97.1662Z" fill="#F66722"/>
<path d="M66.8857 82.8041L61.2451 81.2861L57.4247 95.6072L63.0653 97.1252L66.8857 82.8041Z" fill="#C4735D"/>
<path d="M63.0505 97.1371L57.4111 95.6191L54.1287 107.926L59.7681 109.444L63.0505 97.1371Z" fill="#DF4B0F"/>
<path d="M38.3526 44.0979C31.4926 34.9025 23.4756 32.9921 17.8404 36.59C16.5859 37.391 16.2243 39.0575 17.0329 40.3125L26.1195 54.414C28.8171 58.6004 33.8288 60.1905 37.3133 57.9657L37.5305 57.8271" fill="#D6895E"/>
<path d="M97.4347 28.2978C98.3038 25.0381 96.3557 21.6813 93.0836 20.8002C89.8115 19.9191 86.4545 21.8473 85.5854 25.1069L76.814 47.045L39.5498 37.0101L32.3669 57.0117C29.02 69.5656 36.5921 82.6134 49.1937 86.0069L53.1804 87.0804C65.782 90.4739 78.8308 82.9791 82.1777 70.4252L85.324 58.6238C85.3305 58.5993 85.3362 58.5748 85.3426 58.5502C85.3458 58.5381 85.35 58.5264 85.3532 58.5142L97.4347 28.2978Z" fill="#D6895E"/>
<path d="M49.1116 27.4662C45.8374 26.5847 42.4782 28.5136 41.6085 31.7746L38.7219 42.5989C37.8523 45.8599 39.8016 49.2179 43.0759 50.0994C46.3501 50.9809 49.7094 49.052 50.579 45.791L53.4656 34.9666C54.3352 31.7057 52.3859 28.3476 49.1116 27.4662Z" fill="#D6895E"/>
<path d="M60.8304 30.6068C57.5561 29.7253 54.1969 31.6542 53.3273 34.9152L50.4407 45.7396C49.5711 49.0005 51.5204 52.3586 54.7946 53.24C58.0689 54.1215 61.4281 52.1926 62.2977 48.9317L65.1843 38.1073C66.0539 34.8463 64.1046 31.4883 60.8304 30.6068Z" fill="#D6895E"/>
<path d="M72.7327 33.7972C69.4585 32.9157 66.0992 34.8447 65.2296 38.1056L62.343 48.93C61.4734 52.1909 63.4227 55.549 66.697 56.4305C69.9712 57.3119 73.3305 55.383 74.2001 52.1221L77.0867 41.2977C77.9563 38.0368 76.007 34.6787 72.7327 33.7972Z" fill="#D6895E"/>
<path d="M97.4315 28.2617C98.3015 25.0003 96.3514 21.6417 93.076 20.7601C92.0552 20.4853 91.0262 20.4838 90.0669 20.7103C91.653 22.2078 92.3905 24.4987 91.7917 26.7437L79.6979 56.9764C79.6946 56.9886 79.6905 57.0003 79.6873 57.0125C79.6807 57.037 79.6752 57.0616 79.6686 57.0861L76.5192 68.8939C73.2422 81.1795 60.6741 88.6208 48.3213 85.7636C48.5926 85.847 48.8653 85.9276 49.1414 86.002L53.1322 87.0761C65.7466 90.4714 78.8087 82.9725 82.159 70.4119L85.3085 58.6041C85.315 58.5796 85.3208 58.5551 85.3271 58.5305C85.3304 58.5183 85.3345 58.5066 85.3377 58.4944L97.4315 28.2617Z" fill="#C4735D"/>
<path d="M49.109 27.4612C48.088 27.1864 47.0588 27.1849 46.0993 27.4115C47.6856 28.9091 48.4232 31.2003 47.8242 33.4456L44.9358 44.273C44.3368 46.5183 42.5574 48.1321 40.4381 48.6325C41.1562 49.3105 42.0483 49.8261 43.0693 50.1009C46.3453 50.9825 49.7064 49.0529 50.5765 45.7912L53.465 34.9638C54.3352 31.7017 52.3849 28.3428 49.109 27.4612Z" fill="#C4735D"/>
<path d="M60.7851 30.5897C59.7733 30.3174 58.7539 30.314 57.8017 30.5343C59.4015 32.0315 60.1481 34.3319 59.5466 36.5864L56.6581 47.4139C56.0567 49.6683 54.2651 51.2857 52.1342 51.7789C52.8489 52.4478 53.7337 52.9568 54.7455 53.2291C58.0215 54.1107 61.3826 52.1811 62.2527 48.9194L65.1412 38.0919C66.0113 34.8302 64.0611 31.4713 60.7851 30.5897Z" fill="#C4735D"/>
<path d="M72.7301 33.7893C71.7091 33.5145 70.6799 33.5131 69.7204 33.7396C71.3067 35.2372 72.0443 37.5284 71.4453 39.7737L68.5569 50.6012C67.9579 52.8464 66.1785 54.4602 64.0592 54.9606C64.7773 55.6387 65.6694 56.1542 66.6904 56.429C69.9664 57.3106 73.3275 55.381 74.1976 52.1194L77.0861 41.2919C77.9563 38.0298 76.006 34.6709 72.7301 33.7893Z" fill="#C4735D"/>
<path d="M93.4584 19.4343C89.4508 18.355 85.3255 20.6949 84.2079 24.6591L78.5221 37.9654C77.8725 35.376 75.8712 33.1977 73.1097 32.4541C70.6532 31.7925 68.1539 32.4173 66.3288 33.9116C65.4916 31.7003 63.6378 29.9033 61.1813 29.2418C58.781 28.5953 56.3383 29.1757 54.5251 30.5967C53.6618 28.4549 51.8351 26.7248 49.4347 26.0784C45.3916 24.9896 41.2289 27.3808 40.1552 31.4085L37.6765 40.706C34.9147 37.2097 31.1915 34.7498 27.1793 33.8322C23.4437 32.977 19.8214 33.5053 16.9795 35.3198C16.0453 35.9164 15.4014 36.8411 15.1666 37.9236C14.9318 39.006 15.1341 40.117 15.7363 41.0515L24.8281 55.1607C26.1962 57.2838 28.1612 58.9019 30.3501 59.7444C29.3345 67.1959 31.7701 74.5315 36.5849 79.9086L34.0847 89.2869L30.8057 101.586C30.5991 102.361 31.0622 103.159 31.84 103.369L59.4993 110.817C60.2771 111.027 61.0752 110.568 61.2817 109.794L64.5607 97.494L67.0434 88.1812C74.8837 85.6611 81.3179 79.3525 83.5882 70.8365L86.7408 59.0111L91.466 47.2146C91.764 46.4704 91.3997 45.6232 90.6523 45.3227C89.9043 45.0218 89.0571 45.3817 88.759 46.1259L84.3268 57.1913C84.2102 57.3403 84.121 57.5148 84.0692 57.7092L80.7717 70.0781C78.7153 77.7918 72.7949 83.4573 65.6327 85.5711C65.5048 85.5896 65.3814 85.6253 65.2644 85.6758C61.561 86.7 57.5414 86.7798 53.5609 85.7079L49.5748 84.6344C45.5558 83.5521 42.0862 81.4332 39.3769 78.6458C39.3031 78.5451 39.2159 78.4539 39.1176 78.3743C34.0161 72.9469 31.7378 65.1028 33.7848 57.4246C33.9913 56.6497 33.5282 55.8517 32.7505 55.6423C31.9727 55.4328 31.1747 55.8912 30.9681 56.6661C30.9529 56.7231 30.9395 56.7801 30.9249 56.8371C29.4962 56.1758 28.2119 55.0456 27.2784 53.5966L18.1866 39.4873C18.0061 39.2073 17.9454 38.8746 18.016 38.5502C18.0862 38.2258 18.2792 37.9488 18.5593 37.77C20.7388 36.3783 23.5733 35.9859 26.5401 36.6652C30.522 37.5767 34.1869 40.3313 36.602 44.224C36.7164 44.4084 36.8661 44.5574 37.0359 44.6701C37.2482 47.8184 39.4342 50.6391 42.6564 51.5068C45.0568 52.1533 47.4994 51.5729 49.3126 50.1519C50.176 52.2937 52.0027 54.0238 54.4031 54.6702C56.8596 55.3317 59.3589 54.7069 61.184 53.2126C62.0213 55.4239 63.875 57.221 66.3315 57.8825C70.3743 58.9712 74.5371 56.58 75.6108 52.5523L75.9856 51.1465C76.0829 51.0352 76.1655 50.908 76.2267 50.7647L86.929 25.7185C86.9562 25.655 86.9787 25.5897 86.9965 25.5229C87.6577 23.0425 90.2213 21.5701 92.711 22.2405C95.1747 22.904 96.6572 25.4208 96.0473 27.8767L91.6872 38.7818C91.3895 39.5262 91.7544 40.3731 92.5022 40.6733C93.25 40.9733 94.0973 40.6132 94.395 39.8687L98.7893 28.8778C98.8108 28.8242 98.8288 28.7693 98.8437 28.7136C99.9168 24.6855 97.5012 20.523 93.4584 19.4343ZM52.8123 88.5138C56.5228 89.513 60.2634 89.627 63.8092 88.9882L61.7439 96.7353L58.839 107.632L33.9963 100.942L36.5272 91.4483L53.3829 95.9875C54.1607 96.1969 54.9587 95.7385 55.1653 94.9637C55.3718 94.1888 54.9087 93.3908 54.131 93.1814L37.2753 88.6422L38.9789 82.2516C41.7494 84.6231 45.0766 86.4306 48.8261 87.4404L52.8123 88.5138ZM43.4036 48.7005C40.9138 48.03 39.4261 45.4663 40.0874 42.9859L42.9717 32.1668C43.6329 29.6864 46.1967 28.2138 48.6865 28.8843C50.9216 29.4862 52.348 31.6139 52.138 33.8375C52.0478 34.0756 51.9688 34.3204 51.9018 34.5717L49.0175 45.3908C48.9505 45.6421 48.8971 45.8939 48.8568 46.1453C47.9325 48.1766 45.6389 49.3025 43.4036 48.7005ZM60.865 48.5813C60.2037 51.0617 57.64 52.5343 55.1502 51.8638C52.9151 51.2619 51.4887 49.1342 51.6987 46.9106C51.7889 46.6725 51.8679 46.4277 51.9348 46.1764L54.8192 35.3573C54.8861 35.106 54.9396 34.8542 54.9799 34.6028C55.9042 32.5715 58.198 31.4457 60.4331 32.0476C62.9229 32.7181 64.4106 35.2818 63.7493 37.7622L60.865 48.5813ZM72.7934 51.7936C72.1322 54.274 69.5686 55.7467 67.0788 55.0762C64.5891 54.4057 63.1013 51.842 63.7626 49.3616L66.6469 38.5425C67.3082 36.0621 69.872 34.5895 72.3617 35.26C74.8515 35.9304 76.339 38.4941 75.6777 40.9745L72.7934 51.7936Z" fill="black"/>
</svg>
