<svg width="29" height="36" viewBox="0 0 29 36" fill="none" xmlns="http://www.w3.org/2000/svg">
<path d="M13.3594 30.4851V35.4727H15.4688V28.3757H14.4141L13.3594 30.4851Z" fill="#FFF9E0"/>
<path d="M15.4688 23.2832H13.3594V30.485L15.4688 28.3757V23.2832Z" fill="#FFF1B8"/>
<path d="M17.6702 5.63696L14.4141 14.4141L16.5234 15.3409H27.3741L17.6702 5.63696Z" fill="#44CCFF"/>
<path d="M27.3741 15.3408C26.8017 14.7684 26.01 14.4141 25.1367 14.4141H23.0273L26.1914 26.1914L26.5001 26.5001C27.1645 27.1645 28.3008 26.6941 28.3008 25.7548V17.5781C28.3008 16.7048 27.9464 15.9131 27.3741 15.3408Z" fill="#2088CB"/>
<path d="M23.0273 14.4141H14.4141V20.4307H20.4307L26.1914 26.1914V17.5781C26.1914 15.8306 24.7748 14.4141 23.0273 14.4141Z" fill="#2FA1E3"/>
<path d="M5.63672 11.1579L14.4139 14.4141L15.3406 12.3047V1.4541L5.63672 11.1579Z" fill="#FFBB69"/>
<path d="M15.3408 1.45406C14.7684 2.02641 14.4141 2.81813 14.4141 3.69141V5.80078L26.1914 2.63672L26.5001 2.32805C27.1645 1.66359 26.6941 0.527344 25.7548 0.527344H17.5781C16.7048 0.527344 15.9131 0.881719 15.3408 1.45406Z" fill="#FF6E5D"/>
<path d="M14.4141 5.80078V14.4141L26.1914 2.63672H17.5781C15.8306 2.63672 14.4141 4.0533 14.4141 5.80078Z" fill="#FF8A5E"/>
<path d="M11.157 23.1912L14.4131 14.414L12.3038 13.4873H1.45312L11.157 23.1912Z" fill="#FFF1B8"/>
<path d="M1.45406 13.4872C2.02641 14.0596 2.81813 14.414 3.69141 14.414H5.80078L2.63672 2.63662L2.32805 2.32795C1.66359 1.6635 0.527344 2.13389 0.527344 3.07326V11.2499C0.527344 12.1232 0.881719 12.9149 1.45406 13.4872Z" fill="#FED363"/>
<path d="M5.80078 14.4141H14.4141L2.63672 2.63672V11.25C2.63672 12.9975 4.0533 14.4141 5.80078 14.4141Z" fill="#FFEB6B"/>
<path d="M20.4316 20.4307L14.415 14.4141L13.4883 16.5234V27.3741L20.4316 20.4307Z" fill="#FFA3CD"/>
<path d="M13.486 27.3741C14.0584 26.8017 14.4127 26.01 14.4127 25.1367V23.0273L2.6354 26.1914L2.32673 26.5001C1.66227 27.1645 2.13267 28.3008 3.07204 28.3008H11.2487C12.122 28.3008 12.9137 27.9464 13.486 27.3741Z" fill="#FF4498"/>
<path d="M14.4141 23.0273V14.4141L2.63672 26.1914H11.25C12.9975 26.1914 14.4141 24.7748 14.4141 23.0273Z" fill="#FF6AAD"/>
<path d="M14.4141 17.5781C16.1615 17.5781 17.5781 16.1615 17.5781 14.4141C17.5781 12.6666 16.1615 11.25 14.4141 11.25C12.6666 11.25 11.25 12.6666 11.25 14.4141C11.25 16.1615 12.6666 17.5781 14.4141 17.5781Z" fill="white"/>
<path d="M14.4141 15.4688C14.9966 15.4688 15.4688 14.9966 15.4688 14.4141C15.4688 13.8316 14.9966 13.3594 14.4141 13.3594C13.8316 13.3594 13.3594 13.8316 13.3594 14.4141C13.3594 14.9966 13.8316 15.4688 14.4141 15.4688Z" fill="#FFF1B8"/>
<path d="M27.7457 14.9691C27.7469 14.9679 21.1765 8.39742 21.1765 8.39742L26.8732 2.7007C27.3343 2.23959 27.4657 1.57901 27.2162 0.97657C26.9666 0.374203 26.4066 0 25.7546 0H17.5781C16.5604 0 15.6376 0.414 14.9691 1.08239C14.9679 1.0812 8.02455 8.02455 8.02455 8.02455C7.92562 8.12348 7.87008 8.25757 7.87008 8.39749C7.87008 8.53741 7.92562 8.67143 8.02455 8.77043L11.4588 12.2046C11.0966 12.6877 10.8506 13.2623 10.7609 13.8867H3.69141C2.23748 13.8867 1.05469 12.7039 1.05469 11.25V3.07357C1.05469 2.74669 1.30387 2.61802 1.38023 2.58637C1.45659 2.5548 1.72378 2.46945 1.9549 2.7007L6.53294 7.27875C6.73889 7.48462 7.0728 7.48462 7.27868 7.27875C7.48462 7.07273 7.48462 6.73889 7.27868 6.53295L2.70063 1.9549C2.23959 1.49386 1.57894 1.36259 0.97657 1.61198C0.374203 1.86152 0 2.42149 0 3.07357V11.25C0 12.2677 0.414 13.1906 1.08239 13.859C1.0812 13.8602 7.65162 20.4307 7.65162 20.4307L1.9549 26.1275C1.49386 26.5886 1.36245 27.2492 1.61198 27.8516C1.86152 28.4541 2.42156 28.8281 3.07357 28.8281H11.25C11.8159 28.8281 12.3522 28.6998 12.832 28.4712V35.4727C12.832 35.764 13.0681 36 13.3594 36H15.4688C15.76 36 15.9961 35.764 15.9961 35.4727V25.611L20.4307 21.1764L26.1274 26.8732C26.434 27.1797 26.8288 27.3405 27.236 27.3405C27.4413 27.3405 27.6497 27.2997 27.8516 27.2161C28.4539 26.9665 28.8281 26.4065 28.8281 25.7545V17.5781C28.8281 16.5604 28.4141 15.6376 27.7457 14.9691ZM25.1751 13.8877C25.1622 13.8876 25.1496 13.8867 25.1367 13.8867H18.0672C17.9775 13.2623 17.7315 12.6877 17.3694 12.2046L20.4307 9.14323L25.1751 13.8877ZM14.4141 17.0508C12.9601 17.0508 11.7773 15.868 11.7773 14.4141C11.7773 12.9601 12.9601 11.7773 14.4141 11.7773C15.868 11.7773 17.0508 12.9601 17.0508 14.4141C17.0508 15.868 15.868 17.0508 14.4141 17.0508ZM17.5781 1.05469H25.7546C26.0815 1.05469 26.2101 1.30387 26.2418 1.38023C26.2734 1.45659 26.3586 1.72371 26.1274 1.9549L16.6236 11.4588C16.1404 11.0966 15.5659 10.8507 14.9414 10.7609V3.69141C14.9414 2.23748 16.1242 1.05469 17.5781 1.05469ZM13.8877 3.65302C13.8876 3.66588 13.8867 3.67854 13.8867 3.69141V10.7609C13.2623 10.8506 12.6877 11.0966 12.2046 11.4588L9.14316 8.39749L13.8877 3.65302ZM3.65302 14.9404C3.66588 14.9406 3.67854 14.9414 3.69141 14.9414H10.7609C10.8506 15.5659 11.0966 16.1404 11.4588 16.6236L8.39742 19.6849L3.65302 14.9404ZM3.07357 27.7734C2.74662 27.7734 2.61802 27.5243 2.58637 27.4479C2.55473 27.3715 2.46952 27.1043 2.70063 26.8732L12.2045 17.3693C12.6876 17.7314 13.2623 17.9774 13.8866 18.0671V25.1367C13.8866 26.5906 12.7039 27.7734 11.2499 27.7734H3.07357ZM14.9414 34.9453H13.8867V27.7204L14.9414 26.6657V34.9453ZM14.9404 25.1751C14.9406 25.1622 14.9414 25.1496 14.9414 25.1367V18.0672C15.5659 17.9775 16.1404 17.7315 16.6236 17.3694L19.6848 20.4307L14.9404 25.1751ZM27.7734 25.7546C27.7734 26.0814 27.5243 26.2101 27.4479 26.2418C27.3716 26.2734 27.1044 26.3587 26.8732 26.1274L17.3694 16.6236C17.7315 16.1404 17.9774 15.5659 18.0672 14.9414H25.1367C26.5906 14.9414 27.7734 16.1242 27.7734 17.5781V25.7546Z" fill="black"/>
<path d="M14.4141 12.832C13.5417 12.832 12.832 13.5418 12.832 14.4141C12.832 15.2864 13.5417 15.9961 14.4141 15.9961C15.2864 15.9961 15.9961 15.2864 15.9961 14.4141C15.9961 13.5418 15.2864 12.832 14.4141 12.832ZM14.4141 14.9414C14.1233 14.9414 13.8867 14.7049 13.8867 14.4141C13.8867 14.1233 14.1233 13.8867 14.4141 13.8867C14.7049 13.8867 14.9414 14.1233 14.9414 14.4141C14.9414 14.7049 14.7049 14.9414 14.4141 14.9414Z" fill="black"/>
</svg>
