<svg width="217" height="121" viewBox="0 0 217 121" fill="none" xmlns="http://www.w3.org/2000/svg">
<path d="M32.2447 60.0098V61.7598H30.4947C14.6191 61.7598 1.7496 74.6293 1.7496 90.5049C1.7496 106.38 14.6191 119.25 30.4947 119.25H179.581C199.199 119.25 215.103 103.346 215.103 83.7283C215.103 64.3564 199.595 48.6059 180.317 48.2138L178.963 48.1862L178.65 46.8686C172.503 20.9948 149.242 1.75 121.489 1.75C98.0763 1.75 77.859 15.4456 68.4174 35.2701L67.7344 36.704L66.2412 36.1629C63.5471 35.1866 60.6382 34.6532 57.6013 34.6532C43.5971 34.6532 32.2447 46.0056 32.2447 60.0098Z" fill="white" stroke="black" stroke-width="3.5"/>
<path d="M27.0332 62.5571C22.0107 67.638 18.9079 74.6348 18.9079 82.3592C18.9079 97.8837 31.4406 110.469 46.9007 110.469H183.753C186.063 110.469 188.319 110.238 190.501 109.8C184.453 115.219 176.476 118.512 167.733 118.512H30.8794C15.4193 118.512 2.88663 105.927 2.88663 90.403C2.88702 76.1889 13.3935 64.4394 27.0332 62.5571Z" fill="#99E6FC"/>
</svg>
