<svg width="37" height="36" viewBox="0 0 37 36" fill="none" xmlns="http://www.w3.org/2000/svg">
<path d="M9.49881 20.6353L11.953 29.7352C12.0536 30.1066 12.3645 30.3338 12.6993 30.3669C12.9448 30.3922 13.203 30.3127 13.3999 30.1109L14.5261 28.9545L18.2773 25.1026L14.8328 21.1846L14.3734 21.1375L12.5762 20.9525L9.49881 20.6353Z" fill="#FF8086"/>
<path d="M9.50252 20.6353L11.9567 29.7352C12.0573 30.1066 12.3682 30.3338 12.703 30.3669C12.9485 30.3922 13.2067 30.3127 13.4036 30.1109L14.5298 28.9545L14.8906 22.8735C14.8906 22.8735 14.6444 22.0505 14.3771 21.1375L12.5799 20.9525L9.50252 20.6353Z" fill="#E5646E"/>
<path d="M9.49947 20.6353L11.9537 29.7352C12.0542 30.1066 12.3652 30.3338 12.7 30.3669L13.1445 22.8735C13.1445 22.8735 12.8639 21.9366 12.5769 20.9525L9.49947 20.6353Z" fill="#6E61B6"/>
<path d="M11.2921 20.8199L12.9102 26.8195L12.6997 30.3667C12.3649 30.3336 12.054 30.1064 11.9534 29.735L9.49919 20.635L11.2921 20.8199Z" fill="#6354B1"/>
<path d="M1.03727 15.4391L10.6121 21.3175L13.1462 22.8732L14.7017 25.4073L20.5802 34.9821C21.0416 35.733 22.163 35.6322 22.4821 34.8107L35.4386 1.49872C35.5499 1.21173 35.4645 0.925931 35.279 0.740372C35.2573 0.718707 35.2338 0.697675 35.209 0.679105C35.0253 0.537439 34.7736 0.482432 34.5206 0.580769L1.20862 13.5371C0.38718 13.8563 0.286381 14.9776 1.03727 15.4391Z" fill="#C2BCE0"/>
<path d="M1.20743 13.5374L34.5194 0.581013C34.7724 0.482676 35.0241 0.537683 35.2079 0.679349C35.2326 0.697919 35.2561 0.718951 35.2778 0.740616C35.3704 0.833255 35.4381 0.950935 35.4688 1.08128L3.44286 13.5374C2.62149 13.8565 2.52063 14.9779 3.27151 15.4393L12.8463 21.3178L15.3804 22.8734L16.936 25.4075L21.8221 33.3695C22.0569 33.7517 22.4627 33.9128 22.8467 33.871L22.4811 34.811C22.162 35.6324 21.0405 35.7332 20.5791 34.9823L14.7007 25.4075L13.1451 22.8734L10.611 21.3178L1.03622 15.4393C0.285194 14.9779 0.385994 13.8565 1.20743 13.5374Z" fill="#ACA6D6"/>
<path d="M9.49927 20.6354L13.1445 22.8733L35.2773 0.740466C35.2557 0.718801 35.2322 0.697769 35.2074 0.679199L9.49927 20.6354Z" fill="#978ECB"/>
<path d="M35.2074 0.679199C35.2322 0.697769 35.2557 0.718801 35.2773 0.740466L28.0377 7.98008L11.7348 20.6354L13.9949 22.0229L13.1446 22.8733L9.49934 20.6354L35.2074 0.679199Z" fill="#8379C1"/>
<path d="M0.00965881 14.3865C0.0645218 13.7798 0.451397 13.2658 1.01905 13.0453L23.9857 4.11268C24.2573 4.00703 24.5631 4.14166 24.6686 4.41311C24.7742 4.68462 24.6397 4.9904 24.3682 5.09605L1.40135 14.0288C1.06569 14.1505 0.900734 14.7072 1.3149 14.9894L9.46761 19.9946L32.9702 1.75043L26.6738 4.19934C26.4022 4.30471 26.0965 4.17043 25.9909 3.89892C25.8854 3.6274 26.0199 3.32163 26.2914 3.21598L34.3313 0.0889084C35.2367 -0.303945 36.3285 0.672878 35.9319 1.68987L22.9756 35.0017C22.576 36.1492 20.8049 36.4028 20.1323 35.258L15.8771 28.327L13.7813 30.4791C13.1394 31.1942 11.7149 30.9422 11.4474 29.8725L9.72914 23.5014C9.65324 23.2201 9.81981 22.9305 10.1011 22.8547C10.3825 22.7788 10.672 22.9454 10.7478 23.2267L12.2645 28.8503L12.6023 23.1573L0.762653 15.8886C0.243259 15.5692 -0.0452805 14.9937 0.00965881 14.3865ZM10.4284 20.5845L13.0691 22.2057L29.4772 5.79763L10.4284 20.5845ZM21.0314 34.7058C21.2109 35.0138 21.7889 35.0782 21.9922 34.6194L34.6232 2.14377L13.8152 22.9518L21.0314 34.7058ZM15.3077 27.3994L13.575 24.5771L13.2843 29.4769L15.3077 27.3994Z" fill="black"/>
</svg>
