<svg width="56" height="56" viewBox="0 0 56 56" fill="none" xmlns="http://www.w3.org/2000/svg">
<g opacity="0.8">
<mask id="mask0_32_1030" style="mask-type:alpha" maskUnits="userSpaceOnUse" x="0" y="0" width="56" height="56">
<rect width="56" height="56" fill="#D9D9D9"/>
</mask>
<g mask="url(#mask0_32_1030)">
<path d="M9.33073 46.6673C8.0474 46.6673 6.94878 46.2104 6.0349 45.2965C5.12101 44.3826 4.66406 43.284 4.66406 42.0007V14.0007C4.66406 12.7173 5.12101 11.6187 6.0349 10.7048C6.94878 9.79093 8.0474 9.33398 9.33073 9.33398H21.4057C22.028 9.33398 22.621 9.45065 23.1849 9.68398C23.7488 9.91732 24.2446 10.2479 24.6724 10.6757L27.9974 14.0007H46.6641C47.9474 14.0007 49.046 14.4576 49.9599 15.3715C50.8738 16.2854 51.3307 17.384 51.3307 18.6673H13.9974C12.7141 18.6673 11.6155 19.1243 10.7016 20.0382C9.78767 20.952 9.33073 22.0507 9.33073 23.334V42.0007L13.9391 26.659C14.2502 25.6479 14.8238 24.8409 15.6599 24.2382C16.496 23.6354 17.4196 23.334 18.4307 23.334H48.5307C50.1252 23.334 51.3793 23.9659 52.2932 25.2298C53.2071 26.4937 53.4502 27.8645 53.0224 29.3423L48.8224 43.3423C48.5113 44.3534 47.9377 45.1604 47.1016 45.7632C46.2654 46.3659 45.3418 46.6673 44.3307 46.6673H9.33073Z" fill="#1C1B1F"/>
</g>
</g>
</svg>
