<svg width="46" height="46" viewBox="0 0 46 46" fill="none" xmlns="http://www.w3.org/2000/svg">
<path d="M23 46C35.7025 46 46 35.7025 46 23C46 10.2975 35.7025 0 23 0C10.2975 0 0 10.2975 0 23C0 35.7025 10.2975 46 23 46Z" fill="url(#paint0_linear_576_3982)"/>
<path d="M9.57067 22.8007L25.0591 16.4192C26.588 15.7545 31.773 13.6273 31.773 13.6273C31.773 13.6273 34.166 12.6967 33.9666 14.9568C33.9002 15.8874 33.3684 19.1446 32.8366 22.6678L31.1747 33.1042C31.1747 33.1042 31.0418 34.6331 29.9117 34.899C28.7817 35.1649 26.9204 33.9683 26.588 33.7025C26.3221 33.503 21.6025 30.5117 19.8741 29.0493C19.4088 28.6504 18.877 27.8527 19.9406 26.9221C22.3337 24.7285 25.1921 22.003 26.9204 20.2747C27.7181 19.477 28.5158 17.6157 25.1921 19.8759L15.8192 26.1909C15.8192 26.1909 14.7556 26.8556 12.7614 26.2574C10.7672 25.6591 8.44061 24.8614 8.44061 24.8614C8.44061 24.8614 6.84524 23.8643 9.57067 22.8007Z" fill="white"/>
<defs>
<linearGradient id="paint0_linear_576_3982" x1="30.6684" y1="7.66844" x2="19.1684" y2="34.5" gradientUnits="userSpaceOnUse">
<stop stop-color="#37AEE2"/>
<stop offset="1" stop-color="#1E96C8"/>
</linearGradient>
</defs>
</svg>
