<svg width="36" height="34" viewBox="0 0 36 34" fill="none" xmlns="http://www.w3.org/2000/svg">
<path d="M22.2391 27.7911H1.03869C0.747634 27.7911 0.511719 27.5627 0.511719 27.2809V1.00655C0.511719 0.724748 0.747634 0.496338 1.03869 0.496338H21.7121C22.0032 0.496338 22.2391 0.724748 22.2391 1.00655V27.7911Z" fill="#FFE177"/>
<path d="M19.4142 0.496338L12.4926 3.85116C11.7263 4.12969 11.2188 4.83907 11.2188 5.63154V27.7911H22.2434V1.01752C22.2434 0.729699 22.0024 0.496338 21.7051 0.496338H19.4142Z" fill="#FFD15B"/>
<path d="M22.0517 0.612549L13.5078 6.09545H22.2404V1.00113C22.2404 0.844772 22.1669 0.705077 22.0517 0.612549Z" fill="#FFC344"/>
<path d="M34.341 33.3902H13.6676C13.3765 33.3902 13.1406 33.1618 13.1406 32.88V6.58392C13.1406 6.31417 13.3665 6.09546 13.6451 6.09546H34.341C34.6321 6.09546 34.868 6.32387 34.868 6.60567V32.88C34.868 33.1618 34.632 33.3902 34.341 33.3902Z" fill="#FFF0AD"/>
<path d="M34.3467 6.09546H32.8173V30.8999C32.8173 31.1787 32.5838 31.4046 32.296 31.4046H13.1406V32.8855C13.1406 33.1642 13.3741 33.3902 13.6619 33.3902H34.3467C34.6347 33.3902 34.868 33.1642 34.868 32.8855V6.60018C34.868 6.32146 34.6346 6.09546 34.3467 6.09546Z" fill="#FFE177"/>
<path d="M30.5019 15.9941C30.8264 12.771 28.3908 9.90341 25.0618 9.5892C21.7328 9.27499 18.771 11.6331 18.4465 14.8562C18.122 18.0793 20.5576 20.9469 23.8866 21.2611C27.2156 21.5753 30.1774 19.2172 30.5019 15.9941Z" fill="#FAF7F7"/>
<path d="M9.05942 15.8335H4.41838C4.14847 15.8335 3.92969 15.6217 3.92969 15.3604V10.3665C3.92969 10.1051 4.14847 9.89331 4.41838 9.89331H9.05935C9.32927 9.89331 9.54804 10.1051 9.54804 10.3665V15.3604C9.54811 15.6217 9.32934 15.8335 9.05942 15.8335Z" fill="#62DBFB"/>
<path d="M34.3464 5.59905H22.7528C22.7528 5.59905 22.7905 1.03407 22.7413 0.860116C22.6702 0.374862 22.2394 0 21.7188 0H9.46728C9.1841 0 8.95461 0.222255 8.95461 0.49636C8.95461 0.770532 9.18417 0.992719 9.46728 0.992719H20.5308L13.2242 5.68168C13.2186 5.68529 13.2139 5.68984 13.2083 5.69365C12.8657 5.85074 12.6275 6.1878 12.6275 6.57866V27.2948H1.03398C1.02921 27.2948 1.02534 27.291 1.02534 27.2864V1.00108C1.02534 0.996533 1.02921 0.992719 1.03398 0.992719H7.41647C7.69965 0.992719 7.92914 0.770465 7.92914 0.49636C7.92914 0.222255 7.69958 0 7.41647 0H1.03398C0.463883 0 0 0.449059 0 1.00108V27.2864C0 27.8384 0.463883 28.2875 1.03398 28.2875H12.6275V32.8854C12.6275 33.4375 13.0914 33.8865 13.6616 33.8865H27.0389C27.3221 33.8865 27.5516 33.6643 27.5516 33.3902C27.5516 33.116 27.3221 32.8938 27.0389 32.8938H13.6616C13.6568 32.8938 13.6529 32.8901 13.6529 32.8854V6.59177H34.3464C34.3511 6.59177 34.355 6.59552 34.355 6.60013V32.8854C34.355 32.8901 34.3511 32.8938 34.3464 32.8938H29.0898C28.8066 32.8938 28.5771 33.1161 28.5771 33.3902C28.5771 33.6643 28.8066 33.8865 29.0898 33.8865H34.3464C34.9165 33.8865 35.3803 33.4374 35.3803 32.8854V6.60013C35.3803 6.04811 34.9165 5.59905 34.3464 5.59905ZM21.7274 1.41589V5.59905H15.209L21.7274 1.41589Z" fill="black"/>
<path d="M31.0476 15.4175C31.0476 11.9097 28.1 9.05591 24.4769 9.05591C20.8538 9.05591 17.9062 11.9097 17.9062 15.4175C17.9062 18.9254 20.8539 21.7792 24.4769 21.7792C28.1 21.7792 31.0476 18.9254 31.0476 15.4175ZM24.9896 20.7626V15.8133L28.6517 18.9454C27.7402 19.9553 26.446 20.6327 24.9896 20.7626ZM30.0222 15.4175C30.0222 16.4095 29.7419 17.3388 29.2554 18.137L24.9896 14.4886V10.0724C27.8078 10.3239 30.0222 12.6246 30.0222 15.4175ZM23.9642 10.0725V14.4886L19.6985 18.137C19.212 17.3389 18.9317 16.4096 18.9317 15.4176C18.9317 12.6246 21.1461 10.3239 23.9642 10.0725ZM20.3021 18.9454L23.9642 15.8133V20.7626C22.5079 20.6327 21.2137 19.9553 20.3021 18.9454Z" fill="black"/>
<path d="M22.4629 23.4955L17.3103 23.4883C17.31 23.4883 17.3098 23.4883 17.3095 23.4883C17.0268 23.4883 16.7973 23.7103 16.7969 23.9844C16.7965 24.2588 17.0257 24.4816 17.3089 24.482L22.4615 24.4892H22.4622C22.7451 24.4892 22.9745 24.2672 22.9749 23.9931C22.9753 23.7186 22.7461 23.4958 22.4629 23.4955Z" fill="black"/>
<path d="M22.4551 26.2057L17.3025 26.1985C17.3022 26.1985 17.302 26.1985 17.3017 26.1985C17.019 26.1985 16.7895 26.4205 16.7891 26.6946C16.7886 26.969 17.0179 27.1918 17.301 27.1922L22.4536 27.1994H22.4544C22.7372 27.1994 22.9667 26.9774 22.9671 26.7033C22.9675 26.4289 22.7382 26.2061 22.4551 26.2057Z" fill="black"/>
<path d="M22.4512 28.9162L17.2986 28.9089C17.2983 28.9089 17.2981 28.9089 17.2978 28.9089C17.015 28.9089 16.7855 29.1309 16.7852 29.4051C16.7847 29.6794 17.014 29.9022 17.2971 29.9026L22.4497 29.9098H22.4505C22.7333 29.9098 22.9628 29.6878 22.9632 29.4137C22.9636 29.1393 22.7344 28.9166 22.4512 28.9162Z" fill="black"/>
<path d="M30.7128 23.5069L25.5603 23.4998C25.56 23.4998 25.5598 23.4998 25.5595 23.4998C25.2767 23.4998 25.0473 23.7217 25.0469 23.9959C25.0465 24.2703 25.2757 24.493 25.5589 24.4934L30.7114 24.5006H30.7122C30.995 24.5006 31.2245 24.2786 31.2248 24.0045C31.2252 23.73 30.996 23.5073 30.7128 23.5069Z" fill="black"/>
<path d="M30.705 26.2174L25.5525 26.2102C25.5522 26.2102 25.552 26.2102 25.5517 26.2102C25.2689 26.2102 25.0394 26.4322 25.0391 26.7063C25.0386 26.9808 25.2679 27.2035 25.551 27.2039L30.7036 27.2111H30.7043C30.9872 27.2111 31.2167 26.9891 31.217 26.7149C31.2174 26.4406 30.9882 26.2178 30.705 26.2174Z" fill="black"/>
<path d="M25.5471 29.9141L30.6997 29.9213H30.7004C30.9833 29.9213 31.2128 29.6993 31.2131 29.4252C31.2135 29.1508 30.9843 28.928 30.7011 28.9276L25.5486 28.9204C25.5483 28.9204 25.5481 28.9204 25.5478 28.9204C25.2651 28.9204 25.0356 29.1423 25.0352 29.4166C25.0348 29.691 25.264 29.9138 25.5471 29.9141Z" fill="black"/>
<path d="M9.71826 3.81787H3.93454C3.65143 3.81787 3.42188 4.04033 3.42188 4.31468C3.42188 4.58904 3.65143 4.8115 3.93454 4.8115H9.71826C10.0014 4.8115 10.2309 4.58904 10.2309 4.31468C10.2309 4.04026 10.0014 3.81787 9.71826 3.81787Z" fill="black"/>
<path d="M9.71826 6.61768H3.93454C3.65143 6.61768 3.42188 6.84013 3.42188 7.11456C3.42188 7.38898 3.65143 7.61137 3.93454 7.61137H9.71826C10.0014 7.61137 10.2309 7.38891 10.2309 7.11456C10.2309 6.84007 10.0014 6.61768 9.71826 6.61768Z" fill="black"/>
<path d="M9.71826 19.1213H3.93454C3.65143 19.1213 3.42188 19.3438 3.42188 19.6182C3.42188 19.8925 3.65143 20.115 3.93454 20.115H9.71826C10.0014 20.115 10.2309 19.8925 10.2309 19.6182C10.2309 19.3438 10.0014 19.1213 9.71826 19.1213Z" fill="black"/>
<path d="M9.71826 21.9211H3.93454C3.65143 21.9211 3.42188 22.1436 3.42188 22.418C3.42188 22.6924 3.65143 22.9148 3.93454 22.9148H9.71826C10.0014 22.9148 10.2309 22.6923 10.2309 22.418C10.2309 22.1436 10.0014 21.9211 9.71826 21.9211Z" fill="black"/>
<path d="M4.41805 16.33H9.0696C9.61889 16.33 10.0658 15.8974 10.0658 15.3656V10.3615C10.0658 9.82964 9.61889 9.39697 9.0696 9.39697H4.41805C3.86876 9.39697 3.42188 9.82964 3.42188 10.3615V15.3656C3.42194 15.8974 3.86883 16.33 4.41805 16.33ZM4.44735 10.3897H9.04037V15.3372H4.44735V10.3897Z" fill="black"/>
</svg>
