<svg width="74" height="75" viewBox="0 0 74 75" fill="none" xmlns="http://www.w3.org/2000/svg">
<g filter="url(#filter0_d_125_57)">
<path d="M34.3904 6.301C37.3669 4.39128 41.244 4.66239 43.9257 6.96778L49.7027 11.9341C50.4576 12.5831 51.3271 13.0855 52.2664 13.4154L59.4946 15.9546C62.7835 17.11 64.9457 20.262 64.8394 23.7463L64.5987 31.6422C64.569 32.6158 64.7173 33.5866 65.0364 34.507L67.6321 41.9925C68.765 45.2598 67.6703 48.8853 64.9184 50.9796L58.6978 55.7136C57.9152 56.3092 57.2491 57.0441 56.7329 57.8813L52.6582 64.4903C50.8104 67.4872 47.2205 68.9239 43.8153 68.0291L36.4916 66.1047C35.5234 65.8503 34.5161 65.7799 33.522 65.897L26.0016 66.7835C22.505 67.1956 19.15 65.2733 17.7374 62.0484L14.6221 54.9366C14.2275 54.0357 13.6701 53.2153 12.978 52.5166L7.47678 46.9628C5.04311 44.5059 4.46362 40.7634 6.04028 37.6856L9.65244 30.6341C10.0965 29.7672 10.3786 28.8264 10.4847 27.8582L11.3451 20.0056C11.7249 16.5404 14.3046 13.72 17.7223 13.0336L25.2336 11.5251C26.2097 11.3291 27.1406 10.9526 27.9785 10.415L34.3904 6.301Z" fill="#385EFC"/>
<path d="M34.9304 7.14266C37.5348 5.47165 40.9274 5.70887 43.2738 7.72608L49.0508 12.6924C49.9001 13.4225 50.8782 13.9877 51.9349 14.3589L59.1632 16.8981C62.041 17.9091 63.9328 20.6671 63.8399 23.7158L63.5991 31.6117C63.5657 32.707 63.7326 33.7992 64.0916 34.8346L66.6873 42.3201C67.6786 45.179 66.7207 48.3513 64.3128 50.1838L58.0922 54.9178C57.2118 55.5879 56.4624 56.4146 55.8817 57.3564L51.807 63.9655C50.1902 66.5878 47.049 67.8449 44.0695 67.062L36.7457 65.1375C35.6565 64.8513 34.5233 64.7721 33.4049 64.9039L25.8846 65.7903C22.8251 66.151 19.8894 64.469 18.6533 61.6471L15.5381 54.5353C15.0941 53.5218 14.4671 52.5989 13.6884 51.8128L8.18724 46.2591C6.05778 44.1093 5.55073 40.8346 6.9303 38.1415L10.5425 31.09C11.0421 30.1147 11.3594 29.0564 11.4787 27.9671L12.3392 20.1145C12.6714 17.0825 14.9288 14.6147 17.9192 14.0141L25.4305 12.5055C26.5286 12.285 27.5759 11.8614 28.5186 11.2566L34.9304 7.14266Z" stroke="black" stroke-width="2"/>
</g>
<g clip-path="url(#clip0_125_57)">
<path d="M30.0347 26.7459C28.5499 26.6421 27.5103 27.5582 27.4199 28.8516C27.3314 30.1164 28.2025 31.1943 29.6592 31.2962L29.6874 31.2982C31.2013 31.404 32.2141 30.4578 32.3026 29.193C32.3647 27.8977 31.5197 26.8498 30.0347 26.7459Z" fill="white"/>
<path d="M27.3916 32.9453L31.7323 33.2488L30.8106 46.4288L26.47 46.1253L27.3916 32.9453Z" fill="white"/>
<path d="M42.4079 33.6845C40.0663 33.5208 38.3408 35.6317 38.3408 35.6317L38.4744 33.7203L34.1336 33.4168L33.212 46.5968L37.5526 46.9003L38.0672 39.5401C38.0948 39.146 38.1506 38.7546 38.285 38.4808C38.6538 37.716 39.4249 36.9508 40.6241 37.0346C42.1948 37.1445 42.7384 38.3971 42.6145 40.1689L42.1215 47.2198L46.4618 47.5233L46.9902 39.9661C47.2733 35.9178 45.2635 33.8842 42.4079 33.6845Z" fill="white"/>
</g>
<defs>
<filter id="filter0_d_125_57" x="5.16016" y="5.03516" width="62.9141" height="68.2578" filterUnits="userSpaceOnUse" color-interpolation-filters="sRGB">
<feFlood flood-opacity="0" result="BackgroundImageFix"/>
<feColorMatrix in="SourceAlpha" type="matrix" values="0 0 0 0 0 0 0 0 0 0 0 0 0 0 0 0 0 0 127 0" result="hardAlpha"/>
<feOffset dy="5"/>
<feComposite in2="hardAlpha" operator="out"/>
<feColorMatrix type="matrix" values="0 0 0 0 0 0 0 0 0 0 0 0 0 0 0 0 0 0 1 0"/>
<feBlend mode="normal" in2="BackgroundImageFix" result="effect1_dropShadow_125_57"/>
<feBlend mode="normal" in="SourceGraphic" in2="effect1_dropShadow_125_57" result="shape"/>
</filter>
<clipPath id="clip0_125_57">
<rect width="21.6514" height="21.8519" fill="white" transform="translate(26.9922 25.4199) rotate(4)"/>
</clipPath>
</defs>
</svg>
