<svg width="310" height="87" viewBox="0 0 310 87" fill="none" xmlns="http://www.w3.org/2000/svg">
<path d="M114.52 39.24C114.52 39.6 114.42 39.84 114.22 39.96C114.02 40.0667 113.567 40.12 112.86 40.12H108.54C107.833 40.12 107.38 40.0667 107.18 39.96C106.98 39.84 106.88 39.6 106.88 39.24C106.88 39 107 38.8 107.24 38.64C107.32 38.6 107.62 38.4667 108.14 38.24C108.487 38.0933 108.66 37.8333 108.66 37.46V33.84C108.66 33.36 108.587 33.0533 108.44 32.92C108.293 32.7733 107.96 32.7 107.44 32.7H102.96C102.467 32.7 102.16 32.7667 102.04 32.9C101.933 33.02 101.88 33.3533 101.88 33.9V37.46C101.88 37.7667 102.1 38.0467 102.54 38.3C102.833 38.4333 103.12 38.5733 103.4 38.72C103.547 38.8133 103.62 38.9867 103.62 39.24C103.62 39.5733 103.513 39.8067 103.3 39.94C103.087 40.06 102.64 40.12 101.96 40.12H97.64C96.9333 40.12 96.48 40.0667 96.28 39.96C96.0933 39.84 96 39.6 96 39.24C96 39 96.0933 38.8133 96.28 38.68C96.3333 38.64 96.6333 38.5067 97.18 38.28C97.5933 38.1067 97.8 37.8333 97.8 37.46V26.5C97.8 26.26 97.6267 26.0467 97.28 25.86C96.9733 25.7267 96.6667 25.5933 96.36 25.46C96.12 25.3 96 25.0933 96 24.84C96 24.5067 96.1 24.2867 96.3 24.18C96.5 24.0733 96.9467 24.02 97.64 24.02H101.96C102.653 24.02 103.1 24.0733 103.3 24.18C103.513 24.2867 103.62 24.5067 103.62 24.84C103.62 25.08 103.547 25.2533 103.4 25.36C103.307 25.4267 103.013 25.5733 102.52 25.8C102.093 25.9867 101.88 26.22 101.88 26.5V29.46C101.88 29.8733 101.927 30.1333 102.02 30.24C102.113 30.3467 102.313 30.4 102.62 30.4H107.44C108.013 30.4 108.36 30.3533 108.48 30.26C108.6 30.1533 108.66 29.8467 108.66 29.34V26.5C108.66 26.2867 108.613 26.14 108.52 26.06C108.427 25.98 108.187 25.8667 107.8 25.72C107.427 25.56 107.193 25.44 107.1 25.36C106.953 25.24 106.88 25.0667 106.88 24.84C106.88 24.5067 106.96 24.2867 107.12 24.18C107.293 24.0733 107.707 24.02 108.36 24.02H112.96C113.64 24.02 114.067 24.0733 114.24 24.18C114.427 24.2867 114.52 24.5067 114.52 24.84C114.52 25.0667 114.447 25.24 114.3 25.36C114.207 25.4267 113.907 25.5733 113.4 25.8C112.96 26 112.74 26.2333 112.74 26.5V37.46C112.74 37.82 113.02 38.12 113.58 38.36C113.993 38.5467 114.233 38.6667 114.3 38.72C114.447 38.8267 114.52 39 114.52 39.24Z" fill="black"/>
<path d="M128.479 38.8C128.479 39.9067 127.719 40.46 126.199 40.46L124.879 40.26C124.252 40.0867 123.725 39.7267 123.299 39.18C122.379 40.0333 120.939 40.46 118.979 40.46C117.845 40.46 116.925 40.1667 116.219 39.58C115.525 38.9933 115.179 38.2133 115.179 37.24C115.179 35.7867 115.799 34.7533 117.039 34.14C118.012 33.66 119.492 33.42 121.479 33.42C121.159 32.02 120.499 31.32 119.499 31.32C119.085 31.32 118.619 31.44 118.099 31.68C117.659 31.92 117.219 32.16 116.779 32.4C116.485 32.4 116.312 32.38 116.259 32.34C116.139 32.26 116.079 32.0533 116.079 31.72C116.079 31.2667 116.519 30.7667 117.399 30.22C118.385 29.6067 119.439 29.3 120.559 29.3C122.185 29.3 123.392 29.86 124.179 30.98C124.712 31.7533 125.272 33.2733 125.859 35.54C126.365 37.46 126.925 38.42 127.539 38.42C127.565 38.42 127.652 38.4 127.799 38.36C127.959 38.32 128.059 38.3 128.099 38.3C128.352 38.3 128.479 38.4667 128.479 38.8ZM122.619 37.54C122.459 36.98 122.192 36.1533 121.819 35.06C119.832 35.06 118.839 35.6133 118.839 36.72C118.839 37.2 119.052 37.6067 119.479 37.94C119.905 38.26 120.405 38.42 120.979 38.42C121.645 38.42 122.192 38.1267 122.619 37.54Z" fill="black"/>
<path d="M142.408 35.56C142.408 37.0933 141.987 38.36 141.147 39.36C140.307 40.36 139.181 40.86 137.768 40.86C136.834 40.86 136.061 40.72 135.448 40.44C134.901 40.2 134.341 39.78 133.768 39.18V41.94C133.768 42.1533 134.028 42.4333 134.548 42.78C135.081 43.14 135.347 43.5 135.347 43.86C135.347 44.3133 135.034 44.54 134.408 44.54H129.987C129.787 44.54 129.607 44.4733 129.447 44.34C129.301 44.2067 129.228 44.0467 129.228 43.86C129.228 43.46 129.448 43.0867 129.888 42.74C130.341 42.3933 130.568 42.1267 130.568 41.94V34.02C130.568 33.5133 130.341 33.0867 129.888 32.74C129.448 32.3933 129.228 32.1333 129.228 31.96C129.228 31.6 129.754 31.08 130.807 30.4C131.861 29.72 132.587 29.38 132.987 29.38C133.547 29.38 133.827 29.6467 133.827 30.18V31.02C134.174 30.58 134.688 30.2 135.368 29.88C136.101 29.5467 136.854 29.38 137.627 29.38C138.827 29.38 139.874 29.8467 140.768 30.78C141.861 31.9267 142.408 33.52 142.408 35.56ZM139.268 34.2C139.268 33.3067 139.021 32.58 138.528 32.02C138.088 31.5133 137.554 31.26 136.928 31.26C135.994 31.26 135.234 31.6733 134.647 32.5C134.101 33.2467 133.827 34.14 133.827 35.18C133.827 36.0333 134.028 36.7333 134.428 37.28C134.828 37.8133 135.321 38.08 135.908 38.08C136.748 38.08 137.528 37.6333 138.248 36.74C138.928 35.8867 139.268 35.04 139.268 34.2Z" fill="black"/>
<path d="M156.306 35.56C156.306 37.0933 155.886 38.36 155.046 39.36C154.206 40.36 153.079 40.86 151.666 40.86C150.733 40.86 149.959 40.72 149.346 40.44C148.799 40.2 148.239 39.78 147.666 39.18V41.94C147.666 42.1533 147.926 42.4333 148.446 42.78C148.979 43.14 149.246 43.5 149.246 43.86C149.246 44.3133 148.933 44.54 148.306 44.54H143.886C143.686 44.54 143.506 44.4733 143.346 44.34C143.199 44.2067 143.126 44.0467 143.126 43.86C143.126 43.46 143.346 43.0867 143.786 42.74C144.239 42.3933 144.466 42.1267 144.466 41.94V34.02C144.466 33.5133 144.239 33.0867 143.786 32.74C143.346 32.3933 143.126 32.1333 143.126 31.96C143.126 31.6 143.653 31.08 144.706 30.4C145.759 29.72 146.486 29.38 146.886 29.38C147.446 29.38 147.726 29.6467 147.726 30.18V31.02C148.073 30.58 148.586 30.2 149.266 29.88C149.999 29.5467 150.753 29.38 151.526 29.38C152.726 29.38 153.773 29.8467 154.666 30.78C155.759 31.9267 156.306 33.52 156.306 35.56ZM153.166 34.2C153.166 33.3067 152.919 32.58 152.426 32.02C151.986 31.5133 151.453 31.26 150.826 31.26C149.893 31.26 149.133 31.6733 148.546 32.5C147.999 33.2467 147.726 34.14 147.726 35.18C147.726 36.0333 147.926 36.7333 148.326 37.28C148.726 37.8133 149.219 38.08 149.806 38.08C150.646 38.08 151.426 37.6333 152.146 36.74C152.826 35.8867 153.166 35.04 153.166 34.2Z" fill="black"/>
<path d="M170.584 30.54C170.584 30.7133 170.311 31.0333 169.764 31.5C169.151 32.02 168.784 32.4133 168.664 32.68L164.824 41.32C164.291 42.5067 163.604 43.4333 162.764 44.1C162.071 44.6333 161.251 44.9 160.304 44.9C159.064 44.9 158.378 44.5133 158.244 43.74L157.764 41.06C157.684 40.5667 157.904 40.32 158.424 40.32C158.478 40.32 158.758 40.6 159.264 41.16C159.784 41.7333 160.278 42.02 160.744 42.02C161.504 42.02 162.064 41.5733 162.424 40.68L158.724 32.44C158.591 32.16 158.258 31.8333 157.724 31.46C157.258 31.14 157.024 30.8933 157.024 30.72C157.024 30.3467 157.164 30.1 157.444 29.98C157.658 29.9 158.051 29.86 158.624 29.86H162.664C163.291 29.86 163.604 30.0733 163.604 30.5C163.604 30.6467 163.418 30.88 163.044 31.2C162.684 31.5067 162.504 31.7267 162.504 31.86C162.504 31.94 162.524 32.0333 162.564 32.14L164.484 36.38L166.224 32.32C166.304 32.1333 166.344 31.98 166.344 31.86C166.344 31.7533 166.171 31.56 165.824 31.28C165.491 30.9867 165.324 30.74 165.324 30.54C165.324 30.0867 165.678 29.86 166.384 29.86H169.704C170.291 29.86 170.584 30.0867 170.584 30.54Z" fill="black"/>
<path d="M194.952 36.04C194.952 36.2667 194.859 36.5133 194.672 36.78L192.452 39.98C192.159 40.4067 191.825 40.62 191.452 40.62C191.372 40.62 191.132 40.5333 190.732 40.36C190.332 40.1867 190.005 40.1 189.752 40.1H181.072C180.539 40.1 180.179 40.0267 179.992 39.88C179.819 39.7333 179.732 39.46 179.732 39.06C179.732 38.5667 180.092 38.24 180.812 38.08C181.252 37.9867 181.472 37.7267 181.472 37.3V26.7C181.472 26.34 181.272 26.0533 180.872 25.84C180.072 25.56 179.672 25.2467 179.672 24.9C179.672 24.5267 179.765 24.2867 179.952 24.18C180.139 24.0733 180.605 24.02 181.352 24.02H185.612C186.279 24.02 186.705 24.08 186.892 24.2C187.092 24.3067 187.192 24.54 187.192 24.9C187.192 25.18 186.919 25.4533 186.372 25.72C185.825 25.9733 185.552 26.3 185.552 26.7V36.86C185.552 37.58 185.879 37.94 186.532 37.94H187.672C188.912 37.94 190.045 37.6667 191.072 37.12C191.219 37.04 192.265 36.44 194.212 35.32C194.705 35.32 194.952 35.56 194.952 36.04Z" fill="black"/>
<path d="M200.336 26.18C200.336 26.62 200.036 27.0533 199.436 27.48C198.85 27.9067 198.21 28.12 197.516 28.12C196.703 28.12 196.296 27.7467 196.296 27C196.296 26.5067 196.616 26.0467 197.256 25.62C197.896 25.18 198.523 24.96 199.136 24.96C199.936 24.96 200.336 25.3667 200.336 26.18ZM201.716 39.48C201.716 39.8933 201.363 40.1 200.656 40.1H196.516C195.956 40.1 195.676 39.8933 195.676 39.48C195.676 39.2267 195.903 38.9267 196.356 38.58C196.81 38.22 197.036 37.9 197.036 37.62V32.94C197.036 32.7667 196.81 32.5467 196.356 32.28C195.916 32.0133 195.696 31.7533 195.696 31.5C195.696 31.26 196.31 30.84 197.536 30.24C198.723 29.6667 199.483 29.38 199.816 29.38H200.136C200.243 29.4067 200.296 29.5667 200.296 29.86V37.62C200.296 37.8867 200.53 38.2067 200.996 38.58C201.476 38.94 201.716 39.24 201.716 39.48Z" fill="black"/>
<path d="M209.806 26.22C209.806 26.6733 209.653 27.06 209.346 27.38C209 27.7267 208.546 27.9 207.986 27.9C206.986 27.9 206.373 27.5733 206.146 26.92C206.506 26.7867 206.686 26.6333 206.686 26.46C206.686 26.1133 206.473 25.94 206.046 25.94C205.62 25.94 205.406 26.1933 205.406 26.7C205.406 26.9267 205.74 27.3933 206.406 28.1C207.073 28.8067 207.406 29.34 207.406 29.7H209.386V30.7C209.386 30.9667 209.313 31.2933 209.166 31.68H207.406V37.54C207.406 37.7667 207.626 38.06 208.066 38.42C208.506 38.78 208.726 39.1133 208.726 39.42C208.726 39.8733 208.48 40.1 207.986 40.1H203.386C202.866 40.1 202.606 39.8533 202.606 39.36C202.606 39.1733 202.866 38.8867 203.386 38.5C203.906 38.1 204.166 37.7267 204.166 37.38V31.68H202.706C202.613 31.3067 202.553 30.9867 202.526 30.72C202.5 30.6 202.486 30.4333 202.486 30.22V29.92C202.486 29.84 202.5 29.7667 202.526 29.7H203.906C203.653 29.2867 203.4 28.8733 203.146 28.46C202.866 27.9533 202.726 27.4467 202.726 26.94C202.726 26.1 203.093 25.4 203.826 24.84C204.573 24.28 205.513 24 206.646 24C207.513 24 208.246 24.1933 208.846 24.58C209.486 25.0067 209.806 25.5533 209.806 26.22Z" fill="black"/>
<path d="M222.509 37.18C222.509 37.7933 221.962 38.4533 220.869 39.16C219.602 39.9733 218.122 40.38 216.429 40.38C214.602 40.38 213.162 39.8733 212.109 38.86C211.109 37.8733 210.609 36.5667 210.609 34.94C210.609 33.2467 211.142 31.8933 212.209 30.88C213.275 29.8533 214.709 29.34 216.509 29.34C217.762 29.34 218.889 29.7133 219.889 30.46C220.835 31.1533 221.395 31.98 221.569 32.94C221.595 33.0867 221.469 33.2467 221.189 33.42L214.949 36.48C215.042 36.8933 215.389 37.2867 215.989 37.66C216.655 38.0733 217.375 38.28 218.149 38.28C218.855 38.28 219.649 37.9933 220.529 37.42C221.422 36.8333 221.895 36.54 221.949 36.54C222.322 36.54 222.509 36.7533 222.509 37.18ZM217.929 33.22C217.929 32.7267 217.695 32.24 217.229 31.76C216.775 31.2667 216.282 31.02 215.749 31.02C215.069 31.02 214.569 31.2733 214.249 31.78C213.982 32.18 213.849 32.5933 213.849 33.02C213.849 33.8733 213.969 34.54 214.209 35.02L217.929 33.22Z" fill="black"/>
<path d="M113.46 67.24C113.46 67.6 113.367 67.8333 113.18 67.94C112.993 68.0467 112.553 68.1 111.86 68.1H107.56C106.867 68.1 106.413 68.0467 106.2 67.94C106 67.82 105.9 67.5867 105.9 67.24C105.9 67.0133 106.087 66.76 106.46 66.48C106.687 66.3067 106.92 66.1333 107.16 65.96C106.96 65.6533 106.213 64.8733 104.92 63.62C104.6 63.6467 104.327 63.66 104.1 63.66C103.06 63.66 102.32 63.5667 101.88 63.38V65.42C101.88 65.7 102.027 65.94 102.32 66.14C102.453 66.2333 102.773 66.3933 103.28 66.62C103.52 66.78 103.64 66.9867 103.64 67.24C103.64 67.5867 103.54 67.82 103.34 67.94C103.14 68.0467 102.693 68.1 102 68.1H97.7C96.9933 68.1 96.54 68.0467 96.34 67.94C96.14 67.82 96.04 67.5867 96.04 67.24C96.04 66.9867 96.1467 66.7867 96.36 66.64C96.4667 66.5733 96.76 66.4467 97.24 66.26C97.6133 66.1133 97.8 65.8333 97.8 65.42V54.82C97.8 54.3933 97.5467 54.0733 97.04 53.86C96.6533 53.6867 96.4267 53.5733 96.36 53.52C96.2133 53.4133 96.14 53.24 96.14 53C96.14 52.3467 96.8 52.02 98.12 52.02H101.42C109.14 52.02 113 54.1733 113 58.48C113 60.6 111.74 62.04 109.22 62.8L112.12 66.1C112.36 66.2067 112.593 66.3067 112.82 66.4C113.247 66.64 113.46 66.92 113.46 67.24ZM108.02 57.94C108.02 55.3667 106.58 54.08 103.7 54.08C102.967 54.08 102.48 54.1333 102.24 54.24C102 54.3333 101.88 54.5533 101.88 54.9V60.4C101.88 61.2 102.6 61.6 104.04 61.6C106.693 61.6 108.02 60.38 108.02 57.94Z" fill="black"/>
<path d="M126.181 65.18C126.181 65.7933 125.634 66.4533 124.541 67.16C123.274 67.9733 121.794 68.38 120.101 68.38C118.274 68.38 116.834 67.8733 115.781 66.86C114.781 65.8733 114.281 64.5667 114.281 62.94C114.281 61.2467 114.814 59.8933 115.881 58.88C116.947 57.8533 118.381 57.34 120.181 57.34C121.434 57.34 122.561 57.7133 123.561 58.46C124.507 59.1533 125.067 59.98 125.241 60.94C125.267 61.0867 125.141 61.2467 124.861 61.42L118.621 64.48C118.714 64.8933 119.061 65.2867 119.661 65.66C120.327 66.0733 121.047 66.28 121.821 66.28C122.527 66.28 123.321 65.9933 124.201 65.42C125.094 64.8333 125.567 64.54 125.621 64.54C125.994 64.54 126.181 64.7533 126.181 65.18ZM121.601 61.22C121.601 60.7267 121.367 60.24 120.901 59.76C120.447 59.2667 119.954 59.02 119.421 59.02C118.741 59.02 118.241 59.2733 117.921 59.78C117.654 60.18 117.521 60.5933 117.521 61.02C117.521 61.8733 117.641 62.54 117.881 63.02L121.601 61.22Z" fill="black"/>
<path d="M138.431 65.3C137.964 66.26 137.437 66.96 136.851 67.4C135.931 68.1067 134.631 68.46 132.951 68.46C131.177 68.46 129.717 67.9667 128.571 66.98C127.424 65.98 126.851 64.68 126.851 63.08C126.851 61.5333 127.411 60.2133 128.531 59.12C129.771 57.9067 131.444 57.3 133.551 57.3C134.564 57.3 135.511 57.4467 136.391 57.74C137.377 58.06 137.871 58.46 137.871 58.94C137.871 59.2867 137.671 59.8667 137.271 60.68C136.831 61.56 136.464 62 136.171 62C136.051 62 135.837 61.7133 135.531 61.14C135.131 60.38 134.811 59.8467 134.571 59.54C134.104 58.9533 133.611 58.66 133.091 58.66C132.397 58.66 131.831 58.9933 131.391 59.66C130.964 60.3133 130.751 61.2133 130.751 62.36C130.751 63.6933 131.051 64.74 131.651 65.5C132.251 66.26 133.091 66.64 134.171 66.64C134.797 66.64 135.451 66.4133 136.131 65.96C136.251 65.8667 136.837 65.3933 137.891 64.54C138.251 64.54 138.431 64.7933 138.431 65.3Z" fill="black"/>
<path d="M149.045 57.98C149.098 58.0733 149.078 58.26 148.985 58.54L147.905 61.6C147.838 61.7867 147.658 61.88 147.365 61.88C147.325 61.88 147.092 61.6667 146.665 61.24C146.252 60.8 145.885 60.58 145.565 60.58C145.098 60.58 144.678 60.7867 144.305 61.2C143.945 61.6133 143.765 62.06 143.765 62.54V65.66C143.765 65.9133 144.018 66.2267 144.525 66.6C145.032 66.96 145.285 67.26 145.285 67.5C145.285 67.9 144.932 68.1 144.225 68.1H140.125C139.858 68.1 139.632 68.04 139.445 67.92C139.258 67.7867 139.165 67.6467 139.165 67.5C139.165 67.2333 139.385 66.9267 139.825 66.58C140.278 66.22 140.505 65.9133 140.505 65.66V61C140.505 60.84 140.278 60.66 139.825 60.46C139.385 60.26 139.165 60 139.165 59.68C139.165 59.4133 139.792 58.9533 141.045 58.3C142.245 57.6867 143.005 57.38 143.325 57.38C143.618 57.38 143.765 57.6267 143.765 58.12V59.6C144.565 58.7867 145.225 58.2267 145.745 57.92C146.358 57.56 147.038 57.38 147.785 57.38C148.518 57.38 148.938 57.58 149.045 57.98Z" fill="black"/>
<path d="M162.529 67.54C162.529 67.9133 162.222 68.1 161.609 68.1H158.469C158.136 68.1 157.922 68.0267 157.829 67.88C157.749 67.72 157.709 67.4 157.709 66.92C157.002 67.52 156.462 67.9067 156.089 68.08C155.596 68.32 154.976 68.44 154.229 68.44C152.896 68.44 152.016 67.8533 151.589 66.68C151.416 66.16 151.309 65.48 151.269 64.64L151.129 61.14C151.116 60.82 150.896 60.52 150.469 60.24C150.042 59.9467 149.829 59.7333 149.829 59.6C149.829 59.2667 150.402 58.8333 151.549 58.3C152.616 57.7933 153.349 57.54 153.749 57.54C154.136 57.54 154.342 57.8867 154.369 58.58L154.509 63.62C154.562 65.3 155.049 66.14 155.969 66.14C156.462 66.14 156.876 65.9467 157.209 65.56C157.556 65.1733 157.729 64.6933 157.729 64.12V61.42C157.729 61.02 157.516 60.6533 157.089 60.32C156.662 59.9867 156.449 59.7467 156.449 59.6C156.449 59.2933 157.029 58.8667 158.189 58.32C159.269 57.8 160.009 57.54 160.409 57.54C160.796 57.54 160.989 57.8533 160.989 58.48V65.84C160.989 66.08 161.242 66.38 161.749 66.74C162.269 67.1 162.529 67.3667 162.529 67.54Z" fill="black"/>
<path d="M167.875 54.18C167.875 54.62 167.575 55.0533 166.975 55.48C166.389 55.9067 165.749 56.12 165.055 56.12C164.242 56.12 163.835 55.7467 163.835 55C163.835 54.5067 164.155 54.0467 164.795 53.62C165.435 53.18 166.062 52.96 166.675 52.96C167.475 52.96 167.875 53.3667 167.875 54.18ZM169.255 67.48C169.255 67.8933 168.902 68.1 168.195 68.1H164.055C163.495 68.1 163.215 67.8933 163.215 67.48C163.215 67.2267 163.442 66.9267 163.895 66.58C164.349 66.22 164.575 65.9 164.575 65.62V60.94C164.575 60.7667 164.349 60.5467 163.895 60.28C163.455 60.0133 163.235 59.7533 163.235 59.5C163.235 59.26 163.849 58.84 165.075 58.24C166.262 57.6667 167.022 57.38 167.355 57.38H167.675C167.782 57.4067 167.835 57.5667 167.835 57.86V65.62C167.835 65.8867 168.069 66.2067 168.535 66.58C169.015 66.94 169.255 67.24 169.255 67.48Z" fill="black"/>
<path d="M179.085 66.26C179.085 66.7267 178.632 67.2133 177.725 67.72C176.832 68.2133 175.959 68.46 175.105 68.46C174.252 68.46 173.459 68.2333 172.725 67.78C171.992 67.3267 171.625 66.8333 171.625 66.3C171.625 66.3533 171.659 65.4933 171.725 63.72C171.792 61.9467 171.825 60.5733 171.825 59.6H170.945C170.305 59.6 169.985 59.42 169.985 59.06C169.985 58.6867 170.185 58.3133 170.585 57.94L173.845 54.18C174.192 53.78 174.439 53.58 174.585 53.58C175.039 53.58 175.225 53.8333 175.145 54.34V57.54H178.645V57.9L178.605 58.46C178.565 58.8467 178.459 59.1933 178.285 59.5H175.145V63.94C175.145 65.5667 175.512 66.38 176.245 66.38C176.485 66.38 176.872 66.2333 177.405 65.94C177.952 65.6467 178.279 65.5 178.385 65.5C178.852 65.5 179.085 65.7533 179.085 66.26Z" fill="black"/>
<path d="M184.493 54.18C184.493 54.62 184.192 55.0533 183.592 55.48C183.006 55.9067 182.366 56.12 181.673 56.12C180.859 56.12 180.452 55.7467 180.452 55C180.452 54.5067 180.772 54.0467 181.412 53.62C182.052 53.18 182.679 52.96 183.293 52.96C184.093 52.96 184.493 53.3667 184.493 54.18ZM185.872 67.48C185.872 67.8933 185.519 68.1 184.812 68.1H180.673C180.113 68.1 179.832 67.8933 179.832 67.48C179.832 67.2267 180.059 66.9267 180.512 66.58C180.966 66.22 181.192 65.9 181.192 65.62V60.94C181.192 60.7667 180.966 60.5467 180.512 60.28C180.072 60.0133 179.853 59.7533 179.853 59.5C179.853 59.26 180.466 58.84 181.692 58.24C182.879 57.6667 183.639 57.38 183.973 57.38H184.293C184.399 57.4067 184.452 57.5667 184.452 57.86V65.62C184.452 65.8867 184.686 66.2067 185.152 66.58C185.632 66.94 185.872 67.24 185.872 67.48Z" fill="black"/>
<path d="M199.963 67.52C199.963 67.6533 199.889 67.7867 199.743 67.92C199.596 68.04 199.423 68.1 199.223 68.1H194.363C193.883 68.1 193.643 67.9067 193.643 67.52C193.643 67.24 193.889 66.9333 194.382 66.6C194.876 66.2667 195.116 66.02 195.103 65.86C194.836 64.0733 194.489 62.6667 194.062 61.64C193.609 60.56 193.109 60.02 192.562 60.02C191.656 60.02 191.202 60.62 191.202 61.82V65.6C191.202 66.0133 191.396 66.38 191.783 66.7C192.169 67.02 192.363 67.2933 192.363 67.52C192.363 67.6533 192.276 67.7867 192.103 67.92C191.943 68.04 191.762 68.1 191.562 68.1H187.302C186.836 68.1 186.603 67.9067 186.603 67.52C186.603 67.2933 186.822 66.9933 187.262 66.62C187.716 66.2333 187.942 65.8733 187.942 65.54V61.64C187.942 61.2667 187.716 60.9467 187.262 60.68C186.822 60.4133 186.603 60.18 186.603 59.98C186.603 59.7 187.209 59.1933 188.423 58.46C189.583 57.74 190.323 57.38 190.643 57.38C191.016 57.38 191.202 57.58 191.202 57.98V59.22C192.042 57.9933 192.922 57.38 193.842 57.38C194.802 57.38 195.603 57.88 196.243 58.88C196.789 59.72 197.309 61.0933 197.802 63C198.242 64.72 198.509 65.6867 198.603 65.9C198.709 66.1133 198.963 66.3467 199.363 66.6C199.763 66.8533 199.963 67.16 199.963 67.52Z" fill="black"/>
<path d="M214.112 69.54C214.112 71.7133 211.965 72.8 207.672 72.8C205.752 72.8 204.139 72.58 202.832 72.14C201.432 71.6733 200.732 71.06 200.732 70.3C200.732 69.3133 201.279 68.7267 202.372 68.54C201.692 68.1667 201.299 67.94 201.192 67.86C200.925 67.6333 200.792 67.3067 200.792 66.88C200.792 66.36 201.012 65.86 201.452 65.38C201.879 64.94 202.365 64.6467 202.912 64.5C202.339 63.9267 201.959 63.48 201.772 63.16C201.532 62.76 201.412 62.2933 201.412 61.76C201.412 60.3333 201.985 59.24 203.132 58.48C204.225 57.7733 205.739 57.42 207.672 57.42C208.245 55.3933 209.419 54.38 211.192 54.38C211.752 54.38 212.199 54.5333 212.532 54.84C212.865 55.1467 213.032 55.5333 213.032 56C213.032 56.84 212.572 57.26 211.652 57.26C211.585 57.26 211.385 57.2133 211.052 57.12C210.732 57.0267 210.525 56.98 210.432 56.98C210.045 56.98 209.725 57.1933 209.472 57.62C210.672 58.06 211.492 58.48 211.932 58.88C212.559 59.48 212.872 60.3533 212.872 61.5C212.872 62.78 212.292 63.7533 211.132 64.42C210.105 65.0067 208.739 65.3 207.032 65.3C206.752 65.3 206.052 65.26 204.932 65.18C204.705 65.1533 204.585 65.14 204.572 65.14C204.385 65.14 204.265 65.2133 204.212 65.36C204.172 65.4667 204.459 65.6467 205.072 65.9C205.139 65.9133 206.205 66.0533 208.272 66.32C210.339 66.5867 211.772 66.88 212.572 67.2C213.599 67.6133 214.112 68.3933 214.112 69.54ZM208.772 61.46C208.772 60.54 208.679 59.9 208.492 59.54C208.252 59.0867 207.805 58.86 207.152 58.86C206.085 58.86 205.552 59.7267 205.552 61.46C205.552 63.0067 206.085 63.78 207.152 63.78C208.232 63.78 208.772 63.0067 208.772 61.46ZM210.112 70.38C210.112 70.1533 209.852 69.9933 209.332 69.9C208.919 69.8467 208.499 69.7933 208.072 69.74C206.085 69.3933 204.965 69.22 204.712 69.22C204.485 69.1933 204.279 69.2467 204.092 69.38C203.905 69.5133 203.812 69.68 203.812 69.88C203.812 70.64 205.099 71.02 207.672 71.02C209.299 71.02 210.112 70.8067 210.112 70.38Z" fill="black"/>
<path d="M242.099 67.28C242.099 67.8267 241.545 68.1 240.439 68.1H235.759C235.039 68.1 234.679 67.8467 234.679 67.34C234.679 67.0467 234.839 66.8133 235.159 66.64C235.652 66.3867 235.879 66.18 235.839 66.02C235.692 65.42 235.479 64.8867 235.199 64.42C234.879 63.9133 234.572 63.66 234.279 63.66H229.979C229.245 63.66 228.692 64.4467 228.319 66.02C228.292 66.1667 228.439 66.3333 228.759 66.52C229.172 66.76 229.392 66.8933 229.419 66.92C229.485 67 229.519 67.14 229.519 67.34C229.519 67.8467 229.159 68.1 228.439 68.1H224.379C223.965 68.1 223.685 68.0467 223.539 67.94C223.405 67.82 223.339 67.6 223.339 67.28C223.339 66.8933 223.685 66.58 224.379 66.34C224.819 66.18 225.079 66.04 225.159 65.92C225.252 65.7867 225.425 65.48 225.679 65L231.259 52.88C231.512 52.3067 231.799 52.02 232.119 52.02H234.779C235.112 52.02 235.385 52.3067 235.599 52.88L240.059 65C240.179 65.32 240.325 65.62 240.499 65.9C240.552 65.9933 240.745 66.12 241.079 66.28C241.465 66.4667 241.712 66.6 241.819 66.68C242.005 66.8267 242.099 67.0267 242.099 67.28ZM234.139 61C234.139 61.0267 234.072 60.7867 233.939 60.28L232.379 56.22L230.579 60.28C230.472 60.5333 230.419 60.7467 230.419 60.92C230.419 61.2 230.452 61.38 230.519 61.46C230.585 61.54 230.765 61.58 231.059 61.58H233.479C233.919 61.58 234.139 61.3867 234.139 61Z" fill="black"/>
<path d="M256.206 69.54C256.206 71.7133 254.059 72.8 249.766 72.8C247.846 72.8 246.232 72.58 244.926 72.14C243.526 71.6733 242.826 71.06 242.826 70.3C242.826 69.3133 243.372 68.7267 244.466 68.54C243.786 68.1667 243.392 67.94 243.286 67.86C243.019 67.6333 242.886 67.3067 242.886 66.88C242.886 66.36 243.106 65.86 243.546 65.38C243.972 64.94 244.459 64.6467 245.006 64.5C244.432 63.9267 244.052 63.48 243.866 63.16C243.626 62.76 243.506 62.2933 243.506 61.76C243.506 60.3333 244.079 59.24 245.226 58.48C246.319 57.7733 247.832 57.42 249.766 57.42C250.339 55.3933 251.512 54.38 253.286 54.38C253.846 54.38 254.292 54.5333 254.626 54.84C254.959 55.1467 255.126 55.5333 255.126 56C255.126 56.84 254.666 57.26 253.746 57.26C253.679 57.26 253.479 57.2133 253.146 57.12C252.826 57.0267 252.619 56.98 252.526 56.98C252.139 56.98 251.819 57.1933 251.566 57.62C252.766 58.06 253.586 58.48 254.026 58.88C254.652 59.48 254.966 60.3533 254.966 61.5C254.966 62.78 254.386 63.7533 253.226 64.42C252.199 65.0067 250.832 65.3 249.126 65.3C248.846 65.3 248.146 65.26 247.026 65.18C246.799 65.1533 246.679 65.14 246.666 65.14C246.479 65.14 246.359 65.2133 246.306 65.36C246.266 65.4667 246.552 65.6467 247.166 65.9C247.232 65.9133 248.299 66.0533 250.366 66.32C252.432 66.5867 253.866 66.88 254.666 67.2C255.692 67.6133 256.206 68.3933 256.206 69.54ZM250.866 61.46C250.866 60.54 250.772 59.9 250.586 59.54C250.346 59.0867 249.899 58.86 249.246 58.86C248.179 58.86 247.646 59.7267 247.646 61.46C247.646 63.0067 248.179 63.78 249.246 63.78C250.326 63.78 250.866 63.0067 250.866 61.46ZM252.206 70.38C252.206 70.1533 251.946 69.9933 251.426 69.9C251.012 69.8467 250.592 69.7933 250.166 69.74C248.179 69.3933 247.059 69.22 246.806 69.22C246.579 69.1933 246.372 69.2467 246.186 69.38C245.999 69.5133 245.906 69.68 245.906 69.88C245.906 70.64 247.192 71.02 249.766 71.02C251.392 71.02 252.206 70.8067 252.206 70.38Z" fill="black"/>
<path d="M268.915 65.18C268.915 65.7933 268.368 66.4533 267.275 67.16C266.008 67.9733 264.528 68.38 262.835 68.38C261.008 68.38 259.568 67.8733 258.515 66.86C257.515 65.8733 257.015 64.5667 257.015 62.94C257.015 61.2467 257.548 59.8933 258.615 58.88C259.682 57.8533 261.115 57.34 262.915 57.34C264.168 57.34 265.295 57.7133 266.295 58.46C267.242 59.1533 267.802 59.98 267.975 60.94C268.002 61.0867 267.875 61.2467 267.595 61.42L261.355 64.48C261.448 64.8933 261.795 65.2867 262.395 65.66C263.062 66.0733 263.782 66.28 264.555 66.28C265.262 66.28 266.055 65.9933 266.935 65.42C267.828 64.8333 268.302 64.54 268.355 64.54C268.728 64.54 268.915 64.7533 268.915 65.18ZM264.335 61.22C264.335 60.7267 264.102 60.24 263.635 59.76C263.182 59.2667 262.688 59.02 262.155 59.02C261.475 59.02 260.975 59.2733 260.655 59.78C260.388 60.18 260.255 60.5933 260.255 61.02C260.255 61.8733 260.375 62.54 260.615 63.02L264.335 61.22Z" fill="black"/>
<path d="M283.025 67.52C283.025 67.6533 282.952 67.7867 282.805 67.92C282.658 68.04 282.485 68.1 282.285 68.1H277.425C276.945 68.1 276.705 67.9067 276.705 67.52C276.705 67.24 276.952 66.9333 277.445 66.6C277.938 66.2667 278.178 66.02 278.165 65.86C277.898 64.0733 277.552 62.6667 277.125 61.64C276.672 60.56 276.172 60.02 275.625 60.02C274.718 60.02 274.265 60.62 274.265 61.82V65.6C274.265 66.0133 274.458 66.38 274.845 66.7C275.232 67.02 275.425 67.2933 275.425 67.52C275.425 67.6533 275.338 67.7867 275.165 67.92C275.005 68.04 274.825 68.1 274.625 68.1H270.365C269.898 68.1 269.665 67.9067 269.665 67.52C269.665 67.2933 269.885 66.9933 270.325 66.62C270.778 66.2333 271.005 65.8733 271.005 65.54V61.64C271.005 61.2667 270.778 60.9467 270.325 60.68C269.885 60.4133 269.665 60.18 269.665 59.98C269.665 59.7 270.272 59.1933 271.485 58.46C272.645 57.74 273.385 57.38 273.705 57.38C274.078 57.38 274.265 57.58 274.265 57.98V59.22C275.105 57.9933 275.985 57.38 276.905 57.38C277.865 57.38 278.665 57.88 279.305 58.88C279.852 59.72 280.372 61.0933 280.865 63C281.305 64.72 281.572 65.6867 281.665 65.9C281.772 66.1133 282.025 66.3467 282.425 66.6C282.825 66.8533 283.025 67.16 283.025 67.52Z" fill="black"/>
<path d="M295.274 65.3C294.808 66.26 294.281 66.96 293.694 67.4C292.774 68.1067 291.474 68.46 289.794 68.46C288.021 68.46 286.561 67.9667 285.414 66.98C284.268 65.98 283.694 64.68 283.694 63.08C283.694 61.5333 284.254 60.2133 285.374 59.12C286.614 57.9067 288.288 57.3 290.394 57.3C291.408 57.3 292.354 57.4467 293.234 57.74C294.221 58.06 294.714 58.46 294.714 58.94C294.714 59.2867 294.514 59.8667 294.114 60.68C293.674 61.56 293.308 62 293.014 62C292.894 62 292.681 61.7133 292.374 61.14C291.974 60.38 291.654 59.8467 291.414 59.54C290.948 58.9533 290.454 58.66 289.934 58.66C289.241 58.66 288.674 58.9933 288.234 59.66C287.808 60.3133 287.594 61.2133 287.594 62.36C287.594 63.6933 287.894 64.74 288.494 65.5C289.094 66.26 289.934 66.64 291.014 66.64C291.641 66.64 292.294 66.4133 292.974 65.96C293.094 65.8667 293.681 65.3933 294.734 64.54C295.094 64.54 295.274 64.7933 295.274 65.3Z" fill="black"/>
<path d="M309.569 58.54C309.569 58.7133 309.295 59.0333 308.749 59.5C308.135 60.02 307.769 60.4133 307.649 60.68L303.809 69.32C303.275 70.5067 302.589 71.4333 301.749 72.1C301.055 72.6333 300.235 72.9 299.289 72.9C298.049 72.9 297.362 72.5133 297.229 71.74L296.749 69.06C296.669 68.5667 296.889 68.32 297.409 68.32C297.462 68.32 297.742 68.6 298.249 69.16C298.769 69.7333 299.262 70.02 299.729 70.02C300.489 70.02 301.049 69.5733 301.409 68.68L297.709 60.44C297.575 60.16 297.242 59.8333 296.709 59.46C296.242 59.14 296.009 58.8933 296.009 58.72C296.009 58.3467 296.149 58.1 296.429 57.98C296.642 57.9 297.035 57.86 297.609 57.86H301.649C302.275 57.86 302.589 58.0733 302.589 58.5C302.589 58.6467 302.402 58.88 302.029 59.2C301.669 59.5067 301.489 59.7267 301.489 59.86C301.489 59.94 301.509 60.0333 301.549 60.14L303.469 64.38L305.209 60.32C305.289 60.1333 305.329 59.98 305.329 59.86C305.329 59.7533 305.155 59.56 304.809 59.28C304.475 58.9867 304.309 58.74 304.309 58.54C304.309 58.0867 304.662 57.86 305.369 57.86H308.689C309.275 57.86 309.569 58.0867 309.569 58.54Z" fill="black"/>
<g clip-path="url(#clip0_32_663)">
<path d="M43.4996 87.0009C19.4749 87.0009 -0.00087738 67.5251 -0.00087738 43.5004C-0.00087738 19.4758 19.4749 0 43.4996 0C67.5242 0 87 19.4758 87 43.5004C87 67.5251 67.5242 87.0009 43.4996 87.0009Z" fill="#D8FF4F"/>
<path d="M43.498 76.5024C25.2716 76.5024 10.4961 61.727 10.4961 43.5005C10.4961 25.274 25.2716 10.4985 43.498 10.4985C61.7245 10.4985 76.5 25.274 76.5 43.5005C76.5 61.727 61.7245 76.5024 43.498 76.5024Z" stroke="black" stroke-width="3" stroke-miterlimit="10"/>
<path d="M57.8099 56.1865C57.3853 56.6512 56.9307 57.0875 56.4489 57.4927C55.1948 58.5927 53.8299 59.5596 52.3761 60.3777C48.2145 62.6879 43.3284 63.5422 38.7044 62.1794C35.047 61.1013 31.8659 58.8512 29.1873 56.1873C28.4593 55.4637 28.4088 54.1305 29.1873 53.4164C29.9658 52.7024 31.1814 52.644 31.9582 53.4164C32.5852 54.0399 33.2339 54.6356 33.9158 55.2025C34.0751 55.3331 34.2319 55.475 34.4017 55.5926C34.3486 55.556 34.0795 55.3522 34.3677 55.5647C34.4478 55.6248 34.528 55.6849 34.6089 55.7441C34.9224 55.9763 35.2417 56.1981 35.5668 56.4094C36.1759 56.8095 36.8074 57.1744 37.4582 57.5023C37.763 57.6555 38.0861 57.7783 38.3883 57.9377C38.3526 57.9185 37.9529 57.7635 38.2664 57.8846L38.4405 57.9534C38.6112 58.0201 38.7827 58.084 38.9552 58.1449C39.5428 58.3528 40.1424 58.5249 40.7508 58.6604C41.0408 58.7249 41.3333 58.7806 41.6268 58.8268C41.6808 58.8355 41.7357 58.8416 41.7896 58.852C42.0387 58.8982 41.3421 58.7998 41.5928 58.8259C41.7531 58.8425 41.9133 58.8625 42.0744 58.8773C42.6294 58.9272 43.1867 58.9449 43.7437 58.9304C44.0137 58.9234 44.2831 58.9089 44.5519 58.8869C44.6685 58.8773 44.7844 58.8668 44.9002 58.8546L45.097 58.832C45.4288 58.7954 45.0169 58.839 44.9185 58.8573C45.9182 58.6657 46.8935 58.4758 47.8601 58.1441C48.0743 58.0709 48.2868 57.9934 48.4975 57.9116C48.609 57.868 48.7187 57.8245 48.8293 57.7792C49.1907 57.6338 48.373 57.9786 48.8075 57.787C49.2238 57.603 49.633 57.4045 50.0353 57.1914C50.7709 56.8019 51.4827 56.3693 52.1671 55.8956C52.4283 55.7136 52.8637 55.5055 53.0527 55.2512C53.0745 55.2216 52.606 55.5996 52.808 55.4402L52.9064 55.3627L53.0745 55.2286C53.2028 55.1247 53.3299 55.0199 53.4559 54.9142C54.0192 54.4531 54.5489 53.9523 55.0408 53.4156C55.7235 52.6466 57.1246 52.6675 57.8117 53.4156C58.5649 54.2359 58.5397 55.3662 57.8117 56.1865H57.8099Z" fill="black"/>
<path d="M57.8142 41.9731C59.1588 41.9731 60.6496 40.8828 61.3514 39.3545C61.9793 37.9882 61.8269 36.601 60.9544 35.5831C61.1568 35.5693 61.3539 35.512 61.5321 35.4151C61.7104 35.3182 61.8656 35.1839 61.9871 35.0214C62.3424 34.5477 62.3459 33.9442 62.3477 33.46V33.3808C62.3606 32.4404 62.5156 31.5074 62.8074 30.6134C62.9047 30.3303 63.0211 30.0542 63.1558 29.787C63.3451 29.4181 63.4996 29.0324 63.6173 28.6349C63.754 28.1194 63.7096 27.6021 63.4954 27.2155C63.3685 26.9903 63.1841 26.8028 62.9611 26.6723C62.738 26.5418 62.4842 26.4729 62.2257 26.4727C61.8513 26.4843 61.484 26.5785 61.1503 26.7487C58.4072 28.0262 56.2738 29.9907 54.8195 32.5875C54.7803 32.6651 54.7203 32.7304 54.6462 32.776C54.5721 32.8216 54.4868 32.8457 54.3998 32.8457C54.3128 32.8457 54.2275 32.8216 54.1534 32.776C54.0793 32.7304 54.0193 32.6651 53.98 32.5875C52.5241 29.9916 50.394 28.0271 47.6501 26.7531C47.3161 26.5873 46.9493 26.4981 46.5764 26.4918C46.3178 26.4898 46.0634 26.5568 45.8394 26.686C45.6155 26.8152 45.4301 27.0019 45.3024 27.2268C45.0873 27.6143 45.0412 28.1298 45.1805 28.6427C45.2959 29.0387 45.4484 29.423 45.6359 29.7904C45.7708 30.0573 45.8871 30.3332 45.9843 30.616C46.2759 31.5095 46.4309 32.4419 46.4441 33.3817V33.4618C46.4441 33.9451 46.4502 34.5477 46.8046 35.0214C46.9256 35.1824 47.0797 35.3157 47.2565 35.4123C47.4332 35.5088 47.6286 35.5665 47.8295 35.5813C46.9648 36.5967 46.815 37.9761 47.4385 39.3336C48.1761 40.9394 49.7819 42.0584 51.183 41.9409C52.0312 41.8686 52.7992 41.3861 53.347 40.5824C53.805 39.9093 54.1037 39.1725 54.3919 38.3949C54.6828 39.1725 54.9806 39.9093 55.4369 40.5824C55.9968 41.4036 56.7649 41.8947 57.6009 41.9661C57.6688 41.9713 57.7367 41.9739 57.8055 41.9739L57.8142 41.9731Z" fill="#F935FF" stroke="black" stroke-miterlimit="10"/>
<path d="M54.3977 36.3973C53.7306 36.3973 53.1898 35.8566 53.1898 35.1895C53.1898 34.5224 53.7306 33.9817 54.3977 33.9817C55.0647 33.9817 55.6055 34.5224 55.6055 35.1895C55.6055 35.8566 55.0647 36.3973 54.3977 36.3973Z" fill="black"/>
<path d="M36.5486 41.9731C37.8931 41.9731 39.3839 40.8828 40.0867 39.3545C40.7137 37.9882 40.5622 36.601 39.6896 35.5831C39.8919 35.5693 40.0888 35.5119 40.2669 35.415C40.445 35.3181 40.6001 35.1838 40.7215 35.0214C41.0768 34.5477 41.0803 33.9442 41.0829 33.46V33.3808C41.096 32.4408 41.2507 31.5081 41.5418 30.6142C41.6398 30.3315 41.7562 30.0554 41.8901 29.7878C42.0798 29.4192 42.2344 29.0334 42.3517 28.6357C42.4884 28.1202 42.444 27.603 42.2298 27.2163C42.103 26.991 41.9187 26.8033 41.6956 26.6727C41.4725 26.542 41.2187 26.473 40.9601 26.4727C40.5857 26.4843 40.2184 26.5785 39.8847 26.7487C37.1416 28.0262 35.0081 29.9907 33.5539 32.5875C33.5148 32.6652 33.4549 32.7305 33.3809 32.7761C33.3068 32.8217 33.2216 32.8459 33.1346 32.8459C33.0476 32.8459 32.9624 32.8217 32.8883 32.7761C32.8143 32.7305 32.7544 32.6652 32.7153 32.5875C31.2584 29.9916 29.1284 28.0271 26.3845 26.7531C26.0504 26.5873 25.6836 26.4981 25.3108 26.4918C25.0522 26.4898 24.7979 26.5569 24.5739 26.6861C24.3499 26.8153 24.1645 27.002 24.0368 27.2268C23.8217 27.6143 23.7756 28.1298 23.9149 28.6427C24.0319 29.0395 24.1861 29.4244 24.3755 29.7922C24.5104 30.0591 24.6267 30.3349 24.7239 30.6177C25.0159 31.5111 25.1709 32.4436 25.1837 33.3834V33.4635C25.1837 33.9468 25.1897 34.5494 25.5442 35.0231C25.6652 35.1842 25.8193 35.3174 25.9961 35.414C26.1728 35.5106 26.3682 35.5682 26.5691 35.5831C25.7044 36.5984 25.5546 37.9778 26.1781 39.3354C26.9157 40.9412 28.5223 42.0602 29.9226 41.9426C30.7708 41.8703 31.5388 41.3879 32.0874 40.5841C32.5446 39.911 32.8433 39.1743 33.1324 38.3967C33.4233 39.1743 33.7211 39.911 34.1774 40.5841C34.7373 41.4053 35.5054 41.8964 36.3422 41.9678C36.409 41.9731 36.4769 41.9757 36.546 41.9757L36.5486 41.9731Z" fill="#F935FF" stroke="black" stroke-miterlimit="10"/>
<path d="M33.1359 36.3973C32.4689 36.3973 31.9281 35.8566 31.9281 35.1895C31.9281 34.5224 32.4689 33.9817 33.1359 33.9817C33.803 33.9817 34.3438 34.5224 34.3438 35.1895C34.3438 35.8566 33.803 36.3973 33.1359 36.3973Z" fill="black"/>
</g>
<defs>
<clipPath id="clip0_32_663">
<rect width="87" height="87" fill="white" transform="matrix(-1 0 0 1 87 0)"/>
</clipPath>
</defs>
</svg>
