<svg width="73" height="73" viewBox="0 0 73 73" fill="none" xmlns="http://www.w3.org/2000/svg">
<path d="M50.552 45.3481L50.5515 45.3482C48.0068 46.0203 46.0206 48.0101 45.349 50.5531L45.349 50.5534L40.6683 68.2884L40.6682 68.2887C39.539 72.5704 33.461 72.5704 32.3318 68.2887L32.3317 68.2884L27.651 50.5534L27.651 50.5531C26.9794 48.0101 24.9932 46.0203 22.4485 45.3482L22.448 45.3481L4.71173 40.6697C0.429424 39.5385 0.429424 33.4615 4.71173 32.3303L22.448 27.6519L22.4485 27.6518C24.9926 26.9798 26.9794 24.9927 27.6511 22.4465L32.3317 4.71156L32.3318 4.71131C33.461 0.429566 39.539 0.429564 40.6682 4.71131L40.6683 4.71156L45.3489 22.4465C45.3489 22.4465 45.3489 22.4466 45.349 22.4466C46.0207 24.9928 48.0074 26.9799 50.5515 27.6518L50.552 27.6519L68.2883 32.3303C72.5706 33.4615 72.5706 39.5385 68.2883 40.6697L50.552 45.3481Z" fill="#FFBF3E" stroke="black" stroke-width="3"/>
</svg>
