<svg width="31" height="31" viewBox="0 0 31 31" fill="none" xmlns="http://www.w3.org/2000/svg">
<mask id="mask0_32_289" style="mask-type:alpha" maskUnits="userSpaceOnUse" x="0" y="0" width="31" height="31">
<rect width="31" height="31" fill="#D9D9D9"/>
</mask>
<g mask="url(#mask0_32_289)">
<path d="M15.5014 22.346L10.7222 25.995C10.4854 26.1887 10.2271 26.28 9.94725 26.2688C9.66739 26.2585 9.41982 26.178 9.20454 26.0273C8.98926 25.8766 8.82264 25.6721 8.70466 25.4137C8.58583 25.1554 8.58023 24.8755 8.68787 24.5741L10.5285 18.6002L5.84621 15.2741C5.58787 15.1019 5.42641 14.8759 5.36183 14.596C5.29725 14.3162 5.30801 14.0578 5.39412 13.821C5.48023 13.5842 5.63093 13.3741 5.84621 13.1907C6.06148 13.0081 6.31982 12.9169 6.62121 12.9169H12.4014L14.2743 6.71685C14.382 6.41546 14.549 6.18383 14.7755 6.02194C15.0011 5.86091 15.2431 5.7804 15.5014 5.7804C15.7597 5.7804 16.0017 5.86091 16.2273 6.02194C16.4538 6.18383 16.6209 6.41546 16.7285 6.71685L18.6014 12.9169H24.3816C24.683 12.9169 24.9413 13.0081 25.1566 13.1907C25.3719 13.3741 25.5226 13.5842 25.6087 13.821C25.6948 14.0578 25.7056 14.3162 25.641 14.596C25.5764 14.8759 25.415 15.1019 25.1566 15.2741L20.4743 18.6002L22.315 24.5741C22.4226 24.8755 22.4174 25.1554 22.2995 25.4137C22.1806 25.6721 22.0136 25.8766 21.7983 26.0273C21.583 26.178 21.3354 26.2585 21.0556 26.2688C20.7757 26.28 20.5174 26.1887 20.2806 25.995L15.5014 22.346Z" fill="#1C1B1F"/>
</g>
</svg>
