<svg width="204" height="245" viewBox="0 0 204 245" fill="none" xmlns="http://www.w3.org/2000/svg">
<path d="M65.8743 228.709L86.3164 215.549C87.128 215.027 88.1512 214.959 89.0207 215.37L110.92 225.715C112.082 226.264 113.413 225.362 113.333 224.081L107.437 128.944L57.3817 132.271L63.2789 227.407C63.3584 228.689 64.7901 229.407 65.8743 228.709Z" fill="#61A2F9"/>
<path d="M74.1545 131.133L90.6327 130.038L96.1332 218.753L89.0092 215.389C88.1384 214.978 87.1143 215.046 86.3015 215.569L79.6554 219.848L74.1545 131.133Z" fill="#DD636E"/>
<path d="M194.022 186.95L169.781 188.381C168.819 188.438 167.951 188.987 167.489 189.833L155.84 211.134C155.222 212.263 153.617 212.321 152.931 211.237L101.965 130.818L144.394 103.944L195.359 184.364C196.045 185.448 195.308 186.874 194.022 186.95Z" fill="#61A2F9"/>
<path d="M130.136 112.936L116.169 121.779L163.715 196.77L167.504 189.843C167.967 188.997 168.835 188.447 169.799 188.39L177.682 187.927L130.136 112.936Z" fill="#DD636E"/>
<path d="M152.275 67.2527C153.994 72.56 150.973 78.6822 151.245 84.0063C151.526 89.515 155.103 95.2778 153.963 100.554C152.807 105.906 147.136 109.73 144.653 114.578C142.17 119.426 142.394 126.235 138.72 130.312C135.099 134.332 128.306 134.846 123.659 137.86C119.168 140.774 115.965 146.803 110.636 148.544C105.307 150.284 99.1843 147.3 93.8457 147.597C88.322 147.904 82.5276 151.5 77.2439 150.389C71.8845 149.261 68.0778 143.622 63.2302 141.169C58.3825 138.715 51.5555 138.972 47.4856 135.327C43.4734 131.734 42.9909 124.96 39.9918 120.339C37.0929 115.874 31.0637 112.707 29.3449 107.4C27.626 102.092 30.647 95.9701 30.3754 90.646C30.0944 85.1373 26.5168 79.3745 27.6567 74.0984C28.8129 68.7467 34.4844 64.922 36.9675 60.0744C39.4506 55.2267 39.2263 48.4177 42.9 44.3401C46.5214 40.3203 53.3141 39.8063 57.9611 36.7921C62.4518 33.8787 65.6554 27.8489 70.9842 26.1086C76.313 24.3684 82.4358 27.3523 87.7744 27.0556C93.2981 26.7486 99.0925 23.1519 104.376 24.2635C109.736 25.391 113.542 31.0301 118.39 33.4836C123.238 35.9371 130.065 35.6805 134.134 39.3254C138.147 42.9185 138.629 49.6921 141.628 54.3131C144.527 58.7788 150.556 61.9453 152.275 67.2527Z" fill="#FFE07D"/>
<path d="M105.554 132.86C130.803 124.614 144.669 97.5433 136.525 72.3959C128.381 47.2484 101.31 33.5471 76.0609 41.793C50.8118 50.039 36.9454 77.1096 45.0897 102.257C53.2339 127.404 80.3045 141.106 105.554 132.86Z" fill="#86F1A7"/>
<path d="M75.9851 41.8063C74.0062 42.4524 72.0974 43.2141 70.2632 44.0813C93.7044 39.5864 117.313 53.0507 124.827 76.2461C132.341 99.4415 121.138 124.272 99.5469 134.48C101.538 134.098 103.528 133.587 105.507 132.941C130.781 124.689 144.661 97.5978 136.509 72.4319C128.357 47.2659 101.259 33.5542 75.9851 41.8063Z" fill="#80E29D"/>
<path d="M111.775 59.819C108.725 58.3675 105.062 59.663 103.593 62.711L86.9327 97.2674L70.3829 88.2632C67.4174 86.6503 63.6909 87.746 62.0586 90.7118C60.4269 93.6778 61.5079 97.3899 64.4732 99.0032L86.6899 111.091C88.1643 111.893 89.907 112.053 91.5102 111.535L91.5261 111.53C93.122 111.009 94.4373 109.859 95.1655 108.349L114.634 67.9669C116.104 64.918 114.824 61.2702 111.775 59.819Z" fill="#F1F4F6"/>
<path d="M197.961 182.474L186.46 164.327C185.557 162.903 183.663 162.485 182.227 163.394C180.792 164.303 180.36 166.194 181.263 167.619L191.514 183.793L179.283 184.526L143.658 128.318C144.568 126.233 145.111 124.017 145.611 121.961C146.15 119.748 146.659 117.658 147.517 115.987C147.662 115.704 147.828 115.422 148.003 115.14L173.748 155.761C174.511 156.964 175.981 157.449 177.284 157.022C177.524 156.944 177.758 156.835 177.981 156.694C179.416 155.785 179.848 153.894 178.945 152.47L152.048 110.032C154.176 107.522 156.366 104.684 157.123 101.201C157.96 97.3452 156.878 93.6411 155.831 90.0582C155.187 87.8532 154.578 85.7707 154.482 83.851C154.391 82.0504 154.784 79.9809 155.201 77.7904C155.877 74.2317 156.644 70.1987 155.386 66.3099C154.129 62.4211 151.15 59.6127 148.522 57.1352C146.904 55.6098 145.376 54.1688 144.395 52.6593C143.351 51.0502 142.625 49.0061 141.856 46.8413C140.608 43.3253 139.316 39.6891 136.384 37.0668C133.409 34.4057 129.446 33.4724 125.95 32.6494C123.732 32.1271 121.638 31.6344 119.968 30.7903C118.297 29.9472 116.663 28.5582 114.933 27.087C112.205 24.7681 109.113 22.1391 105.192 21.3186C101.329 20.5104 97.604 21.614 94.0017 22.6809C91.7841 23.3381 89.6897 23.958 87.7623 24.0671C85.9545 24.1692 83.8806 23.7915 81.6848 23.3917C78.119 22.742 74.0766 22.0054 70.1651 23.2848C66.254 24.5641 63.4157 27.5512 60.9113 30.1863C59.3694 31.8087 57.9135 33.3413 56.3911 34.3285C54.7688 35.3809 52.7122 36.1178 50.5349 36.8985C46.9976 38.1665 43.3398 39.4773 40.6886 42.417C38.4286 44.922 37.3936 48.0814 36.6117 51.1225C36.1904 52.7618 37.1801 54.422 38.8225 54.8307C40.4654 55.2396 42.1376 54.2415 42.559 52.6026C43.2362 49.9676 43.9517 47.9203 45.2422 46.4893C46.8503 44.7064 49.6326 43.709 52.5789 42.6532C54.9931 41.7873 57.4899 40.8927 59.7157 39.4492C61.8532 38.063 63.6339 36.189 65.356 34.3765C67.5492 32.0686 69.6205 29.8887 72.0442 29.096C74.4679 28.3032 77.4183 28.8406 80.5418 29.4099C82.9941 29.8566 85.5301 30.3187 88.0691 30.1753C90.7133 30.0259 93.2563 29.2729 95.7149 28.5441C98.7148 27.6555 101.549 26.8159 103.892 27.306C106.291 27.8082 108.544 29.7241 110.93 31.7523C112.855 33.3887 114.846 35.0814 117.164 36.2518C119.482 37.4218 122.033 38.0225 124.5 38.6031C127.558 39.3233 130.446 40.0031 132.266 41.6314C134.045 43.222 135.027 45.9881 136.067 48.9166C136.919 51.3165 137.8 53.7982 139.234 56.0063C140.611 58.1263 142.479 59.8883 144.286 61.5918C146.588 63.7622 148.762 65.8113 149.541 68.2214C150.32 70.6311 149.761 73.575 149.169 76.6911C148.704 79.138 148.223 81.6682 148.35 84.1971C148.482 86.8312 149.22 89.3595 149.935 91.8046C150.806 94.7881 151.63 97.606 151.122 99.9449C150.602 102.338 148.665 104.597 146.613 106.988C144.957 108.917 143.246 110.912 142.055 113.23C140.865 115.548 140.246 118.094 139.646 120.556C138.903 123.608 138.201 126.491 136.554 128.316C134.946 130.099 132.164 131.096 129.217 132.152C126.803 133.018 124.306 133.913 122.08 135.356C119.943 136.742 118.163 138.617 116.44 140.429C114.247 142.737 112.176 144.917 109.752 145.71C107.328 146.503 104.378 145.965 101.255 145.396C98.8023 144.949 96.2663 144.487 93.7272 144.63C91.083 144.78 88.5399 145.533 86.0813 146.261C83.0815 147.15 80.2476 147.989 77.9046 147.499C75.5055 146.997 73.2522 145.082 70.8663 143.053C68.9411 141.417 66.9507 139.724 64.6325 138.554C62.3147 137.384 59.7636 136.783 57.2965 136.202C54.2387 135.482 51.3505 134.802 49.5299 133.174C47.7515 131.583 46.7692 128.817 45.7294 125.888C44.8771 123.488 43.9958 121.007 42.5623 118.799C41.1856 116.679 39.3169 114.917 37.5099 113.213C35.2083 111.043 33.0345 108.994 32.2552 106.584C31.476 104.174 32.0353 101.23 32.6274 98.1139C33.0923 95.6674 33.5732 93.1369 33.4466 90.608C33.3144 87.9738 32.5757 85.4455 31.8613 83.0005C30.9896 80.017 30.1659 77.199 30.6742 74.86C31.3703 71.6546 34.0124 69.2135 36.0575 66.7938C37.1536 65.4971 36.9931 63.5683 35.6995 62.4848C34.4059 61.4013 32.4691 61.5743 31.3728 62.8706C28.6471 66.0938 25.5889 69.3551 24.6741 73.6045C23.8366 77.4597 24.919 81.1642 25.9659 84.7471C26.61 86.9521 27.2187 89.0346 27.3151 90.9543C27.4053 92.7549 27.0124 94.8244 26.5956 97.0149C25.9193 100.573 25.1527 104.607 26.4102 108.495C27.6678 112.385 30.6466 115.193 33.2746 117.67C34.8925 119.195 36.4209 120.636 37.4012 122.146C38.4459 123.755 39.1719 125.799 39.9404 127.964C41.1891 131.48 42.4802 135.116 45.4123 137.738C48.0615 140.108 51.4927 141.107 54.6813 141.878L59.919 227.624C60.0224 229.319 60.991 230.785 62.5105 231.545C64.0302 232.306 65.796 232.208 67.2326 231.283L87.5686 218.193C87.5686 218.193 109.32 228.442 109.331 228.447C110.83 229.154 112.666 229.008 114.046 228.074C115.46 227.117 116.243 225.533 116.139 223.838L111.742 151.865L150.28 212.671C151.188 214.103 152.747 214.921 154.452 214.858C156.108 214.797 157.674 213.847 158.483 212.371L170.084 191.204L194.186 189.759C195.889 189.656 197.374 188.691 198.158 187.177C198.942 185.663 198.869 183.905 197.961 182.474ZM65.9045 224.877L60.9404 143.618C61.2464 143.742 61.5457 143.872 61.8285 144.015C63.4994 144.858 65.1334 146.247 66.8636 147.719C68.4704 149.085 70.2059 150.556 72.1602 151.704L76.2246 218.235L65.9045 224.877ZM90.082 212.593C88.2405 211.725 86.1142 211.868 84.3947 212.976L82.145 214.424L78.4374 153.731C81.6493 153.941 84.7654 153.022 87.7947 152.125C88.1033 152.033 88.409 151.943 88.7125 151.855L92.4926 213.729L90.082 212.593ZM109.868 221.916L98.8273 216.713L94.796 150.724C96.4155 150.742 98.2172 151.069 100.111 151.414C101.853 151.732 103.709 152.068 105.608 152.182L109.868 221.916ZM154.228 207.407L116.888 148.492C118.357 147.277 119.661 145.907 120.885 144.619C122.214 143.22 123.481 141.89 124.78 140.917L160.114 196.667L154.228 207.407ZM169.601 185.106C167.561 185.228 165.758 186.37 164.776 188.161L163.492 190.506L130.361 138.232C130.658 138.125 130.958 138.017 131.261 137.908C134.235 136.842 137.293 135.741 139.768 133.671L172.266 184.947L169.601 185.106Z" fill="black"/>
<path d="M106.461 135.726C133.299 126.946 148.115 98.0913 139.486 71.404C130.858 44.7168 102.003 30.1479 75.1651 38.9275C48.3267 47.7072 33.5114 76.5619 42.1397 103.249C50.768 129.936 79.6227 144.505 106.461 135.726ZM77.0426 44.7346C100.661 37.0084 126.053 49.8292 133.646 73.3145C141.24 96.7998 128.202 122.192 104.584 129.919C80.9654 137.645 55.5727 124.824 47.9797 101.339C40.3866 77.8535 53.4244 52.4608 77.0426 44.7346Z" fill="black"/>
<path d="M62.9658 101.708L85.1787 113.766C87.3799 114.961 90.0155 115.201 92.4349 114.417C94.8191 113.637 96.8111 111.897 97.9006 109.643L117.415 69.2677C118.484 67.0567 118.627 64.5687 117.819 62.263C117.011 59.9567 115.348 58.1088 113.136 57.0585C108.571 54.8917 103.062 56.841 100.855 61.4056L85.563 93.044L71.8488 85.5989C67.4085 83.1895 61.8037 84.841 59.3548 89.2824C56.9056 93.723 58.5256 99.2976 62.9658 101.708ZM64.723 92.1969C65.1153 91.4859 65.7506 90.9889 66.4689 90.7539C67.2456 90.4998 68.1191 90.5517 68.8879 90.9693L85.4348 99.9519C86.1718 100.352 87.0438 100.431 87.8456 100.171C88.6616 99.907 89.3092 99.3349 89.6756 98.5772L106.375 64.027C107.111 62.5059 108.947 61.8559 110.469 62.5775C111.206 62.9272 111.76 63.5438 112.03 64.3125C112.299 65.0813 112.251 65.9103 111.895 66.6476L92.3805 107.023C92.0173 107.774 91.3531 108.354 90.5508 108.616C89.7519 108.875 88.8732 108.795 88.1396 108.397L65.9267 96.3389C64.4469 95.5348 63.9068 93.6767 64.723 92.1969Z" fill="black"/>
</svg>
