<svg width="1437" height="4585" viewBox="0 0 1437 4585" fill="none" xmlns="http://www.w3.org/2000/svg">
<path d="M1068.5 174.944C1159.93 202.247 1160.96 321.098 1084 398.08C1007.04 475.063 828.598 552.732 749 581.944" stroke="black" stroke-width="3" stroke-dasharray="8 11"/>
<path d="M749 581.944C499.5 689.278 8.10018 930.144 38.5002 1034.94C68.9002 1139.74 396.167 1133.61 556 1117.44C783.833 1098.94 1227.4 1118.84 1179 1346.44C1130.6 1574.04 693.5 1698.94 481 1732.94C312.167 1765.61 45.7 1854.74 330.5 1949.94C686.5 2068.94 1535.5 2072.44 1425 2414.94C1336.6 2688.94 573.667 2936.44 385 2960.44" stroke="black" stroke-width="3" stroke-dasharray="8 11"/>
<path d="M528.62 2919.94C344.042 2999.36 -19.4926 3177.59 2.99712 3255.13C25.4868 3332.68 267.596 3328.14 385.84 3316.18C554.389 3302.49 882.536 3317.21 846.73 3485.62C810.924 3654.03 487.561 3746.45 330.355 3771.61C205.454 3795.78 8.3235 3861.73 219.016 3932.17C482.383 4020.23 1110.47 4022.81 1028.72 4276.24C963.322 4478.98 667.824 4565.19 528.25 4582.94" stroke="black" stroke-width="3" stroke-dasharray="8 11"/>
<g clip-path="url(#clip0_118_47)">
<path d="M1118.78 106.346L983.282 159.775C976.149 170.044 974.623 185.082 978.601 195.17C982.418 204.848 997.775 224.887 1026.81 213.437C1062.3 199.444 1059.93 155.643 1059.93 155.643C1059.93 155.643 1088.1 189.267 1123.59 175.274C1152.63 163.824 1150.17 138.698 1146.36 129.02C1142.38 118.931 1131 108.982 1118.78 106.346Z" fill="#FFD77D"/>
<path d="M1125.51 47.7775C1125.51 47.7775 1118.46 39.3715 1099.11 47.0043C1070.07 58.4534 1055.03 105.389 1048.49 126.608C1029.22 115.566 986.195 91.5287 957.161 102.978C937.804 110.611 938.395 121.561 938.395 121.561C938.395 121.561 946.119 122.243 949.935 131.921C952.479 138.373 955.034 156.692 965.883 162.909C985.147 173.951 1052.3 136.286 1052.3 136.286C1052.3 136.286 1127.09 117.977 1133.64 96.7589C1137.32 84.8107 1126.69 69.6785 1124.14 63.2262C1120.33 53.5476 1125.51 47.7775 1125.51 47.7775Z" fill="#FFC855"/>
<path d="M1012.13 185.673C1015.7 184.268 1017.45 180.24 1016.04 176.677C1014.64 173.114 1010.61 171.364 1007.05 172.769C1003.48 174.174 1001.73 178.202 1003.14 181.765C1004.54 185.329 1008.57 187.078 1012.13 185.673Z" fill="#FF9B37"/>
<path d="M1115.37 144.965C1118.93 143.56 1120.68 139.532 1119.28 135.969C1117.87 132.406 1113.84 130.656 1110.28 132.061C1106.72 133.466 1104.97 137.494 1106.37 141.057C1107.78 144.621 1111.81 146.37 1115.37 144.965Z" fill="#FF9B37"/>
<path d="M1057.39 149.191C1053.83 150.596 1049.8 148.847 1048.39 145.283L1043.31 132.379C1041.9 128.815 1043.65 124.788 1047.21 123.383C1050.78 121.977 1054.8 123.727 1056.21 127.29L1061.3 140.195C1062.7 143.758 1060.95 147.786 1057.39 149.191Z" fill="#5A464B"/>
<path d="M1005.86 169.745C1000.63 171.806 998.055 177.734 1000.12 182.959C1002.18 188.185 1008.1 190.759 1013.33 188.699C1018.55 186.638 1021.13 180.711 1019.07 175.485C1017.01 170.26 1011.08 167.685 1005.86 169.745ZM1010.94 182.65C1009.05 183.395 1006.91 182.464 1006.16 180.574C1005.42 178.684 1006.35 176.54 1008.24 175.795C1010.13 175.049 1012.27 175.98 1013.02 177.871C1013.77 179.761 1012.83 181.905 1010.94 182.65Z" fill="black"/>
<path d="M1128 45.6905C1127.75 45.3956 1125.44 42.7707 1120.42 41.3943C1114.18 39.681 1106.61 40.5516 1097.91 43.9807C1084.64 49.2128 1073.05 61.1233 1063.46 79.3822C1057.02 91.6355 1052.52 104.675 1049.29 114.86C1048.15 99.021 1053.52 86.2657 1053.61 86.0543C1054.32 84.4081 1053.56 82.4952 1051.92 81.7797C1050.27 81.0642 1048.36 81.8194 1047.64 83.4662C1047.37 84.0859 1042.29 96.0296 1042.63 111.755C1032.14 100.033 1020.28 94.77 1019.66 94.5009C1018.01 93.7862 1016.1 94.54 1015.38 96.1842C1014.67 97.8285 1015.42 99.7437 1017.06 100.463C1017.21 100.527 1029.88 106.185 1039.88 118.573C1030.57 113.332 1018.38 106.875 1005.31 102.313C985.837 95.516 969.235 94.7218 955.967 99.954C947.271 103.383 941.141 107.917 937.749 113.428C935.023 117.857 935.127 121.352 935.147 121.737C935.234 123.352 936.496 124.658 938.107 124.8C938.165 124.806 943.914 125.518 946.91 133.115C947.411 134.387 947.955 136.322 948.583 138.562C951.003 147.189 954.661 160.227 964.264 165.731C967.332 167.489 971.304 168.346 976.157 168.312C972.678 178.144 972.419 188.355 975.577 196.363C977.83 202.077 983.215 209.976 991.571 215.012C998.808 219.373 1011 223.165 1028 216.462C1043.47 210.363 1054.46 197.836 1059.79 180.235C1060.88 176.648 1061.62 173.206 1062.13 170.085L1063.27 172.966C1063.93 174.636 1065.82 175.456 1067.49 174.797C1069.16 174.139 1069.98 172.251 1069.32 170.581L1068.18 167.7C1070.69 169.631 1073.58 171.638 1076.82 173.518C1092.73 182.745 1109.32 184.398 1124.78 178.299C1141.78 171.596 1148.11 160.5 1150.42 152.373C1153.09 142.99 1151.63 133.542 1149.38 127.828C1146.22 119.819 1139.06 112.533 1129.81 107.721C1133.38 104.434 1135.7 101.096 1136.74 97.7183C1140 87.1413 1133.78 75.1163 1129.66 67.1588C1128.59 65.0923 1127.66 63.3074 1127.16 62.0352C1124.25 54.6589 1127.64 50.3009 1127.94 49.9364C1129.06 48.7372 1129.05 46.9518 1128 45.6905ZM1100.3 50.0291C1111.94 45.4372 1118.33 47.1071 1121.19 48.6022C1119.93 51.2397 1118.75 55.5264 1120.07 61.0837C1115.11 62.6448 1105.46 66.1538 1094.03 74.5142C1078.78 85.6739 1065.84 101.443 1055.51 121.428C1055.11 121.16 1054.7 120.92 1054.28 120.709C1060.76 99.7872 1073.75 60.498 1100.3 50.0291ZM1056.2 146.166C1054.31 146.911 1052.16 145.98 1051.42 144.09L1046.33 131.186C1045.59 129.298 1046.52 127.157 1048.4 126.409C1048.4 126.409 1048.4 126.409 1048.4 126.409C1048.4 126.408 1048.41 126.407 1048.41 126.407C1048.41 126.406 1048.41 126.406 1048.41 126.406C1048.41 126.405 1048.41 126.405 1048.41 126.405C1050.3 125.664 1052.44 126.595 1053.19 128.483L1058.27 141.387C1059.02 143.277 1058.09 145.421 1056.2 146.166ZM958.352 106.003C984.9 95.5338 1021.21 115.383 1040.23 126.248C1040.06 126.693 1039.93 127.149 1039.82 127.614C1018.63 120.058 998.407 117.367 979.643 119.622C965.587 121.31 956.137 125.333 951.447 127.577C948.62 122.613 944.826 120.291 942.106 119.222C943.175 116.178 946.707 110.595 958.352 106.003ZM967.498 160.089C960.203 155.908 956.977 144.412 954.843 136.805C954.52 135.655 954.219 134.583 953.924 133.601C958.167 131.551 967.033 127.685 980.419 126.077C999.1 123.833 1019.41 126.806 1040.81 134.906L1041.69 137.138C1038.65 138.872 1025.61 146.179 1010.9 152.38C989.773 161.286 974.362 164.023 967.498 160.089ZM1053.51 178.538C1048.69 194.291 1039.31 205.015 1025.62 210.413C1013.95 215.012 1003.63 214.685 994.928 209.442C987.962 205.244 983.49 198.701 981.627 193.978C977.565 183.675 981.42 172.317 983.377 167.701C990.444 166.634 998.873 164.177 1008.63 160.328C1010.2 159.712 1011.8 159.06 1013.43 158.372C1027.36 152.499 1039.85 145.642 1044.1 143.247L1045.37 146.475C1047.01 150.643 1051.12 153.122 1055.36 152.91L1056.7 156.312C1056.75 158.541 1056.74 167.984 1053.51 178.538ZM1143.33 130.212C1145.2 134.936 1146.39 142.77 1144.17 150.592C1141.39 160.363 1134.06 167.65 1122.4 172.249C1108.71 177.647 1094.53 176.214 1080.26 167.991C1070.69 162.479 1064.24 155.584 1062.75 153.926L1061.41 150.524C1064.66 147.781 1065.97 143.169 1064.32 139.001L1063.05 135.773C1067.79 134.624 1081.6 131.11 1095.79 125.893C1097.45 125.282 1099.06 124.669 1100.63 124.052C1110.39 120.203 1118.23 116.246 1124.12 112.201C1128.7 114.24 1139.27 119.91 1143.33 130.212ZM1130.53 95.801C1128.2 103.354 1115.09 111.864 1093.6 119.769C1078.62 125.284 1064.05 128.857 1060.64 129.665L1059.76 127.433C1069.87 106.909 1082.69 90.8731 1097.87 79.7626C1108.75 71.8025 1117.87 68.5766 1122.37 67.1783C1122.83 68.0968 1123.34 69.0865 1123.89 70.147C1127.52 77.1631 1133.01 87.7663 1130.53 95.801Z" fill="black"/>
<path d="M1103.35 142.251C1105.41 147.477 1111.33 150.051 1116.56 147.991C1121.79 145.93 1124.36 140.003 1122.3 134.777C1120.24 129.552 1114.31 126.977 1109.09 129.037C1103.86 131.098 1101.29 137.026 1103.35 142.251ZM1111.47 135.087C1113.36 134.341 1115.5 135.272 1116.25 137.163C1117 139.053 1116.06 141.197 1114.17 141.942C1112.28 142.687 1110.14 141.756 1109.39 139.866C1108.65 137.976 1109.58 135.832 1111.47 135.087Z" fill="black"/>
</g>
<defs>
<clipPath id="clip0_118_47">
<rect width="207.646" height="207.646" fill="white" transform="translate(917 76.1729) rotate(-21.5208)"/>
</clipPath>
</defs>
</svg>
