<svg width="250" height="254" viewBox="0 0 250 254" fill="none" xmlns="http://www.w3.org/2000/svg">
<path d="M222.996 127.411L83.7557 107.065C81.5719 106.711 80.1433 104.58 80.6573 102.445L98.2498 29.3742C98.7638 27.2393 101.002 26.0078 103.104 26.7039L236.067 73.1187C238.793 74.0215 240.381 76.8516 239.714 79.6207L229.192 123.323C228.525 126.092 225.828 127.871 222.996 127.411Z" fill="#F3F0F3"/>
<path d="M236.029 73.1527L229.186 70.7649L219.129 112.515C218.462 115.283 215.766 117.062 212.935 116.601L81.8673 97.4638L80.6601 102.476C80.1461 104.61 81.5741 106.739 83.7573 107.094L222.957 127.418C225.789 127.878 228.485 126.1 229.152 123.332L239.674 79.6515C240.341 76.8834 238.754 74.0552 236.029 73.1527Z" fill="#E2DEE2"/>
<path d="M215.195 65.6578L185.012 55.125L169.477 119.62L201.086 124.236L215.195 65.6578Z" fill="#FD8087"/>
<path d="M215.195 65.6578L185.012 55.125L169.477 119.62L201.086 124.236L215.195 65.6578Z" fill="#FD8087"/>
<path d="M105.612 110.474L137.235 115.088L154.254 44.4757L124.056 33.9434L105.612 110.474Z" fill="#FD8087"/>
<path d="M203.174 115.089L171.691 110.497L169.514 119.529L200.997 124.121L203.174 115.089Z" fill="#FE646F"/>
<path d="M105.643 110.379L137.126 114.972L139.303 105.94L107.82 101.347L105.643 110.379Z" fill="#FE646F"/>
<path d="M45.3732 107.496L31.7237 104.16C29.492 103.614 28.1165 101.377 28.6514 99.1631L50.5042 8.70716C51.039 6.49312 53.2818 5.14043 55.5135 5.68588L69.1625 9.02189C71.3942 9.56734 72.7698 11.8044 72.2349 14.0184L50.3821 104.474C49.8476 106.689 47.6048 108.041 45.3732 107.496Z" fill="#918291"/>
<path d="M45.77 107.683L31.0483 104.09L8.09639 198.956C7.5913 201.044 8.88855 203.153 10.9937 203.667L18.0915 205.399C20.1967 205.913 22.3129 204.637 22.818 202.549L45.77 107.683Z" fill="#CBC4CC"/>
<path d="M31.1157 104.09L45.7701 107.687L42.1448 122.757L27.4904 119.16L31.1157 104.09Z" fill="#B5ADB6"/>
<path d="M237.043 70.205L216.202 62.9416C216.199 62.9402 216.195 62.9394 216.191 62.938L104.14 23.8855C104.124 23.88 104.109 23.8749 104.093 23.8697C102.279 23.2672 100.286 23.4548 98.6211 24.375C97.1132 25.2085 95.9842 26.5911 95.4512 28.2163L70.9937 30.9094L74.9076 14.7139C75.8372 10.8672 73.4528 6.97064 69.5929 6.02752L56.0176 2.71052C52.1578 1.7674 48.2609 4.1292 47.3313 7.97584L37.4005 49.0687C37.0039 50.7099 38.0175 52.366 39.6641 52.7683C41.3108 53.1707 42.9672 52.167 43.3638 50.5257L53.2946 9.43292C53.4322 8.86325 54.0095 8.51301 54.5816 8.6528L68.1565 11.9697C68.7281 12.1094 69.0816 12.687 68.9439 13.2567L47.1068 103.617C46.969 104.187 46.392 104.537 45.8199 104.397L32.245 101.08C31.6733 100.94 31.3198 100.363 31.4575 99.7936L40.4916 62.4107C40.8883 60.7694 39.8747 59.1134 38.228 58.711C36.5813 58.3087 34.925 59.3124 34.5283 60.9536L25.4941 98.3365C24.8728 100.907 25.7372 103.496 27.5284 105.215L5.12091 197.936C4.22184 201.656 6.52783 205.425 10.2609 206.337L17.3151 208.061C21.0485 208.973 24.8168 206.688 25.7158 202.968L32.7002 174.067C33.0968 172.426 32.0832 170.77 30.4365 170.368C28.7899 169.965 27.1335 170.969 26.7369 172.61L19.7525 201.511C19.6454 201.955 19.196 202.227 18.7511 202.118L11.6969 200.395C11.2517 200.286 10.9771 199.837 11.0842 199.393L33.2622 107.622L41.9308 109.74L29.6093 160.726C29.2127 162.367 30.2263 164.023 31.873 164.426C33.5196 164.828 35.176 163.824 35.5727 162.183L48.1237 110.247C50.4993 109.547 52.4492 107.646 53.0705 105.075L57.1868 88.0416L77.4167 104.157C77.5072 105.316 77.8908 106.448 78.5486 107.432C79.5074 108.867 80.9802 109.891 82.6472 110.298C82.8225 110.341 83.0007 110.377 83.1799 110.406C83.1965 110.409 83.2127 110.411 83.229 110.414L169.109 122.858C169.111 122.858 169.113 122.858 169.115 122.858L222.452 130.587C226.823 131.278 231.052 128.468 232.088 124.182L242.683 80.3426C243.719 76.0552 241.243 71.6074 237.043 70.205ZM156.303 48.5386L181.472 57.3106L167.192 116.401L140.826 112.581L156.303 48.5386ZM134.724 111.697L109.325 108.016L126.231 38.0577L150.478 46.5083L134.724 111.697ZM187.297 59.3405L211.544 67.7911L198.694 120.965L173.294 117.285L187.297 59.3405ZM69.4649 37.2355L93.8929 34.5461L78.7098 97.3726L58.7705 81.4884L69.4649 37.2355ZM84.1188 104.364C83.8729 104.324 83.7266 104.172 83.6484 104.054C83.5682 103.935 83.4862 103.74 83.5472 103.487L101.261 30.1876C101.322 29.9349 101.485 29.7993 101.61 29.73C101.725 29.6662 101.905 29.6057 102.125 29.6595C102.14 29.6631 102.155 29.6672 102.17 29.6721L120.406 36.0277L103.223 107.132L84.1188 104.364ZM226.125 122.725C225.83 123.945 224.625 124.743 223.38 124.543C223.364 124.54 223.347 124.538 223.331 124.535L204.796 121.85L217.369 69.8211L235.064 75.988C235.079 75.9935 235.095 75.9986 235.111 76.0041C236.308 76.3994 237.015 77.6655 236.72 78.886L226.125 122.725Z" fill="black"/>
<path d="M171.118 183.282C171.113 183.281 171.109 183.28 171.104 183.279L75.57 159.54C73.9275 159.132 72.9233 157.482 73.3259 155.854C73.7279 154.231 75.3773 153.243 77.0146 153.642L77.0288 153.645L172.563 177.384C174.205 177.792 175.209 179.442 174.807 181.07C174.405 182.693 172.755 183.681 171.118 183.282Z" fill="black"/>
<path d="M183.796 166.981L79.9194 141.599C78.2743 141.197 77.2608 139.549 77.6552 137.917C78.0496 136.285 79.7022 135.288 81.3474 135.69L185.224 161.072C188.663 161.912 192.131 159.821 192.956 156.409C193.78 152.998 191.653 149.539 188.214 148.699C186.569 148.297 185.556 146.648 185.95 145.016C186.344 143.384 187.997 142.387 189.642 142.789C196.366 144.432 200.524 151.195 198.912 157.865C197.3 164.535 190.52 168.624 183.796 166.981Z" fill="black"/>
<path d="M116.861 207.626C115.214 207.223 114.2 205.572 114.594 203.938C114.988 202.303 116.641 201.306 118.287 201.709C121.728 202.552 125.197 200.458 126.02 197.042C126.844 193.626 124.715 190.162 121.274 189.319L71.2685 177.071C69.6222 176.668 68.6076 175.017 69.0016 173.382C69.3955 171.748 71.0487 170.751 72.6949 171.154L122.701 183.402C129.428 185.049 133.591 191.824 131.981 198.502C130.371 205.181 123.588 209.274 116.861 207.626Z" fill="black"/>
</svg>
