<svg width="244" height="244" viewBox="0 0 244 244" fill="none" xmlns="http://www.w3.org/2000/svg">
<path d="M140.895 229.625L8.02373 209.33C5.78193 208.987 4.23063 206.904 4.55879 204.677L30.4112 29.2172C30.7394 26.99 32.8227 25.4621 35.0645 25.8046L167.936 46.0994C170.178 46.4418 171.729 48.5249 171.401 50.7521L145.548 226.212C145.22 228.439 143.137 229.967 140.895 229.625Z" fill="#F2FBFF"/>
<path d="M167.895 45.7053L151.163 43.1699C153.427 43.513 154.994 45.6005 154.663 47.8325L128.552 223.669C128.22 225.901 126.116 227.432 123.852 227.089L140.584 229.624C142.849 229.967 144.953 228.436 145.284 226.204L171.395 50.3678C171.727 48.1359 170.16 46.0484 167.895 45.7053Z" fill="#DFF6FD"/>
<path d="M167.949 45.94L35.4974 25.7989C33.2627 25.4591 31.1857 26.9776 30.8582 29.1906L26.4201 59.1814L166.964 80.5532L171.402 50.5623C171.73 48.3493 170.184 46.2799 167.949 45.94Z" fill="#FE93D3"/>
<path d="M167.933 45.7014L151.353 43.1699C153.597 43.5125 155.149 45.5966 154.821 47.8249L150.37 78.0234L166.95 80.5548L171.401 50.3564C171.729 48.128 170.177 46.0439 167.933 45.7014Z" fill="#FE73C5"/>
<path d="M124.846 31.8933L113.305 30.1309L113.802 26.7564C114.66 20.9343 110.595 15.4876 104.723 14.5909C98.8507 13.6941 93.3947 17.6869 92.5367 23.509L92.0394 26.8835L80.8523 25.1751C78.5354 24.8213 76.3827 26.3968 76.0442 28.6936L74.1688 41.4196C73.8302 43.7168 75.4341 45.8656 77.7509 46.2194L121.744 52.9375C124.061 53.2913 126.214 51.7162 126.552 49.419L128.428 36.693C128.766 34.3958 127.163 32.2471 124.846 31.8933Z" fill="#FEDF30"/>
<path d="M220.197 166.018C223.75 141.961 207.019 119.471 182.827 115.785C158.636 112.098 136.146 128.611 132.593 152.667C130.157 169.167 137.262 184.928 149.771 194.392L149.064 199.181C148.115 205.606 152.583 211.612 159.044 212.597L177.601 215.425C184.061 216.409 190.068 211.999 191.017 205.575L191.724 200.785C206.416 195.466 217.761 182.517 220.197 166.018Z" fill="#FEDF30"/>
<path d="M182.759 115.686C179.779 115.232 176.825 115.086 173.929 115.219C193.397 122.287 205.904 142.197 202.783 163.315C200.343 179.83 188.98 192.791 174.264 198.116L173.556 202.909C172.606 209.34 166.59 213.754 160.119 212.768L177.524 215.419C183.995 216.405 190.011 211.99 190.961 205.56L191.67 200.766C206.385 195.442 217.748 182.48 220.188 165.966C223.746 141.887 206.988 119.376 182.759 115.686Z" fill="#FED402"/>
<path d="M165.352 233.188C160.069 232.383 156.415 227.471 157.191 222.217L158.596 212.704L177.728 215.62L176.323 225.133C175.547 230.386 170.635 233.993 165.352 233.188Z" fill="#B289C9"/>
<path d="M83.6631 37.8297C84.1173 39.9355 86.8757 40.9265 88.5656 39.6009C91.0365 37.8016 89.6095 33.8214 86.5436 33.9657C84.6339 34.0022 83.1413 35.9918 83.6631 37.8297Z" fill="black"/>
<path d="M115.354 44.5373C118.063 44.9925 120 41.7839 118.329 39.6025C117.352 38.2317 115.269 37.9246 113.943 38.9365C111.719 40.5487 112.625 44.1431 115.354 44.5373Z" fill="black"/>
<path d="M76.5921 93.4176L144.46 103.655C148.345 104.12 149.17 98.569 145.323 97.8688L77.4551 87.6317C73.5701 87.1668 72.745 92.7174 76.5921 93.4176Z" fill="black"/>
<path d="M74.4242 107.888L125.792 115.643C129.677 116.108 130.502 110.552 126.655 109.852L75.2873 102.096C71.402 101.631 70.5769 107.187 74.4242 107.888Z" fill="black"/>
<path d="M63.5139 180.58L131.381 190.817C135.267 191.282 136.092 185.731 132.245 185.031L64.377 174.794C60.4919 174.329 59.6669 179.88 63.5139 180.58Z" fill="black"/>
<path d="M61.3468 195.061L92.515 199.774C96.4008 200.24 97.2261 194.675 93.3783 193.972L62.2101 189.259C58.3243 188.793 57.4991 194.359 61.3468 195.061Z" fill="black"/>
<path d="M43.6778 102.413C44.653 103.725 46.5075 104.007 47.8206 103.042L64.9361 90.4579C66.2488 89.4927 66.5225 87.646 65.5473 86.3334C64.5717 85.0208 62.7173 84.7392 61.4041 85.7043L46.6654 96.5408L42.7076 91.2139C41.7328 89.9014 39.8779 89.6198 38.5647 90.5849C37.252 91.55 36.9783 93.3967 37.9539 94.7094L43.6778 102.413Z" fill="black"/>
<path d="M31.3525 138.717L37.0759 146.421C38.0511 147.733 39.9055 148.015 41.2187 147.05L58.3342 134.466C59.6469 133.5 59.9206 131.654 58.9454 130.341C57.9698 129.029 56.1153 128.747 54.8022 129.712L40.0635 140.549L36.1056 135.222C35.1309 133.909 33.276 133.628 31.9628 134.593C30.6505 135.558 30.3768 137.405 31.3525 138.717Z" fill="black"/>
<path d="M24.747 182.725L30.4704 190.428C31.4456 191.741 33.3001 192.023 34.6132 191.057L51.7287 178.473C53.0414 177.508 53.3151 175.662 52.3399 174.349C51.3643 173.036 49.5099 172.755 48.1967 173.72L33.458 184.556L29.5002 179.23C28.5254 177.917 26.6705 177.635 25.3574 178.6C24.045 179.566 23.7714 181.412 24.747 182.725Z" fill="black"/>
<path d="M183.518 112.732C177.136 111.763 170.858 112.115 164.965 113.583L174.241 50.9897C174.809 47.1562 172.139 43.5618 168.288 42.9771L131.265 37.3545C131.917 33.3287 129.117 29.5072 125.06 28.894L116.62 27.6123C118.959 9.05979 92.2901 5.01988 89.1551 23.4414L81.0691 22.2134C77.0121 21.594 73.227 24.4157 72.6843 28.4583L35.6606 22.8357C31.8104 22.251 28.216 24.8941 27.6479 28.7276L21.2958 71.5944C21.057 73.2061 22.1754 74.7118 23.7941 74.9576C25.4128 75.2034 26.9185 74.0963 27.1573 72.4846L28.5777 62.8993L163.447 83.3811L158.669 115.631C147.35 120.213 138.041 129.084 133.088 140.519L70.8608 131.069C69.2422 130.823 67.7365 131.93 67.4977 133.542C67.2588 135.154 68.3773 136.659 69.996 136.905L131.06 146.179C130.271 148.92 129.715 151.843 129.444 154.723L68.7222 145.501C67.1035 145.255 65.5979 146.363 65.359 147.974C65.1202 149.586 66.2387 151.092 67.8574 151.337L129.256 160.662C129.684 174.181 135.937 187.028 146.611 195.788C146.283 199.086 142.979 221.827 142.369 225.625C142.278 226.24 141.7 226.664 141.083 226.571L8.45504 206.429C7.83686 206.335 7.4083 205.759 7.49951 205.143L25.2974 85.0357C25.5363 83.424 24.4178 81.9184 22.7991 81.6726C21.1804 81.4267 19.6747 82.5339 19.4359 84.1456L1.63798 204.253C1.06991 208.086 3.74004 211.681 7.59021 212.266L140.218 232.407C144.068 232.992 147.663 230.349 148.231 226.515L150.446 211.567C151.803 212.915 153.424 214.013 155.241 214.771L154.223 221.644C153.176 228.708 158.096 235.332 165.191 236.41C172.286 237.487 178.91 232.617 179.957 225.552L180.976 218.679C187.635 218.051 193.263 212.98 194.283 206.096L194.727 203.095C199.455 201.165 203.81 198.499 207.695 195.152C209.002 194.028 209.14 192.056 208.005 190.749C206.87 189.441 204.89 189.294 203.584 190.419C199.797 193.68 195.499 196.196 190.806 197.9C189.731 198.29 188.959 199.235 188.791 200.364L188.081 205.154C187.442 209.467 183.708 212.43 179.449 212.376C179.079 212.277 172.855 211.401 172.295 211.289L178.253 171.081C183.92 174.493 191.528 174.158 196.809 170.169C198.199 169.147 198.488 167.193 197.456 165.804C196.424 164.414 194.461 164.116 193.072 165.138C188.891 168.342 182.447 167.675 178.981 163.708C178.271 161.19 174.487 160.616 173.08 162.812C168.615 165.575 162.263 164.298 159.194 159.993C158.163 158.603 156.2 158.306 154.81 159.327C153.42 160.349 153.131 162.303 154.163 163.693C158.054 169.074 165.233 171.655 171.639 170.076L165.68 210.285C165.085 210.221 158.931 209.218 158.526 209.198C154.439 207.985 151.728 204.043 152.367 199.731L153.077 194.94C153.244 193.811 152.779 192.678 151.865 191.986C139.847 182.887 133.745 168.031 135.941 153.216C139.231 130.704 160.569 115.465 182.602 118.905C211.847 122.87 227.524 157.841 210.979 182.028C208.811 185.538 213.837 188.849 216.217 185.482C235.295 157.604 217.218 117.301 183.518 112.732ZM78.8986 29.303C78.987 28.7065 79.5502 28.2953 80.1538 28.387L91.3402 30.0858C93.0528 30.3459 94.6455 29.1744 94.8981 27.4696L95.3993 24.0872C96.0105 19.9628 99.8861 17.1207 104.039 17.7514C108.192 18.3821 111.074 22.2504 110.463 26.3748L109.962 29.7572C109.709 31.462 110.892 33.055 112.605 33.3151L124.145 35.0676C124.748 35.1593 125.167 35.7195 125.079 36.3161L123.189 49.072C123.1 49.6686 122.537 50.0794 121.934 49.9877L77.9429 43.3071C77.3392 43.2154 76.92 42.6555 77.0084 42.0589L78.8986 29.303ZM29.4922 56.7252L33.509 29.6177C33.6003 29.0022 34.1776 28.578 34.7953 28.6719L71.8186 34.2944L70.8076 41.1173C70.2147 45.1181 73.0049 48.8701 77.0276 49.4811L121.018 56.1616C125.04 56.7724 128.795 54.0147 129.388 50.0135L130.399 43.1906L167.423 48.8132C168.041 48.907 168.47 49.484 168.378 50.0995L164.361 77.2069L29.4922 56.7252ZM173.343 224.548C171.805 232.75 159.927 230.941 160.836 222.648L161.759 216.422L174.265 218.321L173.343 224.548Z" fill="black"/>
</svg>
