<svg width="257" height="257" viewBox="0 0 257 257" fill="none" xmlns="http://www.w3.org/2000/svg">
<g clip-path="url(#clip0_32_1106)">
<path d="M244.538 202.083L64.2969 250.379C59.8922 251.559 55.365 248.945 54.1847 244.541L15.0781 98.5928L211.27 46.0233L250.377 191.971C251.557 196.376 248.943 200.903 244.538 202.083Z" fill="#F5FCFF"/>
<path d="M195.32 50.2969L236.564 204.22L244.539 202.083C248.944 200.903 251.558 196.375 250.377 191.971L211.271 46.023L195.32 50.2969Z" fill="#E6F7FE"/>
<path d="M211.271 46.023L15.0787 98.5925L9.30882 77.0592C8.1286 72.6545 10.7424 68.1273 15.1471 66.947L195.389 18.6515C199.793 17.4712 204.321 20.085 205.501 24.4897L211.271 46.023Z" fill="#DF646E"/>
<path d="M195.389 18.6511L187.414 20.7881L195.321 50.2966L211.271 46.0227L205.501 24.4894C204.321 20.0851 199.794 17.4709 195.389 18.6511Z" fill="#DC4955"/>
<path d="M178.872 36.754L169.302 39.3183C167.54 39.7904 165.729 38.7449 165.257 36.9831L160.128 17.8423C159.656 16.0806 160.702 14.2697 162.463 13.7976L172.034 11.2332C173.796 10.7611 175.606 11.8067 176.079 13.5685L181.207 32.7092C181.679 34.471 180.634 36.2819 178.872 36.754Z" fill="#9C9C9C"/>
<path d="M48.0752 71.8008L38.5048 74.3652C36.743 74.8373 34.9321 73.7917 34.4601 72.03L29.3313 52.8892C28.8593 51.1274 29.9048 49.3165 31.6666 48.8445L41.2369 46.2801C42.9987 45.808 44.8096 46.8535 45.2817 48.6153L50.4104 67.7561C50.8829 69.5178 49.837 71.3288 48.0752 71.8008Z" fill="#9C9C9C"/>
<path d="M201.93 62.2031L205.349 74.9635L159.092 87.3579L155.673 74.5976L201.93 62.2031Z" fill="#88F2A9"/>
<path d="M117.003 204.629C147.835 196.367 166.132 164.675 157.871 133.843C149.609 103.011 117.917 84.7132 87.0849 92.9748C56.2524 101.236 37.9551 132.928 46.2166 163.761C54.4782 194.593 86.1701 212.89 117.003 204.629Z" fill="#4172CA"/>
<path d="M117.079 92.9878C124.057 99.9351 129.353 108.759 132.086 118.956C140.347 149.788 122.05 181.48 91.2174 189.742C81.0209 192.474 70.7309 192.299 61.2251 189.729C75.3486 203.789 96.3679 210.159 117.004 204.63C147.836 196.368 166.133 164.676 157.872 133.844C152.343 113.207 136.317 98.189 117.079 92.9878Z" fill="#3A67C1"/>
<path d="M113.584 191.868C137.369 185.495 151.484 161.047 145.111 137.262C138.737 113.477 114.289 99.3615 90.5042 105.735C66.7191 112.108 52.604 136.556 58.9772 160.341C65.3504 184.126 89.7985 198.241 113.584 191.868Z" fill="#F5FCFF"/>
<path d="M130.775 114.73C131.259 116.111 131.701 117.518 132.086 118.956C140.348 149.788 122.05 181.48 91.2178 189.742C89.7805 190.127 88.3408 190.448 86.9022 190.719C95.1895 193.726 104.442 194.319 113.585 191.869C137.332 185.506 151.475 161.01 145.112 137.262C142.662 128.12 137.523 120.403 130.775 114.73Z" fill="#E6F7FE"/>
<path d="M103.753 155.182C107.277 154.238 109.368 150.616 108.424 147.092C107.479 143.568 103.857 141.477 100.334 142.421C96.8097 143.365 94.7185 146.987 95.6627 150.511C96.6069 154.035 100.229 156.126 103.753 155.182Z" fill="#4172CA"/>
<path d="M162.512 100.118L175.272 96.699L178.691 109.459L165.931 112.879L162.512 100.118Z" fill="#FFE07D"/>
<path d="M169.352 125.639L182.112 122.22L185.531 134.98L172.771 138.399L169.352 125.639Z" fill="#FFE07D"/>
<path d="M176.188 151.16L188.948 147.741L192.367 160.501L179.607 163.921L176.188 151.16Z" fill="#FFE07D"/>
<path d="M183.027 176.681L195.788 173.262L199.207 186.022L186.446 189.441L183.027 176.681Z" fill="#FFE07D"/>
<path d="M239.775 152.402C238.14 152.84 237.17 154.521 237.608 156.156L247.417 192.766C248.158 195.53 246.512 198.382 243.747 199.122L63.5033 247.419C60.7389 248.159 57.8874 246.513 57.1467 243.748L25.2771 124.81C24.8389 123.174 23.1582 122.204 21.5231 122.642C19.8881 123.08 18.9176 124.761 19.3558 126.396L51.2254 245.335C52.841 251.365 59.0605 254.955 65.09 253.34L245.334 205.044C251.363 203.428 254.954 197.208 253.339 191.179L243.529 154.57C243.091 152.934 241.41 151.964 239.775 152.402Z" fill="black"/>
<path d="M208.463 23.6964C206.847 17.6665 200.626 14.0751 194.597 15.6908L180.809 19.3851L179.038 12.7754C178.129 9.3837 174.631 7.36413 171.239 8.27283L161.669 10.8372C158.277 11.746 156.257 15.2443 157.166 18.636L158.938 25.2477L98.2392 41.5118C96.6041 41.9499 95.6336 43.6303 96.0718 45.2657C96.5101 46.9012 98.1907 47.8712 99.8258 47.4331L160.524 31.169L162.295 37.7768C163.203 41.1685 166.702 43.188 170.094 42.2792L179.664 39.7149C183.056 38.8061 185.076 35.3078 184.167 31.9161L182.396 25.3063L196.184 21.612C198.948 20.8711 201.801 22.5176 202.542 25.2829L207.518 43.8556L17.2472 94.8386L12.2707 76.2658C11.5297 73.5006 13.1767 70.6485 15.9416 69.9077L29.7291 66.2133L31.5001 72.823C32.409 76.2148 35.9075 78.2343 39.2992 77.3255L48.8696 74.7611C52.2613 73.8523 54.2814 70.3541 53.3726 66.9623L51.602 60.3546L86.0095 51.1351C87.6445 50.697 88.615 49.0167 88.1768 47.3812C87.7386 45.7457 86.0579 44.7757 84.4228 45.2139L50.0147 54.4335L48.2431 47.8218C47.3342 44.4301 43.8357 42.4105 40.444 43.3193L30.874 45.8836C27.4827 46.7923 25.4626 50.2906 26.3714 53.6823L28.1425 60.292L14.355 63.9864C8.32511 65.6021 4.73369 71.8226 6.34938 77.8524L15.6545 112.58C16.0927 114.215 17.7734 115.185 19.4084 114.747C21.0435 114.309 22.014 112.628 21.5758 110.993L18.8338 100.76L209.104 49.777L233.907 142.34C234.345 143.975 236.025 144.945 237.661 144.507C239.296 144.069 240.266 142.389 239.828 140.753L208.463 23.6964ZM178.245 33.5028C178.279 33.6291 178.204 33.7597 178.077 33.7937L168.507 36.3581C168.38 36.392 168.249 36.3166 168.216 36.1903L163.087 17.0495C163.053 16.9232 163.128 16.7926 163.255 16.7586L172.825 14.1942C172.952 14.1603 173.083 14.2357 173.117 14.362L178.245 33.5028ZM32.2927 52.0957C32.2588 51.9694 32.3343 51.8387 32.461 51.8048L42.0314 49.2404C42.1581 49.2064 42.2887 49.2819 42.3226 49.4082L47.4513 68.5489C47.4852 68.6753 47.4097 68.8059 47.283 68.8399L37.7122 71.4043C37.5855 71.4383 37.4549 71.3629 37.421 71.2365L32.2927 52.0957Z" fill="black"/>
<path d="M204.893 61.4093C204.455 59.7738 202.774 58.8038 201.139 59.2419L154.883 71.6364C153.247 72.0745 152.277 73.7549 152.715 75.3903L156.134 88.1507C156.573 89.7862 158.253 90.7562 159.888 90.318L206.145 77.9236C207.78 77.4855 208.751 75.8051 208.312 74.1697L204.893 61.4093ZM201.598 72.796L161.262 83.6039L159.43 76.7648L199.765 65.9569L201.598 72.796Z" fill="black"/>
<path d="M148.071 136.469C141.271 111.089 115.09 95.974 89.7109 102.774C64.3315 109.575 49.2162 135.755 56.0166 161.135C62.817 186.514 88.9975 201.63 114.377 194.829C139.756 188.029 154.872 161.848 148.071 136.469ZM74.9425 180.238L75.6312 179.549C76.8281 178.352 76.8281 176.411 75.6311 175.214C74.4342 174.018 72.4932 174.018 71.2966 175.215L70.6002 175.911C67.2637 172.054 64.5999 167.531 62.8413 162.479L63.7966 162.223C65.4317 161.785 66.4022 160.105 65.9639 158.469C65.5257 156.834 63.8451 155.864 62.21 156.302L61.2547 156.558C60.2517 151.304 60.2978 146.055 61.2582 141.046L62.2096 141.301C62.7479 141.446 63.2914 141.437 63.7935 141.303C64.8167 141.028 65.6696 140.231 65.9634 139.134C66.4016 137.499 65.4312 135.818 63.7962 135.38L62.8553 135.128C64.5788 130.212 67.2119 125.651 70.6077 121.7L71.2965 122.389C72.0993 123.192 73.2368 123.456 74.26 123.182C74.7621 123.047 75.2371 122.783 75.6311 122.389C76.828 121.192 76.828 119.251 75.6311 118.054L74.9346 117.358C78.792 114.021 83.3148 111.357 88.3662 109.598L88.6222 110.554C89.0604 112.189 90.741 113.159 92.3761 112.721C94.0112 112.283 94.9817 110.603 94.5434 108.967L94.2875 108.012C99.5418 107.009 104.79 107.055 109.799 108.016L109.544 108.967C109.106 110.602 110.076 112.283 111.711 112.721C112.25 112.865 112.793 112.857 113.295 112.722C114.319 112.448 115.172 111.65 115.465 110.554L115.718 109.613C120.634 111.336 125.195 113.969 129.145 117.365L128.456 118.054C127.259 119.251 127.259 121.192 128.456 122.389C129.259 123.192 130.396 123.456 131.42 123.182C131.922 123.047 132.397 122.783 132.791 122.389L133.488 121.692C136.824 125.55 139.488 130.072 141.246 135.124L140.291 135.38C138.656 135.818 137.686 137.498 138.124 139.134C138.562 140.769 140.243 141.739 141.878 141.301L142.833 141.045C143.836 146.299 143.79 151.548 142.829 156.557L141.878 156.302C140.243 155.864 138.561 156.833 138.124 158.469C137.686 160.104 138.656 161.785 140.291 162.223L141.232 162.475C139.509 167.391 136.876 171.952 133.48 175.903L132.791 175.214C131.594 174.017 129.653 174.018 128.457 175.214C127.26 176.411 127.26 178.352 128.457 179.549L129.153 180.245C125.296 183.582 120.773 186.246 115.721 188.004L115.465 187.049C115.027 185.414 113.347 184.444 111.712 184.882C110.076 185.32 109.106 187 109.544 188.636L109.8 189.591C104.546 190.594 99.2973 190.548 94.2885 189.587L94.5434 188.636C94.9815 187.001 94.0112 185.32 92.3761 184.882C90.7407 184.444 89.0599 185.414 88.6223 187.049L88.37 187.99C83.4541 186.267 78.8928 183.634 74.9425 180.238Z" fill="black"/>
<path d="M83.6969 156.892L93.9806 154.136C96.2141 157.507 100.432 159.246 104.547 158.143C109.698 156.763 112.766 151.45 111.385 146.3C110.283 142.184 106.668 139.401 102.632 139.152L97.953 121.691C97.5148 120.055 95.8341 119.085 94.1991 119.523C92.564 119.961 91.5935 121.642 92.0317 123.277L96.7105 140.739C94.1871 142.411 92.5804 145.194 92.394 148.215L82.1103 150.971C80.4753 151.409 79.5048 153.089 79.943 154.724C80.3812 156.36 82.0619 157.33 83.6969 156.892ZM101.128 145.383C103.014 144.878 104.959 146.001 105.464 147.886C105.969 149.771 104.846 151.717 102.961 152.222C101.075 152.727 99.1298 151.604 98.6246 149.719C98.1195 147.833 99.2428 145.888 101.128 145.383Z" fill="black"/>
<path d="M160.831 133.05C152.146 100.635 118.707 81.3288 86.2916 90.0145C53.8761 98.7002 34.5703 132.139 43.256 164.554C51.9417 196.97 85.3804 216.276 117.796 207.59C150.211 198.904 169.517 165.466 160.831 133.05ZM49.1773 162.968C41.3664 133.817 58.7277 103.747 87.8782 95.9358C117.029 88.1249 147.099 105.486 154.91 134.637C162.721 163.788 145.36 193.858 116.209 201.669C87.0588 209.479 56.9883 192.119 49.1773 162.968Z" fill="black"/>
<path d="M162.97 113.672C163.408 115.308 165.089 116.278 166.724 115.84L179.485 112.42C181.12 111.982 182.09 110.302 181.652 108.666L178.233 95.9061C177.795 94.2706 176.114 93.3006 174.479 93.7387L161.718 97.1579C160.083 97.596 159.113 99.2764 159.551 100.912L162.97 113.672ZM166.266 102.286L173.105 100.453L174.937 107.292L168.098 109.125L166.266 102.286Z" fill="black"/>
<path d="M207.977 84.7629L187.242 90.319C185.607 90.7571 184.636 92.4375 185.075 94.0729C185.513 95.7084 187.193 96.6784 188.828 96.2403L209.564 90.6842C211.199 90.2461 212.17 88.5657 211.731 86.9303C211.293 85.2948 209.613 84.3248 207.977 84.7629Z" fill="black"/>
<path d="M192.246 109.001L200.222 106.864C201.857 106.426 202.827 104.746 202.389 103.11C201.951 101.475 200.27 100.505 198.635 100.943L190.66 103.08C189.025 103.518 188.054 105.198 188.493 106.834C188.931 108.469 190.611 109.439 192.246 109.001Z" fill="black"/>
<path d="M169.81 139.193C170.248 140.828 171.929 141.798 173.564 141.36L186.324 137.941C187.959 137.503 188.93 135.822 188.492 134.187L185.073 121.427C184.634 119.791 182.954 118.821 181.319 119.259L168.558 122.678C166.923 123.116 165.953 124.797 166.391 126.432L169.81 139.193ZM173.106 127.806L179.945 125.974L181.777 132.813L174.938 134.645L173.106 127.806Z" fill="black"/>
<path d="M214.813 110.283L194.078 115.84C192.443 116.278 191.472 117.958 191.91 119.593C192.349 121.229 194.029 122.199 195.664 121.761L216.4 116.205C218.035 115.767 219.006 114.086 218.567 112.451C218.129 110.815 216.448 109.845 214.813 110.283Z" fill="black"/>
<path d="M199.082 134.522L207.058 132.385C208.693 131.946 209.663 130.266 209.225 128.631C208.787 126.995 207.106 126.025 205.471 126.463L197.496 128.6C195.861 129.038 194.89 130.719 195.328 132.354C195.767 133.99 197.447 134.96 199.082 134.522Z" fill="black"/>
<path d="M176.646 164.713C177.084 166.349 178.765 167.319 180.4 166.881L193.16 163.461C194.795 163.023 195.766 161.343 195.328 159.707L191.909 146.947C191.47 145.312 189.79 144.342 188.155 144.78L175.394 148.199C173.759 148.637 172.789 150.317 173.227 151.953L176.646 164.713ZM179.941 153.327L186.781 151.494L188.613 158.333L181.774 160.166L179.941 153.327Z" fill="black"/>
<path d="M221.653 135.805L200.918 141.361C199.283 141.799 198.312 143.479 198.75 145.115C199.189 146.75 200.869 147.72 202.504 147.282L223.24 141.726C224.875 141.288 225.845 139.608 225.407 137.972C224.969 136.337 223.288 135.367 221.653 135.805Z" fill="black"/>
<path d="M205.922 160.043L213.897 157.906C215.532 157.468 216.503 155.788 216.065 154.152C215.627 152.517 213.946 151.547 212.311 151.985L204.336 154.122C202.701 154.56 201.73 156.24 202.168 157.876C202.607 159.511 204.287 160.481 205.922 160.043Z" fill="black"/>
<path d="M183.486 190.235C183.924 191.87 185.605 192.84 187.24 192.402L200 188.983C201.635 188.545 202.606 186.864 202.168 185.229L198.748 172.469C198.31 170.833 196.63 169.863 194.994 170.301L182.234 173.72C180.599 174.158 179.629 175.839 180.067 177.474L183.486 190.235ZM186.781 178.848L193.62 177.016L195.453 183.855L188.614 185.687L186.781 178.848Z" fill="black"/>
<path d="M232.243 163.493C231.805 161.857 230.124 160.887 228.489 161.325L207.754 166.882C206.119 167.32 205.148 169 205.586 170.635C206.024 172.271 207.705 173.241 209.34 172.803L230.076 167.247C231.711 166.809 232.681 165.128 232.243 163.493Z" fill="black"/>
<path d="M211.175 179.642C209.54 180.08 208.57 181.761 209.008 183.396C209.446 185.032 211.127 186.002 212.762 185.564L220.737 183.427C222.372 182.988 223.343 181.308 222.905 179.673C222.466 178.037 220.786 177.067 219.151 177.505L211.175 179.642Z" fill="black"/>
</g>
<defs>
<clipPath id="clip0_32_1106">
<rect width="209.243" height="209.243" fill="white" transform="translate(0 54.1562) rotate(-15)"/>
</clipPath>
</defs>
</svg>
