<svg width="140" height="140" viewBox="0 0 140 140" fill="none" xmlns="http://www.w3.org/2000/svg">
<g clip-path="url(#clip0_83_534)">
<path d="M112.104 47.9279C110.902 43.7895 109.235 39.9126 107.187 36.3296C102.925 31.5683 97.8064 27.6881 92.1514 24.8616C82.5566 22.3531 72.1529 22.4894 62.0353 25.8333C34.1216 35.0592 18.9724 65.1671 28.1978 93.081C29.5479 97.1646 31.3495 100.971 33.5216 104.471C37.0971 108.188 41.2118 111.319 45.7001 113.77C55.1988 116.628 65.6034 116.872 75.8391 113.898C104.07 105.695 120.307 76.1592 112.104 47.9279ZM82.9484 46.2635C89.3101 44.4151 95.928 47.876 97.8376 54.4484L91.9955 56.1459C91.0407 52.8597 87.786 51.1932 84.6459 52.1056C81.5057 53.018 79.6508 56.1691 80.6056 59.4552L74.7635 61.1527C72.8539 54.5803 76.5867 48.1119 82.9484 46.2635ZM46.0066 56.9971C52.3683 55.1486 58.9862 58.6096 60.8958 65.182L55.0537 66.8794C54.0989 63.5932 50.8442 61.9268 47.7041 62.8392C44.5639 63.7515 42.709 66.9026 43.6638 70.1888L37.8217 71.8862C35.9121 65.3139 39.6449 58.8455 46.0066 56.9971ZM45.7387 92.5059L49.7241 87.9094C56.1941 93.519 65.0717 96.0178 73.4723 94.5938C84.2503 92.7677 93.2413 84.8217 96.3751 74.3548L102.203 76.0999C98.7904 87.4985 89.6381 96.4257 78.3355 99.7097C77.0776 100.075 75.7954 100.37 74.4889 100.592C64.3151 102.317 53.5673 99.2943 45.7387 92.5059Z" fill="#D8FF4F"/>
<path d="M107.188 36.3296C109.236 39.9129 110.902 43.7895 112.105 47.9279C120.307 76.1591 104.071 105.695 75.8395 113.898C65.6041 116.872 55.1992 116.628 45.7004 113.77C56.9387 119.906 70.5056 121.783 83.7441 117.937C110.32 110.215 125.659 82.312 117.937 55.7362C115.777 48.3014 112.036 41.7468 107.188 36.3296Z" fill="#C2ED2D"/>
<path d="M62.0353 25.8332C72.1529 22.4893 82.5565 22.3526 92.1514 24.8615C81.2436 19.4092 68.3411 17.8808 55.7357 21.5433C29.16 29.265 13.8211 57.1679 21.5428 83.7436C23.8819 91.7944 28.0757 98.8118 33.5212 104.471C31.3492 100.971 29.5475 97.1646 28.1975 93.081C18.972 65.1671 34.1212 35.0592 62.0353 25.8332Z" fill="#D8FF4F"/>
<path d="M54.0387 15.7012C24.2418 24.3588 7.04354 55.6442 15.7011 85.4411C24.3587 115.238 55.6441 132.436 85.441 123.779C115.238 115.121 132.436 83.8357 123.779 54.0388C115.121 24.2419 83.836 7.04351 54.0387 15.7012ZM83.7436 117.937C70.505 121.783 56.9382 119.906 45.6998 113.77C41.212 111.319 37.0969 108.188 33.5213 104.471C28.0761 98.8118 23.8824 91.7944 21.5432 83.7436C13.8216 57.1679 29.1604 29.265 55.7362 21.5433C68.3416 17.8808 81.2441 19.4092 92.1515 24.8616C97.8066 27.688 102.926 31.5683 107.187 36.3296C112.036 41.7467 115.776 48.3015 117.937 55.7363C125.658 82.312 110.319 110.215 83.7436 117.937Z" fill="black"/>
<path d="M47.7033 62.8392C50.8434 61.9268 54.0981 63.5933 55.0529 66.8795L60.895 65.182C58.9854 58.6097 52.3675 55.1487 46.0058 56.9971C39.6441 58.8455 35.9113 65.3139 37.8209 71.8863L43.663 70.1889C42.7082 66.9027 44.5635 63.7515 47.7033 62.8392Z" fill="black"/>
<path d="M84.6447 52.1056C87.7848 51.1932 91.0395 52.8597 91.9943 56.1458L97.8364 54.4484C95.9268 47.876 89.3089 44.4151 82.9472 46.2635C76.5855 48.1119 72.8527 54.5803 74.7623 61.1527L80.6044 59.4552C79.6496 56.169 81.5045 53.018 84.6447 52.1056Z" fill="black"/>
<path d="M78.3384 99.7097C89.6407 96.4258 98.7929 87.4986 102.206 76.0999L96.378 74.3548C93.2439 84.8219 84.2528 92.7678 73.4752 94.5938C65.0743 96.0183 56.1966 93.5192 49.7269 87.9094L45.7416 92.5059C53.5702 99.2943 64.318 102.317 74.4918 100.592C75.7979 100.371 77.0805 100.075 78.3384 99.7097Z" fill="black"/>
</g>
<defs>
<clipPath id="clip0_83_534">
<rect width="112.547" height="112.547" fill="white" transform="translate(0 31.4023) rotate(-16.2014)"/>
</clipPath>
</defs>
</svg>
