<svg width="263" height="263" viewBox="0 0 263 263" fill="none" xmlns="http://www.w3.org/2000/svg">
<path d="M111.701 190.601C144.599 201.263 179.912 183.236 190.574 150.338C201.236 117.439 183.21 82.1266 150.311 71.4646C117.413 60.8027 82.0999 78.829 71.4379 111.727C60.776 144.626 78.8023 179.939 111.701 190.601Z" fill="#F9DA41" stroke="black" stroke-width="3"/>
<path d="M81.9482 115.448C91.7533 85.1935 123.097 67.9361 153.511 75.1388C120.636 61.4586 83.3844 78.8202 72.5056 112.388C61.6212 145.973 81.6304 181.872 116.263 190.071C87.4049 178.065 72.1431 145.703 81.9482 115.448Z" fill="#F2D422"/>
<path d="M179.387 146.713C170.727 173.435 142.043 188.077 115.321 179.417C88.5982 170.757 73.956 142.073 82.6164 115.35C91.2768 88.6278 119.96 73.9855 146.683 82.6459C173.406 91.3063 188.048 119.99 179.387 146.713Z" fill="#FFA92C" stroke="black" stroke-width="3"/>
<path d="M98.6031 115.303C104.169 98.1297 118.28 86.1145 134.706 82.4308C112.38 80.4913 90.8614 94.0835 83.6574 116.312C71.8934 152.611 104.228 187.832 141.215 179.538C109.584 176.788 88.8657 145.349 98.6031 115.303Z" fill="#F48119"/>
<path d="M123.423 132.177C122.716 134.256 120.535 135.444 118.551 134.831L98.2509 128.554C96.2678 127.94 95.2328 125.758 95.9401 123.68L100.564 110.089C101.271 108.011 103.453 106.822 105.436 107.436L125.736 113.713C127.72 114.326 128.754 116.509 128.047 118.587L123.423 132.177Z" fill="#585A60" stroke="black" stroke-width="3"/>
<path d="M163.634 145.21C162.926 147.288 160.745 148.476 158.762 147.863L138.462 141.586C136.478 140.972 135.444 138.791 136.151 136.712L140.775 123.121C141.482 121.043 143.663 119.854 145.647 120.468L165.947 126.745C167.93 127.358 168.965 129.541 168.258 131.619L163.634 145.21Z" fill="#585A60" stroke="black" stroke-width="3"/>
<path d="M104.571 124.995L108.39 113.746C108.975 112.025 110.776 111.041 112.414 111.549L105.137 109.294C103.499 108.787 101.697 109.77 101.113 111.491L97.2934 122.74C96.7091 124.461 97.5636 126.267 99.2018 126.775L106.479 129.03C104.841 128.522 103.987 126.716 104.571 124.995Z" fill="#414356"/>
<path d="M145.185 138.011L149.019 126.72C149.605 124.994 151.413 124.006 153.057 124.516L145.753 122.253C144.109 121.743 142.301 122.73 141.715 124.457L137.881 135.748C137.295 137.475 138.152 139.287 139.796 139.797L147.1 142.06C145.456 141.55 144.599 139.738 145.185 138.011Z" fill="#414356"/>
<path d="M137.27 132.507L125.069 128.553C123.478 128.037 122.607 126.33 123.122 124.739C123.638 123.148 125.345 122.276 126.936 122.792L139.137 126.746C140.728 127.262 141.599 128.969 141.084 130.56C140.568 132.151 138.861 133.023 137.27 132.507Z" fill="#585A60" stroke="black" stroke-width="3"/>
<path d="M153.626 60.6903C150.827 59.8191 149.367 56.7196 150.365 53.7669L155.281 39.2263C156.279 36.2735 159.357 34.586 162.156 35.4573C164.955 36.3284 166.415 39.4279 165.416 42.3811L160.501 56.922C159.502 59.8743 156.425 61.5614 153.626 60.6903Z" fill="#F2D422" stroke="black" stroke-width="3"/>
<path d="M99.8563 226.61C97.0572 225.739 95.5973 222.639 96.5955 219.687L101.511 205.146C102.509 202.193 105.587 200.506 108.386 201.377C111.185 202.248 112.645 205.348 111.647 208.3L106.731 222.841C105.733 225.794 102.655 227.481 99.8563 226.61Z" fill="#F2D422" stroke="black" stroke-width="3"/>
<path d="M96.8961 65.0458C94.1617 66.5343 90.8936 65.5243 89.5968 62.7899L83.2095 49.3229C81.9127 46.5885 83.078 43.1651 85.8124 41.6766C88.5469 40.1877 91.815 41.1977 93.1117 43.9324L99.4989 57.3995C100.796 60.1339 99.631 63.557 96.8961 65.0458Z" fill="#F2D422" stroke="black" stroke-width="3"/>
<path d="M176.197 220.391C173.463 221.88 170.194 220.869 168.898 218.136L162.51 204.668C161.214 201.933 162.379 198.51 165.113 197.021C167.848 195.533 171.116 196.543 172.413 199.277L178.8 212.745C180.096 215.479 178.931 218.903 176.197 220.391Z" fill="#F2D422" stroke="black" stroke-width="3"/>
<path d="M60.3748 107.978C59.3458 111.016 56.1722 112.754 53.2865 111.857L39.0751 107.442C36.1897 106.545 34.6845 103.355 35.7136 100.317C36.7426 97.2782 39.9162 95.5407 42.802 96.4373L57.0134 100.853C59.8989 101.75 61.4037 104.94 60.3748 107.978Z" fill="#F2D422" stroke="black" stroke-width="3"/>
<path d="M226.297 161.751C225.268 164.789 222.094 166.526 219.209 165.63L204.997 161.214C202.112 160.318 200.606 157.128 201.636 154.089C202.665 151.05 205.838 149.313 208.724 150.21L222.936 154.625C225.82 155.522 227.326 158.713 226.297 161.751Z" fill="#F2D422" stroke="black" stroke-width="3"/>
<path d="M65.0161 164.323C66.3127 167.058 65.1472 170.482 62.4131 171.969L48.9459 179.301C46.2111 180.789 42.9435 179.779 41.6466 177.045C40.3495 174.31 41.5144 170.886 44.2492 169.398L57.7165 162.066C60.4506 160.578 63.7187 161.588 65.0161 164.323Z" fill="#F2D422" stroke="black" stroke-width="3"/>
<path d="M220.364 85.0232C221.66 87.7575 220.494 91.1808 217.761 92.6696L204.293 100.001C201.559 101.489 198.291 100.479 196.994 97.7449C195.697 95.0101 196.863 91.5864 199.597 90.0982L213.064 82.7668C215.798 81.2786 219.067 82.2884 220.364 85.0232Z" fill="#F2D422" stroke="black" stroke-width="3"/>
<path d="M135.42 155.914C131.047 157.767 126.635 158.066 122.661 156.778C118.687 155.49 115.289 152.66 112.834 148.595C111.969 147.163 110.108 146.703 108.676 147.567C107.244 148.431 106.784 150.293 107.649 151.725C110.867 157.056 115.413 160.795 120.793 162.539C126.173 164.282 132.048 163.92 137.782 161.49C139.321 160.838 140.041 159.061 139.388 157.52C138.738 155.982 136.96 155.263 135.42 155.914Z" fill="black"/>
</svg>
