<svg width="63" height="64" viewBox="0 0 63 64" fill="none" xmlns="http://www.w3.org/2000/svg">
<path d="M11.0406 12.8744C15.0219 14.8988 19.5603 11.3686 18.578 7.01158C17.7548 3.36047 22.7112 1.40675 24.6007 4.63755C26.8556 8.49298 32.5821 7.97691 34.1113 3.78045C35.3927 0.263892 40.6186 1.29997 40.4614 5.03943C40.2739 9.50188 45.3704 12.1637 48.9256 9.46019C51.9048 7.19465 55.741 10.8916 53.587 13.9525C51.0167 17.6051 53.865 22.5998 58.3175 22.2475C62.0486 21.9523 63.2771 27.1363 59.8103 28.5468C55.6732 30.23 55.369 35.9717 59.3051 38.0825C62.6035 39.8514 60.8343 44.8766 57.1553 44.1889C52.7649 43.3682 49.4049 48.034 51.5749 51.9378C53.3934 55.209 49.1882 58.48 46.465 55.9124C43.2153 52.8484 37.8661 54.9569 37.5812 59.4142C37.3424 63.1494 32.0363 63.6276 31.1335 59.9953C30.0562 55.6608 24.4163 54.5426 21.7667 58.1383C19.5465 61.1514 14.8242 58.6849 16.0285 55.1412C17.4657 50.9124 13.3255 46.9225 9.15267 48.5149C5.65588 49.8493 3.01667 45.2214 5.94567 42.8913C9.44098 40.1108 8.11517 34.516 3.74381 33.5996C0.0806746 32.8316 0.36249 27.5115 4.08625 27.1349C8.52997 26.6854 10.4394 21.262 7.25743 18.1277C4.59098 15.5013 7.70434 11.178 11.0406 12.8744Z" fill="white" stroke="black" stroke-width="2"/>
</svg>
