<svg width="3428" height="1162" viewBox="0 0 3428 1162" fill="none" xmlns="http://www.w3.org/2000/svg">
<path d="M3427 581C3427 660.789 3379.3 736.954 3292.68 806.371C3206.07 875.781 3080.69 938.332 2925.66 990.882C2615.62 1095.98 2187.23 1161 1714 1161C1240.77 1161 812.384 1095.98 502.34 990.882C347.313 938.332 221.928 875.781 135.32 806.371C48.7026 736.954 1 660.789 1 581C1 501.211 48.7026 425.046 135.32 355.629C221.928 286.219 347.313 223.668 502.34 171.118C812.384 66.0213 1240.77 1 1714 1C2187.23 1 2615.62 66.0213 2925.66 171.118C3080.69 223.668 3206.07 286.219 3292.68 355.629C3379.3 425.046 3427 501.211 3427 581Z" fill="#A1FFF8" stroke="black" stroke-width="2"/>
</svg>
