<svg width="151" height="131" viewBox="0 0 151 131" fill="none" xmlns="http://www.w3.org/2000/svg">
<path d="M69.8471 68.5124C74.4409 79.3809 79.5354 91.4342 85.2978 89.1154C91.0603 86.7965 85.9657 74.7432 81.372 63.8746C76.7782 53.0061 74.4248 47.4381 68.6624 49.757C62.8999 52.0758 65.2533 57.6438 69.8471 68.5124Z" fill="#685E68"/>
<path d="M68.631 49.8382C69.8608 49.3416 70.9338 49.2099 71.907 49.4127C69.9152 52.3976 72.1265 57.6528 75.7145 66.1726C79.3028 74.6932 83.1984 83.942 87.4821 86.3969C87.135 87.68 86.4036 88.6245 85.1742 89.1209C79.4431 91.4351 74.3768 79.4049 69.8085 68.5572C65.2402 57.7095 62.8999 52.1524 68.631 49.8382Z" fill="#554E56"/>
<path d="M76.4315 52.5395C76.1453 52.1023 76.0654 51.5674 76.2113 51.0794C77.9443 45.2862 89.9622 6.69291 102.824 5.79497C116.731 4.82402 112.207 21.2061 117.588 28.6319C122.969 36.0578 130.53 47.2663 119.061 51.3665C107.85 55.3741 83.1243 62.7624 76.4315 52.5395Z" fill="#F935FF"/>
<path d="M76.1796 51.1118C77.9086 45.331 89.8989 6.81999 102.731 5.92399C102.994 5.90565 103.248 5.89562 103.497 5.88954C92.8169 14.5176 83.733 43.7197 82.2455 48.6932C82.0999 49.1801 82.1798 49.7141 82.4652 50.1502C88.5078 59.3815 109.283 54.2218 121.467 50.1937C120.752 50.6425 119.913 51.0471 118.93 51.3983C107.746 55.3974 83.0766 62.7699 76.3992 52.5688C76.1135 52.1326 76.034 51.5987 76.1796 51.1118Z" fill="#B829C6"/>
<path d="M65.9244 57.4674C65.8082 56.9624 65.4747 56.5286 65.0151 56.282C59.5594 53.3545 22.8787 34.1747 13.1024 42.3014C2.53211 51.0881 17.693 59.6227 19.295 68.5551C20.8971 77.4874 23.713 90.5876 34.838 85.6807C45.712 80.8844 68.6369 69.277 65.9244 57.4674Z" fill="#F935FF"/>
<path d="M12.9286 43.0351C14.2585 41.9183 16.0997 41.3259 18.2973 41.1404C9.11058 49.617 23.3525 57.8686 24.883 66.4959C26.3089 74.5349 28.7242 86 37.4089 84.2197C36.2209 84.7841 35.1072 85.2938 34.0999 85.7427C23.2607 90.5724 20.5187 77.6754 18.9587 68.8817C17.399 60.0876 2.62921 51.6844 12.9286 43.0351Z" fill="#B829C6"/>
<path d="M77.153 57.6034C76.7812 56.6224 77.3404 55.5681 78.3468 55.354C87.9935 53.3011 131.525 45.0062 124.634 64.0939C115.656 88.9651 128.936 99.5954 111.785 98.1484C93.0819 96.5708 80.1618 65.5433 77.153 57.6034Z" fill="#FB79FF"/>
<path d="M77.1352 57.9602C76.7676 56.9863 77.3206 55.9398 78.3156 55.7273C79.4533 55.4844 81.0682 55.1532 83.0173 54.7906C82.9942 55.0422 83.0252 55.305 83.1228 55.5632C86.0974 63.4451 98.8709 94.2457 117.363 95.8124C118.368 95.8976 119.263 95.9391 120.068 95.9396C119.066 97.9263 116.709 98.6615 111.376 98.2095C92.8831 96.6428 80.1098 65.842 77.1352 57.9602Z" fill="#F935FF"/>
<path d="M67.9928 61.9001C67.5411 60.951 66.3757 60.5846 65.5058 61.1187C57.1676 66.2388 20.2481 90.0288 39.0544 98.8682C63.5593 110.386 61.8942 126.977 73.0021 114.259C85.1147 100.392 71.6495 69.5816 67.9928 61.9001Z" fill="#FB79FF"/>
<path d="M65.5036 61.1255C66.1427 60.7332 66.9404 60.8283 67.4985 61.2824C55.2083 69.292 28.5492 88.6719 45.1104 96.4563C61.906 104.351 66.4061 114.627 71.153 116.215C61.9992 125.026 62.106 109.706 39.0556 98.8711C20.2518 90.0328 57.1665 66.2451 65.5036 61.1255Z" fill="#F935FF"/>
<path d="M13.0578 59.1502C8.14311 52.6759 4.61736 45.8841 12.0594 39.8352C14.9676 37.4173 19.7277 36.8552 26.6107 38.1165C27.519 38.2829 28.1465 39.1509 28.0118 40.0548C27.8773 40.9589 27.0322 41.557 26.1238 41.3904C20.4197 40.3452 16.309 40.7032 14.236 42.4265C8.75998 46.9786 11.1093 50.8382 15.7332 57.2686C18.0089 60.4332 20.362 63.7058 20.9899 67.2067C22.2339 74.0157 24.5759 87.8117 34.2173 83.0823C35.3671 82.5751 36.5211 82.049 37.6473 81.5188C37.7224 81.4835 37.7994 81.4565 37.8769 81.4335C43.4901 74.2579 58.4322 63.7701 64.3861 60.2043C64.707 58.9668 64.7356 57.8029 64.4707 56.6487C64.4664 56.6296 64.4531 56.613 64.434 56.6029C61.5926 55.0783 46.7482 47.2686 33.5164 43.2372C32.6298 42.9671 32.1047 42.0358 32.3436 41.1571C32.5826 40.2785 33.4948 39.785 34.3814 40.0553C45.7082 43.5064 58.1316 49.6317 63.5844 52.451C63.8199 51.4817 64.2587 50.6432 64.8998 49.9273C62.5662 45.7169 57.1305 37.512 48.8799 34.4724C48.0087 34.1515 47.5379 33.193 47.828 32.3316C48.1184 31.4702 49.0598 31.032 49.9308 31.353C59.0308 34.7055 64.964 43.3789 67.6138 48.069C67.7964 47.9851 67.9892 47.9104 68.1792 47.8453C66.622 42.6691 64.5213 32.5077 68.5233 23.9409C68.907 23.12 69.8942 22.789 70.7283 23.202C71.5625 23.6153 71.9277 24.6158 71.5443 25.4369C67.9102 33.2159 70.0338 42.7212 71.4662 47.3353C72.4231 47.4132 73.3282 47.705 74.1859 48.2218C77.3263 37.339 89.9069 3.68826 101.521 4.16889C106.272 3.83709 109.635 5.29746 111.803 8.63371C113.594 11.389 114.26 15.0277 114.905 18.5465C115.531 21.9646 116.178 25.4994 117.825 27.7725C122.314 33.9674 126.964 41.0597 125.297 46.8291C124.566 49.3604 122.692 51.3032 119.722 52.6174C122.052 53.4209 123.829 54.525 125.066 55.9362C127.256 58.4356 127.643 61.7065 126.216 65.658C124.311 70.9339 123.225 76.1034 122.896 81.4619C122.839 82.3769 122.051 83.047 121.134 82.9585C120.218 82.87 119.52 82.0566 119.577 81.1416C119.925 75.4673 121.073 70.001 123.085 64.4299C124.082 61.6682 123.924 59.5916 122.6 58.0817C117.373 52.1173 95.5591 54.2468 78.4677 57.8826C78.4566 57.8851 78.4359 57.8895 78.4213 57.9171C78.4069 57.9443 78.4143 57.9638 78.4182 57.9746C82.3999 69.3736 96.4483 97.1496 111.8 97.6423C115.479 97.9528 117.719 97.6755 118.648 96.7946C119.743 95.7556 119.659 93.1587 119.543 89.5645L119.532 89.2196C119.502 88.3001 120.223 87.5574 121.14 87.5601C122.058 87.5629 122.826 88.3104 122.855 89.2296L122.866 89.5733C123.01 94.0144 123.114 97.2231 120.98 99.2482C120.475 99.7274 119.872 100.109 119.147 100.398C107.885 103.604 97.2033 96.1697 89.8173 86.1874C89.2791 91.3771 83.7216 93.0447 80.0589 89.9553C82.1313 102.104 80.0077 114.713 69.6463 120.133C68.9212 120.422 68.2151 120.562 67.5075 120.566C64.5167 120.584 62.2494 118.238 59.1112 114.991C55.1046 110.845 49.6174 105.167 39.2877 100.314C35.3929 98.4842 33.2809 95.901 33.0111 92.6358C32.8585 90.7902 33.314 88.7942 34.3831 86.6336C31.3643 87.6822 28.6572 87.5684 26.3219 86.2878C20.931 83.3316 19.054 75.1343 17.7178 67.6825C17.2272 64.9483 15.1078 62.0008 13.0578 59.1502ZM78.7929 67.3318L74.1387 69.1873C74.8163 70.9085 75.5105 72.7766 76.183 74.7529L81.404 72.6715C80.4388 70.8118 79.5681 69.014 78.7929 67.3318ZM66.7022 54.2517C67.1982 54.7258 67.5542 55.3333 67.71 56.0117C67.9328 56.9825 68.0096 57.9736 67.9499 58.975C68.1101 59.0013 68.2698 59.0348 68.4274 59.0844C69.3646 59.379 70.1455 60.0593 70.57 60.9507C71.1891 62.2504 71.988 63.9943 72.8659 66.0689L77.4209 64.2529C76.5297 62.1836 75.8242 60.4025 75.3149 59.059C74.8904 57.9523 75.0719 56.6767 75.8002 55.7829C75.0484 55.1241 74.3978 54.3831 73.859 53.5603C73.4747 52.9732 73.284 52.3003 73.2895 51.6263C72.0841 50.5117 70.9339 50.3628 69.1928 51.0569C67.2348 51.8375 66.7344 52.9039 66.7022 54.2517ZM113.387 51.3011C113.422 51.2868 113.457 51.2721 113.494 51.2602C114.776 50.8401 116.076 50.3943 117.36 49.9354C120.025 48.9829 121.572 47.6315 122.101 45.8015C123.454 41.1143 118.057 33.6657 115.158 29.6642C109.729 22.7375 113.777 6.08972 101.868 7.48979C91.5104 7.43032 78.4031 44.5543 76.6132 51.7472C76.6071 51.7675 76.61 51.7883 76.6206 51.8046C77.2806 52.8129 78.1638 53.6253 79.3072 54.2852C86.203 52.7537 104.19 50.0627 113.387 51.3011ZM84.9659 88.0091C85.5923 87.7594 87.4958 86.9996 86.1134 80.863C85.0059 79.1312 83.9708 77.3823 83.0099 75.6575L77.2227 77.9647C77.764 79.7258 78.2742 81.5461 78.7301 83.4011C82.359 89.0441 84.3186 88.2672 84.9659 88.0091ZM40.6125 97.3093C51.5211 102.434 57.503 108.624 61.4615 112.72C64.0012 115.348 65.836 117.247 67.3708 117.238C68.6717 117.23 70.4627 115.9 72.8462 113.172C83.3802 102.371 73.0516 73.0408 67.578 62.2963C67.5732 62.2861 67.5641 62.267 67.534 62.2578C67.5071 62.2499 67.4926 62.255 67.4759 62.265C52.7031 71.3326 35.6806 84.6861 36.3249 92.4777C36.4878 94.4498 37.8902 96.0305 40.6125 97.3093Z" fill="black"/>
</svg>
