<svg width="180" height="199" viewBox="0 0 180 199" fill="none" xmlns="http://www.w3.org/2000/svg">
<path d="M151.706 129.663C143.633 159.037 117.423 178.557 88.4859 179.454C81.8752 179.662 75.1198 178.893 68.4043 177.047C66.8337 176.615 65.2905 176.132 63.7776 175.596C62.6289 175.194 61.495 174.759 60.3838 174.298C54.2162 171.75 48.5905 168.359 43.6084 164.297C23.4046 147.857 13.6756 120.473 21.0212 93.7457C30.9402 57.6551 68.2353 36.4406 104.322 46.3586C140.41 56.2769 161.625 93.5721 151.706 129.663Z" fill="#937DE2"/>
<path d="M104.32 46.3586C100.896 45.4174 97.4607 44.7584 94.0375 44.364C124.013 57.8112 140.54 91.4623 131.562 124.127C123.489 153.501 97.2793 173.022 68.3422 173.919C65.1061 174.02 61.8359 173.886 58.5522 173.507C59.1571 173.779 59.7653 174.044 60.3818 174.298C61.4942 174.759 62.6269 175.195 63.7756 175.596C65.2885 176.132 66.8317 176.615 68.4023 177.047C75.1166 178.892 81.8735 179.661 88.4839 179.454C117.421 178.557 143.631 159.037 151.704 129.663C161.623 93.5721 140.408 56.277 104.32 46.3586Z" fill="#7570D6"/>
<path d="M98.721 90.3242L98.4893 90.3028L97.9627 90.2504L81.3633 88.6035L82.6974 77.4253L84.6556 61.0184L89.2396 22.6592C89.6932 19.1216 92.9064 16.6065 96.4523 17.0201C96.7857 17.0603 97.1094 17.1215 97.4235 17.2079C100.351 18.0125 102.386 20.7784 102.187 23.8936L99.1959 81.2062L98.7414 89.8996L98.721 90.3242Z" fill="#FDD7BD"/>
<path d="M145.724 38.2929C145.607 38.7162 145.448 39.133 145.237 39.5368L117.628 91.084L111.821 101.928L96.5626 93.3763L98.4882 90.3027L98.7402 89.8995L103.455 82.373L134.19 33.3296C135.951 30.4272 139.688 29.4298 142.664 31.0632C145.28 32.5015 146.485 35.5247 145.724 38.2929Z" fill="#FDD7BD"/>
<path d="M117.512 90.6497L111.438 101.972L96.4712 93.5426L98.4717 90.3263L81.4619 89.0062L83.0919 77.4518C84.2465 77.2493 85.4459 77.2886 86.6289 77.6002L99.4207 80.9332L98.7336 89.9044L103.633 82.0288L106.419 82.7562C111.14 83.9862 114.966 86.8599 117.512 90.6497Z" fill="#FAC5AA"/>
<path d="M107.064 116.567L99.3315 138.402L62.7916 176.177C61.6804 175.8 60.5844 175.389 59.5111 174.953C57.961 174.326 56.4523 173.64 54.9819 172.896C50.7908 170.786 46.9162 168.225 43.3922 165.286L46.3024 155.27C47.7137 150.414 47.8136 145.314 46.5877 140.542C46.054 138.46 45.7693 136.318 45.739 134.16C45.7066 131.999 45.9286 129.822 46.4002 127.67L53.3456 96.0502L56.0595 83.7033L77.9872 86.2194L94.8834 88.1568L99.2588 88.6598L99.4497 89.3456L107.064 116.567Z" fill="#FAC5AA"/>
<path d="M97.4649 90.2057L81.2503 88.9526L82.8533 77.6329L85.2061 61.0184C87.0821 61.9222 88.5964 63.5624 89.3378 65.7421L97.024 88.131C97.2583 88.8117 97.4038 89.507 97.4649 90.2057Z" fill="#FAC5AA"/>
<path d="M100.838 114.056L83.1707 109.211C81.9488 113.143 78.9821 116.485 74.8851 118.014C72.1698 119.03 69.2599 119.159 66.4684 118.392C62.2573 117.234 58.8218 114.105 57.2759 110.02L51.9436 95.8089L54.3926 83.6187L76.9272 86.6659L94.2914 89.0112L98.7876 89.6214L99.002 90.3059L100.838 114.056Z" fill="#FABAA1"/>
<path d="M117.754 116.849L109.822 145.71C109.139 148.193 107.966 150.482 106.397 152.461C104.827 154.439 102.863 156.102 100.597 157.331C96.0671 159.786 92.7389 163.983 91.3734 168.951L88.4867 179.454C81.876 179.662 75.1206 178.893 68.4051 177.047C66.8345 176.615 65.2913 176.132 63.7784 175.596C62.6298 175.195 61.4958 174.759 60.3846 174.298C61.4893 166.658 66.9639 143.031 70.3362 137.071C77.0746 125.167 89.7455 121.944 94.1715 121.148C94.9965 120.999 95.6503 120.363 95.8338 119.546L97.8577 110.501C98.146 109.217 97.3735 107.932 96.1016 107.585L83.8436 104.231L78.6221 102.802C73.9895 101.512 71.2758 96.7212 72.5502 92.0843L72.5563 92.0622C73.2291 89.6381 74.8598 87.7384 76.9296 86.6656C76.9875 86.6327 77.0421 86.6068 77.099 86.5775C78.9547 85.6596 81.145 85.3972 83.2967 85.9952L94.2951 89.0113L99.0056 90.3059L103.317 91.4882C114.309 94.5014 120.775 105.858 117.754 116.849Z" fill="#FDD7BD"/>
<path d="M87.9495 103.048C83.4492 104.729 78.4366 102.454 76.7382 97.9597L68.2597 75.5184C66.5755 71.0054 68.8669 65.9815 73.3791 64.2958C77.8925 62.6104 82.9164 64.9018 84.6017 69.4152L93.0563 91.7945C94.7641 96.3127 92.4747 101.358 87.9495 103.048Z" fill="#FCE5D0"/>
<path d="M73.1479 113.351C68.6479 115.031 63.6353 112.756 61.9378 108.263L54.663 88.8746C52.9776 84.3612 55.269 79.3373 59.7824 77.652C64.2946 75.9663 69.3194 78.2592 71.005 82.7714L78.2559 102.097C79.9625 106.615 77.6731 111.661 73.1479 113.351Z" fill="#FCE5D0"/>
<path d="M90.9315 93.0103C91.3939 94.1272 91.4923 95.301 91.2836 96.4011C90.9066 98.3588 89.5609 100.086 87.558 100.853C86.0239 101.441 84.3938 101.35 83.0008 100.729C82.5459 100.526 82.1215 100.269 81.7326 99.9603C80.9176 99.3193 80.2609 98.4578 79.864 97.4196L78.4739 93.7911C77.3073 90.7466 78.8321 87.3306 81.875 86.1649C83.3693 85.5924 84.9546 85.6678 86.3207 86.2531C87.6869 86.8424 88.8336 87.9427 89.4445 89.4172L90.9315 93.0103Z" fill="#FFF2EA"/>
<path d="M75.6382 102.99C76.0885 104.113 76.172 105.288 75.9523 106.385C75.5529 108.338 74.1862 110.05 72.1752 110.793C70.6341 111.364 69.0051 111.255 67.6193 110.617C67.1669 110.409 66.7439 110.148 66.3591 109.834C65.5533 109.183 64.9064 108.315 64.52 107.272L63.1729 103.626C62.0415 100.569 63.6048 97.1715 66.662 96.0401C68.1633 95.4853 69.7476 95.579 71.1065 96.1807C72.4659 96.7853 73.5983 97.8989 74.1927 99.3807L75.6382 102.99Z" fill="#FFF2EA"/>
<mask id="path-14-inside-1_83_377" fill="white">
<path d="M136.068 62.0389L147.45 40.6809C149.669 36.3922 148.094 31.2096 143.861 28.8836C139.713 26.6033 134.537 27.9812 132.071 32.0215L120.596 50.334C115.692 47.6034 110.451 45.4619 104.98 43.9585C104.536 43.8365 104.092 43.7224 103.65 43.6099L104.671 24.0527C104.941 19.8194 102.169 15.9312 98.082 14.8079C97.6574 14.6912 97.209 14.6036 96.7402 14.5473C91.8642 13.9793 87.3927 17.4762 86.7673 22.3641L84.4867 41.4565C53.7232 42.262 26.8292 63.2153 18.6197 93.0861C8.35328 130.441 30.39 169.181 67.7432 179.447C74.5091 181.307 81.4655 182.136 88.3875 181.939C88.5075 181.944 88.6274 181.94 88.7444 181.928C94.5503 181.734 100.33 180.82 105.952 179.182C107.272 178.798 108.03 177.416 107.645 176.096C107.26 174.776 105.879 174.018 104.559 174.402C100.381 175.62 96.1084 176.405 91.8052 176.764L93.7713 169.611C94.3614 167.463 95.3627 165.491 96.7458 163.748C98.129 162.004 99.8239 160.582 101.783 159.519C106.88 156.751 110.684 151.958 112.22 146.369L120.152 117.508C121.789 111.551 121.008 105.314 117.951 99.945C117.601 99.3287 117.222 98.7349 116.822 98.1607L133.613 66.6481C149.395 83.2114 155.407 106.799 149.304 129.003C144.388 146.891 132.036 161.891 115.414 170.16C114.183 170.772 113.682 172.266 114.295 173.497C114.623 174.158 115.205 174.608 115.864 174.789C116.435 174.946 117.062 174.902 117.632 174.618C135.52 165.719 148.813 149.574 154.104 130.324C160.819 105.893 153.908 79.9121 136.068 62.0389ZM96.1545 19.4923C96.3718 19.5177 96.5762 19.5568 96.7615 19.6077C98.5861 20.1091 99.822 21.8451 99.6996 23.7646L96.4 87.0103L93.6241 86.2487L86.936 68.5437C86.7817 68.1304 86.6029 67.7342 86.4071 67.3518L89.1693 44.2215C89.1715 44.2036 89.1741 44.1846 89.1767 44.1655L91.708 22.975C91.986 20.8013 93.9845 19.2391 96.1545 19.4923ZM56.8112 84.2303C56.8999 83.8931 57.0138 83.5601 57.1609 83.2363C57.8518 81.7211 59.0916 80.5666 60.6506 79.9842C61.924 79.5093 63.255 79.4779 64.4746 79.8131C66.3336 80.324 67.9331 81.6875 68.6645 83.6265L68.7561 83.8694L75.9247 102.976C76.5154 104.539 76.4596 106.235 75.7698 107.756C75.0803 109.275 73.8392 110.435 72.2746 111.018C69.0682 112.217 65.4744 110.585 64.2654 107.388L56.9924 88.003C56.6343 87.0441 56.521 86.0351 56.6459 85.0479L56.8112 84.2303ZM90.5751 97.4531C89.8853 98.9739 88.6433 100.132 87.0799 100.716L87.0796 100.717C83.8735 101.914 80.2794 100.284 79.068 97.0804L73.4158 82.1174L73.3345 81.8997C73.3312 81.8922 73.328 81.8848 73.326 81.8776L70.594 74.647C70.0115 73.088 70.0719 71.3942 70.7625 69.8803C71.4534 68.3651 72.6932 67.2106 74.2522 66.6282C75.5243 66.153 76.8553 66.1215 78.0737 66.4564C79.9413 66.9697 81.5462 68.3425 82.2754 70.2942L90.7297 92.6747C91.3195 94.2357 91.2646 95.9336 90.5751 97.4531ZM115.352 116.189L107.42 145.05C106.241 149.34 103.32 153.019 99.4075 155.144C96.8575 156.528 94.65 158.38 92.8459 160.651C91.0426 162.925 89.7384 165.495 88.9699 168.291L86.5796 176.988C80.6997 177.005 74.8074 176.226 69.0625 174.647C60.6009 172.321 52.9885 168.419 46.4472 163.351L48.7185 155.087C50.1568 149.853 50.1187 144.33 48.6071 139.118C47.5181 135.363 47.3487 131.351 48.1185 127.518L49.2513 121.879C49.5216 120.53 48.6476 119.216 47.3013 118.947C45.953 118.677 44.6413 119.551 44.3698 120.899L43.2382 126.538C42.3116 131.153 42.514 135.982 43.825 140.504C45.0802 144.834 45.1132 149.42 43.9184 153.767L42.2565 159.814C24.8224 143.779 16.722 118.775 23.4198 94.4054C30.9832 66.8856 55.6119 47.5096 83.8896 46.4525L81.9465 62.7131C79.1635 61.1419 75.7327 60.7611 72.5107 61.9634C67.2017 63.9461 64.2809 69.5506 65.5017 74.938C63.3859 74.4158 61.0991 74.5013 58.9092 75.3195C56.1045 76.3672 53.8745 78.4452 52.6322 81.1695C52.1756 82.1684 51.8744 83.2113 51.7248 84.2695L46.5654 109.966C46.306 111.256 47.094 112.514 48.3431 112.857C48.3995 112.872 48.4579 112.886 48.5153 112.898C49.8637 113.168 51.1754 112.294 51.4465 110.948L54.5276 95.6028L59.6065 109.141C60.9217 112.62 63.7989 115.068 67.1437 115.988C69.3364 116.59 71.7321 116.536 74.0164 115.682C76.8298 114.631 79.0627 112.547 80.3036 109.813C80.8431 108.624 81.167 107.373 81.273 106.109L97.7116 110.607C99.0384 110.97 100.408 110.189 100.77 108.863C101.133 107.538 100.354 106.17 99.0284 105.806C99.0284 105.806 99.0272 105.806 99.026 105.806L91.6961 103.799C93.1571 102.689 94.3293 101.229 95.1089 99.5108C96.1931 97.1219 96.4059 94.4894 95.7335 91.9899L97.464 92.4642C97.6491 92.5731 97.8452 92.6666 98.0574 92.7249C98.2243 92.7708 98.3987 92.7989 98.579 92.8102C98.6287 92.812 98.6778 92.811 98.7281 92.8103L102.657 93.8889L102.667 93.8916C107.337 95.1751 111.229 98.1993 113.625 102.409C116.023 106.621 116.636 111.515 115.352 116.189ZM103.987 89.0902C103.982 89.0888 103.977 89.0875 103.973 89.0865L101.315 88.3585L103.385 48.6868C103.477 48.7121 103.569 48.7334 103.661 48.7587C108.664 50.1336 113.457 52.0818 117.947 54.5602L105.296 74.7483C104.566 75.9137 104.919 77.4492 106.084 78.1798C107.248 78.9089 108.785 78.5578 109.515 77.3927L136.299 34.6509C136.306 34.6409 136.312 34.6321 136.318 34.6217C137.392 32.8543 139.652 32.2508 141.464 33.2462C143.309 34.2615 143.998 36.5213 143.042 38.3662L113.306 94.1734C110.67 91.8032 107.504 90.0567 103.987 89.0902Z"/>
</mask>
<path d="M136.068 62.0389L147.45 40.6809C149.669 36.3922 148.094 31.2096 143.861 28.8836C139.713 26.6033 134.537 27.9812 132.071 32.0215L120.596 50.334C115.692 47.6034 110.451 45.4619 104.98 43.9585C104.536 43.8365 104.092 43.7224 103.65 43.6099L104.671 24.0527C104.941 19.8194 102.169 15.9312 98.082 14.8079C97.6574 14.6912 97.209 14.6036 96.7402 14.5473C91.8642 13.9793 87.3927 17.4762 86.7673 22.3641L84.4867 41.4565C53.7232 42.262 26.8292 63.2153 18.6197 93.0861C8.35328 130.441 30.39 169.181 67.7432 179.447C74.5091 181.307 81.4655 182.136 88.3875 181.939C88.5075 181.944 88.6274 181.94 88.7444 181.928C94.5503 181.734 100.33 180.82 105.952 179.182C107.272 178.798 108.03 177.416 107.645 176.096C107.26 174.776 105.879 174.018 104.559 174.402C100.381 175.62 96.1084 176.405 91.8052 176.764L93.7713 169.611C94.3614 167.463 95.3627 165.491 96.7458 163.748C98.129 162.004 99.8239 160.582 101.783 159.519C106.88 156.751 110.684 151.958 112.22 146.369L120.152 117.508C121.789 111.551 121.008 105.314 117.951 99.945C117.601 99.3287 117.222 98.7349 116.822 98.1607L133.613 66.6481C149.395 83.2114 155.407 106.799 149.304 129.003C144.388 146.891 132.036 161.891 115.414 170.16C114.183 170.772 113.682 172.266 114.295 173.497C114.623 174.158 115.205 174.608 115.864 174.789C116.435 174.946 117.062 174.902 117.632 174.618C135.52 165.719 148.813 149.574 154.104 130.324C160.819 105.893 153.908 79.9121 136.068 62.0389ZM96.1545 19.4923C96.3718 19.5177 96.5762 19.5568 96.7615 19.6077C98.5861 20.1091 99.822 21.8451 99.6996 23.7646L96.4 87.0103L93.6241 86.2487L86.936 68.5437C86.7817 68.1304 86.6029 67.7342 86.4071 67.3518L89.1693 44.2215C89.1715 44.2036 89.1741 44.1846 89.1767 44.1655L91.708 22.975C91.986 20.8013 93.9845 19.2391 96.1545 19.4923ZM56.8112 84.2303C56.8999 83.8931 57.0138 83.5601 57.1609 83.2363C57.8518 81.7211 59.0916 80.5666 60.6506 79.9842C61.924 79.5093 63.255 79.4779 64.4746 79.8131C66.3336 80.324 67.9331 81.6875 68.6645 83.6265L68.7561 83.8694L75.9247 102.976C76.5154 104.539 76.4596 106.235 75.7698 107.756C75.0803 109.275 73.8392 110.435 72.2746 111.018C69.0682 112.217 65.4744 110.585 64.2654 107.388L56.9924 88.003C56.6343 87.0441 56.521 86.0351 56.6459 85.0479L56.8112 84.2303ZM90.5751 97.4531C89.8853 98.9739 88.6433 100.132 87.0799 100.716L87.0796 100.717C83.8735 101.914 80.2794 100.284 79.068 97.0804L73.4158 82.1174L73.3345 81.8997C73.3312 81.8922 73.328 81.8848 73.326 81.8776L70.594 74.647C70.0115 73.088 70.0719 71.3942 70.7625 69.8803C71.4534 68.3651 72.6932 67.2106 74.2522 66.6282C75.5243 66.153 76.8553 66.1215 78.0737 66.4564C79.9413 66.9697 81.5462 68.3425 82.2754 70.2942L90.7297 92.6747C91.3195 94.2357 91.2646 95.9336 90.5751 97.4531ZM115.352 116.189L107.42 145.05C106.241 149.34 103.32 153.019 99.4075 155.144C96.8575 156.528 94.65 158.38 92.8459 160.651C91.0426 162.925 89.7384 165.495 88.9699 168.291L86.5796 176.988C80.6997 177.005 74.8074 176.226 69.0625 174.647C60.6009 172.321 52.9885 168.419 46.4472 163.351L48.7185 155.087C50.1568 149.853 50.1187 144.33 48.6071 139.118C47.5181 135.363 47.3487 131.351 48.1185 127.518L49.2513 121.879C49.5216 120.53 48.6476 119.216 47.3013 118.947C45.953 118.677 44.6413 119.551 44.3698 120.899L43.2382 126.538C42.3116 131.153 42.514 135.982 43.825 140.504C45.0802 144.834 45.1132 149.42 43.9184 153.767L42.2565 159.814C24.8224 143.779 16.722 118.775 23.4198 94.4054C30.9832 66.8856 55.6119 47.5096 83.8896 46.4525L81.9465 62.7131C79.1635 61.1419 75.7327 60.7611 72.5107 61.9634C67.2017 63.9461 64.2809 69.5506 65.5017 74.938C63.3859 74.4158 61.0991 74.5013 58.9092 75.3195C56.1045 76.3672 53.8745 78.4452 52.6322 81.1695C52.1756 82.1684 51.8744 83.2113 51.7248 84.2695L46.5654 109.966C46.306 111.256 47.094 112.514 48.3431 112.857C48.3995 112.872 48.4579 112.886 48.5153 112.898C49.8637 113.168 51.1754 112.294 51.4465 110.948L54.5276 95.6028L59.6065 109.141C60.9217 112.62 63.7989 115.068 67.1437 115.988C69.3364 116.59 71.7321 116.536 74.0164 115.682C76.8298 114.631 79.0627 112.547 80.3036 109.813C80.8431 108.624 81.167 107.373 81.273 106.109L97.7116 110.607C99.0384 110.97 100.408 110.189 100.77 108.863C101.133 107.538 100.354 106.17 99.0284 105.806C99.0284 105.806 99.0272 105.806 99.026 105.806L91.6961 103.799C93.1571 102.689 94.3293 101.229 95.1089 99.5108C96.1931 97.1219 96.4059 94.4894 95.7335 91.9899L97.464 92.4642C97.6491 92.5731 97.8452 92.6666 98.0574 92.7249C98.2243 92.7708 98.3987 92.7989 98.579 92.8102C98.6287 92.812 98.6778 92.811 98.7281 92.8103L102.657 93.8889L102.667 93.8916C107.337 95.1751 111.229 98.1993 113.625 102.409C116.023 106.621 116.636 111.515 115.352 116.189ZM103.987 89.0902C103.982 89.0888 103.977 89.0875 103.973 89.0865L101.315 88.3585L103.385 48.6868C103.477 48.7121 103.569 48.7334 103.661 48.7587C108.664 50.1336 113.457 52.0818 117.947 54.5602L105.296 74.7483C104.566 75.9137 104.919 77.4492 106.084 78.1798C107.248 78.9089 108.785 78.5578 109.515 77.3927L136.299 34.6509C136.306 34.6409 136.312 34.6321 136.318 34.6217C137.392 32.8543 139.652 32.2508 141.464 33.2462C143.309 34.2615 143.998 36.5213 143.042 38.3662L113.306 94.1734C110.67 91.8032 107.504 90.0567 103.987 89.0902Z" fill="black" stroke="#1DD4FF" stroke-width="2" mask="url(#path-14-inside-1_83_377)"/>
<path d="M95.1987 118.467C92.1003 118.869 76.2318 121.598 68.1671 135.845C64.3425 142.601 63.7394 149.371 63.9058 153.861C63.9473 154.973 64.7132 155.888 65.7329 156.168C65.9722 156.234 66.2249 156.265 66.4863 156.255C67.861 156.204 68.9334 155.048 68.882 153.675C68.7383 149.828 69.2501 144.038 72.5 138.297C79.3981 126.11 93.1535 123.753 95.84 123.404C97.2031 123.227 98.165 121.979 97.988 120.615C97.811 119.252 96.5618 118.29 95.1987 118.467Z" fill="black"/>
</svg>
