<svg width="139" height="139" viewBox="0 0 139 139" fill="none" xmlns="http://www.w3.org/2000/svg">
<g clip-path="url(#clip0_83_543)">
<path d="M69.6358 136.956C106.891 136.956 137.092 106.755 137.092 69.5C137.092 32.245 106.891 2.04382 69.6358 2.04382C32.3808 2.04382 2.17969 32.245 2.17969 69.5C2.17969 106.755 32.3808 136.956 69.6358 136.956Z" fill="#FEE565"/>
<path d="M23.1389 69.5C23.1389 35.8098 47.8452 7.88895 80.123 2.854C76.7076 2.32124 73.2009 2.04382 69.6358 2.04382C32.3809 2.04382 2.17969 32.245 2.17969 69.5C2.17969 106.755 32.3809 136.956 69.6358 136.956C73.2006 136.956 76.7076 136.678 80.123 136.146C47.8452 131.111 23.1389 103.19 23.1389 69.5Z" fill="#FDD62F"/>
<path d="M80.3158 118.298C74.3423 118.298 69.5 113.456 69.5 107.482V93.7618H91.1315V107.482C91.1315 113.456 86.2892 118.298 80.3158 118.298Z" fill="#F37E7F"/>
<path d="M128.095 103C127.133 102.409 125.874 102.71 125.284 103.672C119.534 113.037 111.457 120.869 101.925 126.321C92.1 131.942 80.8872 134.912 69.4992 134.912C45.351 134.912 23.2502 121.679 11.8218 100.377C11.2883 99.3823 10.0492 99.009 9.05448 99.542C8.05981 100.076 7.68619 101.315 8.21977 102.309C20.3616 124.941 43.8424 139 69.4992 139C81.5979 139 93.5127 135.843 103.955 129.87C114.08 124.078 122.661 115.758 128.767 105.811C129.357 104.849 129.057 103.59 128.095 103Z" fill="black"/>
<path d="M8.32036 92.6853C5.51184 85.2785 4.08769 77.4778 4.08769 69.5C4.08769 54.5445 9.26843 39.9217 18.6758 28.3247C19.3868 27.448 19.2528 26.1612 18.3761 25.4499C17.4994 24.7384 16.2126 24.8727 15.5013 25.7497C5.50503 38.0724 0 53.61 0 69.5C0 77.9748 1.51354 86.263 4.49837 94.1346C4.80821 94.9516 5.58515 95.4543 6.40977 95.4543C6.65067 95.4543 6.89539 95.4116 7.13411 95.3211C8.18955 94.9208 8.72068 93.7408 8.32036 92.6853Z" fill="black"/>
<path d="M118.644 20.3562C105.517 7.22922 88.0641 0 69.5 0C51.5809 0 34.5668 6.80137 21.5917 19.1514C20.7742 19.9294 20.7423 21.2236 21.5203 22.0411C22.2986 22.8589 23.5925 22.8908 24.41 22.1125C36.6219 10.489 52.635 4.08769 69.5 4.08769C86.9721 4.08769 103.399 10.8918 115.753 23.2467C128.108 35.6013 134.912 52.0279 134.912 69.5C134.912 78.7954 133.001 87.778 129.231 96.1989C128.77 97.229 129.231 98.4384 130.261 98.8995C130.532 99.0208 130.816 99.0783 131.095 99.0783C131.876 99.0783 132.622 98.6281 132.962 97.8689C136.969 88.9193 139 79.3748 139 69.4997C139 50.9359 131.771 33.4828 118.644 20.3562Z" fill="black"/>
<path d="M35.9362 62.8766C36.337 63.2901 36.8698 63.4974 37.4034 63.4974C37.916 63.4974 38.4294 63.3059 38.8264 62.9208L45.9744 55.9867L53.1224 62.9208C53.5195 63.3059 54.0326 63.4974 54.5455 63.4974C55.0791 63.4974 55.6118 63.2898 56.0127 62.8766C56.7986 62.0665 56.779 60.7726 55.9688 59.9866L48.9099 53.1395L55.9688 46.2923C56.779 45.5061 56.7986 44.2123 56.0127 43.4023C55.2268 42.5919 53.9329 42.5725 53.1227 43.3582L45.9747 50.2923L38.8267 43.3582C38.0165 42.5725 36.7226 42.5919 35.9367 43.4023C35.1508 44.2125 35.1704 45.5064 35.9806 46.2923L43.0395 53.1395L35.9806 59.9866C35.1698 60.7726 35.1502 62.0665 35.9362 62.8766Z" fill="black"/>
<path d="M82.9869 62.8765C83.388 63.2899 83.9208 63.4973 84.4544 63.4973C84.967 63.4973 85.4804 63.3057 85.8772 62.9207L93.0255 55.9866L100.174 62.9207C100.571 63.3057 101.084 63.4973 101.597 63.4973C102.13 63.4973 102.663 63.2896 103.064 62.8765C103.85 62.0663 103.83 60.7724 103.02 59.9865L95.961 53.1394L103.02 46.2922C103.83 45.506 103.85 44.2121 103.064 43.4022C102.278 42.5918 100.984 42.5721 100.174 43.3581L93.0257 50.2921L85.8774 43.3581C85.067 42.5721 83.7731 42.5918 82.9874 43.4022C82.2015 44.2124 82.2211 45.5063 83.0316 46.2922L90.0905 53.1394L83.0316 59.9865C82.2206 60.7724 82.201 62.0663 82.9869 62.8765Z" fill="black"/>
<path d="M43.2509 91.718C42.1221 91.718 41.207 92.6328 41.207 93.7619C41.207 94.8909 42.1221 95.8057 43.2509 95.8057H67.4563V107.482C67.4563 114.573 73.2251 120.342 80.3159 120.342C87.4066 120.342 93.1752 114.573 93.1752 107.482V95.8057H95.122C96.251 95.8057 97.1659 94.8909 97.1659 93.7619C97.1659 92.6328 96.251 91.718 95.122 91.718H43.2509ZM89.0878 107.482C89.0878 112.319 85.153 116.254 80.3161 116.254C75.4793 116.254 71.5442 112.319 71.5442 107.482V95.8057H78.2723V106.03C78.2723 107.159 79.1871 108.074 80.3161 108.074C81.4452 108.074 82.36 107.159 82.36 106.03V95.8057H89.0878V107.482Z" fill="black"/>
</g>
<defs>
<clipPath id="clip0_83_543">
<rect width="139" height="139" fill="white"/>
</clipPath>
</defs>
</svg>
