<svg width="95" height="86" viewBox="0 0 95 86" fill="none" xmlns="http://www.w3.org/2000/svg">
<path d="M84.9413 18.0405V9.72079H76.6212V1.40088H68.3015H59.9814V9.72079H51.6617V18.0405H43.3418V9.72079H35.0218V1.40088H26.7019H18.382V9.72079H10.0621V18.0405H1.74219V26.3606V34.6803V43.0004H10.0621V51.3202H18.382V59.6401H26.7019V67.96H35.0218V76.2799H43.3418V84.5998H51.6617V76.2799H59.9814V67.96H68.3015V59.6401H76.6212V51.3202H84.9413V43.0004H93.261V34.6803V26.3606V18.0405H84.9413Z" fill="#DB65E6"/>
<path d="M84.9414 18.0405V26.3606V34.6803V43.0004H93.2611V34.6803V26.3606V18.0405H84.9414Z" fill="#B829C6"/>
<path d="M84.9408 43.0004H76.6211V51.3201H84.9408V43.0004Z" fill="#B829C6"/>
<path d="M84.9408 9.72119H76.6211V18.0409H84.9408V9.72119Z" fill="#B829C6"/>
<path d="M76.6205 51.321H68.3008V59.6408H76.6205V51.321Z" fill="#B829C6"/>
<path d="M76.6203 9.72079V1.40088H68.3006H59.9805V9.72079H68.3006H76.6203Z" fill="#B829C6"/>
<path d="M68.3002 59.6398H59.9805V67.9595H68.3002V59.6398Z" fill="#B829C6"/>
<path d="M59.9799 67.9607H51.6602V76.2804H59.9799V67.9607Z" fill="#B829C6"/>
<path d="M59.9799 9.72119H51.6602V18.0409H59.9799V9.72119Z" fill="#B829C6"/>
<path d="M51.6635 76.2795H43.3438V84.5993H51.6635V76.2795Z" fill="#B829C6"/>
<path d="M51.6635 18.0399H43.3438V26.3596H51.6635V18.0399Z" fill="#B829C6"/>
<path d="M43.3432 67.9607H35.0234V76.2804H43.3432V67.9607Z" fill="#B829C6"/>
<path d="M43.3432 9.72119H35.0234V18.0409H43.3432V9.72119Z" fill="#B829C6"/>
<path d="M35.0229 59.6398H26.7031V67.9595H35.0229V59.6398Z" fill="#B829C6"/>
<path d="M35.0226 9.72079V1.40088H26.7027H18.3828V9.72079H26.7027H35.0226Z" fill="#B829C6"/>
<path d="M26.7025 51.321H18.3828V59.6408H26.7025V51.321Z" fill="#B829C6"/>
<path d="M18.3822 43.0004H10.0625V51.3201H18.3822V43.0004Z" fill="#B829C6"/>
<path d="M18.3822 9.72119H10.0625V18.0409H18.3822V9.72119Z" fill="#B829C6"/>
<path d="M10.0621 26.3606V18.0405H1.74219V26.3606V34.6803V43.0004H10.0621V34.6803V26.3606Z" fill="#B829C6"/>
<path d="M93.2595 16.6398H86.3406V9.72053C86.3406 8.947 85.7133 8.31973 84.9398 8.31973H78.0209V1.40081C78.0209 0.627268 77.3936 0 76.62 0H59.9802C59.2067 0 58.5794 0.627268 58.5794 1.40081V8.31991H51.6603C50.8868 8.31991 50.2595 8.94718 50.2595 9.72072V16.6396H44.7412V9.72072C44.7412 8.94718 44.1139 8.31991 43.3404 8.31991H36.4215V1.40081C36.4215 0.627268 35.7942 0 35.0207 0H28.1017C27.3282 0 26.7009 0.627268 26.7009 1.40081C26.7009 2.17434 27.3282 2.80161 28.1017 2.80161H33.62V8.31991H19.7818V2.80161H21.5643C22.3379 2.80161 22.9652 2.17434 22.9652 1.40081C22.9652 0.627268 22.3379 0 21.5643 0H18.3805C17.6069 0 16.9797 0.627268 16.9797 1.40081V8.31973H10.0606C9.28702 8.31973 8.65976 8.947 8.65976 9.72053V16.6395H1.74065C0.967112 16.6395 0.339844 17.2667 0.339844 18.0403V43C0.339844 43.7735 0.967112 44.4008 1.74065 44.4008H8.65994V51.3199C8.65994 52.0934 9.28721 52.7207 10.0607 52.7207H16.9797V59.6396C16.9797 60.4132 17.6069 61.0405 18.3805 61.0405H25.2994V67.9594C25.2994 68.7329 25.9267 69.3602 26.7002 69.3602H33.6193V76.2793C33.6193 77.0528 34.2466 77.6801 35.0201 77.6801H41.939V84.5992C41.939 85.3727 42.5663 86 43.3398 86H51.6596C52.4331 86 53.0604 85.3727 53.0604 84.5992V77.6803H59.9793C60.7528 77.6803 61.3801 77.053 61.3801 76.2795V69.3604H68.2992C69.0728 69.3604 69.7 68.7331 69.7 67.9596V61.0405H76.6189C77.3925 61.0405 78.0198 60.4132 78.0198 59.6396V52.7207H84.9387C85.7122 52.7207 86.3395 52.0934 86.3395 51.3199V44.4008H93.2593C94.0329 44.4008 94.6601 43.7735 94.6601 43V18.0406C94.6603 17.2669 94.033 16.6398 93.2595 16.6398ZM83.539 16.6398H78.0207V11.1215H83.539V16.6398ZM61.3807 2.80161H75.2189V8.31991H61.3807V2.80161ZM53.0609 11.1215H58.5792V16.6398H53.0609V11.1215ZM44.741 19.4414H50.2593V24.9597H44.741V19.4414ZM41.9394 16.6398H36.4211V11.1215H41.9394V16.6398ZM11.4614 11.1215H16.9797V16.6398H11.4614V11.1215ZM3.14146 19.4414H8.65994V41.5994H3.14146V19.4414ZM11.4614 44.401H16.9797V49.9193H11.4614V44.401ZM19.7813 52.7209H25.2996V58.2392H19.7813V52.7209ZM28.1012 61.0408H33.6195V66.5591H28.1012V61.0408ZM36.4211 69.3607H41.9394V74.8792H36.4211V69.3607ZM50.2593 83.1989H44.741V77.6806H50.2593V83.1989ZM58.579 74.879H53.0607V69.3605H58.579V74.879ZM66.8991 66.5591H61.3808V61.0408H66.8991V66.5591ZM75.2189 58.2394H69.7006V52.7211H75.2189V58.2394ZM83.539 49.9193H78.0207V44.401H83.539V49.9193ZM91.8587 41.5996H86.3404V31.497C86.3404 30.7234 85.7131 30.0961 84.9396 30.0961C84.1661 30.0961 83.5388 30.7234 83.5388 31.497V41.5996H76.6197C75.8461 41.5996 75.2189 42.2268 75.2189 43.0004V49.9193H68.2998C67.5262 49.9193 66.899 50.5466 66.899 51.3201V58.239H59.98C59.2065 58.239 58.5792 58.8663 58.5792 59.6398V66.5589H51.6603C50.8868 66.5589 50.2595 67.1862 50.2595 67.9597V74.879H44.7412V67.9597C44.7412 67.1862 44.1139 66.5589 43.3404 66.5589H36.4215V59.6398C36.4215 58.8663 35.7942 58.239 35.0207 58.239H28.1017V51.3201C28.1017 50.5466 27.4745 49.9193 26.7009 49.9193H19.7818V43.0004C19.7818 42.2268 19.1546 41.5996 18.381 41.5996H11.4614V19.4416H18.3805C19.154 19.4416 19.7813 18.8144 19.7813 18.0408V11.1215H33.6195V18.0404C33.6195 18.814 34.2468 19.4413 35.0203 19.4413H41.9392V26.3602C41.9392 27.1337 42.5665 27.761 43.34 27.761H51.6598C52.4333 27.761 53.0606 27.1337 53.0606 26.3602V19.4413H59.9797C60.7532 19.4413 61.3805 18.814 61.3805 18.0404V11.1215H75.2187V18.0404C75.2187 18.814 75.846 19.4413 76.6195 19.4413H83.5386V24.9596C83.5386 25.7331 84.1659 26.3604 84.9394 26.3604C85.7129 26.3604 86.3402 25.7331 86.3402 24.9596V19.4413H91.8589V41.5996H91.8587Z" fill="black"/>
</svg>
