<svg width="150" height="149" viewBox="0 0 150 149" fill="none" xmlns="http://www.w3.org/2000/svg">
<g clip-path="url(#clip0_83_417)">
<path d="M75.0389 105.244L74.4556 111.961C74.265 114.154 76.8573 115.448 78.4955 113.978L83.5927 109.403L75.0389 105.244Z" fill="#EBAF4B"/>
<path d="M106.875 108.615L110.498 113C111.9 114.697 114.656 113.802 114.792 111.605L115.157 105.763L106.875 108.615Z" fill="#EBAF4B"/>
<path d="M133.856 84.6008L128.024 90.8532L133.468 92.6436C135.559 93.3315 137.412 91.1045 136.356 89.1731L133.856 84.6008Z" fill="#EBAF4B"/>
<path d="M62.1242 78.3563L58.1168 83.1652C56.7076 84.8561 58.0958 87.3993 60.2804 87.1284L66.5848 86.3467L62.1242 78.3563Z" fill="#EBAF4B"/>
<path d="M126.078 65.1207C114.588 62.7045 107.109 70.675 107.291 79.1133C107.31 80.0114 106.656 80.7727 105.764 80.8758C104.352 81.0388 102.943 81.4177 101.581 82.0402C99.7703 82.8674 98.2275 84.0359 96.982 85.4309C96.3007 86.1941 95.1538 86.2531 94.4215 85.5386C93.19 84.3373 91.7577 83.3859 90.2062 82.7139C89.3966 82.3633 88.9936 81.4587 89.2581 80.617C90.2602 77.4298 90.14 73.8793 88.642 70.6012C86.9904 66.9869 83.9942 64.4194 80.5177 63.2042C79.5422 62.8632 79.0607 61.8141 79.4416 60.8536C81.8898 54.6785 79.9896 46.8041 71.7741 42.2394C71.6011 42.1433 71.4033 42.069 71.2099 42.0277C65.4148 40.7897 60.6465 42.2002 57.355 44.9787C56.6323 45.5887 55.5719 45.5093 54.9421 44.8037C48.9313 38.0704 37.058 37.9193 31.0236 48.7871C30.9277 48.9599 30.8538 49.1572 30.8128 49.3505C27.8346 63.365 40.355 71.4591 50.3222 66.9045C51.5052 66.3639 52.5767 65.6793 53.526 64.8809C54.2562 64.2668 55.323 64.3281 55.9585 65.0399C57.5608 66.8343 59.5788 68.1587 61.7938 68.9313C62.7626 69.2693 63.2294 70.3192 62.8509 71.273C61.4923 74.6979 61.4714 78.6458 63.1238 82.2619C64.6216 85.5398 67.2269 87.9543 70.292 89.2829C71.1078 89.6365 71.5183 90.5408 71.2522 91.389C69.3731 97.3731 71.4484 104.636 79.1729 108.975C79.3435 109.071 79.5386 109.145 79.7298 109.187C86.525 110.685 91.816 108.58 95.0704 104.925C95.7493 104.162 96.8942 104.125 97.6248 104.838C101.651 108.764 107.82 110.036 113.242 107.558C118.494 105.158 121.548 99.9243 121.432 94.496C121.412 93.5971 122.066 92.8347 122.959 92.7315C124.37 92.5684 125.78 92.1895 127.142 91.567C137.107 87.0134 139.184 72.2551 126.648 65.332C126.473 65.2358 126.273 65.1616 126.078 65.1207Z" fill="#D4F582"/>
<path d="M127.414 83.7301C126.911 83.9598 126.402 84.1558 125.888 84.3197C123.992 84.9249 122.588 86.4312 122.05 88.3469C121.619 89.8832 120.925 91.3421 120.007 92.6603C118.631 94.6503 116.742 96.3181 114.38 97.3976C108.434 100.114 101.556 98.3506 97.6498 93.475C96.5446 92.0959 92.7773 91.9333 93.4378 96.2203C93.6948 97.8891 92.6072 99.6649 90.9545 100.011C85.9711 101.055 80.801 99.2881 77.493 95.473C76.1434 93.9165 76.6763 91.4916 78.5499 90.6354L81.7106 89.1911C86.0359 87.2147 88.8551 83.3136 89.6544 78.9679L89.6541 78.9678C87.7762 80.7252 85.3845 82.037 82.4821 82.5498C77.4812 83.4333 72.2726 81.4497 69.1093 77.4768C67.796 75.8275 66.9514 74.0412 66.4905 72.2185C66.1748 70.9696 66.9973 69.7606 68.2746 69.5932C69.6117 69.4181 70.9449 69.0472 72.2359 68.4572C75.7729 66.841 78.3005 63.9365 79.5421 60.5552C79.5619 60.5022 79.5786 60.4481 79.5978 60.3949C79.9891 59.2882 80.2488 58.1342 80.3554 56.9565C78.9812 58.856 77.1195 60.442 74.8344 61.4861C69.0681 64.1211 62.4563 62.5143 58.4784 57.9832C57.691 57.0863 56.4046 56.9235 55.4208 57.5989C53.7931 58.7164 52.3596 59.7669 49.372 60.3488C43.8006 61.434 38.3684 57.7437 38.3684 57.7437L30.99 57.8507C33.3949 66.3583 42.6056 70.4296 50.3192 66.9048C51.5042 66.3633 52.5772 65.6772 53.5275 64.8774C54.2477 64.2713 55.325 64.3331 55.9517 65.0357C57.5546 66.8324 59.574 68.1583 61.791 68.9315C62.7603 69.2695 63.2269 70.3197 62.8483 71.2738C61.4894 74.6984 61.4684 78.6463 63.1208 82.2624C64.6188 85.5405 67.2243 87.9551 70.2895 89.2832C71.1049 89.6367 71.5157 90.5409 71.2494 91.3886C69.3716 97.3668 71.4412 104.622 79.1472 108.962C79.3461 109.038 79.5537 109.117 79.7524 109.193C86.5355 110.68 91.817 108.575 95.0672 104.925C95.746 104.163 96.8909 104.126 97.6216 104.838C97.6284 104.845 97.6334 104.847 97.64 104.854C101.668 108.764 107.825 110.033 113.239 107.559C118.476 105.166 121.512 99.9563 121.41 94.5457C121.392 93.6086 122.072 92.8182 123.003 92.7118C124.399 92.5524 125.791 92.1835 127.139 91.5677C133.407 88.7033 136.542 81.8019 134.894 75.3519C133.714 78.9343 131.115 82.0386 127.414 83.7301Z" fill="#BEE86E"/>
<path d="M31.3137 77.5179C38.0298 74.4489 40.8638 66.2485 37.6437 59.2017C34.4237 52.1548 26.3688 48.9301 19.6527 51.9991C12.9366 55.068 10.1026 63.2685 13.3227 70.3153C16.5428 77.3621 24.5976 80.5868 31.3137 77.5179Z" fill="#FFDC64"/>
<path d="M34.0828 69.5047C27.3665 72.5738 19.3113 69.3492 16.0913 62.3026C15.1392 60.219 14.7289 58.0359 14.7792 55.9133C11.7996 59.8249 11.0537 65.3527 13.3216 70.3158C16.5416 77.3625 24.5968 80.587 31.3131 77.518C36.0436 75.3563 38.8358 70.6477 38.956 65.591C37.705 67.2333 36.0688 68.5972 34.0828 69.5047Z" fill="#FFC850"/>
<path d="M24.487 65.214C26.2484 64.4091 27.0238 62.3287 26.2189 60.5673C25.414 58.8059 23.3336 58.0304 21.5722 58.8353C19.8107 59.6402 19.0353 61.7206 19.8402 63.4821C20.6451 65.2435 22.7255 66.0189 24.487 65.214Z" fill="#4B3F4E"/>
<path d="M20.889 57.3425C18.3073 58.5222 17.1668 61.5824 18.3465 64.1639C19.5262 66.7456 22.5865 67.8863 25.168 66.7066C27.7497 65.5269 28.8901 62.4667 27.7104 59.885C26.5307 57.3033 23.4707 56.1627 20.889 57.3425ZM23.8042 63.7222C22.8681 64.15 21.7587 63.7363 21.3309 62.8001C20.9031 61.864 21.3168 60.7546 22.2527 60.3269C23.1889 59.8991 24.2983 60.3128 24.726 61.2487C25.1537 62.1849 24.7404 63.2944 23.8042 63.7222Z" fill="black"/>
<path d="M135.825 84.6751C137.381 80.8221 137.42 76.3644 135.56 72.2956C131.969 64.4374 122.655 60.9656 114.797 64.5565C109.007 67.202 105.435 73.123 105.661 79.3785C103.872 79.5267 102.142 79.9791 100.498 80.7302C98.7439 81.5318 97.1482 82.6568 95.8048 84.0305C94.3471 82.6395 92.6484 81.5526 90.7796 80.8151C92.003 77.0876 91.7936 73.0278 90.1494 69.4296C88.4504 65.7114 85.414 62.8535 81.6595 61.3747C83.1968 57.4408 83.09 53.1018 81.3109 49.2085C77.7201 41.3503 68.4054 37.8785 60.5472 41.4694C59.2034 42.0834 57.9713 42.8696 56.866 43.8167C52.3506 38.7269 44.9872 37.0925 38.6608 39.9834C34.6635 41.81 31.6296 45.2566 30.2814 49.4069C27.7973 48.7156 25.1799 48.6492 22.6804 49.1983C21.6449 47.605 19.3237 44.6069 15.6782 42.9823C14.8508 42.6137 13.8808 42.9857 13.5119 43.8133C13.1431 44.6408 13.5151 45.6108 14.3427 45.9797C16.7541 47.0541 18.4724 48.9667 19.4461 50.2938C18.8581 50.5685 18.2967 50.8767 17.7598 51.213C13.7945 48.8644 10.1225 49.0361 9.96108 49.0449C9.0563 49.0954 8.36374 49.8693 8.41406 50.7742C8.46449 51.6788 9.2387 52.3715 10.1433 52.321C10.1689 52.3197 12.3587 52.2433 14.9639 53.4456C10.5069 57.9427 9.04458 64.9069 11.828 70.9981C15.4188 78.8563 24.7335 82.3281 32.5917 78.7372C36.5886 76.9108 39.6226 73.464 40.9713 69.3137C44.5142 70.2999 48.3292 70.0196 51.6853 68.4861C53.0295 67.8718 54.2621 67.0851 55.3677 66.1376C56.9925 67.9638 59.0246 69.3852 61.2985 70.286C60.3541 72.702 60.0326 75.271 60.3352 77.7959L56.5408 82.3492C55.4648 83.6404 55.29 85.4278 56.0953 86.9028C56.9005 88.3781 58.4986 89.1975 60.1666 88.9908L66.1899 88.244C67.3806 89.1829 68.7094 89.9509 70.1436 90.5157C68.9204 94.2426 69.1296 98.3022 70.7739 101.9C71.445 103.369 72.3163 104.684 73.3405 105.829L72.8202 111.82C72.6748 113.494 73.5523 115.061 75.0561 115.812C76.1803 116.373 77.4584 116.38 78.5548 115.879C78.9251 115.71 79.2747 115.483 79.5906 115.2L84.2348 111.031C86.6705 111.158 89.1698 110.722 91.5377 109.64C93.2927 108.838 94.8888 107.712 96.2326 106.338C98.9356 108.907 102.428 110.383 106.039 110.613L109.407 114.689C110.477 115.985 112.202 116.486 113.8 115.967C113.952 115.918 114.1 115.86 114.243 115.795C115.599 115.175 116.509 113.869 116.603 112.351L116.931 107.103C120.671 104.027 122.836 99.3226 122.659 94.411C124.448 94.2627 126.178 93.8103 127.822 93.0592C127.976 92.9887 128.126 92.9121 128.277 92.8371L133.143 94.4377C134.142 94.7664 135.191 94.6953 136.1 94.2798C136.644 94.0313 137.138 93.6593 137.541 93.1757C138.616 91.8841 138.79 90.0966 137.983 88.6219L135.825 84.6751ZM59.7625 85.7343C59.2832 85.7939 59.0521 85.4719 58.975 85.3304C58.898 85.1892 58.7519 84.8207 59.0612 84.4496L61.3338 81.7223C61.4315 81.9677 61.5355 82.2117 61.6462 82.4538C62.1097 83.4681 62.6761 84.4162 63.3266 85.2923L59.7625 85.7343ZM77.3982 112.758C77.0386 113.079 76.6651 112.948 76.521 112.876C76.3771 112.804 76.0469 112.585 76.0886 112.104L76.4046 108.464C77.5747 109.232 78.8396 109.841 80.1645 110.274L77.3982 112.758ZM112.786 112.846C112.633 112.896 112.244 112.972 111.936 112.599L110.075 110.346C111.24 110.114 112.393 109.747 113.509 109.238L113.328 112.147C113.298 112.629 112.938 112.798 112.786 112.846ZM112.159 106.249C107.38 108.432 101.767 107.337 98.1495 103.62C98.8227 102.105 99.856 99.1369 99.7876 95.2977C99.7715 94.3918 99.024 93.6704 98.118 93.6866C97.2124 93.7026 96.4907 94.4501 96.5069 95.3562C96.5808 99.5106 95.0989 102.452 94.8214 102.965C93.6007 104.546 91.9966 105.822 90.1731 106.655C83.9605 109.494 76.5966 106.749 73.7576 100.537C72.3968 97.5586 72.2852 94.1798 73.4115 91.1196C74.9876 91.0245 77.9591 90.62 81.4205 89.0383C81.7597 88.8833 82.1042 88.7167 82.4522 88.5382C83.2584 88.1246 83.5766 87.1357 83.1628 86.3296C82.7491 85.5232 81.7615 85.2087 80.9542 85.619C76.8284 87.7371 73.3375 87.8652 72.5532 87.865C69.0328 86.8759 66.1508 84.4174 64.6305 81.0904C63.1364 77.8206 63.1401 74.1519 64.6067 70.8898C66.107 70.7704 69.0404 70.3711 72.3376 69.0356C72.3604 69.0264 72.3826 69.0168 72.4047 69.0067C73.1988 68.6438 73.5733 67.716 73.2423 66.899C72.9021 66.0593 71.9454 65.6542 71.1057 65.9944C67.6188 67.4066 64.563 67.6214 63.7628 67.6539C61.2573 66.9599 59.0404 65.4974 57.4207 63.4818C58.5498 60.8381 59.2566 58.1589 59.5163 55.5031C59.6045 54.6013 58.9451 53.7987 58.0433 53.7105C57.1416 53.6225 56.339 54.282 56.2507 55.1836C56.0049 57.6957 55.2952 60.2463 54.1487 62.7696C53.0584 63.9177 51.7735 64.8381 50.3211 65.5018C47.4101 66.832 44.1909 66.9803 41.1755 65.9425C40.4264 63.4216 39.585 61.1103 38.6687 59.0662C38.2981 58.2393 37.3273 57.8696 36.5004 58.2402C35.6804 58.6166 35.3038 59.5816 35.6746 60.4083C36.5756 62.4178 37.4025 64.717 38.1372 67.2421C37.2757 70.9928 34.7191 74.1575 31.2277 75.7529C25.0154 78.5917 17.6513 75.8469 14.8124 69.6343C11.9735 63.4215 14.7183 56.0577 20.9309 53.2188C24.0307 51.8023 27.4798 51.726 30.6607 52.9953C30.8578 53.1388 31.3975 53.5687 32.1388 54.4573C32.6232 55.0375 33.4235 55.1988 34.0795 54.899C34.2098 54.8395 34.3343 54.7619 34.4494 54.6655C35.1452 54.0849 35.2383 53.0503 34.6579 52.3547C34.1212 51.7118 33.6487 51.2374 33.264 50.8918C34.2472 47.3996 36.7162 44.4796 40.0244 42.9679C45.4497 40.4888 51.8383 42.2221 55.2716 47.0839C55.3689 47.3112 55.6001 47.8939 55.8221 48.7718C56.0443 49.6503 56.9366 50.1822 57.8149 49.9601C57.9131 49.9351 58.0072 49.902 58.0963 49.8613C58.803 49.5383 59.2004 48.7473 59.0031 47.9673C58.873 47.4524 58.7386 47.0153 58.6167 46.6573C59.5857 45.7537 60.6884 45.0127 61.9105 44.4543C68.123 41.6154 75.4871 44.3602 78.326 50.5727C79.9149 54.05 79.8097 57.9787 78.0519 61.3894C77.6654 61.7852 77.2615 62.1703 76.8422 62.5312C76.1554 63.1224 76.078 64.1583 76.6691 64.8449C77.1566 65.4112 77.9467 65.5634 78.5939 65.2677C78.7314 65.2048 78.8625 65.1218 78.9828 65.0183C79.283 64.7599 79.5774 64.4914 79.8647 64.2165C83.1029 65.3093 85.7347 67.6645 87.1649 70.7941C88.629 73.9982 88.6481 77.6663 87.2338 80.9019C86.9076 81.2397 86.5752 81.5708 86.2393 81.884C85.5764 82.5018 85.5397 83.54 86.1571 84.2028C86.6514 84.7333 87.4145 84.8627 88.0394 84.5772C88.1956 84.5058 88.3433 84.4085 88.4759 84.2849C88.683 84.0919 88.8891 83.8923 89.0935 83.6902C91.1805 84.4163 93.0202 85.6832 94.4649 87.3922C94.7291 87.9166 94.9734 88.448 95.1854 88.9762C95.523 89.8172 96.4782 90.2249 97.3192 89.8875C97.3434 89.8776 97.3673 89.8674 97.3908 89.8567C98.1829 89.4947 98.5581 88.5702 98.2303 87.7537C98.0922 87.4101 97.9438 87.0652 97.7864 86.7218C98.9199 85.4565 100.31 84.4246 101.862 83.7156C103.602 82.9206 105.467 82.5498 107.406 82.6136C107.415 82.614 107.456 82.6146 107.467 82.6146C107.479 82.6144 108.662 82.624 110.306 83.1471C110.711 83.2757 111.128 83.2396 111.485 83.0762C111.892 82.8905 112.221 82.5405 112.368 82.0812C112.642 81.2178 112.165 80.2949 111.302 80.0203C110.393 79.731 109.589 79.5639 108.952 79.4669C108.685 74.4453 111.52 69.6621 116.16 67.5418C122.373 64.7029 129.737 67.4475 132.576 73.6603C135.415 79.873 132.67 87.2369 126.458 90.0758C125.064 90.7127 123.588 91.0725 122.06 91.1594C121.196 88.6234 119.966 86.4378 118.391 84.6509C117.791 83.9709 116.754 83.906 116.075 84.5048C115.395 85.1039 115.33 86.1407 115.929 86.8205C117.403 88.4927 118.52 90.6268 119.251 93.1631C120.061 98.5937 117.156 103.965 112.159 106.249ZM135.018 91.0766C134.915 91.2002 134.626 91.4717 134.167 91.3208L131.722 90.5163C132.554 89.7753 133.294 88.9526 133.94 88.0682L135.103 90.1958C135.335 90.6196 135.121 90.9529 135.018 91.0766Z" fill="black"/>
</g>
<defs>
<clipPath id="clip0_83_417">
<rect width="112" height="112" fill="white" transform="translate(0.789062 46.8379) rotate(-24.5583)"/>
</clipPath>
</defs>
</svg>
