<svg width="104" height="104" viewBox="0 0 104 104" fill="none" xmlns="http://www.w3.org/2000/svg">
<rect x="1" y="1" width="102" height="102" fill="white" stroke="black" stroke-width="2"/>
<mask id="mask0_115_6" style="mask-type:alpha" maskUnits="userSpaceOnUse" x="32" y="31" width="41" height="41">
<rect width="41" height="41" transform="matrix(-1 0 0 1 73 31)" fill="#D9D9D9"/>
</mask>
<g mask="url(#mask0_115_6)">
<path d="M60.7852 67.046C61.2122 66.6189 61.4258 66.1132 61.4258 65.529C61.4258 64.9459 61.2122 64.4408 60.7852 64.0137L48.2716 51.5002L60.8279 38.9439C61.2265 38.5453 61.4258 38.047 61.4258 37.4491C61.4258 36.8512 61.2122 36.3387 60.7852 35.9116C60.3581 35.4845 59.8524 35.271 59.2682 35.271C58.685 35.271 58.1799 35.4845 57.7529 35.9116L43.4029 50.3043C43.232 50.4752 43.1107 50.6602 43.039 50.8595C42.9684 51.0588 42.9331 51.2724 42.9331 51.5002C42.9331 51.7279 42.9684 51.9415 43.039 52.1408C43.1107 52.3401 43.232 52.5252 43.4029 52.696L57.7956 67.0887C58.1942 67.4873 58.685 67.6866 59.2682 67.6866C59.8524 67.6866 60.3581 67.4731 60.7852 67.046Z" fill="black"/>
</g>
</svg>
