<svg width="231" height="202" viewBox="0 0 231 202" fill="none" xmlns="http://www.w3.org/2000/svg">
<path fill-rule="evenodd" clip-rule="evenodd" d="M149.388 148.692C129.384 162.192 100.025 154.296 83.6032 130.904C76.7668 121.166 73.1999 110.276 72.8861 99.8695C72.65 92.1093 75.9716 90.3066 80.3437 87.284L97.8033 75.2136L115.263 63.1432C119.635 60.1208 122.49 57.6535 129.744 60.5618C139.479 64.4545 148.531 71.5532 155.367 81.291C171.789 104.683 169.081 134.748 149.388 148.692Z" fill="#FC636E"/>
<path fill-rule="evenodd" clip-rule="evenodd" d="M149.625 148.126C148.594 148.817 147.535 149.452 146.464 150.041C163.351 135.377 164.963 107.354 149.499 85.3092C142.708 75.6273 133.709 68.5746 124.045 64.6991C118.013 62.2821 115.047 63.6038 111.693 65.8586L115.724 63.0692C120.067 60.0641 122.904 57.6109 130.11 60.5026C139.781 64.3729 148.773 71.4308 155.564 81.1126C171.878 104.37 169.188 134.263 149.625 148.126Z" fill="#DA4A54"/>
<path fill-rule="evenodd" clip-rule="evenodd" d="M98.7124 50.2257C108.504 48.5951 118.102 51.799 123.932 60.1091L74.8401 94.072C69.0098 85.7616 69.3018 75.7157 74.2348 67.1598C73.1676 63.1752 76.5255 57.3017 82.5659 53.1228C88.6062 48.944 95.3254 47.8459 98.7124 50.2257Z" fill="#463D43"/>
<path fill-rule="evenodd" clip-rule="evenodd" d="M116.072 101.089C120.451 98.0619 121.424 91.8907 118.24 87.3545C115.055 82.8183 108.884 81.587 104.506 84.6138C100.127 87.6407 99.1533 93.8119 102.338 98.3479C105.523 102.884 111.694 104.116 116.072 101.089Z" fill="#463D43"/>
<path fill-rule="evenodd" clip-rule="evenodd" d="M146.83 101.206C151.208 98.1788 152.182 92.0077 148.998 87.4715C145.813 82.9353 139.642 81.704 135.263 84.731C130.885 87.7579 129.911 93.9291 133.096 98.465C136.281 103.001 142.451 104.233 146.83 101.206Z" fill="#463D43"/>
<path fill-rule="evenodd" clip-rule="evenodd" d="M105.517 129.969C109.896 126.942 110.863 120.776 107.678 116.239C104.493 111.703 98.3294 110.467 93.9509 113.494C89.5724 116.521 88.5986 122.692 91.7831 127.228C94.9675 131.764 101.139 132.996 105.517 129.969Z" fill="#463D43"/>
<path fill-rule="evenodd" clip-rule="evenodd" d="M150.744 111.421C147.431 110.76 144.162 113.919 143.443 118.477C142.724 123.034 144.821 127.259 148.134 127.92C151.447 128.581 154.709 125.427 155.428 120.869C156.147 116.311 154.046 112.08 150.744 111.421Z" fill="#463D43"/>
<path fill-rule="evenodd" clip-rule="evenodd" d="M113.615 137.225C114.138 133.912 118.25 131.969 122.807 132.879C127.365 133.788 130.631 137.203 130.108 140.517C129.592 143.825 125.473 145.773 120.916 144.863C116.358 143.954 113.087 140.532 113.615 137.225Z" fill="#463D43"/>
<path fill-rule="evenodd" clip-rule="evenodd" d="M92.7377 54.3685C102.085 52.8094 111.26 55.6896 117.108 63.2336C117.351 63.5495 117.587 63.8702 117.816 64.1958L123.939 59.9629C118.14 51.7031 108.593 48.5193 98.8535 50.1405C97.7194 49.3414 96.1977 48.9422 94.4584 48.9134C93.0746 48.8919 91.5507 49.1097 89.9578 49.5621C87.6269 50.2172 85.1575 51.3856 82.7926 53.0206C81.7424 53.7467 80.7656 54.5321 79.8802 55.3416C84.9312 52.8176 89.9585 52.4202 92.7377 54.3685Z" fill="#40363D"/>
<path d="M114.756 156.167C108.868 154.573 103.093 151.912 97.7293 148.265L96.2673 151.055L110.955 166.932C111.411 167.429 111.644 168.08 111.604 168.734L110.464 186.741C110.38 188.029 109.268 188.973 107.985 188.839C106.695 188.711 105.714 187.555 105.798 186.267L106.883 169.287L91.7445 152.92C91.0645 152.193 90.882 151.101 91.3561 150.202L93.8878 145.409C89.4248 141.819 85.3272 137.494 81.8151 132.489C79.0864 128.6 76.8593 124.518 75.1287 120.356L71.745 121.664L72.6834 139.485C72.7183 140.186 72.446 140.857 71.9225 141.307L59.2611 152.447C58.3071 153.282 56.8329 153.149 55.9662 152.156C55.0995 151.164 55.1688 149.688 56.1227 148.853L67.9699 138.43L67.0093 120.229C66.891 119.213 67.4371 118.22 68.4192 117.849L73.4769 115.899C72.2692 112.21 71.4513 108.471 71.0167 104.764L59.5785 99.4979C58.6463 99.0778 58.099 98.1163 58.1496 97.1589L58.1335 92.1411L44.5357 89.2472C43.2686 88.9703 42.4166 87.7257 42.6366 86.4649C42.858 85.1914 44.0629 84.3806 45.3298 84.6572L60.8237 87.9528C61.9497 88.1952 62.7866 89.176 62.793 90.3352L62.7988 95.8986L70.6685 99.515C70.6385 96.9442 70.9543 94.9578 71.5477 93.3508C68.9744 89.2447 67.7169 84.7887 67.6255 80.284C67.5148 75.4192 68.7821 70.5345 71.2348 66.0382C71.0153 64.3782 71.2918 62.562 72.0031 60.7301C70.815 60.1572 68.8368 59.7903 66.6715 61.8809C63.9043 64.5525 61.6945 66.2017 59.3534 66.9973C56.8503 67.8499 54.4158 67.711 51.3206 66.7662C50.0765 66.3859 49.3368 65.0745 49.6676 63.8354C49.9983 62.5964 51.2737 61.9011 52.5178 62.2814C54.649 62.9268 56.2311 63.0625 57.712 62.5543C59.3405 61.999 61.0749 60.6565 63.3823 58.435C67.7081 54.2463 71.8667 55.3892 74.2468 56.7076C75.8338 54.5339 77.9979 52.4111 80.6079 50.606C83.2179 48.8009 85.9738 47.5209 88.5773 46.7964C88.1636 44.1179 88.5245 39.8493 93.9813 37.2723C96.88 35.8935 98.7422 34.7481 99.8383 33.4191C100.824 32.2211 101.252 30.6955 101.373 28.4922C101.445 27.2018 102.544 26.2552 103.829 26.3764C105.115 26.4977 106.104 27.6358 106.033 28.9265C105.846 32.1414 105.134 34.4567 103.461 36.4921C101.898 38.3967 99.5806 39.8782 96.0904 41.5344C93.3718 42.8216 93.0257 44.796 93.1555 46.1007C95.1398 46.0679 96.9519 46.4401 98.4443 47.2197C99.3501 47.0875 100.255 46.9998 101.154 46.9489C102.303 46.8902 103.485 46.8958 104.69 46.963C105.977 47.0399 106.997 48.1461 106.969 49.4387C106.942 50.7316 105.881 51.7179 104.595 51.6409C103.643 51.5859 102.632 51.5822 101.591 51.6434C100.59 51.6993 99.58 51.8044 98.5658 51.9787C97.931 52.088 97.3139 51.9659 96.7649 51.577C95.609 50.7623 93.6971 50.5804 91.4289 50.9963C88.9076 51.4443 86.0771 52.633 83.3525 54.5173C80.6353 56.3966 78.5241 58.6253 77.227 60.8185C76.0718 62.7595 75.5797 64.5711 75.9171 65.9298C76.0951 66.5316 76.0402 67.1951 75.7076 67.7656C73.3919 71.7613 72.1932 76.0929 72.2799 80.3484C72.3426 83.3138 73.0366 86.2706 74.4176 89.0711C76.2143 87.3783 78.0492 86.2847 79.1219 85.5429L114.133 61.3286C115.213 60.5818 116.882 59.2519 119.104 58.1653C118.711 57.7562 118.314 57.3723 117.895 57.0028C116.657 55.9044 115.305 54.9618 113.855 54.1967C112.7 53.5796 112.227 52.1492 112.797 51.0086C113.367 49.8677 114.763 49.451 115.919 50.0684C117.691 51.0055 119.365 52.1648 120.92 53.5489C122.08 54.5808 123.158 55.7239 124.143 56.9755C125.859 56.985 127.846 57.3788 130.272 58.2928L129.575 49.7157L124.327 47.7776C123.264 47.3821 122.588 46.2682 122.753 45.1551L125.006 29.5522C125.191 28.2715 126.375 27.4308 127.647 27.6704C128.922 27.8977 129.803 29.1226 129.618 30.4031L127.641 44.0692L132.384 45.8179C133.306 46.1025 134.017 46.9501 134.099 47.959L135.104 60.4409C138.463 62.1256 141.705 64.1878 144.779 66.5856L148.367 62.556C149.058 61.7702 150.193 61.6005 151.112 62.063L167.969 69.2691L181.923 61.8479C183.043 61.249 184.468 61.6908 185.106 62.8418C185.743 63.9927 185.351 65.4171 184.231 66.0158L169.319 73.947C168.734 74.2636 168.013 74.3118 167.333 74.0243L150.827 66.9703L148.419 69.6681C151.751 72.7219 154.829 76.2154 157.558 80.104C161.07 85.1089 163.745 90.4189 165.59 95.8191L170.989 95.1269C171.995 95.0019 172.971 95.5458 173.443 96.4602L183.648 116.195L200.062 121.073C201.308 121.441 202.06 122.755 201.741 123.996C201.416 125.243 200.145 125.946 198.9 125.578L181.496 120.408C180.864 120.219 180.317 119.773 180.012 119.171L170.1 99.9912L166.95 100.391C168.545 106.645 169.057 112.945 168.516 118.986C167.381 131.597 161.323 143.715 150.968 150.876C140.622 158.032 127.065 159.48 114.756 156.167ZM112.027 137.081C112.409 134.643 114.041 132.745 116.367 131.641C118.466 130.651 121.141 130.316 123.917 130.866C126.694 131.417 129.102 132.76 130.767 134.497C132.61 136.428 133.557 138.837 133.163 141.273C132.782 143.711 131.15 145.608 128.818 146.705C126.724 147.702 124.049 148.037 121.273 147.486C118.496 146.936 116.088 145.593 114.431 143.851C112.58 141.925 111.633 139.516 112.027 137.081ZM118.484 135.898C117.472 136.379 116.776 137.112 116.642 137.996C116.502 138.872 116.922 139.833 117.719 140.666C118.712 141.703 120.218 142.517 122.007 142.872C123.796 143.227 125.461 143.042 126.714 142.45C127.718 141.975 128.409 141.234 128.548 140.357C128.688 139.481 128.268 138.52 127.466 137.68C126.478 136.65 124.972 135.836 123.183 135.481C121.394 135.126 119.729 135.312 118.484 135.898ZM150.702 114.439C149.814 114.263 148.879 114.657 148.082 115.428C147.096 116.384 146.344 117.871 146.059 119.66C145.767 121.454 146.022 123.134 146.653 124.41C147.168 125.448 147.924 126.177 148.8 126.351C149.677 126.525 150.616 126.138 151.42 125.362C152.406 124.406 153.158 122.92 153.443 121.13C153.728 119.341 153.48 117.657 152.844 116.372C152.334 115.342 151.578 114.613 150.702 114.439ZM144.785 111.987C146.635 110.203 148.993 109.34 151.436 109.825C153.867 110.307 155.815 112.023 157.001 114.41C158.065 116.562 158.5 119.27 158.058 122.046C157.623 124.817 156.373 127.198 154.712 128.797C152.868 130.588 150.502 131.456 148.066 130.966C145.636 130.484 143.687 128.768 142.502 126.381C141.43 124.234 141.003 121.521 141.438 118.75C141.879 115.973 143.13 113.593 144.785 111.987ZM95.7652 115.253C94.0846 116.416 93.0545 118.171 92.7519 120.071C92.4498 121.972 92.8701 124.009 94.0893 125.746C95.3086 127.484 97.0928 128.588 98.9928 128.965C100.888 129.335 102.909 128.991 104.589 127.829C106.263 126.671 107.288 124.908 107.595 123.015C107.898 121.115 107.472 119.071 106.253 117.334C105.034 115.596 103.255 114.499 101.355 114.122C99.4546 113.745 97.4386 114.096 95.7652 115.253ZM88.1372 119.156C88.6281 116.072 90.2962 113.227 93.021 111.343C95.7382 109.463 99.0043 108.895 102.089 109.507C105.174 110.119 108.06 111.9 110.036 114.717C112.013 117.534 112.701 120.846 112.21 123.931C111.714 127.008 110.051 129.86 107.334 131.74C104.609 133.624 101.338 134.184 98.2585 133.58C95.1809 132.963 92.2828 131.179 90.3063 128.363C88.33 125.546 87.6484 122.229 88.1372 119.156ZM133.703 83.2064C136.427 81.322 139.693 80.7541 142.771 81.371C145.851 81.9755 148.741 83.7643 150.718 86.581C152.694 89.3977 153.383 92.7097 152.892 95.7945C152.403 98.8669 150.74 101.719 148.016 103.603C145.291 105.488 142.02 106.048 138.941 105.444C135.863 104.827 132.965 103.043 130.988 100.226C129.012 97.4096 128.336 94.0999 128.819 91.0201C129.31 87.9353 130.979 85.0905 133.703 83.2064ZM142.037 85.9854C140.136 85.6087 138.128 85.9548 136.447 87.1171C134.767 88.2793 133.736 90.0351 133.441 91.9303C133.139 93.8305 133.559 95.8675 134.778 97.605C135.998 99.3425 137.782 100.447 139.682 100.824C141.57 101.198 143.591 100.855 145.271 99.6923C146.952 98.53 147.97 96.7719 148.278 94.8791C148.58 92.9791 148.154 90.9345 146.935 89.1972C145.716 87.4598 143.937 86.3625 142.037 85.9854ZM105.023 81.3875C107.265 80.4192 109.717 80.2056 112.069 80.6657C115.146 81.2824 118.044 83.0663 120.021 85.883C121.997 88.6997 122.678 92.0168 122.19 95.0892C121.815 97.4458 120.763 99.6557 119.072 101.407L126.48 111.965C127.237 113.044 127.004 114.512 125.959 115.234C124.915 115.956 123.454 115.66 122.697 114.581L115.289 104.024C113.047 104.992 110.588 105.21 108.238 104.738C105.159 104.134 102.268 102.345 100.291 99.5282C98.3148 96.7115 97.6263 93.3995 98.1172 90.3147C98.4902 87.9703 99.5489 85.7555 101.241 84.0038L98.1641 79.6197L76.2031 94.8082C75.5969 96.139 75.2715 97.8245 75.3426 100.136C75.4895 105.174 76.4367 110.338 78.1866 115.42C79.9479 120.549 82.4774 125.41 85.6056 129.868C93.4754 141.083 104.42 148.568 115.789 151.631C126.309 154.468 137.192 153.508 146.28 148.189L128.916 123.445C128.159 122.366 128.385 120.902 129.429 120.18C130.473 119.458 131.942 119.749 132.699 120.829L150.062 145.573C158.237 138.953 162.908 129.156 163.872 118.376C164.925 106.722 161.646 93.9353 153.776 82.7202C150.648 78.2625 146.924 74.2273 142.695 70.8048C138.5 67.4142 133.949 64.7424 129.239 62.8601C127.073 61.9978 125.375 61.712 123.9 61.8203L101.946 77.0038L105.023 81.3879L105.023 81.3875ZM111.332 85.2927C109.439 84.911 107.423 85.2619 105.743 86.424C104.062 87.5864 103.039 89.3372 102.737 91.2374C102.429 93.1301 102.855 95.1744 104.074 96.9119C105.293 98.6491 107.072 99.7467 108.972 100.124C110.872 100.5 112.881 100.155 114.562 98.9922C116.243 97.8299 117.273 96.0742 117.568 94.1788C117.87 92.2788 117.45 90.2416 116.231 88.5043C115.011 86.7669 113.227 85.6622 111.332 85.2927Z" fill="black"/>
</svg>
