<svg width="148" height="144" viewBox="0 0 148 144" fill="none" xmlns="http://www.w3.org/2000/svg">
<path d="M34.3484 115.153C47.4589 118.408 61.434 109.711 65.5627 95.7264C69.6914 81.7423 62.4102 67.7672 49.2997 64.5121C36.1892 61.2571 22.2141 69.9547 18.0854 83.9389C13.9567 97.923 21.2379 111.898 34.3484 115.153Z" fill="#2F4CA3"/>
<path d="M98.282 78.4425C111.392 81.6976 125.368 72.9999 129.496 59.0157C133.625 45.0316 126.344 31.0565 113.233 27.8014C100.123 24.5464 86.1477 33.244 82.019 47.2282C77.8903 61.2123 85.1715 75.1875 98.282 78.4425Z" fill="#2F4CA3"/>
<path d="M22.6591 105.553L13.8007 111.179C12.407 112.067 10.7058 111.653 10.0011 110.256L8.78596 107.845C8.08131 106.448 8.64002 104.595 10.0338 103.707L18.8921 98.0814L22.6591 105.553Z" fill="#FED73A"/>
<path d="M124.001 37.9564L133.561 31.8859C134.954 30.9984 136.656 31.4119 137.36 32.8096L138.575 35.2199C139.28 36.6176 138.721 38.4704 137.328 39.3579L127.768 45.4284L124.001 37.9564Z" fill="#FED73A"/>
<path d="M81.1584 69.3956C75.6045 66.6999 68.5389 71.3206 67.9862 78.1463L64.2833 78.7939L62.6143 69.6241C65.7919 63.9731 71.6111 60.232 77.5548 60.0032L83.9524 65.9249L81.1584 69.3956Z" fill="#FED73A"/>
<path d="M131.132 37.3144C124.086 23.3374 107.076 19.2021 93.1385 28.0779C79.2011 36.9537 73.6144 55.4797 80.6604 69.4568C87.7064 83.4338 104.717 87.5691 118.654 78.6933C132.591 69.8173 138.178 51.2915 131.132 37.3144ZM106.092 61.9933L112.103 73.9169C108.778 75.347 105.328 75.8712 102.042 75.5585L106.092 61.9933ZM118.362 69.9363L112.331 57.9723L124.826 61.0153C123.372 64.3705 121.185 67.4509 118.362 69.9363ZM124.648 41.4479C126.569 45.2588 127.217 49.532 126.761 53.74L107.865 49.1386L99.7059 32.8534C109.309 28.7268 119.964 32.1571 124.648 41.4479ZM93.4408 36.8364L101.575 53.0679L95.4247 73.6671C91.9898 71.9429 89.0712 69.1263 87.1549 65.3248C82.4663 56.0239 85.3361 43.9711 93.4408 36.8364Z" fill="#A5FFFA"/>
<path d="M94.6567 71.9053L94.4494 72.6057C94.9768 72.6564 95.5089 72.6833 96.0434 72.6911C95.5708 72.4502 95.1087 72.1872 94.6567 71.9053Z" fill="#FC3F84"/>
<path d="M131.353 38.0163C127.216 29.7443 119.567 24.9698 111.162 24.3637C116.225 26.5714 120.545 30.5306 123.302 36.0452C124.595 38.6309 125.453 41.3742 125.904 44.183C127.077 47.3815 127.436 50.8221 127.07 54.2198L125.893 53.9311C125.512 56.3675 124.855 58.7744 123.937 61.0934L125.174 61.3967C123.75 64.7066 121.608 67.7457 118.844 70.1977L118.74 69.9896C116.596 72.6319 114.028 74.971 111.077 76.8649C105.619 80.3678 99.6803 81.8152 94.0769 81.4112C101.672 84.7226 110.94 84.0905 119.128 78.836C132.773 70.0788 138.247 51.803 131.353 38.0163Z" fill="#6EFFF7"/>
<path d="M66.9133 73.9536C59.8673 59.9766 42.8571 55.8413 28.9197 64.717C14.9823 73.5928 9.3957 92.1189 16.4417 106.096C23.4876 120.073 40.4978 124.208 54.4352 115.332C68.3726 106.457 73.9592 87.9308 66.9133 73.9536ZM41.8735 98.6327L47.8841 110.556C44.5592 111.986 41.1096 112.511 37.8234 112.198L41.8735 98.6327ZM54.1432 106.575L48.1121 94.6115L60.6073 97.6545C59.1535 101.01 56.9665 104.09 54.1432 106.575ZM60.4292 78.0871C62.3501 81.8981 62.9988 86.1712 62.5426 90.3793L43.6463 85.7778L35.4876 69.4925C45.0902 65.3662 55.7457 68.7963 60.4292 78.0871ZM29.222 73.4758L37.3561 89.7073L31.2059 110.307C27.771 108.582 24.8524 105.766 22.936 101.964C18.2477 92.6631 21.1173 80.6102 29.222 73.4758Z" fill="#A5FFFA"/>
<path d="M30.438 108.545L30.2306 109.245C30.758 109.296 31.29 109.323 31.8246 109.331C31.3519 109.089 30.89 108.826 30.438 108.545Z" fill="#FC3F84"/>
<path d="M67.1338 74.6557C62.9972 66.3837 55.3479 61.6092 46.9431 61.0031C52.0063 63.2108 56.3257 67.17 59.0836 72.6846C60.3765 75.2703 61.2344 78.0136 61.6851 80.8226C62.8581 84.0211 63.2176 87.4615 62.8513 90.8594L61.6741 90.5707C61.2928 93.0071 60.6361 95.4141 59.7185 97.733L60.9551 98.0363C59.5309 101.346 57.3894 104.385 54.625 106.837L54.521 106.629C52.377 109.271 49.8093 111.611 46.8586 113.504C41.4003 117.007 35.4615 118.455 29.8581 118.051C37.4527 121.362 46.7213 120.73 54.9088 115.476C68.5545 106.718 74.0277 88.4426 67.1338 74.6557Z" fill="#6EFFF7"/>
<path d="M106.993 51.5271L126.314 56.3486C127.297 56.5938 128.348 55.7888 128.455 54.709C129.248 46.7117 126.138 38.9114 120.253 34.2922C114.249 29.5791 105.901 28.568 98.4875 31.6811C97.5326 32.0822 97.0697 33.295 97.529 34.1913L106.02 50.7482C106.223 51.1424 106.572 51.4221 106.993 51.5271ZM125.274 52.4666L108.644 48.3167L101.405 34.2012C113.476 30.4919 125.293 39.5782 125.274 52.4666Z" fill="black"/>
<path d="M94.336 35.6454C94.1186 35.2202 93.7297 34.9354 93.2664 34.8624C92.8031 34.7893 92.3223 34.937 91.9439 35.2684C79.3377 46.3094 80.6212 67.3204 94.4634 74.3162C95.3383 74.7585 96.4761 74.1915 96.7742 73.1647L102.645 52.9459C102.77 52.5137 102.732 52.0637 102.539 51.6861L94.336 35.6454ZM92.4082 39.2105L99.3907 52.8645L94.3349 70.278C84.5264 63.8148 83.6505 48.4688 92.4082 39.2105Z" fill="black"/>
<path d="M102.76 76.9051C106.3 77.2687 110.012 76.7401 113.577 75.2441C114.514 74.8511 114.967 73.6623 114.514 72.7858L108.386 60.9295C108.084 60.3468 107.458 60.0374 106.805 60.1497C106.153 60.2619 105.596 60.7743 105.401 61.4421L101.493 74.8392C101.219 75.7779 101.792 76.8058 102.76 76.9051ZM110.715 72.7838C108.869 73.3504 107 73.6264 105.161 73.6251L107.321 66.2189L110.715 72.7838Z" fill="black"/>
<path d="M119.012 71.9381C119.487 72.0119 119.978 71.8617 120.366 71.5241C123.419 68.866 125.772 65.5588 127.318 61.9537C127.735 60.9814 127.211 59.9046 126.322 59.6834L113.634 56.5268C112.267 56.187 111.023 57.8274 111.682 59.1001L117.916 71.1437C118.139 71.5763 118.537 71.8644 119.012 71.9381ZM123.468 62.5602C122.509 64.3489 121.309 66.0209 119.887 67.5145L116.415 60.8056L123.468 62.5602Z" fill="black"/>
<path d="M134.617 40.2735L138.132 38.0745C143.577 34.6675 138.267 24.2589 132.748 27.7118L129.101 29.9938C120.285 19.6249 104.647 17.1737 92.0067 25.0834C80.6179 32.208 74.5686 45.8968 76.1157 58.5001C70.7362 59.1507 65.5803 62.3525 62.2925 67.069C53.2235 58.9921 39.2721 57.6297 27.7927 64.8131C22.5911 68.0665 18.502 72.6054 15.7368 77.757C14.7067 79.6753 17.4773 81.2526 18.5542 79.2471C21.0243 74.6487 24.6604 70.6104 29.3072 67.7026C42.2593 59.6002 58.7198 63.6855 65.4462 76.6751C72.179 89.6813 66.9725 107.321 54.0021 115.437C41.0462 123.542 24.5919 119.459 17.8631 106.464C14.843 100.631 14.06 93.5768 15.6719 86.8175C16.1925 84.6342 13.1213 84.1151 12.5087 86.2355C11.1838 91.7911 11.3036 97.5209 12.795 102.76L9.19706 105.011C3.75138 108.418 9.06159 118.826 14.581 115.374L18.1776 113.124C26.9462 123.739 42.7586 126.31 55.5171 118.326C69.0206 109.879 75.017 92.2031 69.7449 78.0505C70.1948 71.9804 75.9627 69.5268 80.6896 71.098C88.9763 83.6077 106.098 87.1279 119.731 78.5967C121.114 77.7312 122.42 76.7749 123.642 75.74C125.286 74.348 123.426 71.7019 121.707 73.1575C120.617 74.0801 119.453 74.9336 118.216 75.7073C105.264 83.8095 88.8037 79.7246 82.0773 66.7348C75.3448 53.7285 80.5511 36.0892 93.5214 27.973C106.473 19.8705 122.934 23.9559 129.66 36.9455C134.474 46.2436 133.374 58.3697 126.92 67.4706C125.612 69.3145 128.125 71.1064 129.489 69.3606C131.76 66.1587 133.46 62.6126 134.551 58.9188C136.383 52.7135 136.375 46.1693 134.617 40.2735ZM13.0659 112.484C11.4098 113.521 9.11054 108.903 10.7118 107.901L13.8844 105.916C14.2109 106.713 14.5704 107.495 14.9654 108.258C15.365 109.031 15.7973 109.773 16.2562 110.488L13.0659 112.484ZM72.0072 68.7624C70.1249 69.9812 68.6391 71.6977 67.6791 73.6736C66.7709 72.1128 65.7329 70.6764 64.5839 69.3713C67.3568 65.1097 71.9576 62.2461 76.7123 61.8364C77.1278 63.5944 77.7008 65.3166 78.4389 66.9807C76.2648 66.86 74.017 67.4609 72.0072 68.7624ZM131.062 32.6038L134.263 30.6013C135.919 29.5647 138.219 34.1831 136.617 35.1847L133.493 37.1396C133.206 36.4643 132.895 35.8008 132.558 35.1512C132.099 34.2647 131.599 33.4157 131.062 32.6038Z" fill="black"/>
<path d="M55.9912 70.9043C49.9869 66.1911 41.639 65.1801 34.2258 68.2931C33.2709 68.6942 32.808 69.907 33.2673 70.8034L41.7587 87.3603C41.9609 87.7545 42.3102 88.0342 42.7312 88.1391L62.052 92.9607C63.035 93.2061 64.0863 92.4009 64.1931 91.321C64.9862 83.3237 61.8762 75.5233 55.9912 70.9043ZM44.3827 84.9286L37.1435 70.8131C49.2146 67.1037 61.0311 76.19 61.0119 89.0784L44.3827 84.9286Z" fill="black"/>
<path d="M29.0046 71.4745C28.5413 71.4014 28.0605 71.5491 27.6821 71.8805C15.076 82.9215 16.3594 103.932 30.2017 110.928C31.0766 111.371 32.2143 110.804 32.5125 109.777L38.3829 89.558C38.5084 89.1258 38.4708 88.6758 38.2776 88.2982L30.0745 72.2575C29.8567 71.832 29.4678 71.5473 29.0046 71.4745ZM30.073 106.89C20.2646 100.427 19.3885 85.0811 28.1462 75.8225L35.1288 89.4766L30.073 106.89Z" fill="black"/>
<path d="M42.5437 96.7614C41.8913 96.8733 41.3345 97.386 41.1397 98.0538L37.2315 111.451C36.9577 112.389 37.5307 113.417 38.4985 113.517C42.0389 113.88 45.7507 113.352 49.3157 111.856C50.2521 111.463 50.7053 110.274 50.2523 109.397L44.124 97.541C43.8228 96.9585 43.1961 96.6494 42.5437 96.7614ZM46.4533 109.395C44.608 109.962 42.7385 110.238 40.8994 110.237L43.06 102.83L46.4533 109.395Z" fill="black"/>
<path d="M54.7463 108.55C55.2213 108.624 55.7123 108.474 56.1001 108.136C59.1536 105.478 61.5059 102.171 63.0527 98.5655C63.4699 97.5932 62.9455 96.5164 62.0567 96.2952L49.3679 93.1386C48.0017 92.7989 46.7577 94.4392 47.4164 95.712L53.6499 107.755C53.8736 108.188 54.2713 108.476 54.7463 108.55ZM59.2024 99.172C58.2437 100.961 57.0436 102.633 55.6215 104.126L52.1491 97.4174L59.2024 99.172Z" fill="black"/>
</svg>
