<svg width="74" height="75" viewBox="0 0 74 75" fill="none" xmlns="http://www.w3.org/2000/svg">
<g filter="url(#filter0_d_42_25)">
<path d="M35.8974 6.03588C37.9409 4.37434 40.9229 4.58286 42.7152 6.51263L52.915 17.4943C53.1816 17.7813 53.481 18.036 53.8071 18.2532L66.329 26.5921C68.479 28.0238 69.1844 30.8577 67.9566 33.1303L60.7186 46.5273C60.5354 46.8665 60.392 47.2257 60.2913 47.5978L56.3225 62.2625C55.6396 64.7861 53.1278 66.3575 50.5597 65.8679L35.9272 63.078C35.5384 63.0039 35.1423 62.9762 34.747 62.9955L19.8686 63.7217C17.2573 63.8492 14.9887 61.9435 14.6636 59.3494L12.7744 44.2751C12.7265 43.8926 12.6345 43.5169 12.5002 43.1556L7.19719 28.8816C6.29759 26.4602 7.39056 23.7521 9.71892 22.6335L23.2795 16.1185C23.6326 15.9488 23.9646 15.7383 24.2685 15.4911L35.8974 6.03588Z" fill="#27BCAE"/>
<path d="M36.5282 6.81177C38.163 5.48254 40.5486 5.64936 41.9825 7.19317L52.1823 18.1748C52.5022 18.5193 52.8615 18.8249 53.2528 19.0855L65.7747 27.4244C67.4947 28.5698 68.0591 30.8369 67.0768 32.655L59.8388 46.052C59.6189 46.459 59.4469 46.89 59.326 47.3366L60.2913 47.5978L59.326 47.3366L55.3573 62.0013C54.8109 64.0201 52.8015 65.2773 50.747 64.8855L36.1145 62.0957C35.648 62.0068 35.1726 61.9735 34.6982 61.9967L19.8198 62.7229C17.7308 62.8249 15.9159 61.3003 15.6559 59.2251L13.7667 44.1508C13.7091 43.6918 13.5987 43.2409 13.4376 42.8073L8.13459 28.5334C7.41491 26.5962 8.28929 24.4298 10.152 23.5349L23.7125 17.0199C24.1363 16.8163 24.5346 16.5636 24.8994 16.267L36.5282 6.81177Z" stroke="black" stroke-width="2"/>
</g>
<g clip-path="url(#clip0_42_25)">
<path d="M38.4742 49.1195L39.206 38.6545L42.7173 38.9L43.5294 34.8572L39.4913 34.5749L39.6734 31.9706C39.756 30.7898 40.1388 30.008 41.8339 30.1265L43.9925 30.2766L44.2477 26.6276C43.8778 26.553 42.6042 26.3522 41.1129 26.2479C37.9987 26.0301 35.7337 27.7819 35.4897 31.272L35.2793 34.2803L31.7574 34.0341L31.4721 38.1137L34.994 38.36L34.2623 48.825L38.4742 49.1195Z" fill="white"/>
</g>
<defs>
<filter id="filter0_d_42_25" x="6.8833" y="4.91602" width="61.6748" height="66.041" filterUnits="userSpaceOnUse" color-interpolation-filters="sRGB">
<feFlood flood-opacity="0" result="BackgroundImageFix"/>
<feColorMatrix in="SourceAlpha" type="matrix" values="0 0 0 0 0 0 0 0 0 0 0 0 0 0 0 0 0 0 127 0" result="hardAlpha"/>
<feOffset dy="5"/>
<feComposite in2="hardAlpha" operator="out"/>
<feColorMatrix type="matrix" values="0 0 0 0 0 0 0 0 0 0 0 0 0 0 0 0 0 0 1 0"/>
<feBlend mode="normal" in2="BackgroundImageFix" result="effect1_dropShadow_42_25"/>
<feBlend mode="normal" in="SourceGraphic" in2="effect1_dropShadow_42_25" result="shape"/>
</filter>
<clipPath id="clip0_42_25">
<rect width="23" height="23" fill="white" transform="translate(26.8296 25.25) rotate(4)"/>
</clipPath>
</defs>
</svg>
