<svg width="171" height="61" viewBox="0 0 171 61" fill="none" xmlns="http://www.w3.org/2000/svg">
<path d="M24.2478 19.0491C24.2478 19.2758 24.1545 19.5225 23.9678 19.7891L21.7478 22.9891C21.4545 23.4158 21.1211 23.6291 20.7478 23.6291C20.6678 23.6291 20.4278 23.5425 20.0278 23.3691C19.6278 23.1958 19.3011 23.1091 19.0478 23.1091H10.3678C9.83448 23.1091 9.47448 23.0358 9.28781 22.8891C9.11448 22.7425 9.02781 22.4691 9.02781 22.0691C9.02781 21.5758 9.38781 21.2491 10.1078 21.0891C10.5478 20.9958 10.7678 20.7358 10.7678 20.3091V9.70913C10.7678 9.34913 10.5678 9.06246 10.1678 8.84913C9.36781 8.56913 8.96781 8.2558 8.96781 7.90913C8.96781 7.5358 9.06115 7.2958 9.24781 7.18913C9.43448 7.08246 9.90115 7.02913 10.6478 7.02913H14.9078C15.5745 7.02913 16.0011 7.08913 16.1878 7.20913C16.3878 7.3158 16.4878 7.54913 16.4878 7.90913C16.4878 8.18913 16.2145 8.46246 15.6678 8.72913C15.1211 8.98246 14.8478 9.30913 14.8478 9.70913V19.8691C14.8478 20.5891 15.1745 20.9491 15.8278 20.9491H16.9678C18.2078 20.9491 19.3411 20.6758 20.3678 20.1291C20.5145 20.0491 21.5611 19.4491 23.5078 18.3291C24.0011 18.3291 24.2478 18.5691 24.2478 19.0491ZM36.9922 20.1891C36.9922 20.8025 36.4455 21.4625 35.3522 22.1691C34.0855 22.9825 32.6055 23.3891 30.9122 23.3891C29.0855 23.3891 27.6455 22.8825 26.5922 21.8691C25.5922 20.8825 25.0922 19.5758 25.0922 17.9491C25.0922 16.2558 25.6255 14.9025 26.6922 13.8891C27.7589 12.8625 29.1922 12.3491 30.9922 12.3491C32.2455 12.3491 33.3722 12.7225 34.3722 13.4691C35.3189 14.1625 35.8789 14.9891 36.0522 15.9491C36.0789 16.0958 35.9522 16.2558 35.6722 16.4291L29.4322 19.4891C29.5255 19.9025 29.8722 20.2958 30.4722 20.6691C31.1389 21.0825 31.8589 21.2891 32.6322 21.2891C33.3389 21.2891 34.1322 21.0025 35.0122 20.4291C35.9055 19.8425 36.3789 19.5491 36.4322 19.5491C36.8055 19.5491 36.9922 19.7625 36.9922 20.1891ZM32.4122 16.2291C32.4122 15.7358 32.1789 15.2491 31.7122 14.7691C31.2589 14.2758 30.7655 14.0291 30.2322 14.0291C29.5522 14.0291 29.0522 14.2825 28.7322 14.7891C28.4655 15.1891 28.3322 15.6025 28.3322 16.0291C28.3322 16.8825 28.4522 17.5491 28.6922 18.0291L32.4122 16.2291ZM50.9622 21.8091C50.9622 22.9158 50.2022 23.4691 48.6822 23.4691L47.3622 23.2691C46.7355 23.0958 46.2089 22.7358 45.7822 22.1891C44.8622 23.0425 43.4222 23.4691 41.4622 23.4691C40.3289 23.4691 39.4089 23.1758 38.7022 22.5891C38.0089 22.0025 37.6622 21.2225 37.6622 20.2491C37.6622 18.7958 38.2822 17.7625 39.5222 17.1491C40.4955 16.6691 41.9755 16.4291 43.9622 16.4291C43.6422 15.0291 42.9822 14.3291 41.9822 14.3291C41.5689 14.3291 41.1022 14.4491 40.5822 14.6891C40.1422 14.9291 39.7022 15.1691 39.2622 15.4091C38.9689 15.4091 38.7955 15.3891 38.7422 15.3491C38.6222 15.2691 38.5622 15.0625 38.5622 14.7291C38.5622 14.2758 39.0022 13.7758 39.8822 13.2291C40.8689 12.6158 41.9222 12.3091 43.0422 12.3091C44.6689 12.3091 45.8755 12.8691 46.6622 13.9891C47.1955 14.7625 47.7555 16.2825 48.3422 18.5491C48.8489 20.4691 49.4089 21.4291 50.0222 21.4291C50.0489 21.4291 50.1355 21.4091 50.2822 21.3691C50.4422 21.3291 50.5422 21.3091 50.5822 21.3091C50.8355 21.3091 50.9622 21.4758 50.9622 21.8091ZM45.1022 20.5491C44.9422 19.9891 44.6755 19.1625 44.3022 18.0691C42.3155 18.0691 41.3222 18.6225 41.3222 19.7291C41.3222 20.2091 41.5355 20.6158 41.9622 20.9491C42.3889 21.2691 42.8889 21.4291 43.4622 21.4291C44.1289 21.4291 44.6755 21.1358 45.1022 20.5491ZM61.5909 12.9891C61.6443 13.0825 61.6243 13.2691 61.5309 13.5491L60.4509 16.6091C60.3843 16.7958 60.2043 16.8891 59.9109 16.8891C59.8709 16.8891 59.6376 16.6758 59.2109 16.2491C58.7976 15.8091 58.4309 15.5891 58.1109 15.5891C57.6443 15.5891 57.2243 15.7958 56.8509 16.2091C56.4909 16.6225 56.3109 17.0691 56.3109 17.5491V20.6691C56.3109 20.9225 56.5643 21.2358 57.0709 21.6091C57.5776 21.9691 57.8309 22.2691 57.8309 22.5091C57.8309 22.9091 57.4776 23.1091 56.7709 23.1091H52.6709C52.4043 23.1091 52.1776 23.0491 51.9909 22.9291C51.8043 22.7958 51.7109 22.6558 51.7109 22.5091C51.7109 22.2425 51.9309 21.9358 52.3709 21.5891C52.8243 21.2291 53.0509 20.9225 53.0509 20.6691V16.0091C53.0509 15.8491 52.8243 15.6691 52.3709 15.4691C51.9309 15.2691 51.7109 15.0091 51.7109 14.6891C51.7109 14.4225 52.3376 13.9625 53.5909 13.3091C54.7909 12.6958 55.5509 12.3891 55.8709 12.3891C56.1643 12.3891 56.3109 12.6358 56.3109 13.1291V14.6091C57.1109 13.7958 57.7709 13.2358 58.2909 12.9291C58.9043 12.5691 59.5843 12.3891 60.3309 12.3891C61.0643 12.3891 61.4843 12.5891 61.5909 12.9891ZM75.735 22.5291C75.735 22.6625 75.6617 22.7958 75.515 22.9291C75.3683 23.0491 75.195 23.1091 74.995 23.1091H70.135C69.655 23.1091 69.415 22.9158 69.415 22.5291C69.415 22.2491 69.6617 21.9425 70.155 21.6091C70.6483 21.2758 70.8883 21.0291 70.875 20.8691C70.6083 19.0825 70.2617 17.6758 69.835 16.6491C69.3817 15.5691 68.8817 15.0291 68.335 15.0291C67.4283 15.0291 66.975 15.6291 66.975 16.8291V20.6091C66.975 21.0225 67.1683 21.3891 67.555 21.7091C67.9417 22.0291 68.135 22.3025 68.135 22.5291C68.135 22.6625 68.0483 22.7958 67.875 22.9291C67.715 23.0491 67.535 23.1091 67.335 23.1091H63.075C62.6083 23.1091 62.375 22.9158 62.375 22.5291C62.375 22.3025 62.595 22.0025 63.035 21.6291C63.4883 21.2425 63.715 20.8825 63.715 20.5491V16.6491C63.715 16.2758 63.4883 15.9558 63.035 15.6891C62.595 15.4225 62.375 15.1891 62.375 14.9891C62.375 14.7091 62.9817 14.2025 64.195 13.4691C65.355 12.7491 66.095 12.3891 66.415 12.3891C66.7883 12.3891 66.975 12.5891 66.975 12.9891V14.2291C67.815 13.0025 68.695 12.3891 69.615 12.3891C70.575 12.3891 71.375 12.8891 72.015 13.8891C72.5617 14.7291 73.0817 16.1025 73.575 18.0091C74.015 19.7291 74.2817 20.6958 74.375 20.9091C74.4817 21.1225 74.735 21.3558 75.135 21.6091C75.535 21.8625 75.735 22.1691 75.735 22.5291ZM109.662 22.1891C109.662 22.5491 109.542 22.7958 109.302 22.9291C109.075 23.0625 108.622 23.1291 107.942 23.1291H104.082C103.309 23.1291 102.802 23.0758 102.562 22.9691C102.322 22.8625 102.202 22.6358 102.202 22.2891C102.202 22.0358 102.435 21.7691 102.902 21.4891C103.382 21.1958 103.622 21.0158 103.622 20.9491C103.622 20.4958 103.062 18.1225 101.942 13.8291L97.2819 22.7491C97.1352 23.0158 96.9285 23.1491 96.6619 23.1491C96.3819 23.1491 96.1819 23.0225 96.0619 22.7691L91.6819 13.8291L89.6819 20.6291C89.6152 20.8291 89.7619 21.1025 90.1219 21.4491C90.4819 21.7958 90.6619 22.0691 90.6619 22.2691C90.6619 22.8425 90.3219 23.1291 89.6419 23.1291H86.0219C85.3552 23.1291 85.0219 22.8491 85.0219 22.2891C85.0219 21.8625 85.2619 21.5625 85.7419 21.3891C86.2752 21.1891 86.5885 20.9358 86.6819 20.6291L89.8819 10.0691C89.9219 9.90913 89.9419 9.80913 89.9419 9.76913C89.9419 9.5958 89.7352 9.3358 89.3219 8.98913C88.9219 8.62913 88.7219 8.32913 88.7219 8.08913C88.7219 7.38246 89.2085 7.02913 90.1819 7.02913H93.9219C94.9619 7.02913 95.4819 7.36246 95.4819 8.02913C95.4819 8.3358 95.3219 8.6558 95.0019 8.98913C94.6819 9.32246 94.5219 9.5158 94.5219 9.56913C94.5219 9.6358 94.5485 9.7358 94.6019 9.86913L97.6619 16.2691L100.862 10.0491C100.902 9.92913 100.922 9.8158 100.922 9.70913C100.922 9.64246 100.715 9.40913 100.302 9.00913C99.9019 8.5958 99.7019 8.28913 99.7019 8.08913C99.7019 7.38246 100.249 7.02913 101.342 7.02913H104.962C105.602 7.02913 106.029 7.10246 106.242 7.24913C106.455 7.3958 106.562 7.64913 106.562 8.00913C106.562 8.28913 106.349 8.64246 105.922 9.06913C105.509 9.4958 105.322 9.80246 105.362 9.98913L108.062 20.5491C108.102 20.7225 108.389 20.9825 108.922 21.3291C109.415 21.6491 109.662 21.9358 109.662 22.1891ZM122.838 18.2891C122.838 19.9025 122.218 21.1625 120.978 22.0691C119.818 22.9358 118.305 23.3691 116.438 23.3691C114.452 23.3691 112.938 22.8491 111.898 21.8091C110.925 20.8491 110.438 19.5358 110.438 17.8691C110.438 16.3891 110.972 15.1225 112.038 14.0691C113.158 12.9625 114.585 12.4091 116.318 12.4091C118.118 12.4091 119.652 12.9691 120.918 14.0891C122.198 15.1958 122.838 16.5958 122.838 18.2891ZM119.318 19.6091C119.318 18.2758 118.878 16.9825 117.998 15.7291C117.118 14.4758 116.192 13.8491 115.218 13.8491C114.752 13.8491 114.378 14.0691 114.098 14.5091C113.818 14.9358 113.678 15.4091 113.678 15.9291C113.678 17.1691 114.072 18.3958 114.858 19.6091C115.672 20.8891 116.552 21.5291 117.498 21.5291C117.978 21.5291 118.398 21.3358 118.758 20.9491C119.132 20.5625 119.318 20.1158 119.318 19.6091ZM133.45 12.9891C133.504 13.0825 133.484 13.2691 133.39 13.5491L132.31 16.6091C132.244 16.7958 132.064 16.8891 131.77 16.8891C131.73 16.8891 131.497 16.6758 131.07 16.2491C130.657 15.8091 130.29 15.5891 129.97 15.5891C129.504 15.5891 129.084 15.7958 128.71 16.2091C128.35 16.6225 128.17 17.0691 128.17 17.5491V20.6691C128.17 20.9225 128.424 21.2358 128.93 21.6091C129.437 21.9691 129.69 22.2691 129.69 22.5091C129.69 22.9091 129.337 23.1091 128.63 23.1091H124.53C124.264 23.1091 124.037 23.0491 123.85 22.9291C123.664 22.7958 123.57 22.6558 123.57 22.5091C123.57 22.2425 123.79 21.9358 124.23 21.5891C124.684 21.2291 124.91 20.9225 124.91 20.6691V16.0091C124.91 15.8491 124.684 15.6691 124.23 15.4691C123.79 15.2691 123.57 15.0091 123.57 14.6891C123.57 14.4225 124.197 13.9625 125.45 13.3091C126.65 12.6958 127.41 12.3891 127.73 12.3891C128.024 12.3891 128.17 12.6358 128.17 13.1291V14.6091C128.97 13.7958 129.63 13.2358 130.15 12.9291C130.764 12.5691 131.444 12.3891 132.19 12.3891C132.924 12.3891 133.344 12.5891 133.45 12.9891ZM146.234 20.1891C146.234 20.8025 145.688 21.4625 144.594 22.1691C143.328 22.9825 141.848 23.3891 140.154 23.3891C138.328 23.3891 136.888 22.8825 135.834 21.8691C134.834 20.8825 134.334 19.5758 134.334 17.9491C134.334 16.2558 134.868 14.9025 135.934 13.8891C137.001 12.8625 138.434 12.3491 140.234 12.3491C141.488 12.3491 142.614 12.7225 143.614 13.4691C144.561 14.1625 145.121 14.9891 145.294 15.9491C145.321 16.0958 145.194 16.2558 144.914 16.4291L138.674 19.4891C138.768 19.9025 139.114 20.2958 139.714 20.6691C140.381 21.0825 141.101 21.2891 141.874 21.2891C142.581 21.2891 143.374 21.0025 144.254 20.4291C145.148 19.8425 145.621 19.5491 145.674 19.5491C146.048 19.5491 146.234 19.7625 146.234 20.1891ZM141.654 16.2291C141.654 15.7358 141.421 15.2491 140.954 14.7691C140.501 14.2758 140.008 14.0291 139.474 14.0291C138.794 14.0291 138.294 14.2825 137.974 14.7891C137.708 15.1891 137.574 15.6025 137.574 16.0291C137.574 16.8825 137.694 17.5491 137.934 18.0291L141.654 16.2291Z" fill="black"/>
<path d="M2 35.0012C31.3632 35.0012 103.726 35.0012 133.09 35.0012C138.706 35.0012 144.323 35.0012 149.939 35.0012C151.081 35.0012 152.223 35.0012 153.365 35.0012C156.059 35.0012 156.178 34.8373 156.34 38.3949C156.369 39.0317 158.381 54.9279 155.233 56" stroke="black" stroke-width="3" stroke-linecap="round"/>
<path d="M144.301 46.9795C145.515 47.9025 146.685 49.2715 147.661 50.4638C148.156 51.0689 148.636 51.6813 149.11 52.3011C149.53 52.8506 150.083 53.4579 150.559 53.9553C151.209 54.6337 151.619 55.4048 152.199 56.1294C152.882 56.983 153.479 57.9132 153.919 58.9036C154.254 59.6581 154.013 59.4288 154.68 59.0354C155.305 58.6671 155.899 58.5857 156.379 58.1057C156.754 57.7308 157.304 57.5447 157.74 57.2566C158.46 56.7814 159.146 56.2482 159.848 55.7487C161.278 54.7316 162.362 53.3208 163.728 52.2205C164.762 51.3871 165.849 50.2088 167.066 49.6439C167.885 49.2634 168.548 48.427 169.335 48.0336" stroke="black" stroke-width="3" stroke-linecap="round"/>
</svg>
