<svg width="104" height="104" viewBox="0 0 104 104" fill="none" xmlns="http://www.w3.org/2000/svg">
<rect x="-1" y="1" width="102" height="102" transform="matrix(-1 0 0 1 102 0)" fill="white" stroke="black" stroke-width="2"/>
<mask id="mask0_115_7" style="mask-type:alpha" maskUnits="userSpaceOnUse" x="31" y="31" width="41" height="41">
<rect x="31" y="31" width="41" height="41" fill="#D9D9D9"/>
</mask>
<g mask="url(#mask0_115_7)">
<path d="M43.2148 67.046C42.7878 66.6189 42.5742 66.1132 42.5742 65.529C42.5742 64.9459 42.7878 64.4408 43.2148 64.0137L55.7284 51.5002L43.1721 38.9439C42.7735 38.5453 42.5742 38.047 42.5742 37.4491C42.5742 36.8512 42.7878 36.3387 43.2148 35.9116C43.6419 35.4845 44.1476 35.271 44.7318 35.271C45.315 35.271 45.8201 35.4845 46.2471 35.9116L60.5971 50.3043C60.768 50.4752 60.8893 50.6602 60.961 50.8595C61.0316 51.0588 61.0669 51.2724 61.0669 51.5002C61.0669 51.7279 61.0316 51.9415 60.961 52.1408C60.8893 52.3401 60.768 52.5252 60.5971 52.696L46.2044 67.0887C45.8058 67.4873 45.315 67.6866 44.7318 67.6866C44.1476 67.6866 43.6419 67.4731 43.2148 67.046Z" fill="black"/>
</g>
</svg>
