<svg width="304" height="378" viewBox="0 0 304 378" fill="none" xmlns="http://www.w3.org/2000/svg">
<path d="M-33.6032 224.482L-5.67104 367.938C159.291 334.998 266.959 175.265 235.6 9.99537L92.1436 37.9275C108.081 123.969 52.1321 206.973 -33.6032 224.482Z" fill="#E6646E" stroke="black" stroke-width="3"/>
<path d="M-33.601 224.482L-10.4197 343.538C141.066 313.223 239.938 166.54 211.202 14.7462L92.1459 37.9275C108.083 123.969 52.1344 206.973 -33.601 224.482Z" fill="#FFDC64" stroke="black" stroke-width="3"/>
<path d="M-33.6034 224.482L-15.1729 319.139C122.838 291.447 212.912 157.816 186.8 19.4972L92.1435 37.9276C108.081 123.969 52.132 206.973 -33.6034 224.482Z" fill="#BEE86E" stroke="black" stroke-width="3"/>
<path d="M-33.6011 224.482L-19.9216 294.738C104.614 269.672 185.891 149.091 162.402 24.2481L92.1457 37.9276C108.083 123.969 52.1342 206.973 -33.6011 224.482Z" fill="#00CDFF" stroke="black" stroke-width="3"/>
<path d="M-33.6028 224.482L-24.6742 270.338C86.3857 247.896 158.866 140.366 138 28.9988L92.1441 37.9273C108.081 123.969 52.1326 206.973 -33.6028 224.482Z" fill="#00AAF0" stroke="black" stroke-width="3"/>
<path d="M-33.6012 224.482L-29.4236 245.938C68.1609 226.121 131.845 131.641 113.602 33.7497L92.1456 37.9274C108.083 123.969 52.1341 206.973 -33.6012 224.482Z" fill="#965AF0" stroke="black" stroke-width="3"/>
</svg>
