<svg width="251" height="251" viewBox="0 0 251 251" fill="none" xmlns="http://www.w3.org/2000/svg">
<path d="M169.692 176.736L56.6279 214.458C55.0756 214.976 53.4059 214.146 52.8982 212.604L5.55603 68.8362C5.04828 67.2942 5.89488 65.6247 7.44714 65.1068L117.701 28.3219C119.253 27.804 120.923 28.634 121.431 30.176L169.692 176.736Z" fill="#FFE177"/>
<path d="M105.248 32.4285L74.3337 63.1289C70.7434 66.0188 69.3136 70.8087 70.7453 75.1506L110.778 196.559L169.671 176.936L121.303 30.2483C120.783 28.6714 119.074 27.8217 117.486 28.351L105.248 32.4285Z" fill="#FFD15B"/>
<path d="M119.372 28.344L83.7469 73.4673L130.241 57.9586L121.076 30.1314C120.795 29.2773 120.152 28.6447 119.372 28.344Z" fill="#FFC344"/>
<path d="M244.144 186.154L133.89 222.939C132.337 223.457 130.668 222.627 130.16 221.085L82.7786 77.1977C82.2925 75.7216 83.1032 74.123 84.5891 73.6272L194.963 36.8024C196.515 36.2845 198.185 37.1145 198.693 38.6565L246.035 182.424C246.543 183.966 245.696 185.636 244.144 186.154Z" fill="#FFF0AD"/>
<path d="M194.993 36.7923L186.837 39.5137L231.53 175.239C232.032 176.764 231.195 178.416 229.659 178.928L127.502 213.012L130.17 221.115C130.672 222.64 132.324 223.461 133.859 222.949L244.174 186.144C245.71 185.631 246.547 183.98 246.045 182.454L198.683 38.6264C198.181 37.1013 196.528 36.28 194.993 36.7923Z" fill="#FFE177"/>
<path d="M192.232 97.7539C188.156 79.5609 170.003 68.2171 151.686 72.417C133.369 76.6168 121.823 94.7698 125.899 112.963C129.974 131.156 148.127 142.5 166.445 138.3C184.762 134.1 196.307 115.947 192.232 97.7539Z" fill="#FAF7F7"/>
<path d="M77.9494 134.64L53.209 142.895C51.7702 143.375 50.2225 142.606 49.7519 141.176L40.7583 113.862C40.2877 112.432 41.0725 110.885 42.5114 110.405L67.2513 102.15C68.6902 101.669 70.2379 102.439 70.7085 103.868L79.7021 131.183C80.173 132.612 79.3883 134.16 77.9494 134.64Z" fill="#62DBFB"/>
<path d="M194.108 33.9836L132.328 54.5926C132.328 54.5926 124.307 29.5598 123.732 28.6959C122.478 26.1685 119.508 24.8842 116.734 25.8095L51.4484 47.5882C49.9393 48.0916 49.1168 49.715 49.6105 51.2141C50.1043 52.7136 51.7278 53.5206 53.2364 53.0174L112.191 33.3505L81.7019 71.9827C81.6782 72.0126 81.6613 72.0458 81.6387 72.0765C80.0956 73.5447 79.4338 75.8114 80.1378 77.949L117.451 191.245L55.6717 211.854C55.6463 211.862 55.6189 211.849 55.6106 211.824L8.26641 68.0697C8.25821 68.0448 8.27196 68.0171 8.29737 68.0086L42.3081 56.6629C43.8171 56.1596 44.6397 54.5361 44.146 53.037C43.6523 51.538 42.0287 50.7305 40.5201 51.2338L6.50932 62.5795C3.47143 63.5929 1.80834 66.8734 2.80263 69.8924L50.1468 213.646C51.1411 216.665 54.4219 218.297 57.4598 217.284L119.239 196.674L127.521 221.82C128.515 224.839 131.796 226.471 134.834 225.457L206.119 201.677C207.628 201.174 208.45 199.55 207.957 198.051C207.463 196.552 205.839 195.745 204.331 196.248L133.046 220.028C133.02 220.036 132.993 220.023 132.985 219.998L85.6256 76.1979L195.896 39.4128C195.921 39.4043 195.949 39.4179 195.957 39.4431L243.301 183.197C243.309 183.222 243.295 183.25 243.27 183.258L215.259 192.602C213.75 193.106 212.927 194.729 213.421 196.228C213.915 197.727 215.538 198.535 217.047 198.032L245.058 188.687C248.096 187.674 249.759 184.393 248.765 181.374L201.421 37.6205C200.426 34.6015 197.146 32.9702 194.108 33.9836ZM119.33 33.5378L126.864 56.4154L92.1293 68.0027L119.33 33.5378Z" fill="black"/>
<path d="M194.085 93.6292C187.766 74.4444 166.919 64.0766 147.611 70.5173C128.304 76.958 117.737 97.8054 124.056 116.99C130.374 136.175 151.222 146.543 170.529 140.103C189.836 133.662 200.403 112.814 194.085 93.6292ZM171.43 133.631L162.515 106.563L187.672 117.182C184.633 124.326 178.957 130.332 171.43 133.631ZM188.62 95.452C190.407 100.877 190.587 106.458 189.432 111.688L160.129 99.3177L152.175 75.1654C167.645 71.5311 183.59 80.1769 188.62 95.452ZM146.711 76.9886L154.665 101.141L138.505 128.678C134.475 125.177 131.307 120.593 129.52 115.168C124.489 99.8923 132.146 83.3734 146.711 76.9886ZM143.177 132.025L157.051 108.386L165.965 135.454C157.971 137.332 149.854 135.928 143.177 132.025Z" fill="black"/>
<path d="M163.061 153.185L135.662 162.25C135.661 162.251 135.659 162.251 135.658 162.252C134.155 162.751 133.335 164.365 133.825 165.858C134.317 167.352 135.936 168.159 137.441 167.661L164.841 158.595L164.845 158.594C166.348 158.094 167.168 156.481 166.677 154.988C166.186 153.494 164.567 152.686 163.061 153.185Z" fill="black"/>
<path d="M167.975 168.055L140.576 177.121C140.575 177.121 140.573 177.121 140.572 177.122C139.069 177.622 138.249 179.235 138.739 180.728C139.231 182.222 140.85 183.03 142.355 182.531L169.755 173.466L169.759 173.464C171.262 172.964 172.082 171.351 171.591 169.858C171.1 168.364 169.481 167.557 167.975 168.055Z" fill="black"/>
<path d="M172.866 182.942L145.467 192.008C145.465 192.009 145.464 192.009 145.463 192.01C143.959 192.509 143.139 194.123 143.63 195.616C144.121 197.11 145.74 197.917 147.246 197.419L174.645 188.353L174.649 188.352C176.152 187.852 176.973 186.238 176.482 184.745C175.991 183.251 174.372 182.444 172.866 182.942Z" fill="black"/>
<path d="M206.897 138.724L179.498 147.79C179.496 147.791 179.495 147.791 179.494 147.792C177.991 148.292 177.17 149.905 177.661 151.398C178.153 152.892 179.772 153.7 181.277 153.201L208.676 144.135L208.68 144.134C210.183 143.634 211.004 142.02 210.513 140.528C210.021 139.033 208.402 138.226 206.897 138.724Z" fill="black"/>
<path d="M211.807 153.603L184.408 162.669C184.407 162.67 184.406 162.67 184.404 162.671C182.901 163.171 182.08 164.784 182.571 166.277C183.063 167.771 184.682 168.578 186.187 168.08L213.586 159.014L213.59 159.013C215.094 158.513 215.914 156.899 215.423 155.407C214.932 153.913 213.313 153.105 211.807 153.603Z" fill="black"/>
<path d="M191.094 182.954L218.493 173.889L218.497 173.887C220 173.387 220.82 171.774 220.329 170.281C219.838 168.787 218.219 167.979 216.713 168.478L189.314 177.543C189.313 177.544 189.312 177.544 189.31 177.545C187.807 178.044 186.987 179.658 187.478 181.151C187.969 182.645 189.588 183.453 191.094 182.954Z" fill="black"/>
<path d="M59.5766 67.6606L28.838 77.878C27.3333 78.3782 26.5134 79.9943 27.0069 81.4873C27.5003 82.9803 29.1205 83.7853 30.6251 83.2852L61.3638 73.0678C62.8688 72.5676 63.6884 70.9516 63.1949 69.4586C62.7013 67.9652 61.0813 67.1605 59.5766 67.6606Z" fill="black"/>
<path d="M64.666 83.0229L33.9273 93.2403C32.4227 93.7405 31.6028 95.3566 32.0963 96.85C32.5899 98.3433 34.21 99.148 35.7146 98.6479L66.4533 88.4305C67.9583 87.9302 68.7779 86.3142 68.2844 84.8212C67.7907 83.3275 66.1707 82.5228 64.666 83.0229Z" fill="black"/>
<path d="M87.4082 151.625L56.6695 161.842C55.1649 162.342 54.3449 163.958 54.8384 165.451C55.3319 166.944 56.952 167.749 58.4567 167.249L89.1954 157.032C90.7004 156.531 91.5199 154.915 91.0265 153.422C90.533 151.929 88.9128 151.124 87.4082 151.625Z" fill="black"/>
<path d="M92.5097 166.982L61.7711 177.199C60.2664 177.699 59.4465 179.316 59.94 180.809C60.4336 182.302 62.0536 183.107 63.5582 182.607L94.2969 172.389C95.802 171.889 96.6215 170.273 96.128 168.78C95.6345 167.287 94.0144 166.482 92.5097 166.982Z" fill="black"/>
<path d="M54.0687 145.619L78.8608 137.348C81.7885 136.372 83.3908 133.21 82.4329 130.302L73.4177 102.928C72.4596 100.019 69.2983 98.4472 66.3706 99.4238L41.5785 107.694C38.6509 108.671 37.0485 111.832 38.0066 114.741L47.0218 142.114C47.9801 145.023 51.1414 146.595 54.0687 145.619ZM43.5231 113.072L68.0033 104.906L76.9163 131.969L52.4362 140.135L43.5231 113.072Z" fill="black"/>
</svg>
