<svg width="228" height="246" viewBox="0 0 228 246" fill="none" xmlns="http://www.w3.org/2000/svg">
<path d="M200.874 106.935L140.561 117.762L146.039 148.278C146.482 150.747 144.819 153.13 142.343 153.574L93.2794 162.381L101.335 207.258C101.778 209.727 104.166 211.383 106.642 210.938L178.435 198.051L198.563 212.008C200.627 213.439 201.953 212.591 201.51 210.122L198.69 194.415L216.019 191.304C218.494 190.86 220.157 188.477 219.714 186.009L206.181 110.615C205.738 108.147 203.35 106.491 200.874 106.935Z" fill="#FD646F"/>
<path d="M115.261 204.757L107.205 159.88L93.2734 162.381L101.329 207.258C101.772 209.727 104.16 211.382 106.636 210.938L120.568 208.437C118.092 208.882 115.704 207.226 115.261 204.757Z" fill="#FC4755"/>
<path d="M85.8217 97.9285C83.658 98.3169 81.5702 96.8696 81.183 94.712L78.1836 78.0026L17.8175 88.8385C15.3421 89.2829 13.6789 91.666 14.122 94.1343L27.6554 169.528C28.0984 171.996 30.4866 173.652 32.962 173.208L50.2905 170.097L53.11 185.805C53.5531 188.273 55.0914 188.608 56.5287 186.547L70.5459 166.461L142.339 153.574C144.815 153.13 146.478 150.747 146.035 148.279L135.399 89.0292L85.8217 97.9285Z" fill="#FDD302"/>
<path d="M40.4462 167.232L26.9128 91.8384C26.4697 89.37 28.1329 86.9869 30.6083 86.5425L17.8175 88.8385C15.3421 89.2829 13.6789 91.666 14.122 94.1343L27.6554 169.528C28.0984 171.996 30.4866 173.652 32.962 173.208L45.7528 170.912C43.2774 171.356 40.8893 169.7 40.4462 167.232Z" fill="#E7B700"/>
<path d="M72.587 24.1804L168.193 7.01887C170.357 6.6304 172.445 8.07813 172.832 10.2357L184.661 76.1371C185.049 78.2947 183.595 80.3776 181.431 80.7661L166.284 83.485L168.749 97.2144C169.136 99.372 167.977 100.114 166.173 98.8627L148.579 86.6631L85.8248 97.9277C83.6611 98.3161 81.5733 96.8688 81.186 94.7113L69.3566 28.8098C68.9693 26.6523 70.4232 24.5688 72.587 24.1804Z" fill="#00C184"/>
<path d="M94.3046 92.3565L82.4751 26.455C82.0878 24.2974 83.5418 22.214 85.7055 21.8256L72.587 24.1804C70.4232 24.5688 68.9693 26.6523 69.3566 28.8098L81.186 94.7113C81.5733 96.8688 83.6611 98.3161 85.8248 97.9277L98.9434 95.5729C96.7796 95.9613 94.6919 94.514 94.3046 92.3565Z" fill="#07B17B"/>
<path d="M200.316 103.844L143.095 114.115L139.047 91.5654L147.855 89.9844L164.381 101.445C166.042 102.596 167.447 102.729 168.471 102.545C169.159 102.421 169.675 102.155 169.98 101.959C170.737 101.472 172.435 99.9818 171.839 96.6602L169.929 86.0224L181.984 83.8585C185.858 83.1631 188.446 79.4507 187.751 75.5829L186.428 68.2095C186.121 66.502 184.489 65.3662 182.781 65.6728C181.073 65.9793 179.938 67.612 180.244 69.3194L181.568 76.6924C181.649 77.1429 181.331 77.5927 180.874 77.6747L165.727 80.3936C164.02 80.7002 162.884 82.3328 163.191 84.0402L165.022 94.2444L150.367 84.0822C149.684 83.6083 148.841 83.4248 148.023 83.5717L85.268 94.8363C84.8113 94.9183 84.3567 94.6071 84.2759 94.1566L72.4464 28.2552C72.3655 27.8046 72.6834 27.3544 73.1401 27.2724L168.746 10.1108C169.203 10.0288 169.657 10.34 169.738 10.7909L177.655 54.8916C177.961 56.5991 179.593 57.7349 181.301 57.4283C183.009 57.1218 184.144 55.4891 183.838 53.7817L175.922 9.68102C175.227 5.81315 171.51 3.23209 167.636 3.92749L72.0302 21.0891C68.1561 21.7845 65.5688 25.4972 66.263 29.3651L74.5383 75.4659L46.2364 80.5461C44.5286 80.8527 43.3932 82.4853 43.6997 84.1928C44.0062 85.9002 45.6385 87.036 47.3463 86.7295L75.6482 81.6492L78.0926 95.2669C78.1439 95.5526 78.2165 95.8289 78.2999 96.0994L38.298 103.28C36.5901 103.586 35.4548 105.219 35.7613 106.927C36.0677 108.634 37.7001 109.77 39.4079 109.463L132.864 92.6757L142.944 148.833C143.08 149.59 142.549 150.346 141.785 150.483L69.9918 163.37C69.1736 163.517 68.4465 163.982 67.9711 164.664L55.6711 182.289L53.3831 169.542C53.0766 167.835 51.4443 166.699 49.7365 167.006L32.4084 170.116C31.6441 170.253 30.8842 169.73 30.7484 168.973L17.2149 93.5789C17.079 92.822 17.6094 92.0669 18.3737 91.9297L32.5063 89.3929C34.2141 89.0863 35.3495 87.4537 35.043 85.7462C34.7365 84.0388 33.1042 82.903 31.3963 83.2095L17.2637 85.7464C13.0772 86.4979 10.2813 90.5093 11.0316 94.6888L24.565 170.082C25.3152 174.262 29.3317 177.051 33.5182 176.299L47.7551 173.744L50.0196 186.359C50.6536 189.891 52.8557 190.74 53.7735 190.942C54.1381 191.022 54.7305 191.094 55.4408 190.966C56.5175 190.773 57.8663 190.121 59.1057 188.345L72.38 169.324L90.7404 166.028L98.241 207.814C98.9913 211.993 103.008 214.782 107.195 214.03L121.643 211.437C123.351 211.13 124.487 209.497 124.18 207.79C123.874 206.082 122.241 204.947 120.534 205.253L106.085 207.847C105.321 207.984 104.56 207.461 104.424 206.704L96.9236 164.918L142.895 156.666L190.381 148.142C192.089 147.835 193.224 146.203 192.918 144.495C192.611 142.788 190.979 141.652 189.271 141.958L149.243 149.144C149.247 148.675 149.213 148.201 149.127 147.723L147.91 140.942L187.803 133.781C189.511 133.474 190.646 131.842 190.34 130.134C190.033 128.427 188.401 127.291 186.693 127.597L146.8 134.758L144.204 120.298L201.426 110.027C202.19 109.889 202.951 110.413 203.086 111.17L216.62 186.563C216.756 187.32 216.225 188.075 215.461 188.213L198.132 191.323C196.425 191.63 195.289 193.262 195.596 194.97L197.884 207.716L180.222 195.47C179.539 194.996 178.695 194.812 177.877 194.959L134.961 202.663C133.253 202.969 132.118 204.602 132.424 206.309C132.731 208.017 134.363 209.153 136.071 208.846L177.71 201.372L196.771 214.589C198.55 215.823 200.042 215.965 201.119 215.771C201.829 215.644 202.359 215.37 202.674 215.168C203.464 214.661 205.233 213.099 204.599 209.567L202.334 196.951L216.571 194.396C220.758 193.644 223.554 189.633 222.803 185.453L209.27 110.06C208.52 105.881 204.503 103.092 200.316 103.844Z" fill="black"/>
<path d="M118.237 175.914L192.957 162.501C194.665 162.194 195.8 160.562 195.494 158.854C195.187 157.147 193.555 156.011 191.847 156.318L117.127 169.73C115.419 170.037 114.284 171.669 114.59 173.377C114.897 175.085 116.529 176.22 118.237 175.914Z" fill="black"/>
<path d="M120.819 190.277L195.539 176.864C197.247 176.558 198.382 174.925 198.076 173.218C197.769 171.51 196.137 170.374 194.429 170.681L119.709 184.093C118.001 184.4 116.866 186.033 117.172 187.74C117.479 189.448 119.111 190.583 120.819 190.277Z" fill="black"/>
<path d="M115.593 104.228L40.8729 117.64C39.1651 117.947 38.0297 119.58 38.3362 121.287C38.6427 122.994 40.275 124.13 41.9828 123.824L116.703 110.411C118.41 110.105 119.546 108.472 119.239 106.765C118.933 105.057 117.3 103.921 115.593 104.228Z" fill="black"/>
<path d="M118.175 118.589L43.4549 132.002C41.7471 132.308 40.6118 133.941 40.9182 135.648C41.2247 137.356 42.857 138.492 44.5649 138.185L119.285 124.773C120.992 124.466 122.128 122.833 121.821 121.126C121.515 119.419 119.882 118.283 118.175 118.589Z" fill="black"/>
<path d="M120.749 132.95L46.0292 146.362C44.3213 146.669 43.186 148.301 43.4925 150.009C43.7989 151.716 45.4313 152.852 47.1391 152.545L121.859 139.133C123.567 138.826 124.702 137.194 124.395 135.486C124.089 133.779 122.457 132.643 120.749 132.95Z" fill="black"/>
<path d="M155.728 24.691L90.4159 36.4148C88.708 36.7213 87.5727 38.354 87.8792 40.0614C88.1857 41.7688 89.818 42.9046 91.5258 42.5981L156.838 30.8743C158.546 30.5678 159.681 28.9351 159.375 27.2277C159.068 25.5203 157.436 24.3845 155.728 24.691Z" fill="black"/>
<path d="M157.982 37.2447L92.6698 48.9685C90.962 49.275 89.8266 50.9077 90.1331 52.6151C90.4396 54.3225 92.0719 55.4584 93.7797 55.1518L159.092 43.428C160.8 43.1215 161.935 41.4888 161.629 39.7814C161.322 38.074 159.69 36.9382 157.982 37.2447Z" fill="black"/>
<path d="M160.232 49.7965L94.9198 61.5202C93.212 61.8268 92.0766 63.4594 92.3831 65.1669C92.6896 66.8743 94.3219 68.0101 96.0297 67.7036L161.342 55.9798C163.05 55.6732 164.185 54.0406 163.879 52.3332C163.572 50.6258 161.94 49.49 160.232 49.7965Z" fill="black"/>
<path d="M162.49 62.3492L97.1776 74.073C95.4698 74.3795 94.3344 76.0122 94.6409 77.7196C94.9474 79.427 96.5797 80.5629 98.2875 80.2563L163.6 68.5325C165.308 68.226 166.443 66.5933 166.137 64.8859C165.83 63.1785 164.197 62.0427 162.49 62.3492Z" fill="black"/>
</svg>
