<svg width="255" height="245" viewBox="0 0 255 245" fill="none" xmlns="http://www.w3.org/2000/svg">
<path d="M136.559 221.755L56.1064 192.274C50.1709 190.099 47.0949 183.465 49.2693 177.531L95.7496 50.6866C97.924 44.7526 104.558 41.6765 110.494 43.8515L190.948 73.3327C196.882 75.5072 199.958 82.1414 197.783 88.0754L151.303 214.92C149.129 220.854 142.494 223.93 136.559 221.755Z" fill="#FFF4F1"/>
<path d="M190.939 73.333L179.777 69.2432C185.711 71.4176 188.787 78.0518 186.613 83.9858L140.133 210.83C137.958 216.764 131.324 219.84 125.39 217.666L136.551 221.756C142.487 223.931 149.121 220.855 151.295 214.921L197.776 88.0762C199.95 82.1422 196.874 75.508 190.939 73.333Z" fill="#E2E4E5"/>
<path d="M197.269 216.169C194.483 223.771 186.061 227.676 178.459 224.89C170.856 222.104 166.951 213.683 169.737 206.08C172.523 198.477 180.945 194.572 188.547 197.358C196.15 200.144 200.055 208.566 197.269 216.169Z" fill="#5E8EE1"/>
<path d="M188.542 197.359C186.554 196.631 184.512 196.364 182.528 196.496C186.564 200.404 188.16 206.465 186.102 212.08C184.044 217.695 178.911 221.289 173.305 221.664C174.734 223.048 176.465 224.164 178.453 224.892C186.056 227.678 194.477 223.773 197.263 216.17C200.049 208.567 196.144 200.145 188.542 197.359Z" fill="#467BFF"/>
<path d="M41.324 159.025C38.538 166.628 30.1162 170.533 22.5133 167.747C14.9104 164.961 11.0055 156.539 13.7915 148.936C16.5775 141.333 24.9993 137.428 32.6022 140.214C40.2051 143 44.1099 151.422 41.324 159.025Z" fill="#F7EC77"/>
<path d="M32.5963 140.216C30.6086 139.488 28.5666 139.22 26.5827 139.352C30.6183 143.261 32.213 149.321 30.1554 154.936C28.0977 160.551 22.9655 164.145 17.3602 164.521C18.7885 165.905 20.5198 167.02 22.5074 167.748C30.1103 170.534 38.5321 166.629 41.3181 159.027C44.104 151.424 40.1991 143.002 32.5963 140.216Z" fill="#F9CD45"/>
<path d="M85.5779 38.2555C82.7919 45.8584 74.3701 49.7633 66.7672 46.9773C59.1643 44.1914 55.2594 35.7695 58.0454 28.1666C60.8314 20.5638 69.2532 16.6589 76.8561 19.4448C84.459 22.2308 88.3639 30.6526 85.5779 38.2555Z" fill="#FC9086"/>
<path d="M76.858 19.4463C74.8704 18.718 72.8283 18.4507 70.8439 18.5841C74.8801 22.4911 76.4747 28.5513 74.4171 34.1666C72.3594 39.7818 67.2267 43.377 61.6219 43.7511C63.0502 45.1351 64.7815 46.2505 66.7691 46.9788C74.372 49.7648 82.7938 45.8599 85.5798 38.257C88.3657 30.6541 84.4609 22.2323 76.858 19.4463Z" fill="#F57A73"/>
<path d="M241.519 95.401C238.733 103.004 230.311 106.909 222.709 104.123C215.106 101.337 211.201 92.915 213.987 85.3121C216.773 77.7093 225.195 73.8044 232.797 76.5903C240.4 79.3763 244.305 87.7981 241.519 95.401Z" fill="#FFD4C6"/>
<path d="M232.795 76.5899C230.808 75.8615 228.766 75.5943 226.781 75.7277C230.818 79.6346 232.414 85.6954 230.356 91.3107C228.298 96.9259 223.164 100.521 217.559 100.895C218.988 102.279 220.719 103.394 222.707 104.122C230.309 106.908 238.731 103.003 241.517 95.4005C244.303 87.7977 240.398 79.3758 232.795 76.5899Z" fill="#FDBBB5"/>
<path d="M166.213 76.9954L126.996 62.6248C123.926 61.5001 122.334 58.0681 123.458 54.9987L127.158 44.9019C128.283 41.8325 131.716 40.242 134.785 41.3668L174.003 55.7374C177.072 56.8621 178.664 60.2941 177.54 63.3635L173.84 73.4603C172.715 76.5297 169.282 78.1202 166.213 76.9954Z" fill="#FFEC56"/>
<path d="M174.001 55.7364L162.84 51.6465C165.909 52.7712 167.5 56.2026 166.376 59.2721L162.676 69.3688C161.551 72.4383 158.12 74.0293 155.05 72.9045L166.211 76.9944C169.281 78.1192 172.714 76.5287 173.838 73.4593L177.538 63.3625C178.663 60.2931 177.071 56.8611 174.001 55.7364Z" fill="#F9CD45"/>
<path d="M119.261 87.3019C117.799 91.3066 113.354 93.354 109.334 91.8754C105.313 90.3967 103.239 85.9521 104.701 81.9475C106.163 77.9428 110.608 75.8939 114.629 77.3725C118.65 78.8512 120.723 83.2972 119.261 87.3019Z" fill="#ACEDED"/>
<path d="M108.222 117.438C106.76 121.442 102.315 123.49 98.2945 122.011C94.2736 120.532 92.1996 116.088 93.6617 112.083C95.1239 108.079 99.5688 106.03 103.59 107.508C107.61 108.987 109.684 113.433 108.222 117.438Z" fill="#ACEDED"/>
<path d="M97.1789 147.575C95.7167 151.58 91.2724 153.627 87.2515 152.149C83.2307 150.67 81.1566 146.226 82.6188 142.221C84.0809 138.216 88.5258 136.167 92.5467 137.646C96.5675 139.125 98.641 143.571 97.1789 147.575Z" fill="#ACEDED"/>
<path d="M86.132 177.713C84.6699 181.718 80.2255 183.765 76.2047 182.287C72.1838 180.808 70.1098 176.363 71.5719 172.359C73.034 168.354 77.4789 166.305 81.4998 167.784C85.5206 169.262 87.5941 173.708 86.132 177.713Z" fill="#ACEDED"/>
<path d="M164.212 57.7477L168.056 47.2586C169.181 44.1877 167.59 40.7563 164.521 39.6316L151.379 34.816C148.31 33.6912 144.877 35.2817 143.751 38.3526L139.908 48.8417L164.212 57.7477Z" fill="#F7EC77"/>
<path d="M164.526 39.6314L153.363 35.541C156.433 36.6658 158.024 40.0972 156.898 43.168L153.055 53.6572L164.218 57.7476L168.061 47.2584C169.186 44.1876 167.595 40.7562 164.526 39.6314Z" fill="#F9CD45"/>
<path d="M159.781 191.766C158.239 191.201 156.532 191.992 155.968 193.533L148.505 213.898C146.889 218.309 141.985 220.582 137.574 218.966L57.1219 189.485C52.711 187.869 50.4374 182.965 52.0536 178.555L82.5164 95.422C83.0809 93.8815 82.2895 92.1747 80.7475 91.6097C79.2056 91.0446 77.4988 91.836 76.9343 93.3765L65.3121 125.093L40.187 115.887C38.6465 115.322 36.9391 116.115 36.3746 117.655L29.4861 136.454C21.6113 135.589 13.8442 140.15 10.999 147.914C7.65385 157.043 12.3587 167.193 21.4891 170.538C30.6181 173.884 40.7684 169.177 44.1136 160.048C47.2589 151.465 43.2862 141.982 35.2137 138.098L40.9325 122.491L63.2666 130.675L46.4716 176.509C43.7279 183.997 47.588 192.322 55.0755 195.066L135.53 224.547C143.018 227.291 151.342 223.43 154.086 215.943L161.548 195.579C162.114 194.038 161.323 192.331 159.781 191.766ZM38.5315 158.003C36.3137 164.055 29.5869 167.174 23.5346 164.956C17.4823 162.739 14.3619 156.011 16.5796 149.959C18.7974 143.907 25.5262 140.787 31.5785 143.005C37.6308 145.222 40.7493 151.951 38.5315 158.003Z" fill="black"/>
<path d="M108.3 94.6802C113.845 96.7119 120.008 93.8543 122.04 88.3097C124.071 82.7651 121.214 76.6005 115.67 74.5688C110.125 72.5371 103.96 75.3956 101.928 80.9402C99.8965 86.4848 102.756 92.6484 108.3 94.6802ZM113.625 80.1494C116.093 81.0538 117.363 83.7968 116.459 86.2648C115.555 88.7313 112.812 90.0033 110.345 89.0995C107.877 88.1952 106.605 85.4516 107.509 82.9851C108.413 80.5172 111.157 79.2451 113.625 80.1494Z" fill="black"/>
<path d="M132.402 89.2406L139.845 91.9679C141.387 92.5329 143.094 91.74 143.658 90.1995C144.223 88.6591 143.432 86.9508 141.89 86.3858L134.447 83.6585C132.905 83.0935 131.198 83.8863 130.634 85.4268C130.069 86.9673 130.86 88.6755 132.402 89.2406Z" fill="black"/>
<path d="M129.156 98.0995L168.405 112.482C169.946 113.046 171.653 112.255 172.217 110.714C172.782 109.172 171.991 107.466 170.45 106.901L131.201 92.5188C129.659 91.9538 127.952 92.7452 127.387 94.2871C126.823 95.8276 127.614 97.5345 129.156 98.0995Z" fill="black"/>
<path d="M97.2572 124.818C102.802 126.85 108.965 123.992 110.997 118.447C113.028 112.903 110.171 106.738 104.627 104.707C99.0821 102.675 92.917 105.533 90.8853 111.078C88.8536 116.622 91.7126 122.786 97.2572 124.818ZM102.582 110.287C105.05 111.191 106.32 113.935 105.416 116.402C104.512 118.869 101.769 120.141 99.3021 119.237C96.8342 118.333 95.5621 115.589 96.4659 113.123C97.3703 110.655 100.114 109.383 102.582 110.287Z" fill="black"/>
<path d="M121.359 119.377L128.802 122.105C130.344 122.67 132.051 121.877 132.615 120.336C133.18 118.796 132.389 117.088 130.847 116.522L123.404 113.795C121.862 113.23 120.155 114.023 119.591 115.564C119.026 117.104 119.817 118.812 121.359 119.377Z" fill="black"/>
<path d="M118.105 128.238L157.355 142.62C158.895 143.185 160.602 142.393 161.166 140.853C161.731 139.311 160.94 137.604 159.399 137.04L120.15 122.658C118.608 122.092 116.902 122.884 116.337 124.426C115.772 125.966 116.564 127.673 118.105 128.238Z" fill="black"/>
<path d="M86.2142 154.954C91.7588 156.985 97.9219 154.128 99.9537 148.583C101.985 143.039 99.1283 136.874 93.5837 134.842C88.0392 132.811 81.8741 135.669 79.8423 141.214C77.8106 146.758 80.6697 152.922 86.2142 154.954ZM91.5388 140.423C94.0067 141.327 95.2774 144.07 94.373 146.538C93.4692 149.005 90.7257 150.277 88.2592 149.373C85.7912 148.469 84.5191 145.725 85.423 143.259C86.3273 140.791 89.0709 139.519 91.5388 140.423Z" fill="black"/>
<path d="M110.312 149.516L117.755 152.243C119.297 152.808 121.004 152.015 121.569 150.475C122.133 148.934 121.342 147.226 119.8 146.661L112.357 143.934C110.816 143.369 109.108 144.162 108.544 145.702C107.979 147.243 108.77 148.951 110.312 149.516Z" fill="black"/>
<path d="M107.066 158.374L146.315 172.756C147.856 173.321 149.563 172.529 150.127 170.989C150.692 169.447 149.901 167.74 148.36 167.175L109.111 152.793C107.569 152.228 105.863 153.02 105.298 154.562C104.733 156.102 105.524 157.809 107.066 158.374Z" fill="black"/>
<path d="M75.1674 185.092C80.7119 187.124 86.8751 184.266 88.9068 178.722C90.9385 173.177 88.0814 167.013 82.5369 164.981C76.9923 162.949 70.8272 165.808 68.7954 171.352C66.7637 176.897 69.6228 183.061 75.1674 185.092ZM80.4919 170.562C82.9599 171.466 84.2305 174.209 83.3262 176.677C82.4223 179.143 79.6788 180.415 77.2123 179.512C74.7444 178.607 73.4723 175.864 74.3761 173.397C75.2804 170.929 78.024 169.657 80.4919 170.562Z" fill="black"/>
<path d="M99.2651 179.654L106.708 182.381C108.25 182.946 109.957 182.153 110.522 180.613C111.086 179.072 110.295 177.364 108.753 176.799L101.311 174.072C99.7686 173.507 98.0613 174.299 97.4968 175.84C96.9323 177.38 97.7232 179.089 99.2651 179.654Z" fill="black"/>
<path d="M96.0156 188.514L135.265 202.896C136.805 203.46 138.512 202.669 139.077 201.128C139.642 199.586 138.85 197.88 137.31 197.315L98.0606 182.933C96.5186 182.368 94.8118 183.159 94.2468 184.701C93.6823 186.242 94.4737 187.949 96.0156 188.514Z" fill="black"/>
<path d="M193.35 196.501L200.239 177.701C200.803 176.161 200.012 174.454 198.47 173.889L172.927 164.529L189.578 119.087L215.121 128.447C216.663 129.012 218.37 128.221 218.935 126.681L225.823 107.882C233.697 108.748 241.465 104.186 244.31 96.422C247.656 87.2916 242.949 77.1427 233.82 73.7975C224.691 70.4524 214.541 75.1573 211.196 84.2877C208.051 92.8699 212.022 102.353 220.096 106.238L214.377 121.845L191.623 113.507L200.567 89.0985C203.311 81.611 199.451 73.2857 191.962 70.5415L179.716 66.0542L180.328 64.3839C182.019 59.7682 179.639 54.6373 175.023 52.9459L169.835 51.0448L170.848 48.2811C172.539 43.664 170.161 38.5337 165.545 36.8423L152.403 32.0267C147.788 30.3354 142.656 32.7136 140.964 37.3307L139.951 40.0944L135.806 38.5753C131.19 36.884 126.058 39.2622 124.367 43.8779L123.755 45.5482L111.509 41.0608C104.02 38.3166 95.6948 42.1767 92.9511 49.6642L84.0071 74.0725L61.673 65.8885L67.3919 50.2817C76.0627 52.533 85.2221 47.8611 88.3669 39.2788C91.7126 30.1485 87.0057 19.9995 77.8768 16.6544C68.7464 13.3087 58.598 18.0141 55.2523 27.1445C52.4072 34.9089 55.3888 43.408 61.9582 47.8358L55.0696 66.6346C54.5051 68.1751 55.2965 69.8819 56.837 70.4464L81.9621 79.6531L81.0234 82.2148C80.459 83.7553 81.2498 85.4636 82.7917 86.0286C84.3337 86.5936 86.0396 85.8002 86.6041 84.2598L98.5318 51.7092C100.148 47.2983 105.052 45.0246 109.463 46.6409L121.71 51.1288L120.667 53.9747C118.975 58.5918 121.354 63.7221 125.97 65.4135L165.189 79.7846C169.804 81.476 174.936 79.0978 176.628 74.4806L177.671 71.6348L189.917 76.1221C194.328 77.7384 196.601 82.6421 194.985 87.053L160.057 182.371C159.492 183.913 160.283 185.62 161.825 186.185C163.366 186.749 165.073 185.958 165.638 184.416L170.88 170.109L193.634 178.447L187.915 194.053C179.244 191.802 170.086 196.474 166.942 205.057C163.596 214.187 168.301 224.335 177.432 227.681C186.561 231.026 196.709 226.321 200.055 217.191C202.901 209.427 199.92 200.928 193.35 196.501ZM216.778 86.3331C218.996 80.2808 225.722 77.1619 231.775 79.3796C237.827 81.5974 240.947 88.3248 238.73 94.3771C236.512 100.429 229.783 103.549 223.731 101.331C217.678 99.1137 214.56 92.3854 216.778 86.3331ZM60.833 29.1894C63.0508 23.1371 69.779 20.0187 75.8313 22.2365C81.8836 24.4542 85.0026 31.1811 82.7848 37.2334C80.567 43.2857 73.8397 46.4061 67.7874 44.1883C61.7351 41.9705 58.6152 35.2417 60.833 29.1894ZM146.545 39.3757C147.109 37.8366 148.819 37.0434 150.357 37.6068L163.499 42.4224C165.038 42.9864 165.831 44.6972 165.267 46.2362L162.446 53.9343L143.724 47.0738L146.545 39.3757ZM171.047 72.4357C170.483 73.9747 168.773 74.768 167.233 74.204L128.016 59.8334C126.477 59.2694 125.684 57.5586 126.248 56.0196L129.948 45.9228C130.511 44.3852 132.222 43.592 133.761 44.156L137.906 45.675L137.12 47.8199C136.556 49.3603 137.347 51.0672 138.888 51.6317L163.192 60.5376C164.733 61.1021 166.439 60.3107 167.004 58.7703L167.79 56.6254L172.978 58.5266C174.517 59.0905 175.31 60.8013 174.747 62.3389L171.047 72.4357ZM179.477 222.099C173.425 219.881 170.306 213.155 172.524 207.102C174.741 201.05 181.469 197.929 187.521 200.147C193.573 202.365 196.693 209.094 194.476 215.146C192.258 221.198 185.53 224.317 179.477 222.099Z" fill="black"/>
</svg>
