<svg width="260" height="259" viewBox="0 0 260 259" fill="none" xmlns="http://www.w3.org/2000/svg">
<path d="M223.014 184.513L22.8038 134.028L49.997 23.9986C51.6345 17.3729 58.3724 13.3663 65.047 15.0493L241.087 59.4391C247.761 61.1221 251.844 67.8573 250.207 74.4831L223.014 184.513Z" fill="#F5F9FA"/>
<path d="M241.005 58.9245L224.783 54.8447C231.503 56.5347 235.613 63.2975 233.965 69.9505L206.588 180.432L222.811 184.512L250.188 74.0302C251.836 67.3772 247.725 60.6144 241.005 58.9245Z" fill="#F0F4F5"/>
<path d="M208.446 58.3647L94.6021 29.8051C90.6048 28.8023 88.1593 24.7888 89.1399 20.8409C90.1205 16.8929 94.1561 14.5053 98.1534 15.5081L211.997 44.0678C215.994 45.0706 218.44 49.084 217.459 53.032C216.478 56.9799 212.443 59.3675 208.446 58.3647Z" fill="#FF8FE9"/>
<path d="M211.977 43.9529L195.863 39.8896C199.868 40.8995 202.318 44.941 201.336 48.9164C200.353 52.8919 196.31 55.296 192.305 54.2862L208.419 58.3495C212.424 59.3593 216.467 56.9552 217.449 52.9797C218.432 49.0043 215.982 44.9628 211.977 43.9529Z" fill="#FF75E4"/>
<path d="M206.119 199.315L30.4165 155.269C23.7547 153.599 19.6793 146.916 21.3136 140.341L22.729 134.646L222.555 184.74L221.14 190.434C219.505 197.009 212.78 200.985 206.119 199.315Z" fill="#51ACDB"/>
<path d="M206.437 180.537L205.019 186.276C203.381 192.903 196.643 196.91 189.968 195.226L206.082 199.29C212.757 200.973 219.496 196.966 221.133 190.34L222.551 184.601L206.437 180.537Z" fill="#32A2DB"/>
<path d="M179.277 113.197C185.03 89.9201 170.682 66.2571 147.231 60.3438L142.276 80.3943C154.551 83.4896 162.087 95.9195 159.076 108.103C157.548 114.287 153.59 119.232 148.46 122.203L159.247 139.995C168.927 134.319 176.378 124.927 179.277 113.197Z" fill="#A6E4FF"/>
<path d="M131.392 124.745C119.276 121.69 111.797 109.512 114.563 97.4828L94.4185 92.4033C88.9196 115.492 103.193 138.87 126.452 144.735C138.05 147.659 149.702 145.678 159.201 140.108L148.446 122.37C143.483 125.244 137.419 126.265 131.392 124.745Z" fill="#C4F27E"/>
<path d="M114.83 96.9796C117.836 84.8113 130.251 77.4268 142.505 80.5182L147.451 60.4927C124.04 54.5866 100.407 68.6448 94.6643 91.8921C94.6345 92.0126 94.6086 92.1333 94.5796 92.2541L114.75 97.3427C114.778 97.2217 114.801 97.1005 114.83 96.9796Z" fill="#FFE100"/>
<path d="M190.588 123.763L216.112 130.196L208.486 161.036L182.963 154.603L190.588 123.763Z" fill="#8E58D1"/>
<path d="M241.848 56.3484L220.663 51.016C220.403 46.5171 217.242 42.4906 212.627 41.329L124.269 19.0888C122.6 18.6686 120.913 19.6739 120.502 21.3341C120.091 22.9942 121.111 24.6807 122.781 25.1009L211.138 47.3411C213.472 47.9285 214.902 50.294 214.328 52.6147C213.753 54.9354 211.388 56.3454 209.054 55.7581L94.9531 27.038C92.6197 26.4507 91.1889 24.0851 91.7635 21.7644C92.338 19.4437 94.7036 18.0337 97.0371 18.6211L106.665 21.0446C110.708 21.9254 112.105 16.1522 108.154 15.0325L98.5256 12.6089C93.9107 11.4473 89.2441 13.5036 86.9167 17.351L65.7315 12.0186C57.398 9.92098 48.9492 14.9569 46.8972 23.2448L18.1686 139.278C16.1166 147.566 21.2268 156.015 29.5603 158.113L114.596 179.517L108.409 204.505C91.7278 204.427 88.5117 227.669 104.768 232.182C121.224 235.901 129.214 213.859 114.455 206.026L120.641 181.039L157.92 190.422C161.903 191.31 163.405 185.556 159.408 184.41L31.0488 152.101C26.0486 150.842 22.9826 145.773 24.2138 140.8L24.8936 138.055L219.146 186.949L218.466 189.695C217.235 194.668 212.166 197.689 207.166 196.431L175.529 188.467C171.53 187.574 170.059 193.348 174.041 194.48L205.677 202.443C214.011 204.54 222.459 199.504 224.511 191.216L253.24 75.1827C255.292 66.8948 250.182 58.446 241.848 56.3484ZM115.799 220.482C114.759 224.681 110.479 227.233 106.256 226.17C96.2067 223.234 99.791 208.768 110.027 210.939C114.25 212.002 116.839 216.283 115.799 220.482ZM26.3821 132.042L52.9424 24.7664C54.1736 19.7936 59.2428 16.7721 64.243 18.0307L85.4282 23.3632C85.6886 27.862 88.8497 31.8885 93.4646 33.0501L207.566 61.7702C212.181 62.9318 216.847 60.8755 219.175 57.0281L240.36 62.3605C245.36 63.6191 248.426 68.6883 247.195 73.6611L220.634 180.937L26.3821 132.042Z" fill="black"/>
<path d="M148.084 57.4543C123.062 51.1562 97.693 66.2777 91.5318 91.1624C79.7077 151.73 164.521 173.035 182.289 114.006C188.45 89.1219 173.106 63.7525 148.084 57.4543ZM146.93 119.591C132.232 128.321 113.757 114.63 117.659 98.0709L117.727 97.7564C120.332 87.2369 131.056 80.8446 141.634 83.507C158.669 87.682 162.116 110.962 146.93 119.591ZM143.545 62.8198L140.055 76.9129C128.092 75.3745 116.578 82.3284 112.476 93.6245L98.3205 90.0614C104.416 71.0431 123.775 59.4087 143.545 62.8198ZM127.225 141.703C107.08 136.632 93.6437 116.512 96.8892 96.0879L111.084 99.6607C108.804 118.959 129.365 134.402 147.347 126.34L154.912 138.848C146.336 143.047 136.621 144.068 127.225 141.703ZM160.261 135.708L152.708 123.22C168.897 111.328 164.85 85.3391 146.101 78.4345L149.59 64.3414C180.787 74.4004 187.395 117.295 160.261 135.708Z" fill="black"/>
<path d="M227.441 84.7997L201.171 78.1974C200.371 77.9963 199.525 78.119 198.82 78.539L190.59 83.4373C189.121 84.3113 188.651 86.2086 189.539 87.6746C190.671 89.2022 192.094 89.5597 193.806 88.747L200.935 84.5043L225.955 90.7923C229.972 91.6733 231.4 85.9245 227.441 84.7997Z" fill="black"/>
<path d="M224.524 96.4545L210.436 92.9146C206.422 92.034 204.99 97.7804 208.95 98.9058L223.038 102.446C227.052 103.326 228.484 97.58 224.524 96.4545Z" fill="black"/>
<path d="M221.887 107.009L207.799 103.469C203.785 102.589 202.353 108.335 206.313 109.46L220.401 113C224.416 113.881 225.848 108.135 221.887 107.009Z" fill="black"/>
<path d="M81.5083 120.146L74.3796 124.389L49.3593 118.1C45.3533 117.218 43.9066 122.964 47.8733 124.093L74.1432 130.695C74.9434 130.896 75.7893 130.774 76.4944 130.354L84.7247 125.455C88.1691 123.26 85.0942 118.162 81.5083 120.146Z" fill="black"/>
<path d="M50.786 112.44L64.874 115.98C68.8883 116.86 70.3203 111.114 66.3599 109.989L52.2723 106.449C48.2576 105.568 46.8256 111.315 50.786 112.44Z" fill="black"/>
<path d="M53.4227 101.884L67.5108 105.424C71.525 106.305 72.957 100.558 68.9966 99.4331L54.909 95.8932C50.8943 95.0125 49.4624 100.759 53.4227 101.884Z" fill="black"/>
<path d="M66.1443 50.8411L91.1641 57.1292L95.4759 64.2472C96.6079 65.7748 98.0305 66.1323 99.7429 65.3196C101.211 64.4455 101.682 62.5482 100.794 61.0823L95.8156 52.8644C95.3893 52.1601 94.6999 51.6515 93.8997 51.4504L67.6302 44.8483C63.6223 43.9666 62.1788 49.7125 66.1443 50.8411Z" fill="black"/>
<path d="M63.2469 62.5317L77.335 66.0717C81.3492 66.9523 82.7812 61.2059 78.8208 60.0805L64.7332 56.5406C60.7185 55.66 59.2866 61.4063 63.2469 62.5317Z" fill="black"/>
<path d="M60.6141 73.0874L74.7022 76.6274C78.7164 77.5079 80.1484 71.7616 76.188 70.6362L62.1004 67.0963C58.0857 66.2157 56.6538 71.962 60.6141 73.0874Z" fill="black"/>
<path d="M216.855 127.175L191.347 120.755C189.678 120.335 187.99 121.341 187.579 123.001L179.941 153.852C179.53 155.512 180.55 157.2 182.22 157.62L207.728 164.04C209.397 164.46 211.085 163.455 211.496 161.794L219.134 130.944C219.545 129.283 218.525 127.596 216.855 127.175ZM206.193 157.265L186.733 152.367L192.882 127.53L212.342 132.429L206.193 157.265Z" fill="black"/>
</svg>
