<svg width="246" height="247" viewBox="0 0 246 247" fill="none" xmlns="http://www.w3.org/2000/svg">
<path d="M212.479 199.396L83.4742 234.053C67.2002 238.425 50.5492 228.862 46.283 212.694L12.4591 84.5076C8.19282 68.3393 17.9269 51.6883 34.2009 47.3164L163.206 12.6597C179.48 8.2878 196.131 17.8505 200.397 34.0188L234.221 162.205C238.487 178.373 228.753 195.024 212.479 199.396Z" fill="#DCEAFF"/>
<path d="M92.1278 92.5249C94.3266 98.9272 101.032 102.772 107.712 101.462C109.826 101.047 111.72 100.185 113.325 98.9999C114.822 97.8943 116.954 98.6454 117.426 100.433L123.415 123.144L100.597 129.277C98.8 129.76 98.0326 131.895 99.1337 133.38C100.317 134.976 101.173 136.866 101.575 138.977C102.846 145.636 98.9395 152.358 92.4981 154.591C84.8339 157.247 76.7021 152.852 74.6824 145.194C74.2255 143.461 74.1219 141.717 74.3273 140.038C74.5519 138.202 72.828 136.741 71.0352 137.222L48.218 143.355L32.7965 84.8811C30.4076 75.8229 35.846 66.5024 44.9403 64.0581L103.67 48.2727L109.659 70.9828C110.13 72.7668 108.655 74.4951 106.816 74.2862C105.141 74.0964 103.4 74.2124 101.668 74.6781C93.9707 76.7469 89.5072 84.894 92.1278 92.5249Z" fill="#FE9C83"/>
<path d="M182.827 44.7085L198.227 103.101L175.364 109.246C173.566 109.73 171.825 108.254 172.077 106.414C172.315 104.676 172.222 102.867 171.748 101.072C169.817 93.7502 162.29 89.4137 154.933 91.3912C147.576 93.3685 143.178 100.91 145.108 108.232C145.582 110.027 146.392 111.644 147.454 113.032C148.578 114.501 147.796 116.656 145.997 117.14L123.134 123.285L117.153 100.606C116.682 98.8205 114.552 98.0706 113.058 99.1745C111.455 100.359 109.563 101.219 107.453 101.633C100.782 102.942 94.0862 99.1022 91.8903 92.7085C89.2732 85.0879 93.731 76.9524 101.417 74.8866C103.147 74.4215 104.885 74.3057 106.558 74.4953C108.394 74.7039 109.867 72.978 109.397 71.1965L103.416 48.518L162.064 32.7547C171.145 30.3137 180.441 35.6629 182.827 44.7085Z" fill="#A4CCFF"/>
<path d="M155.403 155.891C156.683 162.558 152.758 169.289 146.303 171.508C144.241 172.217 142.145 172.415 140.145 172.177C138.301 171.957 136.812 173.682 137.284 175.473L143.275 198.188L84.6271 213.951C75.5454 216.392 66.2492 211.043 63.8637 201.998L48.4644 143.608L71.2508 137.484C73.0453 137.002 74.7603 138.467 74.5368 140.305C74.2964 142.281 74.4845 144.347 75.174 146.378C77.3482 152.784 84.0381 156.649 90.7168 155.356C98.667 153.818 103.55 145.933 101.532 138.284C101.076 136.554 100.308 134.991 99.3041 133.639C98.2061 132.161 98.981 130.031 100.771 129.549L123.557 123.425L129.546 146.135C130.017 147.919 132.155 148.684 133.64 147.57C135.016 146.537 136.609 145.744 138.371 145.271C146.036 143.211 153.89 148.004 155.403 155.891Z" fill="#FFC269"/>
<path d="M198.471 103.357L213.892 161.828C216.281 170.886 210.842 180.206 201.748 182.651L143.018 198.436L137.019 175.689C136.546 173.896 138.037 172.169 139.884 172.389C141.887 172.627 143.986 172.429 146.05 171.719C152.515 169.497 156.445 162.756 155.164 156.08C153.649 148.182 145.784 143.382 138.107 145.445C136.343 145.919 134.748 146.714 133.37 147.747C131.883 148.863 129.742 148.097 129.271 146.311L123.273 123.569L146.168 117.415C147.969 116.931 148.753 114.774 147.626 113.302C146.563 111.912 145.752 110.293 145.278 108.495C143.344 101.164 147.748 93.6112 155.116 91.631C162.483 89.6509 170.021 93.9933 171.955 101.325C172.429 103.123 172.522 104.935 172.284 106.674C172.032 108.516 173.775 109.995 175.576 109.511L198.471 103.357L198.471 103.357Z" fill="#A09EEF"/>
<path d="M162.389 9.82151L33.4442 44.4172C15.6404 49.194 4.96177 67.4836 9.6395 85.1884L43.5232 213.435C48.201 231.14 66.4906 241.658 84.2944 236.881L213.239 202.285C231.043 197.508 241.721 179.219 237.044 161.514L203.16 33.267C198.482 15.5622 180.192 5.04476 162.389 9.82151ZM231.373 163.035C235.23 177.63 226.426 192.709 211.749 196.646L82.8046 231.242C68.1274 235.18 53.0495 226.509 49.1934 211.914L15.3096 83.6671C11.4534 69.0718 20.2566 53.9937 34.9339 50.0558L163.878 15.4601C178.556 11.5222 193.634 20.193 197.49 34.7883L231.373 163.035Z" fill="black"/>
<path d="M161.461 29.9255L44.1703 61.3947C33.5391 64.247 27.1683 75.1881 29.9677 85.7838L38.3856 117.645C38.797 119.202 40.3998 120.123 41.9655 119.703C43.5312 119.283 44.4672 117.681 44.0557 116.123L35.6379 84.2625C33.6598 76.7755 38.1558 69.0467 45.66 67.0333L101.471 52.0593L106.618 71.5438C104.681 71.3764 102.739 71.5493 100.838 72.0594C96.3714 73.2577 92.5564 76.2815 90.3708 80.3552C88.1477 84.4986 87.7655 89.2297 89.2944 93.6771C89.6283 94.6483 90.0474 95.5712 90.5411 96.4395C93.9962 102.516 101.101 105.915 108.188 104.528C109.251 104.32 110.275 104.013 111.259 103.619C112.441 103.146 113.564 102.545 114.615 101.81L119.764 121.295L99.8134 126.648C97.6538 127.227 96.0062 129.097 95.7063 131.302C95.5578 132.394 95.7442 133.52 96.2377 134.502C96.7153 135.453 97.4192 136.257 97.8675 137.234C99.5991 141.004 98.9673 145.543 96.2862 148.738C93.6596 151.869 89.3502 153.288 85.3903 152.314C81.4459 151.343 78.3652 148.195 77.4417 144.263C77.1992 143.23 77.1198 142.162 77.1863 141.102C77.2565 139.981 77.3247 138.969 76.9094 137.897C76.1039 135.817 74.1141 134.48 71.8979 134.382C71.3614 134.359 70.8124 134.429 70.2934 134.568L50.3432 139.921L47.3709 128.671C46.9595 127.114 45.3567 126.192 43.791 126.612C42.2253 127.032 41.2893 128.635 41.7008 130.192L60.867 202.735C63.6665 213.331 74.5929 219.63 85.2237 216.778L202.515 185.309C213.146 182.457 219.517 171.516 216.717 160.92L213.555 148.952C213.144 147.394 211.541 146.473 209.975 146.893C208.41 147.313 207.474 148.916 207.885 150.473L211.047 162.441C213.025 169.928 208.529 177.657 201.025 179.67L145.215 194.644L140.058 175.126C142.425 175.346 144.782 175.059 147.07 174.275C154.919 171.579 159.661 163.43 158.1 155.318C157.214 150.712 154.541 146.818 150.573 144.353C146.673 141.93 141.884 141.225 137.432 142.419C135.498 142.938 133.7 143.781 132.079 144.927L126.923 125.412L146.95 120.039C148.755 119.555 150.197 118.212 150.808 116.447C151.413 114.699 151.109 112.785 149.995 111.329C149.349 110.484 148.837 109.556 148.467 108.559C148.343 108.226 148.236 107.887 148.144 107.54C146.62 101.772 150.084 95.8175 155.866 94.2661C161.647 92.7153 167.589 96.1458 169.113 101.914C169.479 103.301 169.568 104.719 169.377 106.128C169.129 107.95 169.809 109.762 171.197 110.976C172.598 112.201 174.512 112.644 176.316 112.16L196.343 106.787L205.211 140.349C205.622 141.907 207.225 142.828 208.791 142.408C210.357 141.988 211.292 140.386 210.881 138.828L185.819 43.9691C183.019 33.3735 172.093 27.0732 161.461 29.9255ZM138.922 148.058C141.851 147.272 144.879 147.718 147.447 149.314C150.026 150.916 151.765 153.452 152.342 156.453C153.355 161.719 150.281 167.007 145.193 168.754C143.607 169.301 141.976 169.475 140.343 169.279C138.516 169.06 136.699 169.759 135.481 171.149C134.256 172.548 133.807 174.45 134.279 176.237L139.544 196.166L83.7339 211.14C76.2293 213.153 68.5152 208.7 66.5371 201.213L51.8329 145.559L71.3707 140.317C70.9726 144.582 72.2683 148.932 74.9556 152.257C77.617 155.55 81.5018 157.768 85.7248 158.327C89.7067 158.853 93.8598 157.884 97.2162 155.66C100.698 153.353 103.232 149.733 104.217 145.693C105.348 141.054 104.454 136.079 101.715 132.176L121.253 126.934L126.517 146.857C126.99 148.648 128.323 150.076 130.081 150.677C131.819 151.271 133.734 150.967 135.201 149.864C136.314 149.03 137.565 148.422 138.922 148.058ZM175.242 106.41C175.46 104.393 175.305 102.371 174.783 100.393C172.438 91.5161 163.283 86.2383 154.377 88.6279C145.468 91.0181 140.129 100.185 142.474 109.061C142.997 111.039 143.86 112.871 145.044 114.512L125.433 119.774L120.178 99.8815C119.707 98.1012 118.385 96.6782 116.641 96.0753C114.907 95.4755 112.988 95.7705 111.508 96.8644C110.203 97.8289 108.718 98.4789 107.094 98.797C101.843 99.8246 96.5758 96.7957 94.842 91.7519C94.7175 91.3896 94.6122 91.0246 94.5265 90.6575C93.9257 88.0894 94.273 85.4372 95.537 83.0812C96.9765 80.3985 99.3879 78.4863 102.327 77.6976C103.659 77.3403 105.019 77.2374 106.37 77.3918C108.189 77.5999 109.996 76.8966 111.203 75.5098C112.421 74.1111 112.867 72.212 112.397 70.4298L107.141 50.5379L162.952 35.564C170.456 33.5505 178.17 38.0034 180.148 45.4904L194.854 101.148L175.242 106.41Z" fill="black"/>
</svg>
