<svg width="263" height="263" viewBox="0 0 263 263" fill="none" xmlns="http://www.w3.org/2000/svg">
<path d="M111.701 190.601C144.6 201.263 179.913 183.236 190.575 150.338C201.237 117.439 183.21 82.1266 150.312 71.4646C117.413 60.8027 82.1004 78.829 71.4384 111.727C60.7765 144.626 78.8028 179.939 111.701 190.601Z" fill="#F9DA41" stroke="black" stroke-width="3"/>
<path d="M81.9487 115.448C91.7538 85.1935 123.097 67.9361 153.512 75.1388C120.637 61.4586 83.3849 78.8202 72.5061 112.388C61.6217 145.973 81.6309 181.872 116.264 190.071C87.4054 178.065 72.1436 145.703 81.9487 115.448Z" fill="#F2D422"/>
<path d="M179.388 146.713C170.727 173.435 142.044 188.077 115.321 179.417C88.5987 170.757 73.9565 142.073 82.6169 115.35C91.2773 88.6278 119.961 73.9855 146.683 82.6459C173.406 91.3063 188.048 119.99 179.388 146.713Z" fill="#FFA92C" stroke="black" stroke-width="3"/>
<path d="M98.6036 115.303C104.169 98.1297 118.281 86.1145 134.707 82.4308C112.381 80.4913 90.8618 94.0835 83.6579 116.312C71.8939 152.611 104.229 187.832 141.216 179.538C109.585 176.788 88.8662 145.349 98.6036 115.303Z" fill="#F48119"/>
<path d="M123.423 132.177C122.716 134.256 120.535 135.444 118.552 134.831L98.2514 128.554C96.2683 127.94 95.2333 125.758 95.9406 123.68L100.565 110.089C101.272 108.011 103.453 106.822 105.437 107.436L125.737 113.713C127.72 114.326 128.755 116.509 128.047 118.587L123.423 132.177Z" fill="#585A60" stroke="black" stroke-width="3"/>
<path d="M163.634 145.21C162.927 147.288 160.746 148.476 158.763 147.863L138.462 141.586C136.479 140.972 135.444 138.791 136.152 136.712L140.775 123.121C141.483 121.043 143.664 119.854 145.648 120.468L165.948 126.745C167.931 127.358 168.965 129.541 168.258 131.619L163.634 145.21Z" fill="#585A60" stroke="black" stroke-width="3"/>
<path d="M104.571 124.995L108.39 113.746C108.975 112.025 110.776 111.041 112.414 111.549L105.137 109.294C103.499 108.787 101.697 109.77 101.113 111.491L97.2934 122.74C96.7091 124.461 97.5636 126.267 99.2018 126.775L106.479 129.03C104.841 128.522 103.987 126.716 104.571 124.995Z" fill="#414356"/>
<path d="M145.185 138.011L149.019 126.72C149.605 124.994 151.413 124.006 153.057 124.516L145.753 122.253C144.109 121.743 142.301 122.73 141.715 124.457L137.881 135.748C137.295 137.475 138.152 139.287 139.796 139.797L147.1 142.06C145.456 141.55 144.599 139.738 145.185 138.011Z" fill="#414356"/>
<path d="M137.27 132.507L125.07 128.553C123.479 128.037 122.607 126.33 123.123 124.739C123.638 123.148 125.346 122.276 126.937 122.792L139.137 126.746C140.728 127.262 141.6 128.969 141.084 130.56C140.569 132.151 138.861 133.023 137.27 132.507Z" fill="#585A60" stroke="black" stroke-width="3"/>
<path d="M153.627 60.6903C150.828 59.8191 149.368 56.7196 150.367 53.7669L155.282 39.2263C156.28 36.2735 159.358 34.586 162.157 35.4573C164.956 36.3284 166.416 39.4279 165.418 42.3811L160.502 56.922C159.504 59.8743 156.426 61.5614 153.627 60.6903Z" fill="#F2D422" stroke="black" stroke-width="3"/>
<path d="M99.8577 226.61C97.0587 225.739 95.5988 222.639 96.597 219.687L101.513 205.146C102.511 202.193 105.589 200.506 108.388 201.377C111.187 202.248 112.647 205.348 111.648 208.3L106.733 222.841C105.734 225.794 102.656 227.481 99.8577 226.61Z" fill="#F2D422" stroke="black" stroke-width="3"/>
<path d="M96.8975 65.0458C94.1632 66.5343 90.8951 65.5243 89.5982 62.7899L83.211 49.3229C81.9141 46.5885 83.0795 43.1651 85.8139 41.6766C88.5484 40.1877 91.8165 41.1977 93.1132 43.9324L99.5004 57.3995C100.797 60.1339 99.6324 63.557 96.8975 65.0458Z" fill="#F2D422" stroke="black" stroke-width="3"/>
<path d="M176.198 220.391C173.464 221.88 170.196 220.869 168.899 218.136L162.512 204.668C161.215 201.933 162.38 198.51 165.115 197.021C167.849 195.533 171.117 196.543 172.414 199.277L178.801 212.745C180.098 215.479 178.933 218.903 176.198 220.391Z" fill="#F2D422" stroke="black" stroke-width="3"/>
<path d="M60.3758 107.978C59.3468 111.016 56.1732 112.754 53.2875 111.857L39.076 107.442C36.1907 106.545 34.6854 103.355 35.7146 100.317C36.7436 97.2782 39.9171 95.5407 42.803 96.4373L57.0143 100.853C59.8999 101.75 61.4047 104.94 60.3758 107.978Z" fill="#F2D422" stroke="black" stroke-width="3"/>
<path d="M226.298 161.751C225.269 164.789 222.095 166.526 219.21 165.63L204.998 161.214C202.113 160.318 200.607 157.128 201.637 154.089C202.666 151.05 205.839 149.313 208.725 150.21L222.937 154.625C225.821 155.522 227.327 158.713 226.298 161.751Z" fill="#F2D422" stroke="black" stroke-width="3"/>
<path d="M65.0175 164.323C66.3141 167.058 65.1487 170.482 62.4145 171.969L48.9474 179.301C46.2126 180.789 42.9449 179.779 41.648 177.045C40.3509 174.31 41.5159 170.886 44.2507 169.398L57.718 162.066C60.4521 160.578 63.7201 161.588 65.0175 164.323Z" fill="#F2D422" stroke="black" stroke-width="3"/>
<path d="M220.365 85.0232C221.662 87.7575 220.496 91.1808 217.762 92.6696L204.294 100.001C201.56 101.489 198.292 100.479 196.995 97.7449C195.698 95.0101 196.864 91.5864 199.598 90.0982L213.066 82.7668C215.799 81.2786 219.068 82.2884 220.365 85.0232Z" fill="#F2D422" stroke="black" stroke-width="3"/>
<path d="M135.42 155.914C131.047 157.767 126.636 158.066 122.661 156.778C118.687 155.49 115.289 152.66 112.834 148.595C111.97 147.163 110.109 146.703 108.677 147.567C107.245 148.431 106.785 150.293 107.649 151.725C110.868 157.056 115.413 160.795 120.793 162.539C126.174 164.282 132.049 163.92 137.782 161.49C139.322 160.838 140.041 159.061 139.389 157.52C138.738 155.982 136.96 155.263 135.42 155.914Z" fill="black"/>
</svg>
