<svg width="81" height="81" viewBox="0 0 81 81" fill="none" xmlns="http://www.w3.org/2000/svg">
<g clip-path="url(#clip0_32_555)">
<path d="M39.2521 78.218C60.0826 78.218 76.9691 61.3315 76.9691 40.501C76.9691 19.6705 60.0826 2.78406 39.2521 2.78406C18.4216 2.78406 1.53516 19.6705 1.53516 40.501C1.53516 61.3315 18.4216 78.218 39.2521 78.218Z" fill="#FFDB6C"/>
<path d="M47.3344 72.6487C26.504 72.6487 9.6178 55.7625 9.6178 34.9321C9.6178 23.8032 14.4388 13.8015 22.1052 6.89783C9.89434 13.1412 1.53516 25.8443 1.53516 40.5C1.53516 61.3305 18.4214 78.2167 39.2518 78.2167C48.9533 78.2167 57.7982 74.5527 64.4812 68.5344C59.3369 71.1647 53.509 72.6487 47.3344 72.6487Z" fill="#FFB04C"/>
<path d="M23.0445 41.0408C20.2435 41.0408 17.9727 43.3115 17.9727 46.1123H28.1161C28.1162 43.3113 25.8455 41.0408 23.0445 41.0408Z" fill="#F9A880"/>
<path d="M67.2828 41.0408C64.4818 41.0408 62.2109 43.3115 62.2109 46.1123H72.3543C72.3545 43.3113 70.0838 41.0408 67.2828 41.0408Z" fill="#F9A880"/>
<path d="M17.5391 20.0877C27.3873 17.8274 35.3596 18.6053 44.1907 20.6634C45.5002 20.9684 46.8837 21.3087 48.3446 21.3533C50.7777 21.4278 53.5129 20.8222 55.8711 20.2297C65.1814 17.891 72.4544 19.1074 79.463 20.605L78.9452 24.7468C77.851 24.771 77.5069 25.2812 77.1943 26.2771C75.5585 31.4891 76.9516 40.4569 64.8581 39.4025C56.902 38.7087 54.6235 36.5289 50.8317 26.9445C50.5091 26.1293 50.2993 24.782 48.4569 24.8319C47.4165 24.8599 46.4861 25.0439 46.1617 26.8514C45.5568 30.2192 40.9578 39.3697 31.6203 39.3598C23.3728 39.3509 20.2266 35.0699 19.8511 25.6368C19.8044 24.4656 18.7838 24.2432 18.1714 24.2294L17.5391 20.0877Z" fill="#56586F"/>
<path d="M31.8416 18.7841L26.082 38.4259C27.5978 39.0495 29.4274 39.3574 31.6214 39.3596C31.66 39.3596 31.6981 39.3582 31.7367 39.358L37.5966 19.3742C35.6803 19.0843 33.7719 18.8815 31.8416 18.7841Z" fill="#737891"/>
<path d="M67.6576 18.9432C65.7408 18.8818 63.751 18.9432 61.6613 19.1766L56.5195 36.7114C57.9256 37.8922 59.5857 38.5781 61.7773 38.997L67.6576 18.9432Z" fill="#737891"/>
<path d="M50.1902 61.796C47.6354 61.796 45.1092 60.9238 43.0693 59.2514C42.414 58.7141 42.3185 57.7474 42.8557 57.0921C43.393 56.4366 44.3598 56.3412 45.0154 56.8785C47.3009 58.7529 50.4266 59.2436 53.1733 58.1606C55.8495 57.1047 57.821 54.585 58.3184 51.5848C58.4573 50.7489 59.2471 50.1835 60.0832 50.3222C60.9193 50.461 61.4846 51.251 61.3461 52.087C60.673 56.1449 57.9729 59.5661 54.2994 61.0152C52.97 61.5393 51.5758 61.796 50.1902 61.796Z" fill="#7F184C"/>
<path d="M79.7864 19.1044C72.4589 17.5387 65.0877 16.333 55.5 18.7416C53.1121 19.3416 50.5954 19.8874 48.394 19.8198C47.1641 19.7822 45.938 19.4958 44.7521 19.2185L44.5414 19.1691C36.8475 17.3759 28.2097 16.065 17.1984 18.5921C16.4154 18.7717 15.9036 19.5251 16.0248 20.3193L16.6576 24.461C16.7701 25.1975 17.3953 25.7466 18.14 25.7632C18.2151 25.7648 18.2767 25.7724 18.324 25.7814C18.5415 31.0028 19.5849 34.5725 21.6048 37.0109C23.7654 39.6187 27.0418 40.8889 31.6214 40.8937C31.627 40.8937 31.6326 40.8937 31.6386 40.8937C37.2697 40.8937 41.0979 37.9005 43.3185 35.388C45.8083 32.5706 47.3005 29.2064 47.6746 27.1223C47.7726 26.5769 47.9086 26.4418 47.9091 26.4413C47.9314 26.4267 48.0404 26.378 48.5016 26.3657C48.9768 26.353 48.9969 26.3522 49.269 27.129C49.3158 27.2624 49.3611 27.3902 49.4081 27.5092C51.2586 32.1865 52.8832 35.5143 55.2615 37.6492C57.7766 39.9073 60.8647 40.5942 64.7279 40.931C65.4242 40.9918 66.0907 41.0223 66.7279 41.0223C70.5639 41.0223 73.3387 39.9188 75.1749 37.6735C75.2218 37.6162 75.2642 37.5567 75.3091 37.4985C75.3912 38.4955 75.4333 39.4971 75.4333 40.5001C75.4333 60.4512 59.202 76.6825 39.2512 76.6825C19.3004 76.6825 3.06868 60.4509 3.06868 40.5001C3.06868 20.5493 19.3001 4.31771 39.2511 4.31771C47.2449 4.31771 54.8215 6.87175 61.1618 11.7039C61.8358 12.2178 62.7988 12.0876 63.3122 11.4138C63.8258 10.7398 63.696 9.77717 63.0219 9.26348C56.1427 4.02028 47.9227 1.24902 39.2511 1.24902C17.6078 1.24902 0 18.8568 0 40.5001C0 62.1433 17.6078 79.7511 39.2511 79.7511C60.894 79.7511 78.502 62.1433 78.502 40.5001C78.502 37.6382 78.1892 34.7859 77.5785 32.0142C77.7299 31.3032 77.8549 30.5973 77.975 29.9151C78.1794 28.7537 78.3722 27.6568 78.6611 26.7363C78.7391 26.4879 78.795 26.3574 78.8285 26.2916C78.8633 26.2869 78.9134 26.2823 78.9818 26.2807C79.7426 26.2638 80.3759 25.6922 80.4703 24.9372L80.9881 20.7955C81.0872 20.0051 80.5651 19.2708 79.7864 19.1044ZM77.5595 23.4835C76.2963 24.023 75.9186 25.2267 75.7332 25.8176C75.3844 26.9284 75.1748 28.1208 74.9525 29.3836C74.819 30.1426 74.688 30.8855 74.5321 31.5973C74.5176 31.6489 74.5057 31.7014 74.4965 31.7546C73.6272 35.6016 71.9552 38.4819 64.994 37.8741C57.7837 37.2453 55.8797 35.5266 52.2611 26.3804C52.2284 26.2975 52.1974 26.2079 52.1648 26.1147C51.8674 25.2653 51.1779 23.2962 48.5629 23.2962C48.5155 23.2962 48.4671 23.2968 48.4183 23.2982C47.5459 23.3218 45.2282 23.3841 44.6542 26.5802C44.1364 29.4639 39.9279 37.8255 31.638 37.8255C31.6338 37.8255 31.6288 37.8255 31.6247 37.8255C24.517 37.8177 21.7423 34.4977 21.387 25.5759C21.3379 24.3376 20.6323 23.3834 19.5312 22.95L19.2765 21.2829C29.0268 19.3093 36.8403 20.5256 43.8453 22.1579L44.0541 22.2066C45.3244 22.5037 46.7642 22.8402 48.3005 22.8872C50.8789 22.9659 53.6453 22.372 56.2482 21.7181C64.6077 19.6181 71.2564 20.482 77.7685 21.817L77.5595 23.4835Z" fill="black"/>
<path d="M50.1904 61.7959C51.5758 61.7959 52.97 61.5393 54.2994 61.0148C57.9729 59.5659 60.673 56.1445 61.3461 52.0866C61.4846 51.2507 60.9193 50.4606 60.0832 50.3218C59.2471 50.1831 58.4573 50.7487 58.3184 51.5845C57.8209 54.5846 55.8495 57.1044 53.1733 58.1602C50.4266 59.2433 47.3009 58.7525 45.0154 56.8781C44.3599 56.3409 43.393 56.4364 42.8557 57.0917C42.3185 57.747 42.414 58.7138 43.0693 59.251C45.1095 60.9237 47.6357 61.7959 50.1904 61.7959Z" fill="black"/>
<path d="M66.0149 15.3599C66.8623 15.3599 67.5493 14.6729 67.5493 13.8255C67.5493 12.978 66.8623 12.291 66.0149 12.291C65.1675 12.291 64.4805 12.978 64.4805 13.8255C64.4805 14.6729 65.1675 15.3599 66.0149 15.3599Z" fill="black"/>
</g>
<defs>
<clipPath id="clip0_32_555">
<rect width="81" height="81" fill="white"/>
</clipPath>
</defs>
</svg>
