<svg width="77" height="79" viewBox="0 0 77 79" fill="none" xmlns="http://www.w3.org/2000/svg">
<path d="M42.803 13.0072C42.803 22.2033 40.8769 34.4456 38.5011 34.4456C36.1253 34.4456 34.1992 22.2033 34.1992 13.0072C34.1992 3.81107 36.1251 1.14343 38.5011 1.14343C40.8771 1.14343 42.803 3.81092 42.803 13.0072Z" fill="#F6F8F9"/>
<path d="M42.8038 13.0066C42.8038 22.2031 40.8767 34.4459 38.5013 34.4459C37.7176 34.4459 36.9843 33.1149 36.3516 31.0002C37.6368 26.7023 38.5013 19.1706 38.5013 13.0066C38.5013 6.84402 37.6368 3.61333 36.3516 2.15274C36.9843 1.43311 37.7176 1.14343 38.5013 1.14343C40.8767 1.14343 42.8038 3.81153 42.8038 13.0066Z" fill="#E8EDF1"/>
<path d="M33.6423 13.1053C36.7876 21.7469 39.1648 33.9096 36.9322 34.7222C34.6995 35.5348 28.7025 24.6895 25.5572 16.0479C22.4119 7.40636 23.3095 4.24092 25.5421 3.42845C27.7748 2.61582 30.497 4.46367 33.6423 13.1053Z" fill="#DAE3E9"/>
<path d="M36.9327 34.7218C36.1536 35.0054 34.9172 33.8695 33.5023 31.9028C33.4002 27.5256 31.563 19.6661 29.3416 13.563C27.4709 8.42197 25.7496 5.68527 24.1914 4.48233C24.5375 3.96244 25.001 3.62549 25.5438 3.42882C27.7758 2.61619 30.4988 4.46404 33.6441 13.1056C36.7894 21.7472 39.1663 33.9092 36.9327 34.7218Z" fill="#C5D3DD"/>
<path d="M25.0661 16.3303C30.9773 23.375 37.3711 33.9911 35.551 35.5183C33.7309 37.0455 24.3863 28.9054 18.4752 21.8607C12.564 14.816 12.3248 11.5347 14.1448 10.0075C15.9647 8.48027 19.155 9.28573 25.0661 16.3303Z" fill="#F6F8F9"/>
<path d="M35.5527 35.5177C35.013 35.9705 33.8116 35.5741 32.2336 34.6059C30.6511 30.5306 26.2251 23.7567 22.0415 18.7696C17.9113 13.8466 15.109 11.9698 13.1758 11.8082C13.2703 11.0306 13.624 10.4467 14.147 10.0076C15.9658 8.47991 19.1569 9.28491 25.0679 16.3302C30.9789 23.3755 37.3731 33.9915 35.5527 35.5177Z" fill="#E8EDF1"/>
<path d="M18.1137 22.2932C26.0778 26.8913 35.7169 34.6805 34.5289 36.7379C33.3409 38.7956 21.7757 34.3424 13.8117 29.7443C5.84762 25.1462 4.50046 22.1445 5.68845 20.0869C6.87644 18.0292 10.1497 17.695 18.1137 22.2932Z" fill="#DAE3E9"/>
<path d="M34.5308 36.7374C34.1618 37.3763 32.7896 37.3885 30.8366 36.9616C28.5039 33.7233 21.2894 28.2102 15.0887 24.6304C10.3898 21.9181 7.32376 20.9225 5.35547 20.985C5.41188 20.6663 5.52775 20.3675 5.68936 20.087C6.87705 18.0287 10.1504 17.6948 18.1151 22.2931C26.0797 26.8914 35.7184 34.6807 34.5308 36.7374Z" fill="#C5D3DD"/>
<path d="M13.6207 30.2752C22.6771 31.872 34.3989 35.8946 33.9863 38.2345C33.5738 40.5743 21.183 40.3452 12.1265 38.7483C3.07008 37.1514 0.777496 34.7914 1.19006 32.4516C1.60263 30.1117 4.56437 28.6783 13.6207 30.2752Z" fill="#F6F8F9"/>
<path d="M33.9839 38.2347C33.833 39.0885 32.0842 39.6007 29.4832 39.8279C29.1417 37.4617 17.8793 33.644 9.11417 32.0981C5.87281 31.5263 3.41359 31.3434 1.57031 31.4501C2.64822 29.744 5.94599 28.9223 13.6194 30.2746C22.6757 31.8724 34.3971 35.8944 33.9839 38.2347Z" fill="#E8EDF1"/>
<path d="M12.1264 39.3128C21.1828 37.7159 33.5737 37.4869 33.9862 39.8266C34.3988 42.1663 22.677 46.189 13.6205 47.7859C4.56409 49.3828 1.60266 47.9492 1.19009 45.6094C0.777375 43.2697 3.06996 40.9097 12.1264 39.3128Z" fill="#DAE3E9"/>
<path d="M13.6209 47.7865C5.31169 49.2517 2.13284 48.1662 1.34766 46.1689C3.2138 46.3046 5.74163 46.1308 9.11564 45.5362C17.3867 44.0771 27.8823 40.5949 29.3261 38.2195C32.014 38.439 33.8314 38.9544 33.9854 39.8264C34.3985 42.1667 22.6772 46.1887 13.6209 47.7865Z" fill="#C5D3DD"/>
<path d="M13.8117 48.3166C21.7757 43.7184 33.3409 39.2653 34.5289 41.3229C35.7169 43.3806 26.0778 51.1697 18.1137 55.7677C10.1497 60.3658 6.87644 60.0315 5.68845 57.974C4.50046 55.9165 5.84762 52.9147 13.8117 48.3166Z" fill="#F6F8F9"/>
<path d="M18.1132 55.7679C10.1486 60.3662 6.87521 60.0323 5.68753 57.9741C5.61587 57.849 5.55184 57.7194 5.5 57.5883C7.4622 57.352 10.2675 56.2863 14.2422 53.9917C20.728 50.2472 28.3222 44.3881 30.2798 41.2291C32.5271 40.6772 34.1249 40.6253 34.5289 41.3236C35.7166 43.3803 26.0779 51.1696 18.1132 55.7679Z" fill="#E8EDF1"/>
<path d="M18.4752 56.2002C24.3863 49.1555 33.7311 41.0155 35.551 42.5426C37.3711 44.0698 30.9773 54.6859 25.0661 61.7306C19.155 68.7753 15.9649 69.5806 14.1448 68.0534C12.3248 66.5263 12.564 63.2449 18.4752 56.2002Z" fill="#DAE3E9"/>
<path d="M25.0678 61.7307C19.1568 68.7761 15.9658 69.5811 14.1469 68.0534C13.6666 67.6493 13.3297 67.1249 13.2031 66.4403C15.1348 66.2619 17.931 64.3805 22.0414 59.4804C26.3104 54.3927 30.8309 47.4419 32.3265 43.3986C33.8588 42.4716 35.0236 42.0996 35.5526 42.5433C37.3731 44.0695 30.9788 54.6854 25.0678 61.7307Z" fill="#C5D3DD"/>
<path d="M25.5572 62.013C28.7025 53.3714 34.6995 42.5263 36.9322 43.3387C39.1648 44.1514 36.7876 56.3141 33.6423 64.9557C30.497 73.5973 27.7748 75.4451 25.5421 74.6325C23.3095 73.82 22.4119 70.6546 25.5572 62.013Z" fill="#F6F8F9"/>
<path d="M33.642 64.9553C30.4967 73.5969 27.7737 75.4447 25.5417 74.6321C24.9532 74.4186 24.4577 74.0405 24.1055 73.4429C25.7963 72.4747 27.6914 69.7319 29.771 64.0161C32.0091 57.8657 33.8585 49.9301 33.9332 45.5742C35.1666 43.9718 36.2324 43.0845 36.9306 43.3391C39.1642 44.1517 36.7873 56.3137 33.642 64.9553Z" fill="#E8EDF1"/>
<path d="M34.1992 65.0538C34.1992 55.8577 36.1253 43.6154 38.5011 43.6154C40.8769 43.6154 42.803 55.8577 42.803 65.0538C42.803 74.2499 40.8772 76.9175 38.5013 76.9175C36.1253 76.9175 34.1992 74.25 34.1992 65.0538Z" fill="#DAE3E9"/>
<path d="M42.8038 65.0543C42.8038 74.2493 40.8767 76.9174 38.5013 76.9174C37.7176 76.9174 36.9843 76.6278 36.3516 75.9081C37.6368 74.4475 38.5013 71.2169 38.5013 65.0543C38.5013 58.8902 37.6368 51.3586 36.3516 47.0607C36.9843 44.946 37.7176 43.615 38.5013 43.615C40.8767 43.615 42.8038 55.8578 42.8038 65.0543Z" fill="#C5D3DD"/>
<path d="M43.3573 64.9557C40.212 56.3141 37.8348 44.1514 40.0674 43.3387C42.3001 42.5261 48.2971 53.3714 51.4424 62.013C54.5877 70.6546 53.6901 73.82 51.4575 74.6325C49.2248 75.4453 46.5026 73.5973 43.3573 64.9557Z" fill="#F6F8F9"/>
<path d="M51.457 74.6322C50.5529 74.9615 49.5679 74.8533 48.5068 74.0346C49.5862 72.4139 49.5207 69.0109 47.1407 62.4703C45.0932 56.8444 41.8366 50.2839 39.1959 46.6157C39.1532 44.7953 39.4124 43.5786 40.068 43.3392C42.3 42.5266 48.2964 53.3713 51.4417 62.0129C54.587 70.6545 53.6905 73.8196 51.457 74.6322Z" fill="#E8EDF1"/>
<path d="M51.9332 61.7308C46.022 54.6861 39.6282 44.0699 41.4483 42.5427C43.2684 41.0155 52.613 49.1556 58.5241 56.2003C64.4353 63.245 64.6745 66.5265 62.8545 68.0537C61.0344 69.5808 57.8443 68.7753 51.9332 61.7308Z" fill="#DAE3E9"/>
<path d="M62.8543 68.0533C62.3069 68.5137 61.633 68.7622 60.7991 68.6921C61.0415 66.7665 59.709 63.6578 55.4979 58.6402C51.3403 53.6852 45.4826 48.1874 41.7412 45.8943C41.0856 44.2111 40.9164 42.9899 41.4485 42.5432C43.2689 41.0155 52.6133 49.1555 58.5243 56.2008C64.4353 63.2446 64.6747 66.5271 62.8543 68.0533Z" fill="#C5D3DD"/>
<path d="M58.8862 55.7677C50.9222 51.1696 41.283 43.3804 42.471 41.3229C43.659 39.2653 55.2242 43.7184 63.1883 48.3166C71.1523 52.9147 72.4995 55.9164 71.3115 57.974C70.1235 60.0316 66.8503 60.3658 58.8862 55.7677Z" fill="#F6F8F9"/>
<path d="M71.3121 57.9739C70.8242 58.8185 69.9872 59.372 68.6196 59.4147C68.9825 57.4052 67.0401 54.6258 60.1625 50.6541C54.6723 47.4844 47.47 44.3833 43.137 43.4366C42.4753 42.5157 42.2085 41.7793 42.4707 41.3234C43.6599 39.2652 55.2242 43.7186 63.1889 48.3169C71.152 52.9152 72.4998 55.9156 71.3121 57.9739Z" fill="#E8EDF1"/>
<path d="M63.3802 47.786C54.3237 46.1891 42.6019 42.1665 43.0145 39.8267C43.4271 37.4868 55.8179 37.716 64.8743 39.3129C73.9308 40.9098 76.2233 43.2697 75.8108 45.6096C75.3981 47.9493 72.4365 49.3829 63.3802 47.786Z" fill="#DAE3E9"/>
<path d="M75.8094 45.6092C75.5441 47.111 74.2298 48.2407 70.9245 48.4343C71.1196 48.1264 71.2431 47.7894 71.3056 47.4327C71.7173 45.0939 69.4257 42.7338 60.3695 41.1359C54.6216 40.1221 47.5306 39.6601 43.0116 40.0565C43.0009 39.9788 43.0009 39.901 43.0146 39.8263C43.4263 37.4875 55.8169 37.7162 64.8732 39.3125C73.9295 40.9103 76.2225 43.2689 75.8094 45.6092Z" fill="#C5D3DD"/>
<path d="M64.8743 38.7481C55.8179 40.345 43.4271 40.574 43.0145 38.2343C42.6019 35.8946 54.3237 31.8719 63.3802 30.275C72.4366 28.6781 75.3981 30.1117 75.8106 32.4516C76.2232 34.7914 73.9308 37.1512 64.8743 38.7481Z" fill="#F6F8F9"/>
<path d="M64.8728 38.7484C55.8165 40.3447 43.4259 40.5734 43.0142 38.2346C42.9792 38.0319 43.0341 37.8169 43.1697 37.5913C47.6948 37.9633 54.6883 37.4998 60.3691 36.4981C69.4254 34.9003 71.7169 32.5402 71.3052 30.2014C71.2717 30.0078 71.2198 29.8218 71.1482 29.6418C74.2889 29.8721 75.5498 30.9835 75.809 32.4517C76.2221 34.792 73.9291 37.1506 64.8728 38.7484Z" fill="#E8EDF1"/>
<path d="M63.1883 29.7443C55.2242 34.3425 43.659 38.7956 42.471 36.7379C41.283 34.6803 50.9222 26.8911 58.8862 22.2932C66.8503 17.6952 70.1235 18.0294 71.3115 20.0869C72.4995 22.1445 71.1523 25.1462 63.1883 29.7443Z" fill="#DAE3E9"/>
<path d="M63.1896 29.744C55.2249 34.3422 43.6606 38.7957 42.4714 36.7374C42.2504 36.3563 42.4028 35.7769 42.848 35.0573C47.2222 33.9809 54.0571 31.0064 59.3186 27.9678C66.7999 23.6485 68.4419 20.738 67.6293 18.695C69.5991 18.4571 70.7182 19.0563 71.3128 20.087C72.5005 22.1452 71.1527 25.1457 63.1896 29.744Z" fill="#C5D3DD"/>
<path d="M58.5241 21.8607C52.613 28.9054 43.2682 37.0454 41.4483 35.5183C39.6283 33.9913 46.022 23.375 51.9331 16.3303C57.8443 9.2856 61.0344 8.48029 62.8545 10.0075C64.6746 11.5347 64.4352 14.816 58.5241 21.8607Z" fill="#F6F8F9"/>
<path d="M58.5245 21.86C52.6135 28.9054 43.2691 37.0453 41.4487 35.5177C40.9425 35.0938 41.0706 33.9686 41.6484 32.412C45.3853 30.154 51.3054 24.6074 55.4981 19.6097C59.8479 14.426 61.127 11.2791 60.7718 9.37029C61.6195 9.29406 62.301 9.54257 62.8544 10.0076C64.6749 11.5337 64.4355 14.8163 58.5245 21.86Z" fill="#E8EDF1"/>
<path d="M51.4442 16.0483C48.2989 24.6899 42.3026 35.5346 40.0705 34.7219C39.7747 34.6137 39.5613 34.3088 39.418 33.8376C41.214 31.4409 42.5938 22.4212 42.7813 14.7584C42.9704 14.1959 43.164 13.6439 43.3591 13.1058C46.5044 4.46416 49.2274 2.61631 51.4595 3.42894C53.6931 4.24156 54.5895 7.40669 51.4442 16.0483Z" fill="#DAE3E9"/>
<path d="M51.4442 16.0483C48.2989 24.6899 42.3026 35.5345 40.0705 34.7219C39.7747 34.6137 39.5613 34.3087 39.418 33.8376C40.1254 32.8924 40.7703 30.918 41.3009 28.4023C43.5436 24.6685 45.9434 19.593 47.5747 15.1091C49.8922 8.74378 50.0157 5.34996 49.0262 3.67896C49.8922 3.18346 50.7033 3.15449 51.4595 3.42893C53.6931 4.24155 54.5895 7.40668 51.4442 16.0483Z" fill="#C5D3DD"/>
<path d="M38.5 50.7493C44.9721 50.7493 50.2187 45.5026 50.2187 39.0305C50.2187 32.5584 44.9721 27.3118 38.5 27.3118C32.0279 27.3118 26.7812 32.5584 26.7812 39.0305C26.7812 45.5026 32.0279 50.7493 38.5 50.7493Z" fill="#FCB44D"/>
<path d="M50.2173 39.0304C50.2173 45.5025 44.9711 50.7487 38.499 50.7487C37.4531 50.7487 36.4377 50.6115 35.4727 50.3538C40.4765 49.0183 44.163 44.4551 44.163 39.0304C44.163 33.6058 40.4765 29.0426 35.4727 27.707C36.4377 27.4493 37.4531 27.3121 38.499 27.3121C44.9711 27.3121 50.2173 32.5584 50.2173 39.0304Z" fill="#FCA62F"/>
<path d="M74.5202 41.2256C73.2245 40.3776 71.4057 39.6521 69.0171 39.0305C71.4057 38.4089 73.2245 37.6832 74.5202 36.8353C76.9101 35.2714 77.1539 33.4802 76.9375 32.253C76.7212 31.0259 75.8794 29.4261 73.0987 28.7738C71.591 28.4203 69.6338 28.3604 67.1766 28.5932C69.2086 27.192 70.6693 25.8882 71.5971 24.6481C73.308 22.3611 72.9246 20.5945 72.3014 19.5152C71.6783 18.436 70.3392 17.2202 67.5042 17.5588C65.9665 17.7422 64.1069 18.3553 61.8774 19.4145C63.3077 17.4029 64.2345 15.6779 64.682 14.1955C65.5075 11.4612 64.5429 9.93249 63.5883 9.1313C62.6339 8.33041 60.9608 7.64586 58.4112 8.93371C57.0288 9.63199 55.4909 10.8442 53.7582 12.6023C54.4144 10.2226 54.6953 8.28498 54.609 6.73901C54.4499 3.88704 53.0201 2.78062 51.849 2.35448C50.6778 1.9282 48.8719 1.85715 46.9165 3.93918C45.8565 5.06802 44.8261 6.7326 43.7991 8.97686C43.6017 6.51672 43.2029 4.59965 42.593 3.17641C41.4678 0.551001 39.7461 0 38.5 0C37.2539 0 35.5321 0.551001 34.407 3.17626C33.797 4.59965 33.3981 6.51672 33.2007 8.97701C32.1737 6.73245 31.1432 5.06756 30.0831 3.93857C28.1278 1.85639 26.3216 1.92759 25.1505 2.35357C23.9796 2.77985 22.5502 3.88643 22.3908 6.73825C22.3043 8.28437 22.5852 10.2223 23.2412 12.6018C21.5085 10.8439 19.9707 9.63169 18.5885 8.93356C16.0393 7.64586 14.366 8.33026 13.4113 9.1313C12.4567 9.93219 11.4921 11.4611 12.3177 14.1954C12.7653 15.6779 13.692 17.4027 15.1223 19.4143C12.8928 18.355 11.0332 17.7419 9.49562 17.5587C6.65981 17.2205 5.32149 18.4358 4.69837 19.5151C4.07526 20.5944 3.69166 22.3608 5.40275 24.6479C6.33033 25.8879 7.79108 27.1919 9.8231 28.5929C7.36586 28.3601 5.40885 28.42 3.90114 28.7735C1.12038 29.4258 0.278781 31.0256 0.0622841 32.2527C-0.154061 33.4799 0.0897273 35.271 2.47958 36.835C3.77536 37.683 5.59409 38.4086 7.98273 39.0302C5.59409 39.6518 3.77536 40.3775 2.47958 41.2253C0.0898798 42.7896 -0.153908 44.5807 0.0624365 45.8081C0.278781 47.0352 1.12053 48.635 3.9013 49.2873C4.81181 49.5009 5.88484 49.6079 7.13336 49.6079C7.95269 49.6079 8.84795 49.5615 9.82173 49.4691C7.79062 50.8698 6.33033 52.1734 5.4029 53.4131C3.69197 55.7001 4.07556 57.4666 4.69868 58.5459C5.24937 59.4997 6.35839 60.5599 8.56681 60.5599C8.85695 60.5599 9.16645 60.5416 9.49592 60.5023C11.0337 60.3189 12.8932 59.7058 15.1227 58.6466C13.6925 60.6582 12.7656 62.3832 12.3182 63.8658C11.4926 66.6 12.4572 68.1288 13.4118 68.9298C13.9818 69.4082 14.8082 69.845 15.9244 69.845C16.6772 69.845 17.5621 69.6462 18.589 69.1275C19.9712 68.4293 21.5089 67.2172 23.2417 65.4593C22.5856 67.8388 22.3048 69.7766 22.3912 71.3227C22.5505 74.1745 23.9799 75.2811 25.151 75.7074C25.5349 75.8472 25.9871 75.9487 26.4905 75.9487C27.5224 75.9487 28.7694 75.522 30.0834 74.1225C31.1435 72.9937 32.174 71.3287 33.201 69.0841C33.3984 71.5444 33.7973 73.4615 34.4073 74.8848C35.5321 77.5099 37.2539 78.061 38.5 78.061C39.7461 78.061 41.4678 77.5099 42.593 74.8847C43.203 73.4613 43.6018 71.5442 43.7993 69.0839C44.8263 71.3285 45.8568 72.9934 46.9168 74.1224C48.2311 75.522 49.4778 75.9487 50.5098 75.9486C51.0131 75.9486 51.4656 75.8469 51.8495 75.7072C53.0204 75.2809 54.4497 74.1744 54.6092 71.3226C54.6956 69.7764 54.4148 67.8385 53.7588 65.459C55.4915 67.2169 57.0292 68.4291 58.4115 69.1272C59.4385 69.6459 60.323 69.8447 61.0761 69.8447C62.1921 69.8447 63.0186 69.4079 63.5886 68.9296C64.5432 68.1286 65.5079 66.5999 64.6823 63.8656C64.2346 62.383 63.308 60.6582 61.8777 58.6466C64.1072 59.706 65.9668 60.319 67.5044 60.5023C67.834 60.5416 68.143 60.5599 68.4335 60.5599C70.6416 60.5599 71.751 59.4997 72.3017 58.5459C72.9249 57.4666 73.3085 55.7001 71.5974 53.4131C70.6699 52.1734 69.2098 50.8698 67.1787 49.4693C68.1523 49.5615 69.0476 49.6079 69.8669 49.6079C71.1153 49.6079 72.1888 49.5009 73.099 49.2873C75.8797 48.635 76.7213 47.0352 76.9378 45.8081C77.1539 44.5807 76.9102 42.7896 74.5202 41.2256ZM62.0623 31.6827C62.5504 31.5859 63.1084 31.4842 63.5795 31.4011C67.635 30.6859 70.662 30.5511 72.5765 31.0003C74.4728 31.445 74.6273 32.3206 74.6853 32.6501C75.0391 34.6559 71.4845 36.4217 64.6766 37.622C60.4813 38.3618 55.4633 38.8126 51.3572 38.8257C51.3454 38.0825 51.2706 37.3548 51.1373 36.6469C54.5747 35.3938 58.5639 33.5783 62.0623 31.6827ZM38.5 49.6058C32.6687 49.6058 27.9247 44.8617 27.9247 39.0305C27.9247 33.1992 32.6687 28.4552 38.5 28.4552C44.3312 28.4552 49.0753 33.1992 49.0753 39.0305C49.0753 44.8617 44.3312 49.6058 38.5 49.6058ZM58.1532 24.0385C58.5398 23.8052 59.0838 23.4994 59.4575 23.2835C65.4446 19.827 69.3023 18.8947 70.3208 20.6587C71.3391 22.4226 68.6028 25.2977 62.6161 28.7542C58.9172 30.8897 54.3679 33.0221 50.5121 34.4395C50.2488 33.753 49.9292 33.0943 49.5572 32.47C50.0419 32.0631 50.54 31.6324 51.0452 31.182C51.5166 30.762 51.5583 30.039 51.1381 29.5676C50.718 29.096 49.9952 29.0547 49.5237 29.4747C49.0783 29.8714 48.6401 30.2509 48.212 30.6122C47.7333 30.0608 47.2108 29.5485 46.6461 29.085C48.4784 25.9083 50.3726 21.9411 51.8359 18.232C52.1262 17.8717 52.5224 17.4052 52.8079 17.0652C57.2515 11.7695 60.5578 9.57405 62.1183 10.8833C63.6784 12.1925 62.0906 15.8301 57.6469 21.1257C56.3105 22.7183 54.7447 24.4253 53.1184 26.0623C52.6734 26.5102 52.6757 27.2343 53.1238 27.6793C53.3468 27.9008 53.6382 28.0115 53.9297 28.0115C54.2235 28.0115 54.5174 27.8989 54.7409 27.674C55.9303 26.4768 57.0875 25.2427 58.1532 24.0385ZM48.5836 5.50482C49.917 4.08494 50.7523 4.38895 51.0669 4.50345C51.3814 4.61795 52.2169 4.92196 52.3255 6.86647C52.4351 8.82973 51.7764 11.7874 50.368 15.6572C48.9071 19.6709 46.7923 24.2301 44.7496 27.7944C44.1153 27.4403 43.4482 27.1387 42.754 26.8946C43.3907 23.2863 43.8107 18.9963 43.9182 14.9604C44.0797 14.4843 44.2523 13.9923 44.4319 13.4969C45.8403 9.62742 47.2372 6.93858 48.5836 5.50482ZM35.3364 14.4924C35.3285 14.0635 35.3416 13.4199 35.3416 13.0072C35.3416 6.09409 36.4632 2.28694 38.5 2.28694C40.5367 2.28694 41.6584 6.09409 41.6584 13.0071C41.6584 13.5643 41.6511 14.1429 41.6368 14.7267C41.6368 14.7279 41.6364 14.7291 41.6364 14.7303C41.5421 18.5849 41.1332 22.8424 40.5302 26.33C39.8685 26.2247 39.1908 26.1683 38.5 26.1683C38.4488 26.1683 38.3983 26.1715 38.3471 26.1721C37.707 22.5506 36.604 18.2815 35.3364 14.4924ZM27.1581 17.0844C26.99 16.6492 26.7843 16.0766 26.6315 15.6569C24.2671 9.16073 24.0191 5.19944 25.9329 4.50284C27.8474 3.80623 30.2031 7.00018 32.5675 13.4962C34.0284 17.5097 35.3381 22.3593 36.0644 26.4026C35.3387 26.5422 34.6347 26.7427 33.9577 26.9992C32.1241 23.8269 29.6356 20.2028 27.1581 17.0844ZM20.3238 22.2795C20.0258 21.9379 19.631 21.4572 19.3529 21.1257C16.706 17.9712 15.0758 15.4172 14.5072 13.5344C13.9443 11.6698 14.6252 11.0984 14.8817 10.8833C16.442 9.57421 19.7483 11.7695 24.1921 17.0652C26.934 20.3329 29.829 24.4491 31.8941 27.9993C31.2662 28.3768 30.6745 28.8077 30.1222 29.2834C27.3109 26.9261 23.7227 24.3645 20.3238 22.2795ZM15.699 29.508C15.2964 29.286 14.7664 28.9749 14.3839 28.754C8.39697 25.2975 5.66087 22.4226 6.67917 20.6586C7.69762 18.8946 11.5555 19.8267 17.5424 23.2834C21.2334 25.4143 25.3676 28.2957 28.5221 30.9254C28.0619 31.4907 27.6501 32.0963 27.29 32.7351C23.8459 31.4834 19.6021 30.3046 15.699 29.508ZM13.8036 37.8817C13.361 37.8123 12.7486 37.697 12.3235 37.622C5.51557 36.4215 1.96106 34.6559 2.31477 32.6501C2.37286 32.3204 2.5273 31.445 4.42363 31.0003C6.33811 30.551 9.36511 30.6859 13.4206 31.4011C17.6152 32.1407 22.485 33.434 26.3475 34.8254C26.1101 35.5093 25.9282 36.2188 25.8087 36.9494C22.0971 36.9481 17.765 37.288 13.8036 37.8817ZM18.8274 54.0438C18.4638 54.2627 17.8939 54.5745 17.5423 54.7776C13.976 56.8365 11.1777 57.9985 9.22499 58.2315C7.29054 58.4619 6.84642 57.6922 6.67917 57.4024C6.51192 57.1126 6.06734 56.3426 7.23413 54.7831C8.41221 53.2083 10.8178 51.3659 14.384 49.3071C16.0081 48.3694 17.7847 47.4359 19.6646 46.5327C20.2337 46.2592 20.4735 45.576 20.2 45.0069C19.9265 44.4376 19.2435 44.1981 18.6742 44.4714C17.3567 45.1044 16.089 45.7527 14.8841 46.4075C14.4671 46.4891 13.8301 46.5881 13.4208 46.6602C9.36526 47.3752 6.33826 47.51 4.42379 47.061C2.52745 46.6163 2.37301 45.7407 2.31492 45.4112C1.96121 43.4054 5.51573 41.6396 12.3236 40.4392C16.5062 39.7018 21.5423 39.2509 25.6431 39.2366C25.6548 39.9797 25.7297 40.7073 25.863 41.415C25.0461 41.7126 24.1926 42.0431 23.3148 42.403C22.7305 42.6425 22.451 43.3104 22.6905 43.8946C22.8718 44.3371 23.2987 44.6047 23.7489 44.6047C23.8933 44.6047 24.0403 44.5771 24.1822 44.5188C24.9759 44.1935 25.7474 43.8937 26.4879 43.6214C26.7512 44.308 27.0708 44.9666 27.4428 45.5911C24.6263 47.9563 21.4749 51.0514 18.8274 54.0438ZM25.1738 59.8041C24.8616 60.1928 24.4989 60.6302 24.1921 60.9958C19.7486 66.2913 16.4426 68.4875 14.8817 67.1775C14.6252 66.9624 13.9443 66.391 14.5072 64.5264C15.0758 62.6436 16.706 60.0896 19.3529 56.9351C22.0957 53.6663 25.6489 50.0985 28.7873 47.4481C29.2662 48 29.7892 48.5126 30.3544 48.9762C28.5283 52.1421 26.6344 56.1071 25.1738 59.8041ZM25.9329 73.5581C24.0191 72.8615 24.2671 68.9002 26.6315 62.4042C28.0877 58.4033 30.2089 53.8281 32.2496 50.2664C32.8843 50.6209 33.5518 50.9226 34.2466 51.1668C33.6145 54.7611 33.1915 59.1268 33.083 63.0949C32.9137 63.5944 32.7407 64.089 32.5675 64.5648C30.2031 71.0606 27.8468 74.2541 25.9329 73.5581ZM41.6419 63.5018C41.6534 64.019 41.6586 64.5563 41.6586 65.0537C41.6586 71.9667 40.5369 75.7739 38.5001 75.7739C36.4634 75.7739 35.3417 71.9667 35.3417 65.0537C35.3417 60.798 35.7698 55.775 36.469 51.7306C37.131 51.8361 37.809 51.8925 38.5001 51.8925C38.5517 51.8925 38.6024 51.8892 38.6538 51.8886C39.2894 55.4858 40.3853 59.7328 41.6419 63.5018ZM49.8447 60.9802C50.0108 61.4102 50.2167 61.9873 50.3685 62.4041C52.7328 68.9002 52.9809 72.8615 51.067 73.5581C49.1532 74.2555 46.7969 71.0609 44.4325 64.5648C42.9755 60.5616 41.661 55.6991 40.9348 51.6585C41.6608 51.5189 42.3651 51.3184 43.0425 51.0618C44.8763 54.2348 47.3666 57.8612 49.8447 60.9802ZM56.721 55.8095C56.9893 56.1182 57.3968 56.6373 57.647 56.9352C60.2939 60.0897 61.9242 62.6438 62.4927 64.5265C63.0556 66.3911 62.3747 66.9626 62.1183 67.1777C60.5575 68.4869 57.2514 66.2913 52.8079 60.9958C50.0666 57.7288 47.1707 53.6116 45.1059 50.0616C45.7336 49.6843 46.3251 49.2534 46.8775 48.7779C49.7028 51.147 53.3059 53.7181 56.721 55.8095ZM61.2779 48.5493C61.7088 48.7861 62.207 49.0706 62.6161 49.3068C68.603 52.7633 71.3391 55.6382 70.3208 57.4022C69.3025 59.1662 65.4443 58.2339 59.4575 54.7774C55.7594 52.6424 51.6337 49.7658 48.4782 47.1349C48.9382 46.5698 49.3498 45.9643 49.7098 45.326C50.7348 45.6987 51.8344 46.0675 52.9919 46.4255C53.1044 46.4604 53.2181 46.4769 53.33 46.4769C53.8182 46.4769 54.2703 46.1618 54.4221 45.671C54.6087 45.0677 54.2709 44.4274 53.6676 44.2407C52.6065 43.9125 51.5964 43.5755 50.6526 43.2354C50.8899 42.5518 51.0718 41.8428 51.1911 41.1127C54.8609 41.1108 59.2596 40.765 63.2029 40.177C63.6376 40.2453 64.2609 40.3656 64.6765 40.4388C71.4844 41.6393 75.0389 43.4049 74.6852 45.4107C74.6271 45.7404 74.4727 46.6158 72.5763 47.0605C70.6616 47.5095 67.6347 47.3749 63.5793 46.6597C61.9533 46.3731 60.2284 46.0053 58.452 45.567C57.8394 45.4161 57.2194 45.7901 57.0678 46.4033C56.9166 47.0163 57.2909 47.6361 57.9041 47.7875C59.0527 48.0711 60.1813 48.3257 61.2779 48.5493Z" fill="black"/>
</svg>
