<svg width="100" height="100" viewBox="0 0 100 100" fill="none" xmlns="http://www.w3.org/2000/svg">
<g clip-path="url(#clip0_83_570)">
<path d="M62.587 3.65069C62.587 3.65069 62.5851 3.65069 62.5851 3.64873C37.6808 -3.13213 11.7159 11.046 4.08572 35.9014C-3.70101 61.2596 10.5437 88.1287 35.902 95.9134C43.3317 98.196 50.8921 98.5863 58.0633 97.3594C59.0878 97.1841 60.1044 96.9759 61.1115 96.7354C63.4927 96.1806 66.3577 95.3158 69.4705 93.932C72.5644 92.5567 75.1133 91.0199 77.1135 89.6316C77.6425 89.2698 78.4046 88.7304 79.2946 88.0437C86.896 82.1793 92.8868 73.957 95.914 64.0972C98.6812 55.0854 98.6655 45.8838 96.3583 37.4141C78.7789 35.1538 64.8512 21.23 62.587 3.65069Z" fill="white"/>
<path d="M85.9817 34.5807C76.7641 30.6263 69.3719 23.2345 65.4174 14.0164L65.4155 14.0145C60.6835 11.9832 55.4722 10.8599 49.9985 10.8599C28.382 10.8599 10.8594 28.3825 10.8594 49.999C10.8594 71.6156 28.382 89.1382 49.9985 89.1382C71.6151 89.1382 89.1377 71.6156 89.1377 49.999C89.1377 44.5254 88.0144 39.314 85.9831 34.5821L85.9817 34.5807Z" fill="#FFEA60"/>
<path d="M36.2527 46.3577C38.8214 46.3577 40.9038 43.1117 40.9038 39.1076C40.9038 35.1034 38.8214 31.8574 36.2527 31.8574C33.6839 31.8574 31.6016 35.1034 31.6016 39.1076C31.6016 43.1117 33.6839 46.3577 36.2527 46.3577Z" fill="#8AA8BD"/>
<path d="M63.7488 46.3577C66.3175 46.3577 68.3999 43.1117 68.3999 39.1076C68.3999 35.1034 66.3175 31.8574 63.7488 31.8574C61.18 31.8574 59.0977 35.1034 59.0977 39.1076C59.0977 43.1117 61.18 46.3577 63.7488 46.3577Z" fill="#8AA8BD"/>
<path d="M85.9839 34.5807C89.2387 35.977 92.7204 36.9461 96.3591 37.4138L62.5859 3.64844C62.5859 3.65039 62.5879 3.65039 62.5879 3.65039C63.0562 7.28584 64.0245 10.7643 65.4196 14.0164C69.374 23.2345 76.7663 30.6265 85.9839 34.5807Z" fill="#F1C6DD"/>
<path d="M61.1115 96.7354C53.0547 98.6591 44.3932 98.5221 35.902 95.9135C10.5437 88.1287 -3.70101 61.2596 4.08572 35.9014C11.7159 11.046 37.6808 -3.13213 62.5851 3.64873L96.3583 37.4141C98.6655 45.8838 98.6812 55.0854 95.914 64.0972C92.6029 74.882 85.7457 83.7079 77.1135 89.6316" stroke="black" stroke-width="3" stroke-miterlimit="10" stroke-linecap="round" stroke-linejoin="round"/>
<path d="M85.9831 34.5824C88.0144 39.3143 89.1377 44.5257 89.1377 49.9993C89.1377 71.6158 71.6151 89.1385 49.9985 89.1385C28.382 89.1385 10.8594 71.6158 10.8594 49.9993C10.8594 28.3827 28.382 10.8601 49.9985 10.8601C55.4722 10.8601 60.6835 11.9834 65.4155 14.0147" stroke="black" stroke-width="3" stroke-miterlimit="10" stroke-linecap="round" stroke-linejoin="round"/>
<path d="M62.5859 3.64868C62.5859 3.65064 62.5879 3.65064 62.5879 3.65064C64.8521 21.23 78.7798 35.1538 96.3591 37.414" stroke="black" stroke-width="3" stroke-miterlimit="10" stroke-linecap="round" stroke-linejoin="round"/>
<path d="M36.2527 46.3577C38.8214 46.3577 40.9038 43.1117 40.9038 39.1076C40.9038 35.1034 38.8214 31.8574 36.2527 31.8574C33.6839 31.8574 31.6016 35.1034 31.6016 39.1076C31.6016 43.1117 33.6839 46.3577 36.2527 46.3577Z" stroke="black" stroke-width="3" stroke-miterlimit="10" stroke-linecap="round" stroke-linejoin="round"/>
<path d="M63.7488 46.3577C66.3175 46.3577 68.3999 43.1117 68.3999 39.1076C68.3999 35.1034 66.3175 31.8574 63.7488 31.8574C61.18 31.8574 59.0977 35.1034 59.0977 39.1076C59.0977 43.1117 61.18 46.3577 63.7488 46.3577Z" stroke="black" stroke-width="3" stroke-miterlimit="10" stroke-linecap="round" stroke-linejoin="round"/>
<path d="M68.8757 65.8328C58.45 76.2585 41.5468 76.2585 31.1211 65.8328" stroke="black" stroke-width="3" stroke-miterlimit="10" stroke-linecap="round" stroke-linejoin="round"/>
<path d="M68.043 63.3252L71.4029 66.5606" stroke="black" stroke-width="3" stroke-miterlimit="10" stroke-linecap="round" stroke-linejoin="round"/>
<path d="M31.9537 63.3252L28.5938 66.5606" stroke="black" stroke-width="3" stroke-miterlimit="10" stroke-linecap="round" stroke-linejoin="round"/>
</g>
<defs>
<clipPath id="clip0_83_570">
<rect width="100" height="100" fill="white"/>
</clipPath>
</defs>
</svg>
