<svg width="48" height="48" viewBox="0 0 48 48" fill="none" xmlns="http://www.w3.org/2000/svg">
<path d="M44 24C44 26.62 43.5 29.1399 42.56 31.4399C41.26 30.5399 39.68 30 38 30C36.12 30 34.38 30.66 33 31.76C31.16 33.22 30 35.48 30 38C30 39.5 30.42 40.92 31.16 42.12C31.24 42.26 31.34 42.4 31.46 42.54C29.16 43.48 26.64 44 24 44C12.96 44 4 35.04 4 24C4 12.96 12.96 4 24 4C35.04 4 44 12.96 44 24Z" stroke="#31FF9C" stroke-width="1.5" stroke-linecap="round" stroke-linejoin="round"/>
<path d="M18.7578 24.0001V21.2201C18.7578 17.7801 21.1978 16.36 24.1778 18.08L26.5778 19.46L28.9778 20.8401C31.9578 22.5601 31.9578 25.3801 28.9778 27.1001L26.5778 28.4801L24.1778 29.8601C21.1978 31.5801 18.7578 30.1801 18.7578 26.7201V24.0001Z" stroke="#31FF9C" stroke-width="1.5" stroke-miterlimit="10" stroke-linecap="round" stroke-linejoin="round"/>
<path d="M46 38C46 39.5 45.58 40.92 44.84 42.12C44.42 42.84 43.88 43.48 43.26 44C41.86 45.26 40.02 46 38 46C35.08 46 32.54 44.44 31.16 42.12C30.42 40.92 30 39.5 30 38C30 35.48 31.16 33.22 33 31.76C34.38 30.66 36.12 30 38 30C42.42 30 46 33.58 46 38Z" stroke="#31FF9C" stroke-width="1.5" stroke-miterlimit="10" stroke-linecap="round" stroke-linejoin="round"/>
<path d="M40.9795 37.96H35.0195" stroke="#31FF9C" stroke-width="1.5" stroke-miterlimit="10" stroke-linecap="round" stroke-linejoin="round"/>
<path d="M38 35.04V41.02" stroke="#31FF9C" stroke-width="1.5" stroke-miterlimit="10" stroke-linecap="round" stroke-linejoin="round"/>
</svg>
